<svg width="68" height="68" xmlns="http://www.w3.org/2000/svg"><title>blocks</title><desc>Created with Sketch.</desc><path d="M0 53.573v3.2l.004.05.015.16.023.137.043.14.05.137.07.13.075.12.095.114.097.106.11.09.133.094.043.03 16.03 9.216.075.04.184.077.13.04.127.026.145.015.093.004.09-.01.144-.014.13-.028.128-.04.184-.077.073-.034 15.28-8.774 15.274 8.774.075.04.183.077.13.04.128.026.145.015.097.004.09-.01.145-.014.13-.028.127-.04.184-.077.075-.034 16.03-9.207.044-.032.132-.094.11-.09.097-.105.093-.115.074-.12.07-.13.05-.136.044-.142.025-.137.015-.16.004-.05V38.354l-.027-.27-.012-.07-.078-.245-.012-.03-.11-.202-.038-.06-.164-.198-.004-.004-.196-.16-.063-.043-.057-.04-15.262-8.768V10.733l-.026-.27-.012-.07-.078-.246-.012-.027-.11-.203-.038-.06-.165-.198-.004-.005-.196-.16-.062-.043-.06-.04L34.33.203c-.47-.27-1.043-.27-1.512 0L16.79 9.412l-.06.04-.062.043-.196.16-.003.004-.166.198-.04.06-.112.206-.012.027-.078.247-.01.07-.03.27V28.27L.76 37.037l-.06.04-.062.042-.195.16-.003.004-.164.2-.035.054-.113.207-.008.024-.078.245-.013.07-.027.27v15.218zm3.03-12.597l1.42.812-1.42 1.418v-2.23zm0 6.52l4.142-4.142 1.535.883-5.676 5.676v-2.418zm16.032-34.15l1.414.813-1.414 1.417v-2.23zm0 6.52l4.14-4.14 1.536.882-5.676 5.676v-2.418zm45.055 21.11v2.23L62.7 41.788l1.417-.812zm-4.14 2.378l4.14 4.14v2.415l-5.676-5.677 1.536-.88zM55.714 45.8l8.402 8.402v1.695l-.46.262-9.474-9.477 1.532-.883zm3.683 12.804l-8.277-8.277V48.44l.337-.195 9.476 9.477-1.535.882zM55.14 61.05l-4.02-4.02v-2.414l5.556 5.555-1.536.88zm-12.605-.883l5.555-5.555v2.414l-4.02 4.02-1.535-.88zm-4.262-2.445l9.477-9.477.336.192v1.886l-8.278 8.28-1.535-.88zm9.813 3.597v2.034l-1.293-.742 1.293-1.293zm3.035 2.038v-2.035l1.294 1.293-1.293.742zm-15.57-7.2l-.46-.26V54.2l8.402-8.402 1.535.883-9.476 9.476zM32.06 20.812V22.7l-8.28 8.278-1.536-.883 9.477-9.477.338.195zm0 6.177V29.4l-4.02 4.02-1.534-.882 5.554-5.55zm0 6.707v2.035l-1.293-.743 1.293-1.293zM35.09 49.91v-2.415l4.14-4.14 1.535.882-5.675 5.672zm0-6.704v-2.23l1.418.812-1.418 1.418zm0-7.477v-2.036l1.293 1.293-1.293.742zm4.02-2.31l-4.02-4.02v-2.413l5.554 5.555-1.535.88zm4.26-2.444l-8.28-8.278V20.81l.336-.19 9.476 9.477-1.53.88zm4.716-17.63v2.23l-1.414-1.413 1.414-.816zm-4.14 2.38l4.14 4.14v2.414l-5.676-5.676 1.535-.878zm-4.26 2.445l8.4 8.403v1.696l-.46.26-9.474-9.476 1.535-.883zM19.52 28.53l-.462-.26v-1.697l8.403-8.402 1.536.884-9.477 9.476zm12.538 12.446v2.23l-1.418-1.418 1.418-.812zm-4.14 2.378l4.14 4.14v2.415l-5.675-5.677 1.535-.88zM23.656 45.8l8.402 8.402v1.695l-.46.262-9.477-9.477 1.536-.883zm3.684 12.804l-8.278-8.277V48.44l.336-.19 9.477 9.476-1.535.878zm-4.258 2.446l-4.02-4.02v-2.414l5.555 5.555-1.535.88zm-12.606-.883l5.555-5.555v2.414l-4.018 4.02-1.536-.88zm-4.26-2.445l9.475-9.477.337.195v1.887L7.75 58.604l-1.535-.882zm9.81 3.597v2.034l-1.292-.742 1.293-1.293zm3.036 2.038v-2.035l1.293 1.293-1.293.742zm-15.574-7.2l-.46-.26V54.2l8.4-8.402 1.537.883-9.477 9.476zm46.117-10.347l-12.988-7.46 12.988-7.46 12.985 7.46-12.985 7.46zM33.575 3.266l12.983 7.46-12.984 7.458-12.984-7.457 12.984-7.46zm-16.032 27.63l12.988 7.46-12.987 7.46-12.985-7.46 12.985-7.46z"/></svg>