<svg width="57" height="57" xmlns="http://www.w3.org/2000/svg"><title>Imported Layers 16</title><desc>Created with Sketch.</desc><path d="M43.68 15.09l13.5-13.5L55.59 0l-13.5 13.5L28.59 0l-13.5 13.5L1.59 0 0 1.59l13.5 13.5L0 28.59l13.5 13.5L0 55.59l1.59 1.59 13.5-13.5 13.5 13.5 13.5-13.5 13.5 13.5 1.59-1.59-13.5-13.5 13.5-13.5-13.5-13.5zM28.59 3.18L40.5 15.09 28.59 26.995 16.68 15.09 28.59 3.18zM3.18 28.59l11.91-11.91L27 28.59 15.09 40.495 3.18 28.59zm25.41 25.406L16.68 42.09l11.91-11.91L40.5 42.09 28.59 53.995zm1.59-25.407l11.91-11.91L54 28.59 42.09 40.495 30.18 28.59z"/></svg>