<svg width="57" height="57" xmlns="http://www.w3.org/2000/svg"><title>Imported Layers</title><desc>Created with Sketch.</desc><g><path d="M21.625 15c0 3.727-3.023 6.75-6.75 6.75s-6.75-3.023-6.75-6.75 3.023-6.75 6.75-6.75 6.75 3.023 6.75 6.75M48.625 15c0 3.727-3.023 6.75-6.75 6.75s-6.75-3.023-6.75-6.75 3.023-6.75 6.75-6.75 6.75 3.023 6.75 6.75M21.625 42c0 3.727-3.023 6.75-6.75 6.75s-6.75-3.023-6.75-6.75 3.023-6.75 6.75-6.75 6.75 3.023 6.75 6.75M48.625 42c0 3.727-3.023 6.75-6.75 6.75s-6.75-3.023-6.75-6.75 3.023-6.75 6.75-6.75 6.75 3.023 6.75 6.75"/><path d="M47.492 28.5C52.777 26.293 56.5 21.074 56.5 15 56.5 6.938 49.938.375 41.875.375c-6.074 0-11.293 3.727-13.5 9.008C26.168 4.098 20.95.375 14.875.375 6.812.375.25 6.938.25 15c0 6.074 3.727 11.293 9.008 13.5C3.973 30.707.25 35.926.25 42c0 8.062 6.562 14.625 14.625 14.625 6.074 0 11.293-3.727 13.5-9.008 2.207 5.285 7.426 9.008 13.5 9.008C49.938 56.625 56.5 50.062 56.5 42c0-6.074-3.727-11.293-9.008-13.5zM41.875 2.625C48.7 2.625 54.25 8.175 54.25 15S48.7 27.375 41.875 27.375 29.5 21.825 29.5 15 35.05 2.625 41.875 2.625zM36.258 28.5c-3.555 1.484-6.403 4.328-7.883 7.883-1.484-3.555-4.328-6.4-7.883-7.883 3.555-1.484 6.4-4.328 7.883-7.883 1.484 3.555 4.328 6.4 7.883 7.883zM2.5 15c0-6.824 5.55-12.375 12.375-12.375S27.25 8.175 27.25 15 21.7 27.375 14.875 27.375 2.5 21.825 2.5 15zm12.375 39.375C8.05 54.375 2.5 48.825 2.5 42s5.55-12.375 12.375-12.375S27.25 35.175 27.25 42 21.7 54.375 14.875 54.375zm27 0C35.05 54.375 29.5 48.825 29.5 42s5.55-12.375 12.375-12.375S54.25 35.175 54.25 42 48.7 54.375 41.875 54.375z"/></g></svg>