<svg width="62" height="62" xmlns="http://www.w3.org/2000/svg"><title>Imported Layers 16</title><desc>Created with Sketch.</desc><path d="M34.444.01c-.664.062-1.348.39-2.055.922-1.212.906-2.508 2.45-3.848 4.406-1.62-1.633-3.125-2.87-4.446-3.535-.418-.21-.82-.36-1.203-.453l-.172-.075c-.694-.23-1.366-.152-1.936.192-.57.343-1.047.937-1.457 1.718-.7 1.344-1.195 3.293-1.555 5.645-2.168-.766-4.062-1.23-5.54-1.254-.468-.008-.893.027-1.276.113l-.188.01c-.726.095-1.297.454-1.66 1.013-.363.558-.535 1.297-.562 2.183-.05 1.512.347 3.485 1.043 5.758-2.286.25-4.197.653-5.536 1.274-.426.195-.793.414-1.102.656l-.164.09c-.613.398-.973.972-1.06 1.633-.085.664.087 1.402.443 2.207.614 1.382 1.83 2.992 3.442 4.738-1.95 1.215-3.496 2.41-4.434 3.547-.296.362-.54.717-.714 1.073l-.106.148c-.38.626-.453 1.298-.242 1.93.21.634.68 1.228 1.355 1.802 1.154.98 2.947 1.898 5.158 2.77-1.23 1.94-2.106 3.687-2.457 5.12-.113.454-.167.88-.17 1.278l-.036.183c-.067.73.152 1.364.617 1.844.466.48 1.15.813 2.005 1.035 1.465.383 3.476.434 5.847.258-.265 2.285-.296 4.235.008 5.68.098.457.227.867.395 1.226l.05.176c.254.688.73 1.164 1.36 1.395.625.23 1.383.234 2.25.062 1.484-.294 3.32-1.118 5.383-2.302.75 2.172 1.57 3.942 2.468 5.114.286.37.582.68.887.93l.125.14c.528.508 1.164.73 1.828.668.664-.063 1.348-.39 2.055-.922 1.212-.906 2.51-2.45 3.853-4.406 1.62 1.633 3.125 2.87 4.445 3.535.418.21.82.36 1.203.453l.173.074c.695.23 1.367.153 1.937-.19.57-.345 1.043-.94 1.45-1.72.7-1.344 1.2-3.293 1.558-5.644 2.168.765 4.063 1.23 5.54 1.254.468.007.894-.028 1.28-.114l.184-.01c.727-.095 1.297-.455 1.66-1.013.364-.56.535-1.297.563-2.184.05-1.51-.348-3.488-1.047-5.758 2.285-.25 4.195-.652 5.54-1.273.42-.195.792-.41 1.1-.656l.165-.09c.613-.4.972-.973 1.058-1.633.087-.664-.085-1.402-.44-2.21-.614-1.384-1.828-2.99-3.442-4.735 1.95-1.215 3.496-2.41 4.434-3.547.297-.358.53-.714.707-1.07l.108-.152c.38-.625.457-1.297.246-1.93-.21-.632-.68-1.226-1.355-1.8-1.153-.98-2.942-1.903-5.153-2.774 1.226-1.94 2.1-3.687 2.453-5.12.113-.454.168-.88.172-1.274l.035-.184c.066-.73-.153-1.363-.617-1.843-.465-.48-1.15-.813-2.004-1.036-1.465-.382-3.477-.433-5.848-.257.266-2.286.293-4.235-.008-5.68-.097-.457-.226-.867-.394-1.227l-.05-.176c-.255-.687-.732-1.164-1.36-1.394-.63-.23-1.383-.234-2.254-.063-1.485.293-3.32 1.118-5.383 2.3-.75-2.17-1.572-3.944-2.47-5.116-.285-.367-.578-.676-.883-.922l-.125-.144c-.527-.508-1.164-.73-1.828-.668zm.18.675c.246-.02.488.024.734.118.223.086.453.23.684.414.71.804 1.004 2.086.902 3.77-.074 1.21-.363 2.628-.812 4.17-.864.595-1.75 1.236-2.657 1.915-.675-.875-1.343-1.71-2.004-2.496-.014-1.57.087-2.988.334-4.152.374-1.758 1.058-2.96 2.054-3.5.266-.145.516-.22.762-.24h.004zm-2.336 1.04c-.453.69-.785 1.566-1.004 2.59-.227 1.054-.324 2.285-.34 3.628-.484-.562-.965-1.105-1.433-1.61l-.593-.605c1.187-1.742 2.332-3.113 3.37-4.003zm-10.34.062c.242-.02.512.012.797.078.988.414 1.81 1.442 2.45 3.004.456 1.124.812 2.526 1.077 4.112-.52.91-1.043 1.868-1.562 2.875-.99-.492-1.95-.953-2.883-1.375-.695-1.41-1.223-2.726-1.504-3.882-.426-1.747-.332-3.13.332-4.05.352-.49.77-.72 1.293-.763zm2.672.953c1.082.684 2.3 1.72 3.613 3.047l-.375.555c-.39.605-.78 1.246-1.176 1.918-.257-1.352-.582-2.57-.996-3.586-.304-.75-.66-1.395-1.066-1.93V2.74zm12.73.078c.676 1.086 1.325 2.55 1.934 4.317l-.578.336c-.613.376-1.246.782-1.89 1.215.355-1.328.593-2.566.66-3.664.05-.807 0-1.542-.126-2.202zm-17.765 1.13c-.11.82-.024 1.75.22 2.773.252 1.047.698 2.2 1.264 3.42-.684-.298-1.35-.58-1.99-.833l-.792-.29c.316-2.085.746-3.82 1.297-5.07zm26.883 1.245c.6-.027 1.04.157 1.402.54.164.175.308.402.437.67.29 1.032 0 2.318-.824 3.79-.594 1.06-1.47 2.207-2.54 3.407-1.038.16-2.112.35-3.222.57-.23-1.082-.47-2.125-.72-3.117.667-1.422 1.37-2.653 2.096-3.594 1.102-1.423 2.24-2.208 3.372-2.263v-.004zm-1.766.035c-.707.426-1.383 1.07-2.027 1.9-.66.85-1.286 1.917-1.883 3.116-.192-.72-.39-1.414-.594-2.074l-.27-.8c1.83-1.056 3.45-1.798 4.774-2.145v.003zm-16.09.946l.508.52c.594.636 1.203 1.343 1.824 2.073.008.758.043 1.536.106 2.36.05.547.105 1.113.17 1.683-.616.493-1.24 1-1.87 1.52-.7-.395-1.394-.777-2.082-1.145-.043-.632-.086-1.25-.144-1.847-.074-.79-.184-1.54-.297-2.258.496-.863.988-1.69 1.477-2.45l.308-.452v-.004zM39.46 7.646l.226.684c.258.832.504 1.734.746 2.664-.316.688-.628 1.4-.925 2.168-.2.512-.387 1.047-.575 1.59-.773.176-1.554.363-2.343.558-.462-.66-.92-1.304-1.38-1.937.238-.586.468-1.16.676-1.723.273-.746.5-1.465.707-2.164.82-.562 1.625-1.093 2.394-1.566l.477-.277-.004.003zm-26.348.547c1.27.15 2.82.55 4.582 1.176l-.1.663c-.09.715-.166 1.46-.232 2.234-.816-1.105-1.637-2.062-2.453-2.8-.603-.543-1.204-.97-1.802-1.278l.004.003zm-1.848.012c1.012.027 2.125.602 3.293 1.656.903.814 1.83 1.923 2.754 3.236-.073 1.047-.124 2.136-.16 3.27-1.104-.016-2.17-.016-3.198.01-1.238-.968-2.28-1.925-3.04-2.847-1.14-1.387-1.65-2.677-1.456-3.79.105-.594.38-.98.832-1.246.207-.12.46-.21.742-.277l.23-.012h.004zm37.52.207c.137 1.27.09 2.87-.13 4.723l-.663.054c-.714.074-1.464.163-2.23.273.895-1.043 1.65-2.055 2.188-3.012.395-.706.676-1.386.84-2.034l-.004-.004zm-17.3 1.016c.515.625 1.034 1.277 1.562 1.96-.442.337-.883.684-1.332 1.032-.05-.45-.102-.906-.137-1.34-.05-.57-.074-1.117-.094-1.652zm-13.286.125l.684.246c.812.315 1.668.686 2.543 1.077.34.676.707 1.367 1.12 2.078.278.473.58.957.883 1.44-.343.712-.687 1.44-1.027 2.18-.8-.05-1.593-.093-2.37-.124-.31-.554-.617-1.09-.93-1.604-.414-.68-.832-1.31-1.25-1.907.075-.993.157-1.95.266-2.844l.074-.543h.008zm8.207.273c.066.508.137 1.02.19 1.563.052.483.087.99.12 1.495-.517-.274-1.025-.54-1.53-.793.41-.785.814-1.54 1.22-2.266zm9.484.15c-.157.487-.32.98-.508 1.49-.168.458-.356.93-.543 1.403-.35-.47-.693-.935-1.036-1.384.707-.53 1.402-1.03 2.085-1.51zm-13.684 1.26c.734.34 1.488.703 2.258 1.086-.254.492-.504 1-.754 1.512-.24-.383-.485-.77-.7-1.145-.29-.497-.55-.977-.8-1.454h-.004zM9.1 11.47c.258.786.735 1.587 1.4 2.4.682.83 1.58 1.675 2.62 2.526-.742.028-1.465.063-2.152.118l-.84.086c-.62-2.016-.98-3.762-1.028-5.13zm24.274.337c.406.535.82 1.086 1.23 1.648-.363.87-.773 1.77-1.203 2.684l-.64.17-.542-.32c-.172-1.008-.325-1.996-.438-2.94.535-.423 1.07-.84 1.594-1.24v-.003zm7.262.015c.19.79.378 1.602.558 2.442-.543.11-1.094.23-1.652.35.152-.425.3-.858.457-1.26.206-.536.417-1.04.632-1.532h.004zm-15.696.738c.598.305 1.203.625 1.82.954.05.945.075 1.933.086 2.94l-.5.435-.632-.056c-.59-.832-1.157-1.656-1.672-2.457.3-.617.597-1.223.902-1.813l-.004-.004zm6.356.872c.09.718.2 1.453.32 2.203-.594-.348-1.18-.692-1.766-1.028.485-.398.965-.793 1.446-1.175zm20.668.097c.922.02 1.707.11 2.406.245-.824.075-1.715.36-2.656.832-.965.48-1.99 1.168-3.047 1.993.137-.73.26-1.446.363-2.125.05-.293.066-.555.102-.836 1.01-.076 1.976-.126 2.828-.107l.004-.004zm-3.368.144c-.023.242-.05.47-.09.722-.128.864-.3 1.778-.488 2.72-.582.48-1.172.99-1.773 1.554-.4.375-.805.777-1.21 1.183-.77-.175-1.556-.347-2.357-.515-.128-.793-.26-1.574-.402-2.34.47-.422.926-.848 1.356-1.266.57-.554 1.09-1.1 1.586-1.644.98-.15 1.937-.278 2.828-.367l.547-.042.003-.004zm-30.792.13c.285.424.566.858.85 1.32.255.413.505.858.76 1.3-.583-.024-1.157-.043-1.724-.055.024-.884.067-1.74.117-2.57l-.003.003zm9.503 0c.532.288 1.067.585 1.606.885-.512.425-1.02.867-1.535 1.308-.008-.75-.035-1.48-.074-2.195h.003zm7.664.143c.357.488.708.992 1.064 1.496-.645.164-1.297.332-1.95.508.317-.68.61-1.347.887-2.007v.004zm9.396.278c-.352.37-.715.746-1.102 1.125-.347.34-.726.68-1.1 1.023-.107-.57-.216-1.133-.33-1.688.868-.17 1.712-.328 2.532-.46zm10.3.054c.477-.016.915.058 1.305.226.556.234.873.59 1.033 1.094.074.23.105.5.105.796-.187 1.055-1.004 2.082-2.387 3.05-.99.7-2.28 1.357-3.768 1.966-1.004-.305-2.055-.598-3.148-.883.26-1.075.5-2.114.703-3.118 1.218-.992 2.386-1.8 3.45-2.332 1.003-.504 1.913-.773 2.71-.8zm-13.36.507c.138.66.27 1.332.396 2.016-.707.63-1.465 1.26-2.25 1.898l-.648-.12-.352-.53c.285-.982.574-1.94.883-2.84.668-.15 1.324-.294 1.972-.427v.004zm-17.534.145c.395.605.813 1.222 1.246 1.843-.683-.058-1.363-.11-2.035-.156.262-.57.528-1.134.79-1.688zm5.64.043c.77.437 1.548.886 2.33 1.347l.05.274c-.723.207-1.446.418-2.172.636-.746-.086-1.488-.164-2.23-.238V16.7c.68-.59 1.355-1.163 2.03-1.725h-.007zm9.32.37c-.23.688-.452 1.4-.667 2.126-.383-.57-.765-1.132-1.148-1.69.613-.15 1.22-.298 1.816-.434zm-2.37.57c.504.728 1.008 1.47 1.512 2.228l-.074.27c-.743-.13-1.485-.255-2.235-.372-.637-.4-1.273-.792-1.906-1.183l.124-.265c.867-.235 1.727-.46 2.578-.676zm-20.64.966c.46 0 .945.013 1.417.02l-.024 1.688c-.383-.242-.773-.485-1.133-.727-.472-.32-.918-.64-1.35-.96l1.088-.02zm16.972.01l.28.167-.276.566-.016-.004-.17-.024-.115-.62.3-.087h-.003zm-15.023.018c.673.016 1.356.04 2.05.067.458.828.912 1.707 1.357 2.613l-.266.61-.59.226c-.893-.492-1.76-.99-2.573-1.492 0-.684.008-1.364.024-2.024zm-3.894.008c.598.46 1.23.926 1.914 1.387.453.308.938.61 1.426.918 0 .79 0 1.594.016 2.407-.746.3-1.477.605-2.192.914-.52-.362-1.03-.718-1.535-1.042-.668-.434-1.316-.816-1.953-1.176-.363-.922-.707-1.824-.996-2.676l-.164-.523.726-.074c.868-.068 1.797-.107 2.758-.134zm6.563.086c.604.027 1.214.062 1.835.1-.278.61-.547 1.224-.817 1.85-.336-.67-.676-1.32-1.015-1.946l-.004-.004zm11.542.12l.066.403-1.012-.125.942-.277h.004zm-9.137.013c.883.058 1.777.13 2.683.21l.16.223c-.562.5-1.128 1.004-1.687 1.52-.71.246-1.41.5-2.108.754l-.13-.266c.356-.824.72-1.637 1.083-2.437v-.005zm-12.988.04l.2.635c.23.68.483 1.387.76 2.114-1.214-.64-2.37-1.15-3.425-1.457-.778-.227-1.508-.348-2.18-.367 1.207-.418 2.78-.727 4.64-.926h.005zm23.67.163l.818.508-.992-.145.175-.362zm8.388.07c.106.598.207 1.203.31 1.813-.654-.132-1.318-.26-1.986-.386.578-.477 1.136-.953 1.675-1.426zm-15.293.035l.332.032v.625l-.008.007-.164.055-.375-.516.227-.203h-.012zm.864.086l.953.1-.958.302v-.403h.004zm2.28.24c.798.095 1.595.197 2.395.302l.118.563c-.648 1.26-1.35 2.535-2.093 3.82-.957-1.133-1.87-2.27-2.73-3.395l.015-.566c.766-.246 1.53-.488 2.297-.723zm18.177.19c-.168.792-.356 1.604-.56 2.436-.534-.136-1.085-.27-1.636-.398.32-.316.645-.645.96-.94.42-.392.83-.75 1.236-1.1zm-21.946.046l.235.332-.965.32.73-.656v.004zm7.098.195c.793.11 1.59.228 2.38.35.68.428 1.354.87 2.03 1.315l-.137.55c-1.132.852-2.316 1.7-3.543 2.536-.37-1.436-.703-2.85-.988-4.237l.258-.512zm23.672.216c-.426 1.207-1.164 2.63-2.168 4.203l-.626-.247c-.676-.246-1.387-.484-2.13-.72 1.263-.55 2.376-1.14 3.274-1.768.66-.465 1.215-.953 1.645-1.47h.004zm-51.848.21c.68-.02 1.46.1 2.32.352 1.164.34 2.48.938 3.882 1.72.387.976.817 1.98 1.278 3.015-1.004.465-1.965.93-2.875 1.398-1.536-.335-2.895-.745-3.973-1.245-1.633-.758-2.652-1.69-2.957-2.785-.164-.582-.086-1.047.21-1.484.138-.2.325-.395.56-.58.44-.237.956-.373 1.554-.39zm31.858.138l.97.16-.114.394-.856-.554zm-10.207.015l.35.452c-.044 1.418-.118 2.87-.227 4.348-1.356-.605-2.668-1.23-3.934-1.87l-.235-.525c.582-.554 1.17-1.1 1.757-1.644.758-.26 1.524-.515 2.29-.765v.004zm11.705.23l.3.054.184.278-.497.386-.016-.01-.144-.095.168-.613h.005zm1.414.26c.885.165 1.756.337 2.616.513.14.875.27 1.766.394 2.664l-.183.207c-.613-.433-1.223-.87-1.848-1.3-.4-.64-.806-1.27-1.212-1.9l.227-.183h.004zm-7.247.193c.27 1.25.574 2.52.91 3.804-.516.348-1.043.696-1.57 1.036-.42-.473-.833-.942-1.235-1.418.664-1.15 1.3-2.29 1.898-3.422h-.003zm-14.707.082c.617.375 1.26.75 1.92 1.12-.64.247-1.276.49-1.9.743-.01-.63-.017-1.25-.017-1.863h-.004zm21.312.242l.52.813-.832-.563.316-.254-.004.004zm3.82.11c.618.128 1.227.257 1.828.394-.507.52-1.015 1.063-1.523 1.63-.098-.684-.195-1.356-.3-2.024h-.005zm-15.433.01c.78 1.01 1.613 2.017 2.47 3.028-.318.54-.638 1.08-.966 1.618-.583-.243-1.158-.493-1.728-.743.102-1.32.18-2.625.227-3.898l-.005-.004zm-4.407.083l-.73.684-.176-.364.906-.32zm15.262.387c.668.445 1.336.89 1.992 1.344.426.684.844 1.376 1.262 2.067l-.367.434c-1.39.278-2.824.528-4.293.747.29-1.457.605-2.875.95-4.25l.452-.344.004.004zm7.004.055c.668.156 1.324.312 1.965.476-.165.652-.34 1.317-.524 1.988-.91.262-1.872.504-2.852.74l-.53-.392-.087-.633c.68-.76 1.355-1.495 2.027-2.175v-.003zm-23.676.058l.266.567-.008.01-.12.122-.56-.3.118-.287.312-.117-.008.004zm-1.343.508l.242.133c-.29.696-.578 1.39-.86 2.098-.53.528-1.054 1.06-1.574 1.59l-.23-.18c-.035-.898-.067-1.788-.086-2.667.82-.327 1.656-.656 2.504-.976l.005.004zm27.503.043c.856.224 1.68.45 2.477.685-.477.183-.965.363-1.477.535-.46.156-.95.3-1.433.45.152-.564.297-1.118.433-1.67zm-35.902.075c.442.262.887.528 1.344.824.406.265.824.554 1.246.843-.535.234-1.06.465-1.574.7-.36-.81-.7-1.598-1.012-2.368h-.004zm25.285.117c-.3 1.243-.573 2.52-.83 3.82-.618.09-1.24.173-1.864.255-.172-.61-.34-1.21-.496-1.817 1.094-.742 2.168-1.496 3.19-2.254v-.004zm-16.17.157l.36.194-.732.71.37-.905zm.855.452l.508.254c.578 1.293 1.14 2.636 1.683 4.015-1.484.044-2.937.048-4.355.02l-.433-.366c.285-.754.574-1.504.87-2.25.572-.563 1.15-1.12 1.728-1.676v.004zm29.242.133c.95.29 1.863.585 2.707.894l.512.198-.39.61c-.493.718-1.04 1.472-1.618 2.238-.734.18-1.488.38-2.273.63-.524.163-1.063.35-1.606.542-.618-.492-1.247-.985-1.895-1.48.226-.77.445-1.532.652-2.286.605-.18 1.203-.36 1.77-.55.757-.255 1.464-.52 2.144-.794l-.003-.003zm-33.85.218c.006.668.034 1.34.057 2.016-.594-.458-1.18-.896-1.758-1.314.555-.238 1.12-.472 1.696-.703h.004zm5.87.29c1.144.566 2.328 1.12 3.54 1.66-.052.62-.107 1.246-.17 1.874-.628.032-1.253.06-1.878.08-.482-1.236-.978-2.447-1.493-3.615zm18.26.003l.798.563-.27.303-.527-.867zm-38.35.3c.574.6 1.355 1.118 2.308 1.56.977.453 2.153.824 3.457 1.14-.656.348-1.293.696-1.89 1.04l-.723.44c-1.438-1.546-2.52-2.964-3.157-4.18h.004zm11.953.357c.773.546 1.558 1.148 2.355 1.77l.024.66-.44.456c-1.018-.06-2.014-.126-2.964-.227-.292-.618-.582-1.23-.855-1.832.614-.277 1.24-.554 1.88-.83v.003zm39.84.124c1.965.77 3.554 1.58 4.652 2.395-.777-.29-1.703-.418-2.754-.402-1.078.015-2.297.187-3.613.472.44-.597.863-1.183 1.254-1.754l.456-.71h.004zm-12.207.09l.25.176.05.328-.61.134-.007-.012-.09-.144.415-.477-.007-.003zm-12.34.012c.35.41.707.815 1.066 1.222l-.91.582-.99-.41c.282-.465.563-.926.837-1.39l-.004-.005zm16.308.12c-.16.582-.327 1.172-.502 1.766-.532-.403-1.07-.805-1.618-1.21.727-.177 1.438-.364 2.12-.56v.004zm-13.077.32c.137.52.282 1.043.43 1.567l-1.066.13-.72-.802c.458-.297.907-.594 1.356-.895zm-20.886.387c.226.504.468 1.02.714 1.535-.448-.05-.905-.1-1.334-.168-.567-.082-1.11-.18-1.637-.277.725-.363 1.475-.727 2.257-1.09zm31.16.012c.726.53 1.437 1.06 2.137 1.593-.254.847-.524 1.703-.8 2.566l-.255.108c-.364-.66-.728-1.32-1.103-1.98-.086-.746-.172-1.488-.26-2.227l.284-.065-.003.004zm-16.61.167c.493.215.99.43 1.493.64l-.567.915-1.074.058c.05-.54.1-1.078.144-1.613h.003zm15.8.02l.114.953-.502-.864.39-.09zm-23.788.078l-.364.937-.317-.254.68-.683zm22.85.125c.41.69.817 1.382 1.212 2.078.086.797.164 1.6.238 2.402l-.524.234c-1.375-.35-2.773-.754-4.187-1.187.89-1.184 1.796-2.328 2.698-3.418l.56-.11h.003zm-1.386.277c-.81.988-1.613 2.02-2.406 3.082-.598-.19-1.192-.384-1.79-.583.11-.62.22-1.238.34-1.852 1.313-.195 2.606-.41 3.86-.652l-.004.004zm-8.94.117l.514.578-.605.06-.56-.216.65-.422zm-2.544.23l.71.297-.51.314-.603.047.403-.655zm-11.028.317l.49.395v.016l-.06.165-.633-.027-.01-.31.228-.237h-.016zm18.094.075c-.102.528-.195 1.06-.29 1.594l-1.02-.345-.3-1.03 1.61-.216v-.005zm-26.62.06c.74.155 1.503.3 2.32.417.542.078 1.11.144 1.68.21.34.712.694 1.434 1.06 2.16-.538.595-1.065 1.188-1.577 1.774-.626-.1-1.24-.195-1.833-.27-.79-.097-1.54-.163-2.27-.21-.73-.676-1.43-1.34-2.058-1.985l-.376-.4.617-.38c.76-.437 1.58-.875 2.435-1.316zm47.132.12c1.797-.028 3.12.37 3.87 1.222.4.454.532.91.458 1.43-.035.238-.125.496-.254.762-.625.87-1.81 1.444-3.477 1.718-1.2.2-2.644.23-4.246.136-.774-.71-1.594-1.43-2.458-2.164.703-.85 1.367-1.69 1.985-2.507 1.53-.364 2.93-.583 4.12-.602v.005zm-22.65.098l.216.742-.566-.207-.41-.438.765-.097h-.004zm12.286.257c.497.383.99.766 1.47 1.145-.68.246-1.372.52-2.075.805.206-.657.41-1.305.604-1.95zm-14.832.024l1.008.386.883.32.734.79.66.676c.106.343.208.683.32 1.027l.302.89-.162 1.067-.117.94-.6.888-.512.793-.93.544-.804.492-1.075.082-.938.094-1.008-.387-.887-.32-.734-.79-.656-.67c-.106-.345-.207-.688-.32-1.032l-.3-.9.155-1.06.117-.93.605-.895.51-.793.93-.543.806-.492 1.07-.083.938-.093h.004zm-17.312.187c.723.072 1.46.13 2.22.177-.474.5-.94.996-1.392 1.496-.28-.562-.562-1.117-.828-1.672zm13.516.122l-.325.504-.518.3c.035-.257.05-.51.074-.765l.77-.038zm-1.305.07l-.112 1.07-.942.52c-.187-.51-.375-1.02-.566-1.52.54-.02 1.078-.042 1.62-.07zm-9.288.024l.277.012c.042.75.085 1.504.136 2.262-.25.707-.492 1.414-.73 2.12l-.286-.062c-.422-.793-.836-1.582-1.234-2.363.598-.656 1.21-1.31 1.836-1.965v-.004zm34.636.02c-.496.64-1.015 1.297-1.562 1.96-.426-.355-.863-.71-1.305-1.07.43-.148.86-.3 1.275-.433.547-.172 1.074-.32 1.593-.457zm-33.828.02l.407.023-.348.96-.06-.985zm6.297.027c.227.582.446 1.167.66 1.76-.55.302-1.105.6-1.656.888-.968-.9-1.94-1.776-2.91-2.608 1.278.015 2.587 0 3.91-.04h-.003zm-5.328.007l.566.012c1.085.914 2.175 1.88 3.26 2.89-1.315.68-2.628 1.317-3.913 1.907l-.55-.146c-.067-.8-.137-1.6-.192-2.398.27-.758.552-1.512.833-2.27l-.004.004zm16.187.84l.73.246c-.05.254-.09.508-.13.762l-.42-.434-.18-.574zm-29.02.156l.46.493c.5.514 1.04 1.038 1.603 1.57-1.375-.052-2.637-.01-3.72.17-.796.134-1.503.337-2.116.61.906-.902 2.187-1.863 3.773-2.847v.003zm42.227.043c.53.43 1.058.855 1.562 1.277-.43.515-.875 1.035-1.332 1.562-.933-.16-1.902-.356-2.887-.57l-.312-.587.195-.606c.946-.39 1.875-.757 2.77-1.078h.004zm-4.43.14l.48.855-.378.16c-.024-.34-.067-.68-.102-1.015zm-7.54.078c.517.172 1.032.34 1.544.5-.32.434-.64.87-.957 1.313l-.77-.757c.052-.356.122-.703.18-1.055h.005zm-10.108.367l-.075.598-.34.5-.264-.723.676-.37.004-.005zm12.19.3c1.267.396 2.52.763 3.755 1.09-1.155.54-2.323 1.122-3.5 1.73-.456-.424-.91-.858-1.362-1.295.367-.512.738-1.02 1.11-1.52v-.004zm-13.34.333l.368 1.012-.62.875c-.39-.38-.782-.754-1.173-1.12.478-.25.954-.51 1.43-.767h-.003zm-10.167.06c.3.592.616 1.19.933 1.788-.735-.156-1.453-.297-2.16-.422.398-.457.808-.91 1.226-1.367zm29.702.186l.15.27-.103.316-.614-.144v-.016l-.016-.168.586-.254-.004-.004zm5.656.156c.676.57 1.32 1.137 1.942 1.696-.512-.043-1.027-.09-1.566-.16-.48-.063-.985-.145-1.49-.223.38-.44.755-.88 1.118-1.316l-.004.003zm-14.21.31l.55.542-.445.63-.19-.567c.022-.2.05-.403.085-.602v-.004zm6.937.253l.55.144c.067.8.134 1.602.188 2.4-.27.757-.547 1.51-.828 2.268l-.566-.01c-1.083-.915-2.177-1.88-3.263-2.892 1.317-.68 2.63-1.316 3.918-1.906v-.004zm-19.85.062c.452.426.91.86 1.362 1.297-.367.512-.74 1.02-1.11 1.52-1.265-.395-2.52-.762-3.753-1.09 1.156-.54 2.324-1.12 3.5-1.73v.003zm20.944.215l.39.094-.313.906-.074-1H44zm-26.45.02l.074 1.008-.39-.094.312-.914h.004zm-10.118.04c.39.007.81.03 1.227.057.772.71 1.593 1.434 2.456 2.165-.703.85-1.367 1.687-1.984 2.503-1.528.364-2.93.582-4.12.602-1.798.027-3.123-.375-3.873-1.227-.4-.453-.532-.91-.458-1.433.036-.238.122-.488.25-.754.625-.875 1.81-1.45 3.477-1.723.886-.144 1.9-.207 3.022-.19zm2.08.112c.51.043 1.026.09 1.57.16.48.063.983.145 1.487.223-.38.44-.755.88-1.118 1.316-.676-.573-1.32-1.135-1.94-1.698zm35.4.03l.29.068c.422.793.832 1.578 1.23 2.363-.597.656-1.21 1.313-1.836 1.97l-.277-.013c-.044-.75-.087-1.504-.138-2.262.25-.71.493-1.414.73-2.12v-.005zm-8.01.177c.39.378.776.753 1.167 1.12-.477.25-.95.504-1.427.766l-.363-1.008c.203-.297.414-.586.62-.875v-.004zm-11.345.007l.196.574-.086.595-.55-.543.444-.63-.003.005zm20.325.027c.734.157 1.453.297 2.156.422-.4.453-.81.91-1.227 1.367-.3-.593-.612-1.19-.928-1.79zm-32.696.23c.934.16 1.9.356 2.887.57l.31.583-.193.61c-.945.39-1.87.76-2.77 1.082-.53-.43-1.058-.857-1.562-1.28.43-.514.875-1.038 1.332-1.565h-.004zm46.24.036c-.908.902-2.193 1.86-3.78 2.844l-.456-.49c-.504-.514-1.04-1.038-1.605-1.57 1.375.052 2.633.01 3.72-.17.8-.134 1.51-.337 2.123-.61l-.003-.004zm-10.78.262c.626.1 1.24.195 1.833.27.788.097 1.538.163 2.27.21.73.676 1.428 1.34 2.057 1.985l.375.402-.62.378c-.755.437-1.575.875-2.43 1.316-.74-.156-1.504-.3-2.32-.418-.544-.078-1.11-.144-1.68-.21-.34-.712-.696-1.434-1.063-2.16.538-.595 1.066-1.188 1.577-1.774zm-31.59.492l.615.144v.016l.008.168-.582.254-.152-.273.102-.313.01.004zm7.74.016l.765.757-.182 1.055c-.516-.172-1.028-.34-1.543-.5.32-.434.64-.87.957-1.312h.004zm11.105.347l.267.723-.68.375.074-.594.34-.5v-.003zm-17.128.06c1.37.35 2.774.753 4.188 1.186-.895 1.184-1.797 2.324-2.7 3.414l-.558.114c-.41-.69-.816-1.382-1.21-2.077-.087-.797-.165-1.598-.24-2.403l.524-.234h-.004zm19.707.022c.968.902 1.94 1.777 2.913 2.61-1.277-.017-2.586 0-3.91.038-.226-.582-.445-1.172-.66-1.766.55-.3 1.105-.594 1.656-.883zm-20.74.445l.103 1.01-.477-.854.38-.16-.005.005zm-6.23.29c.426.354.864.71 1.305 1.07-.426.147-.855.3-1.273.432-.547.172-1.074.32-1.594.458.496-.64 1.016-1.297 1.563-1.96zm14.508.057l.422.434.18.574-.73-.246c.05-.254.09-.508.128-.762zm-9.144.016c.363.66.726 1.32 1.1 1.98.087.746.173 1.49.263 2.227l-.285.066c-.727-.53-1.438-1.06-2.137-1.593.254-.847.524-1.703.8-2.566l.26-.108v-.004zm19.476.336c.188.51.375 1.02.567 1.52-.54.02-1.078.042-1.62.07l.112-1.075.94-.52v.004zm-20.382.047c-.207.653-.41 1.3-.606 1.946-.496-.383-.988-.766-1.47-1.145.68-.245 1.372-.514 2.076-.8zm30.71.063c.282.563.563 1.117.83 1.672-.724-.07-1.462-.13-2.22-.176.473-.5.937-.997 1.39-1.497zm-23.18.074c.598.188 1.192.383 1.79.582-.106.62-.22 1.238-.34 1.85-1.312.196-2.602.407-3.855.65.808-.99 1.61-2.02 2.406-3.08v-.003zm20.223.364c.017.33.044.653.052.98l-.406-.022.348-.957h.007zm-8.88.3c-.036.26-.052.513-.076.77l-.77.04.33-.508.522-.3h-.007zm-9.044.09l1.023.345.296 1.03c-.54.068-1.074.142-1.61.216.102-.526.196-1.057.29-1.593v.004zm-12.49.115c.62.492 1.248.988 1.896 1.484-.23.768-.445 1.53-.652 2.284-.606.18-1.204.36-1.77.55-.754.255-1.46.52-2.144.794-.95-.29-1.868-.586-2.71-.895l-.51-.2.39-.608c.49-.72 1.04-1.473 1.62-2.24.733-.178 1.487-.38 2.276-.63.523-.165 1.062-.353 1.605-.544v.005zm42.244.125c1.437 1.546 2.52 2.964 3.156 4.175-.574-.597-1.356-1.113-2.31-1.554-.975-.453-2.15-.824-3.456-1.14.66-.348 1.293-.695 1.89-1.04l.72-.44zm-28.114.332l.57.207.41.436-.765.098-.214-.742zm13.575.5c.352 0 .692.015 1.04.023l.433.367c-.285.75-.574 1.5-.87 2.246-.57.563-1.153 1.125-1.73 1.68l-.505-.254c-.578-1.293-1.145-2.637-1.684-4.016 1.117-.03 2.23-.05 3.317-.043v-.003zm2.176.046l.63.028.007.308-.227.24-.488-.396v-.02l.06-.16h.018zm-6.054.012c.48 1.235.976 2.445 1.492 3.613-1.145-.566-2.328-1.12-3.543-1.66.052-.62.11-1.246.173-1.875.63-.03 1.254-.058 1.88-.078zm7.68.067c1.02.058 2.02.125 2.968.226.293.617.582 1.23.856 1.832-.614.278-1.243.555-1.88.832-.77-.547-1.558-1.144-2.35-1.765l-.024-.665.433-.457-.004-.003zm-10.098.043c-.05.54-.102 1.078-.145 1.613-.493-.215-.99-.43-1.493-.64l.566-.915 1.075-.058h-.004zm-1.73.11l-.403.655-.714-.297.516-.316.6-.047v.004zm-24.356.143c-.442.598-.864 1.184-1.254 1.754l-.457.71c-1.965-.768-3.55-1.577-4.653-2.393.774.29 1.704.418 2.75.402 1.08-.016 2.297-.187 3.61-.473h.004zm39.777 0c.45.05.902.102 1.332.168.567.083 1.11.18 1.637.28-.727.362-1.477.725-2.258 1.085-.227-.504-.47-1.016-.71-1.532zm-18.28.098l.565.22-.648.422-.516-.578.598-.063zm-1.25.13l.714.8c-.458.298-.908.595-1.357.895-.137-.52-.28-1.043-.43-1.566l1.07-.13zm14.042.094l.312.254-.676.683.363-.936zm-24.266.058l.505.868-.39.09-.114-.958zm8.618.043c.172.606.34 1.21.496 1.813-1.097.742-2.168 1.496-3.19 2.254.3-1.242.573-2.516.83-3.817.618-.09 1.24-.172 1.864-.254v.005zm-11.61.05c.532.403 1.07.806 1.618 1.212-.726.176-1.433.363-2.12.56.163-.583.327-1.173.503-1.767v-.004zm15.646.087l.992.41c-.282.465-.563.926-.832 1.39-.352-.41-.707-.816-1.067-1.226l.907-.578v.004zm20.902.063c1.535.335 2.89.746 3.972 1.246 1.63.758 2.653 1.692 2.958 2.786.164.582.085 1.047-.21 1.484-.138.2-.326.395-.56.578-.94.512-2.258.516-3.875.04-1.163-.34-2.48-.942-3.886-1.72-.386-.972-.812-1.98-1.273-3.01 1.005-.466 1.966-.93 2.876-1.4v-.003zm-27.36.136c-.29 1.454-.61 2.872-.95 4.247l-.46.348c-.668-.445-1.332-.895-1.988-1.344-.426-.682-.844-1.374-1.258-2.065l.367-.434c1.39-.276 2.825-.526 4.293-.745l-.004-.004zm18.805.146l.232.18c.035.898.066 1.79.086 2.667-.82.33-1.657.657-2.504.977l-.246-.133c.29-.695.578-1.39.86-2.097.534-.532 1.058-1.063 1.577-1.594h-.004zm-10.854.273c.582.24 1.156.49 1.726.74-.1 1.322-.18 2.626-.226 3.9-.782-1.008-1.614-2.016-2.47-3.027.317-.54.638-1.08.97-1.618v.004zm-2.852.253c.418.473.828.945 1.23 1.422-.663 1.145-1.296 2.29-1.894 3.418-.27-1.25-.578-2.52-.91-3.805.516-.347 1.043-.695 1.57-1.035h.004zm14.48.09c.594.457 1.18.894 1.762 1.312-.558.24-1.125.473-1.7.708-.007-.668-.034-1.34-.058-2.02h-.003zm-24.988.21l.008.017.09.144-.414.477-.254-.18-.05-.323.612-.137.008.004zm-1.593.368l.53.392.087.633c-.68.76-1.356 1.496-2.024 2.175-.668-.156-1.324-.312-1.965-.476.166-.653.34-1.317.525-1.985.91-.262 1.87-.505 2.85-.74h-.002zm17.19.056c1.356.605 2.67 1.23 3.935 1.87l.234.52c-.582.555-1.168 1.106-1.758 1.65-.762.26-1.523.514-2.293.764l-.346-.453c.042-1.418.113-2.867.226-4.347l.004-.004zm13.81.094c.36.808.7 1.593 1.015 2.363-.44-.262-.887-.528-1.344-.82-.406-.266-.824-.555-1.246-.844.536-.236 1.06-.466 1.575-.7zm-29.016.132l.527.868-.797-.563.27-.305zm8.078.41c.37 1.438.7 2.856.988 4.243l-.257.508c-.797-.11-1.59-.23-2.383-.352-.676-.43-1.352-.87-2.028-1.312l.137-.55c1.133-.852 2.316-1.7 3.543-2.535zm-13.52.235c-.152.562-.296 1.117-.433 1.668-.856-.223-1.684-.45-2.484-.684.48-.182.968-.362 1.484-.534.46-.156.945-.3 1.434-.45zm4.817.062c.613.437 1.223.874 1.852 1.304.398.637.8 1.266 1.207 1.89l-.23.188c-.883-.164-1.754-.336-2.613-.512-.14-.875-.27-1.76-.395-2.66l.184-.21h-.004zm-12.078.035l.625.242c.675.246 1.386.484 2.128.722-1.262.55-2.375 1.14-3.278 1.77-.66.464-1.21.952-1.644 1.468.426-1.207 1.164-2.63 2.164-4.203h.004zm39.562.074c.52.362 1.032.717 1.535 1.042.67.433 1.318.816 1.955 1.175.363.922.707 1.825.992 2.676l.164.524-.718.074c-.867.067-1.797.106-2.758.134-.597-.46-1.226-.926-1.914-1.387-.453-.305-.937-.61-1.426-.914 0-.793 0-1.594-.015-2.41.745-.3 1.475-.606 2.19-.914h-.004zm-15.144.085c.957 1.132 1.867 2.265 2.73 3.39l-.015.575c-.762.246-1.532.484-2.293.718-.797-.093-1.598-.195-2.395-.3l-.118-.563c.648-1.262 1.352-2.535 2.094-3.82h-.004zm9.57.152l-.37.906-.36-.195.73-.71zm-22.558.38c.097.68.195 1.35.3 2.018-.613-.128-1.226-.257-1.824-.394.504-.52 1.012-1.062 1.524-1.624zm-7.88.507c1.004.304 2.055.597 3.153.883-.262 1.074-.5 2.113-.703 3.117-1.22.992-2.387 1.8-3.45 2.332-1.61.804-2.976 1.015-4.02.574-.554-.234-.866-.59-1.026-1.094-.074-.23-.106-.496-.106-.793.184-1.054 1.008-2.09 2.387-3.058.99-.7 2.28-1.352 3.765-1.965v.004zm33.294 0c.007.63.015 1.254.015 1.867-.617-.378-1.262-.753-1.922-1.124.646-.246 1.28-.488 1.904-.742h.004zm-3.99.21l.56.3-.12.287-.31.118-.265-.567.007-.01.12-.12.01-.005zm-.546.516l.176.367-.906.32.73-.687zm-17.273.082l.83.56-.315.25-.516-.81zm19.25.18c.894.492 1.76.992 2.573 1.492 0 .684-.008 1.363-.023 2.024-.672-.016-1.356-.04-2.05-.067-.458-.827-.91-1.706-1.356-2.612l.265-.61.59-.226zm-27.067.027c.535.136 1.085.27 1.636.398-.32.316-.645.64-.962.937-.418.39-.828.754-1.234 1.102.168-.793.355-1.606.56-2.438zm36.562.464c1.215.64 2.37 1.153 3.43 1.46.777.228 1.508.35 2.18.368-1.208.418-2.782.727-4.64.926l-.2-.637c-.23-.682-.49-1.39-.766-2.116h-.005zm-34.316.074c.768.176 1.557.348 2.354.516.13.793.262 1.574.402 2.34-.468.422-.925.844-1.355 1.262-.57.554-1.09 1.1-1.58 1.644-.982.15-1.94.28-2.833.37l-.547.044c.024-.242.05-.47.09-.722.13-.864.3-1.778.488-2.72.586-.48 1.172-.99 1.774-1.554.398-.375.804-.777 1.207-1.183v.003zm23.245.012l.13.262c-.357.828-.72 1.637-1.083 2.437-.883-.06-1.778-.126-2.684-.208l-.16-.222c.562-.5 1.125-1.004 1.68-1.516.71-.246 1.414-.504 2.117-.758v.004zm-16.383.113l.016.012.144.094-.172.608-.304-.054-.18-.274.496-.387zm.63.41l.854.555-.965-.164.11-.39zm-4.583.098c.65.134 1.31.263 1.98.388-.58.477-1.137.953-1.673 1.426-.105-.598-.207-1.203-.308-1.813zm20.768.28c.336.67.68 1.315 1.02 1.944-.606-.027-1.22-.063-1.836-.098.277-.61.547-1.222.816-1.847zm-18.1.24l.647.122.352.53c-.28.982-.574 1.94-.88 2.84-.667.15-1.327.294-1.976.427-.135-.66-.264-1.333-.39-2.017.708-.63 1.466-1.262 2.25-1.898l-.003-.004zm14.284.048l-.73.656-.235-.332.965-.32v-.004zm8.05.07c.384.242.774.484 1.134.727.476.32.92.64 1.35.96-.81.012-1.647.012-2.507 0 .015-.554.015-1.117.023-1.687zm-20.683.176c.74.13 1.484.254 2.234.37.636.403 1.273.794 1.906 1.184l-.125.262c-.867.235-1.727.465-2.582.676-.504-.727-1.008-1.47-1.508-2.227l.074-.27v.004zm11.132.254l.37.51-.23.208-.33-.027v-.626l.014-.008.164-.054.012-.004zm-.72.23v.402l-.952-.1.953-.302zm-6.862.082l.996.145-.176.363-.82-.508zm1.55.227h.016l.172.02.113.624-.3.087-.28-.168.277-.567.004.004zm.747.097l1.008.125-.942.277-.066-.403zm-6.113.055c.382.57.765 1.132 1.148 1.69-.613.15-1.22.297-1.816.434.23-.687.453-1.398.668-2.125zm8.45.237c.745.086 1.487.168 2.225.243v.293c-.68.59-1.356 1.164-2.032 1.722-.77-.437-1.547-.887-2.328-1.348l-.05-.277c.722-.207 1.444-.414 2.17-.633h.013zm3.268.344l.633.06c.59.832 1.156 1.656 1.672 2.457-.3.617-.598 1.222-.9 1.812-.6-.305-1.21-.626-1.823-.954-.05-.945-.074-1.933-.086-2.94l.5-.435h.004zm1.328.118c.684.06 1.364.11 2.036.157-.266.57-.528 1.136-.793 1.687-.395-.605-.81-1.223-1.247-1.844h.004zm14.883.172c.62 2.016.98 3.762 1.028 5.13-.257-.786-.738-1.59-1.402-2.4-.683-.83-1.578-1.675-2.617-2.527.743-.027 1.462-.066 2.15-.12l.843-.083zm-38.535 0c-.137.73-.262 1.442-.363 2.12-.05.294-.067.56-.106.84-2.106.157-3.89.122-5.235-.14.824-.074 1.72-.36 2.656-.832.966-.48 1.99-1.168 3.048-1.992v.004zm26.262.016c.8.05 1.594.094 2.37.125.31.552.618 1.095.93 1.606.415.68.833 1.31 1.25 1.907-.074.992-.156 1.95-.265 2.843l-.086.543-.68-.247c-.813-.316-1.67-.69-2.544-1.082-.34-.675-.703-1.362-1.12-2.073-.278-.473-.58-.957-.884-1.442.344-.71.688-1.437 1.028-2.18zm3 .152c.582.024 1.156.043 1.722.055-.023.883-.066 1.738-.117 2.57-.285-.426-.566-.86-.85-1.32-.255-.414-.505-.86-.76-1.3l.005-.005zm-22.754.05c.105.57.215 1.138.328 1.692-.867.172-1.707.325-2.53.457.35-.37.71-.742 1.1-1.12.348-.34.727-.684 1.102-1.028zm28.207 0c1.238.97 2.28 1.927 3.04 2.85 1.14 1.385 1.655 2.674 1.452 3.788-.105.593-.383.98-.836 1.246-.208.12-.458.21-.743.277-1.074.058-2.262-.51-3.52-1.645-.902-.813-1.828-1.922-2.753-3.23.074-1.048.124-2.142.16-3.274 1.105.016 2.175.016 3.2-.01zm-18.813.063l.547.322c.172 1.008.324 1.996.438 2.945-.535.422-1.07.84-1.594 1.238-.41-.535-.82-1.086-1.233-1.648.363-.875.773-1.774 1.203-2.688l.636-.173.004.004zm5.39.318c.01.75.036 1.48.075 2.195-.53-.29-1.066-.586-1.61-.887.513-.425 1.02-.867 1.536-1.308zm-6.702.04c-.313.68-.613 1.347-.89 2.007-.356-.49-.712-.99-1.067-1.496.65-.165 1.302-.337 1.958-.513zm2.46.323c.595.35 1.18.693 1.766 1.028-.484.4-.964.793-1.445 1.176-.09-.72-.2-1.453-.32-2.203zm-4.968.32c.46.662.914 1.306 1.375 1.935-.238.586-.465 1.164-.672 1.727-.273.75-.504 1.468-.715 2.168-.82.558-1.62 1.09-2.39 1.562l-.477.277-.23-.688c-.257-.832-.503-1.73-.742-2.656.317-.688.63-1.407.926-2.176.196-.508.387-1.047.574-1.586.774-.176 1.555-.363 2.344-.56l.008-.003zm-2.957.697c-.152.426-.3.86-.457 1.26-.207.537-.422 1.04-.637 1.533-.192-.79-.376-1.602-.555-2.442.543-.11 1.093-.23 1.652-.35h-.004zm10.19.29c.7.393 1.396.776 2.083 1.143.043.633.086 1.25.14 1.848.075.79.185 1.54.302 2.258-.496.863-.992 1.69-1.477 2.45l-.307.452-.504-.52c-.595-.636-1.204-1.343-1.825-2.074-.008-.757-.05-1.535-.11-2.36-.05-.546-.105-1.112-.172-1.683.62-.49 1.243-1 1.87-1.518v.004zm-12.366.163c.23 1.078.473 2.12.727 3.113-.668 1.426-1.367 2.656-2.098 3.602-1.098 1.422-2.238 2.207-3.37 2.26-.602.03-1.04-.15-1.403-.538-.164-.175-.313-.406-.438-.675-.29-1.032 0-2.313.824-3.786.593-1.058 1.468-2.207 2.538-3.406 1.036-.16 2.114-.35 3.223-.57h-.003zm18.012.328c.237.383.48.77.698 1.145.29.496.55.976.8 1.453-.733-.34-1.483-.703-2.253-1.086.254-.493.504-1 .754-1.512zm-22.052.375c-.894 1.043-1.648 2.055-2.187 3.012-.394.707-.68 1.386-.843 2.04-.14-1.27-.09-2.872.13-4.728l.667-.054c.715-.075 1.46-.165 2.23-.274l.004.003zm19.043.574c.517.274 1.028.54 1.532.793-.406.785-.812 1.54-1.218 2.266-.067-.508-.137-1.02-.192-1.563-.05-.484-.086-.992-.12-1.5v.004zm-8.12.016c.348.47.69.93 1.035 1.383-.707.53-1.402 1.03-2.086 1.51.156-.487.32-.98.503-1.49.164-.458.356-.93.547-1.403zm3.12.45c.052.448.103.905.138 1.34.05.57.074 1.116.094 1.65-.516-.624-1.036-1.276-1.563-1.96.44-.336.886-.683 1.33-1.03zm14.353.15c.816 1.107 1.636 2.064 2.45 2.802.6.543 1.202.97 1.8 1.278-1.27-.15-2.82-.55-4.582-1.176.024-.227.067-.434.102-.664.09-.715.164-1.46.23-2.235v-.004zm-7.344.415c.987.497 1.948.957 2.882 1.38.695 1.41 1.222 2.722 1.504 3.878.425 1.746.332 3.13-.332 4.047-.352.488-.77.72-1.297.762-.242.02-.512-.008-.8-.074-.99-.417-1.81-1.44-2.45-3.003-.46-1.125-.81-2.532-1.074-4.117.52-.91 1.043-1.868 1.562-2.872h.004zm-8.77.786c.675.875 1.343 1.71 2.003 2.496.008 1.57-.086 2.984-.332 4.148-.374 1.758-1.057 2.965-2.05 3.504-.53.29-1.007.313-1.5.12-.226-.085-.456-.23-.687-.417-.707-.805-1.004-2.082-.902-3.765.075-1.21.364-2.63.813-4.172.863-.594 1.75-1.235 2.656-1.914zm-7.317.824c.19.72.39 1.414.594 2.074l.27.8c-1.83 1.055-3.45 1.798-4.774 2.145.707-.425 1.383-1.07 2.027-1.898.66-.853 1.285-1.92 1.883-3.118v-.004zm19.723.113c.68.298 1.347.58 1.988.83l.793.288c-.316 2.086-.746 3.817-1.297 5.07.11-.82.024-1.753-.223-2.773-.253-1.047-.695-2.195-1.26-3.41V51.2zm-15.75 1.454c-.356 1.328-.59 2.567-.657 3.66-.05.81 0 1.543.124 2.203-.675-1.085-1.324-2.55-1.933-4.316l.58-.335c.612-.375 1.24-.78 1.886-1.21zm10.136.418c.258 1.352.58 2.574.993 3.59.304.75.664 1.398 1.074 1.934-1.083-.684-2.306-1.723-3.618-3.05l.375-.556c.39-.605.78-1.25 1.175-1.922v.004zm-4.26.32c.483.563.964 1.106 1.432 1.61l.59.605c-1.187 1.743-2.332 3.114-3.37 4.004.452-.69.784-1.565 1.003-2.59.227-1.053.324-2.284.344-3.627z"/></svg>