<svg width="75" height="75" xmlns="http://www.w3.org/2000/svg"><title>Imported Layers</title><desc>Created with Sketch.</desc><path d="M37.5 0C16.824 0 0 16.824 0 37.5S16.824 75 37.5 75 75 58.176 75 37.5 58.176 0 37.5 0zM19.44 6.145c5.162-2.997 11.466-3.22 16.736-.653-5.03 3.207-8.45 8.684-8.77 14.953-1.113-.55-2.28-1-3.504-1.332-4.55-1.242-9.277-.765-13.43 1.332.2-2.617.973-5.234 2.372-7.66 1.586-2.762 3.867-5.055 6.597-6.64zm45.083 15.793c-.132 4.55-1.98 8.812-5.246 12.05-1.035 1.024-2.175 1.907-3.394 2.645-4.387-2.383-9.528-2.88-14.266-1.508 1.184-1.187 2.215-2.53 3.06-4 1.667-2.895 2.534-6.094 2.577-9.332 5.543-3.043 12.058-2.79 17.27.145zM38.083 36.53c.276-5.71 3.272-10.956 8.01-14.053-.152 2.804-.956 5.562-2.405 8.074-1.36 2.36-3.227 4.376-5.446 5.903l-.16.078zm-1.685.99l-.253.18c-5.098 2.566-11.137 2.546-16.172-.055 2.54-1.313 5.375-2.016 8.324-2.016 2.824-.005 5.6.647 8.1 1.89zM28.55 22.402c2.423 1.543 4.462 3.657 5.942 6.22 1.39 2.4 2.21 5.085 2.406 7.827C32 33.374 28.878 28.116 28.55 22.4zm8.153 16.29l.21-.114c-.28 5.707-3.268 10.953-8.01 14.05.152-2.804.956-5.562 2.406-8.073 1.346-2.34 3.198-4.344 5.393-5.864zm2.07-1.22l.086-.062c4.984-2.508 10.867-2.558 15.828-.125-2.493 1.254-5.266 1.926-8.145 1.93-2.695 0-5.355-.602-7.77-1.742zM46.297 52.6c-2.352-1.536-4.34-3.606-5.793-6.114-1.418-2.453-2.242-5.203-2.414-8 4.863 3.114 7.933 8.395 8.207 14.114zM37.465 32.91c-.438-1.69-1.102-3.328-1.985-4.86-1.703-2.945-4.097-5.33-6.953-6.995.13-6.348 3.633-11.89 8.81-14.942C41.41 8.488 44.32 12.32 45.53 16.91c.368 1.39.56 2.805.59 4.21-4.382 2.61-7.468 6.9-8.655 11.79zM10.422 21.758c4.035-2.22 8.7-2.77 13.18-1.547 1.336.364 2.597.892 3.79 1.528.088 5.125 2.296 9.96 5.987 13.426-1.65-.445-3.36-.676-5.083-.676-3.383.004-6.633.875-9.488 2.496-5.408-3.34-8.408-9.195-8.388-15.226zm8.383 16.55c4.453 2.532 9.734 3.087 14.59 1.68-1.184 1.188-2.223 2.528-3.067 3.996-1.668 2.895-2.535 6.094-2.582 9.336-5.594 3.067-12.187 2.77-17.426-.246.09-4.617 1.942-8.945 5.25-12.222.99-.977 2.075-1.825 3.235-2.543zm18.73 3.887c.438 1.696 1.102 3.332 1.985 4.86 1.67 2.89 4.007 5.242 6.792 6.902-.187 6.328-3.734 11.84-8.94 14.848-3.92-2.39-6.724-6.13-7.9-10.61-.367-1.39-.558-2.804-.59-4.21 4.38-2.614 7.466-6.9 8.653-11.79zm3.93-2.52c1.648.446 3.36.677 5.082.677 3.328-.004 6.52-.844 9.344-2.414 5.598 3.308 8.708 9.27 8.688 15.414-4.035 2.214-8.7 2.77-13.18 1.546-1.39-.378-2.703-.933-3.937-1.613-.038-5.19-2.26-10.1-5.995-13.61zm15.527-2.398c1.102-.715 2.137-1.54 3.086-2.484 3.32-3.293 5.266-7.578 5.555-12.18 2.265 1.496 4.234 3.528 5.687 6.04 1.594 2.753 2.442 5.878 2.45 9.03.015 6.07-3.055 11.727-8.063 14.99-.195-6.1-3.29-11.95-8.715-15.396zm15.926-8.043c-.19-.39-.395-.773-.613-1.152-1.668-2.887-3.977-5.176-6.633-6.797-.024-3.586-1.09-7.035-2.977-9.988 4.98 4.797 8.602 10.988 10.223 17.937zm-8.406-8.593c-5.278-2.738-11.703-2.96-17.278-.132-.07-1.3-.27-2.602-.605-3.887-1.228-4.663-4.1-8.585-8.13-11.136 2.414-1.195 5.133-1.87 8.012-1.875 3.183-.005 6.312.828 9.047 2.394 5.307 3.05 8.682 8.61 8.952 14.637zM47.392 2.505c-.294-.016-.587-.027-.88-.027-3.328.003-6.453.85-9.18 2.335-3.144-1.687-6.672-2.42-10.164-2.187 3.277-.973 6.742-1.5 10.332-1.5 3.43 0 6.746.488 9.89 1.38zm-34.75 8.473c-.275.402-.54.816-.787 1.238-1.617 2.808-2.445 5.85-2.558 8.875-3.055 1.82-5.485 4.46-7.078 7.55 1.725-6.867 5.41-12.964 10.42-17.663zM9.29 22.434c.192 5.992 3.18 11.742 8.43 15.21-1.05.696-2.042 1.497-2.956 2.4-3.36 3.327-5.313 7.675-5.567 12.335C7.003 50.894 5.1 48.9 3.683 46.452c-1.594-2.754-2.442-5.88-2.45-9.03-.015-6.075 3.05-11.732 8.06-14.99zM2.13 45.96c.18.36.366.712.565 1.06 1.64 2.832 3.89 5.09 6.48 6.703.06 3.535 1.126 6.933 2.993 9.843-4.863-4.722-8.41-10.793-10.04-17.605zm8.21 8.43c5.305 2.81 11.797 3.07 17.426.212.07 1.296.27 2.597.605 3.882 1.196 4.547 3.962 8.39 7.833 10.942-2.38 1.148-5.047 1.797-7.867 1.8-3.184.004-6.313-.828-9.047-2.394-5.26-3.016-8.618-8.488-8.95-14.44zM37.5 73.876c-3.664 0-7.203-.55-10.54-1.563.458.032.915.05 1.376.05 3.258-.003 6.324-.815 9.012-2.24 3.093 1.737 6.582 2.526 10.047 2.374-3.15.89-6.465 1.38-9.895 1.38zm18.06-4.914c-5.263 3.06-11.72 3.22-17.056.485 5.07-3.164 8.54-8.613 8.922-14.875 1.16.59 2.39 1.07 3.672 1.422 4.547 1.238 9.273.762 13.43-1.332-.2 2.617-.973 5.235-2.372 7.66-1.586 2.762-3.87 5.06-6.597 6.64zm7.006-5.14c.2-.304.395-.613.58-.93 1.616-2.804 2.444-5.85 2.557-8.874 3.03-1.805 5.438-4.414 7.03-7.47-1.717 6.696-5.307 12.645-10.167 17.274z" fill="none"/></svg>