<svg width="67" height="67" xmlns="http://www.w3.org/2000/svg"><title>sacred-3</title><desc>Created with Sketch.</desc><g fill="none"><path d="M33.117 64.066c-.652-1.304-1.156-2.394-1.12-2.43.038-.03 1.12-.097 2.41-.144 1.698-.062 2.347-.043 2.347.074 0 .086-.457 1.22-1.012 2.516-.68 1.586-1.082 2.356-1.226 2.352-.137 0-.645-.856-1.403-2.372l.004.004zm-4.53 1.99c-.153-.255-1.396-4.482-1.41-4.794-.017-.414-.044-.41 1.944-.09.77.12 1.7.262 2.068.305.367.046.664.144.664.218 0 .075-.4.75-.887 1.496-.488.748-1.117 1.724-1.4 2.165-.463.73-.81.98-.98.7zm9.85-2.306c-.808-1.094-1.488-2.062-1.51-2.156-.064-.246.046-.285 1.51-.535.73-.126 1.665-.33 2.08-.447.514-.148.795-.172.893-.074.102.097.004.772-.305 2.148-.675 3.02-.687 3.054-.957 3.05-.144 0-.824-.79-1.71-1.984v-.004zm-15.46.832c-.227-1.133-.594-4.957-.49-5.07.083-.086.372-.043.79.12.364.14 1.32.462 2.125.704.805.246 1.49.523 1.52.62.03.1-.438.692-1.043 1.325-.607.63-1.396 1.478-1.755 1.88-.695.793-1.05.922-1.152.422h.004zm21.312-1.47c-.638-.604-1.493-1.41-1.895-1.776-.403-.37-.735-.75-.735-.848 0-.093.488-.347 1.086-.562.598-.215 1.488-.574 1.977-.797 1.336-.607 1.355-.59 1.297 1.15-.09 2.556-.22 3.822-.4 3.88-.093.03-.69-.44-1.327-1.047h-.004zm-26.478-.56c-.03-.06.004-1.286.083-2.732.113-2.082.183-2.625.335-2.625.106 0 .68.278 1.274.62.594.345 1.44.79 1.883.994.52.237.804.452.804.604 0 .145-.795.836-2.01 1.738-1.934 1.446-2.246 1.63-2.37 1.4h.002zm32.47-1.13c-.04-.063-.954-.676-2.036-1.367-1.09-.692-1.965-1.344-1.965-1.46 0-.118.33-.396.732-.615.402-.222 1.242-.738 1.87-1.156.626-.414 1.204-.754 1.286-.754.082 0 .19.403.246.895.055.492.203 1.672.34 2.625.133.95.22 1.777.187 1.836-.077.14-.565.133-.655-.012l-.004.008zm.52-19.113c.057.057.854-1.654 1.003-2.158.175-.597.558-.363 1.023.633.246.52.46 1.04.484 1.153.02.117.106.273.192.35.262.235 1.316 2.325 1.316 2.61 0 .145.055.262.125.262.223 0 1.914 3.477 1.766 3.625-.085.086-.85.102-2.042.043l-1.902-.098.168.63c.093.347.34 1.187.55 1.87.227.74.332 1.293.254 1.368-.074.074-.773-.02-1.726-.243-2.52-.578-2.29-.558-2.192-.187.215.81.43 3.504.293 3.64-.093.094-.68-.09-1.812-.574-.917-.394-1.75-.78-1.843-.86-.137-.112-.18.138-.187 1.17-.02 1.82-.157 2.85-.38 2.85-.288 0-3.238-1.94-3.3-2.167-.03-.118-.063-.05-.074.14-.008.192-.172 1.012-.368 1.82l-.42 1.786c-.04.172-.162.316-.27.316-.106 0-.802-.57-1.544-1.267-.738-.695-1.394-1.234-1.453-1.2-.058.036-.42.83-.8 1.755-.453 1.102-.765 1.692-.902 1.692-.117 0-.703-.66-1.3-1.47-.603-.808-1.146-1.468-1.212-1.468-.066 0-.57.69-1.125 1.54-.554.843-1.085 1.538-1.19 1.538-.102 0-.578-.805-1.063-1.785-.48-.98-.93-1.88-.992-1.996-.91-1.66-1.37-2.622-1.316-2.767.034-.093.006-.175-.064-.175-.21 0-1.234-1.96-1.164-2.23.06-.23.152-.224 1.418.09.746.182 2.22.4 3.28.487 2.193.176 2.298.258 1.427 1.098-.984.945-.965.972.742.97l1.507-.005-.816-.77c-.984-.93-1.003-1.223-.093-1.285.348-.023 1.035-.102 1.527-.172.496-.073.953-.097 1.016-.058.222.137.117.48-.344 1.145-.773 1.102-.766 1.063-.152.953 1.238-.226 2.433-.53 2.426-.617-.004-.05-.356-.316-.782-.586-.824-.523-1.176-.94-.86-1.04l1.442-.448 1.418-.443c.324-.09.31.403-.04 1.258-.194.485-.417.957-.49 1.047-.122.148 1.59-.477 2.58-.94l.388-.18-1.016-.45c-.558-.246-1.035-.535-1.058-.65-.028-.128.42-.428 1.28-.858.727-.36 1.388-.656 1.47-.656.28 0 .296.265.086 1.195-.122.516-.188.97-.15 1.008.107.106 2.466-1.335 2.466-1.507 0-.055-.234-.14-.524-.188-1.656-.273-2-.59-1.183-1.093.285-.176.855-.594 1.265-.926 1.032-.844 1.176-.75 1.055.687-.113 1.352-.13 1.356 1.418-.066l.98-.898-1.16-.103c-.636-.055-1.19-.156-1.234-.227-.108-.175 2.075-2.48 2.275-2.402.09.035.21.453.26.93.146 1.27.224 1.336.783.683.26-.303.69-.85.953-1.217l.477-.66-.578.085-1.142.172c-.42.06-.578.028-.636-.13-.102-.26 1.484-2.686 1.758-2.686.214 0 .886 1.918.808 2.3-.023.122.027.282.113.36.087.078.298.613.47 1.19l.37 1.244c.04.12.232-.028.532-.422.63-.82 1.65-2.504 1.52-2.496-.055 0-.668.09-1.363.19-.693.107-1.31.165-1.368.13-.21-.125-.09-.488.593-1.77.383-.718.7-1.347.7-1.39 0-.043-.485.07-1.075.254-.746.23-1.125.29-1.246.187-.094-.077-.195-.09-.222-.026l.2-.445zM33.82 57.694c0-.04-.343-.535-.77-1.097-.425-.563-.77-1.094-.77-1.18 0-.086-.06-.19-.135-.238-.083-.05-.102.008-.055.132.055.145-.238.56-.875 1.235l-.957 1.012.63.085c.82.113 2.936.148 2.936.05h-.004zm2.407-.09c.793-.085 1.523-.2 1.625-.253.128-.07-.102-.364-.77-.98-.527-.485-1-.98-1.05-1.11-.08-.188-.098-.184-.106.05-.004.157-.22.594-.477.98-.884 1.317-.966 1.466-.813 1.466.082 0 .797-.07 1.59-.153zm4.492-.988c.678-.22 1.335-.398 1.46-.398.13 0-.328-.353-1.016-.782-.684-.43-1.324-.887-1.414-1.016-.094-.13-.22-.188-.277-.125-.06.058-.032.105.058.105.267 0 .193.34-.327 1.52-.27.61-.492 1.152-.492 1.2 0 .105.478-.017 2-.505h.01zm4.194-1.77c.52-.277.945-.546.945-.593 0-.047-.55-.31-1.227-.586-.852-.352-1.22-.57-1.207-.727.012-.12-.035-.186-.106-.143-.07.043-.125.246-.13.457 0 .207-.12.89-.26 1.52l-.258 1.14.648-.277c.356-.153 1.075-.504 1.59-.785l.004-.004zm-13.144.075c-.364-.61-1.23-1.64-1.3-1.547-.115.152-1.115.91-1.474 1.117-.28.16-.28.164.063.25.467.113 1.932.32 2.42.34.282.012.364-.03.29-.156v-.004zm15.85-1.81c.532-.393 1.138-.858 1.345-1.034l.38-.316-1.286-.31c-.712-.17-1.353-.362-1.43-.425-.09-.074-.157.4-.185 1.344-.027.83.012 1.458.086 1.458.072 0 .564-.324 1.095-.72l-.004.005zm3.255-4.507c-.82-.066-1.492-.187-1.55-.28-.08-.122-.106-.122-.106.003 0 .094.053.203.124.246.07.043.172.63.226 1.3.055.677.137 1.286.18 1.36.043.075.637-.464 1.324-1.19l1.246-1.325-1.445-.118v.003zM26.91 60.595c-.07-.118-.926-3.005-1.035-3.5-.094-.42.133-.41 2.273.09 1.286.295 1.68.44 1.68.612 0 .28-2.402 2.898-2.664 2.898-.105 0-.22-.047-.254-.105v.004zm-13.898-1.208c-.043-.106.015-.532.133-.946.113-.413.378-1.518.59-2.46.21-.94.464-1.738.562-1.777.098-.04.387.12.644.348.255.23 1.052.868 1.767 1.415.715.55 1.277 1.062 1.254 1.137-.054.156-4.42 2.457-4.69 2.468-.098.004-.21-.078-.254-.187l-.004.004zm9.26-.543c-.147-.688-.385-3.465-.315-3.653.043-.108.02-.252-.047-.323-.137-.133-.406-1.8-.41-2.535 0-.31.062-.453.203-.453.113 0 .797.31 1.516.698.72.387 1.342.7 1.39.7.066 0-.262-1.173-.508-1.82-.043-.118-.024-.298.043-.407.1-.163.363-.093 1.45.384.73.32 1.4.582 1.495.582.094 0 .148.11.12.246-.026.136-.472.468-1.026.758l-.98.515.42.172c.23.094.892.313 1.466.48 1.172.352 1.496.65 1.05.96-.152.107-.652.49-1.11.845-.456.356-.944.645-1.085.645-.14 0-.254.09-.254.195 0 .25-2.768 2.324-3.1 2.324-.15 0-.28-.13-.32-.316l.003.004zm3.037-3.5c-.2-.637-.372-1.297-.384-1.47-.024-.354-.21-.616-.21-.292 0 .117-.353.383-.79.598-.434.21-.985.504-1.22.648l-.43.262 1.115.508c1.087.5 2 .87 2.188.89.05.004-.07-.51-.27-1.144zm27.44 1.812c-1.668-.726-2.273-1.05-2.273-1.226 0-.133.3-.48.664-.778.368-.297 1.087-.937 1.602-1.43.516-.492 1.012-.87 1.106-.84.093.032.308.528.48 1.102l.695 2.305c.457 1.49.493 1.8.21 1.83-.116.013-1.233-.42-2.483-.964zm-34.633-.347c-.023-.158.043-3.13.078-3.537.016-.19.13-.37.246-.394.306-.06 3.333 1.952 3.333 2.214 0 .133-.605.515-1.613 1.015-1.543.77-2.008.93-2.043.695v.004zm-9.222-1.396c0-.383 1.898-4.703 2.093-4.77.098-.03.465.278.824.692.356.414 1.012 1.137 1.458 1.605.445.47.808.947.808 1.06 0 .14-.726.426-2.414.934-1.328.406-2.492.734-2.59.73-.094-.004-.176-.117-.176-.25h-.003zm8.015-11.55c-.12-.094-.176-.09-.176.015 0 .085.05.155.11.155.058 0 .218.188.35.41.134.223.525.754.872 1.18.348.426.63.875.63 1s.046.195.105.16c.06-.035.67.465 1.356 1.113.688.65 1.27 1.176 1.297 1.176.027 0 .508.305 1.063.676.554.37 1.12.715 1.254.766.136.05.246.218.246.37 0 .223-.192.337-.985.58-.542.163-1.135.268-1.323.233-.187-.04-.31-.016-.266.054.04.066-.073.18-.25.25-.69.28-2.217.71-2.53.71-.18 0-.387.056-.46.126-.31.297-3.985 1.308-3.985 1.098 0-.33.894-3.856 1.02-4.012.148-.192.14-.196-.06-.04-.183.14-3.077.583-3.866.59-.306 0-.193-.476.514-2.183l.692-1.664-.938-.09c-.512-.048-1.39-.095-1.95-.102-.9-.016-1.015-.05-1.015-.29 0-.437 1.852-3.226 2.145-3.23.172 0 .367.254.62.8.204.446.587 1.177.852 1.634l.48.82.532-1.242c.293-.688.625-1.262.746-1.285.13-.028.18-.133.133-.258-.06-.164-.104-.172-.19-.035-.086.144-.344.128-1.262-.07-1.594-.344-1.856-.458-1.773-.766.12-.47 1.535-2.55 1.695-2.5.086.027.422.7.742 1.488.32.793.613 1.465.648 1.5.036.035.243-.367.46-.89.37-.88.552-1.153.775-1.157.047 0 .375.594.726 1.328.357.73.685 1.328.732 1.328l.238.25zm1.563 5.827c.043-.116-.082-.13-.453-.05-.282.06-.965.153-1.512.208l-1 .093 2.695 2.54.102-1.316c.054-.723.13-1.387.164-1.473h.003zm2.804.892c-.058-.484-.11-.977-.113-1.094-.004-.18-.117-.2-.64-.113-.348.06-.92.113-1.266.125-.348.012-.535.055-.418.098.117.047.523.343.91.664.707.59 1.5 1.183 1.59 1.19.027.005 0-.39-.06-.866l-.003-.004zm-5.816-2.137c.095-.46.26-1.12.364-1.468.106-.348.266-1.07.36-1.61.093-.54.238-1.07.324-1.18.086-.113.094-.164.015-.117-.078.047-.543-.008-1.03-.12-.49-.114-.946-.188-1.013-.165-.066.024.227.594.657 1.266 1.04 1.63 1.01 1.723-.496 1.67-.648-.025-1.292-.068-1.43-.09-.237-.052-.237-.032-.01.327.27.418.87 1.227 1.503 2.016.23.285.453.476.5.418.047-.054.164-.476.258-.94v-.005zm3.08-.804l.015-.804h-1.06c-1.222 0-1.222-.07 0 1.31.794.897.853.936.943.627.05-.18.097-.69.105-1.136l-.004.004zm37.956 5.755c-1.27-.305-2.367-.61-2.44-.684-.083-.08.034-.33.31-.66.247-.292.868-1.077 1.38-1.753.512-.676 1.012-1.227 1.11-1.227.218 0 2.437 4.188 2.437 4.602 0 .387-.027.383-2.8-.28l.003.003zM5.46 51.03c-.046-.077.536-1.1 1.298-2.272 1.484-2.28 1.785-2.535 2.11-1.8.1.226.59 1.03 1.09 1.788.5.762.89 1.473.866 1.586-.03.156-.48.266-1.79.434-2.85.37-3.48.418-3.573.26v.005zm54.403-1.956c-.886-.054-1.88-.105-2.207-.117-.777-.023-.77-.172.106-1.695.383-.672.828-1.516.984-1.87.184-.412.375-.65.527-.646.133.004.49.363.793.805.305.442.99 1.356 1.516 2.036.55.71.93 1.324.887 1.437-.048.122-.25.188-.536.172-.254-.01-1.184-.066-2.07-.12zm-54.328-2.82c-2.508-.133-2.66-.156-2.66-.426.004-.262 3.352-3.82 3.598-3.82.13 0 .402.5.734 1.328.29.734.664 1.61.828 1.953.363.74.375.93.082 1.046l-.25.062c-.012-.01-1.062-.078-2.332-.144zM55 44.918c-.04-.102.215-.863.562-1.688.922-2.187.954-2.02-.296-1.625-1.645.516-1.696.524-1.774.317-.066-.18.723-2.793.957-3.164.187-.305.323-.203 1.152.88.445.577.86 1.003.92.94.064-.062.22-.555.345-1.09l.395-1.664c.09-.38.234-.71.32-.742.195-.066 2.98 2.465 2.98 2.71 0 .103-.75.41-1.804.747-2.008.632-2.063.64-2.16.394-.043-.106-.075-.075-.082.07-.008.133.066.25.164.254.258.015 2.367 2.914 2.316 3.183-.062.322-3.88.787-3.996.486v-.008zm4.36-.512c-.048-.117.105-.738.335-1.375.434-1.198.637-1.862.785-2.526.137-.63.512-.47 1.848.773.684.64 1.512 1.403 1.84 1.703 1.016.926.996.934-1.996 1.27-1.078.12-2.133.254-2.344.293-.27.05-.41.012-.465-.137h-.004zM8.823 42.438l-1.652-.41c-.29-.07-.383-.176-.352-.372.055-.328 2.352-2.914 2.602-2.93.098-.003.234.133.305.305.285.724.988 3.177.988 3.45 0 .372-.22.368-1.89-.042zm-5.152-1.196c-1.297-.293-2.39-.57-2.434-.613-.043-.048-.043-.173 0-.286.102-.266 3.946-3.168 4.196-3.168.168 0 .73 2.262 1.035 4.164.092.574.175.578-2.802-.102l.004.004zm10.137-.695c-.498-.22-.97-.485-1.052-.594-.082-.105-.25-.172-.375-.148-.12.023-.785-.203-1.47-.504-.995-.44-1.237-.605-1.198-.808.05-.285 1.668-2.054 1.937-2.125.23-.058.414.34.524 1.164.05.388.19 1.005.312 1.376l.22.676.542-.887c.3-.488.547-.918.547-.957 0-.058-1.23-.926-2.082-1.468l-1.38-.875c-.636-.403-1.16-.83-1.16-.942 0-.12-.08-.172-.206-.125-.25.098-3.435-1.973-3.435-2.23 0-.098.79-.586 1.754-1.082 1.358-.704 1.78-.864 1.87-.72.09.145.133.122.192-.093.082-.312 2.54-1.633 2.77-1.488.073.047.132.015.132-.067s-.078-.152-.176-.156c-.254-.012-1.695-1.95-1.707-2.293-.007-.247.208-.364 1.32-.743.732-.246 1.408-.422 1.5-.39.095.03.208 0 .255-.075.047-.074-.015-.133-.133-.133-.308 0-1.496-2.39-1.332-2.684.082-.145.422-.25 1.004-.313.485-.05 1.14-.13 1.46-.172.49-.065.595-.038.65.18.054.216.07.22.082.025.02-.286.22-.348 1.52-.47.866-.08 1.015-.062 1.015.126 0 .34-1.53 2.61-1.76 2.61-.223 0-.216.016-.544-1.156-.12-.445-.277-.805-.344-.805-.136 0-1.464 2.51-1.374 2.6.03.036.425-.066.874-.218 1.08-.37 1.333-.363 1.333.043 0 .176-.055.383-.122.453-.066.074-.3.598-.52 1.164-.218.567-.472 1.06-.562 1.094-.092.035-.135.18-.096.324.04.145-.028.594-.145 1.004-.118.41-.26 1.047-.31 1.41-.132.91-.406.864-1.17-.19-.43-.59-.65-.794-.72-.66-.117.217-.453 2.788-.375 2.866.027.027.426-.23.88-.574.456-.344.913-.63 1.018-.63.153-.003.176.317.118 1.64-.085 2-.17 2.064-1.324.97l-.804-.77.07 1.45c.04.797.11 1.484.156 1.535.047.048.38-.233.73-.628.782-.87 1.122-.89 1.18-.062.02.308.102.996.18 1.527.113.762.102.992-.04 1.082-.14.09-.132.112.032.116.145 0 .336.418.606 1.297.636 2.102.6 2.16-.875 1.512l.01-.008zm-3.642-7.086c.457-.35 1.004-.726 1.215-.84.21-.108.305-.202.21-.202-.097 0-.59-.395-1.097-.875-.508-.48-.973-.895-1.03-.914-.06-.025-.15.16-.196.4-.114.556-.118 3.068-.008 3.068.047 0 .453-.286.91-.637h-.004zm3.18-5.538c.437-.242.843-.477.902-.53.13-.115-.69-1.833-.875-1.833-.07 0-.293.55-.492 1.22-.2.677-.39 1.306-.422 1.4-.077.25-.003.226.888-.262v.004zm47.46 11.672c-.03-.133 0-.465.063-.735.064-.27.196-1.215.294-2.098.137-1.254.223-1.61.383-1.61.316 0 4.473 2.73 4.473 2.942 0 .11-.735.41-1.856.765-1.02.32-2.133.675-2.476.785-.786.253-.82.253-.883-.043l.004-.008zm-8.652-.14c0-.134.137-.86.305-1.61.23-1.028.36-1.367.528-1.367.125 0 .516.386.88.855l.655.856.102-.536c.055-.297.172-1.04.258-1.652.09-.617.238-1.137.328-1.168.095-.03.57.328 1.056.797.488.468.957.85 1.04.85.17 0 .28-.843.354-2.714.028-.688.004-1.12-.055-.97-.085.235-1.015.985-2.316 1.872-.165.113-.67.5-1.122.867-.453.367-.945.664-1.09.664-.246 0-.258-.083-.176-1.07.05-.59.09-1.314.09-1.61 0-.762.313-.708 1.254.226l.774.766-.043-1.707-.043-1.71-.81.897c-.99 1.106-1.19 1.082-1.25-.148-.022-.492-.1-1.164-.18-1.496-.23-1.04-.046-1.09 1.17-.317.476.306.89.532.913.505.028-.027-.097-.742-.273-1.594-.176-.846-.277-1.592-.22-1.647.13-.13.84.113 2.154.734.554.262 1.042.477 1.09.477.195 0 3.242 1.324 3.42 1.488.267.238.18.324-1.514 1.594-.774.578-1.407 1.082-1.403 1.12 0 .04.724.532 1.607 1.1.883.565 1.605 1.104 1.605 1.202 0 .094-.8.574-1.785 1.062-.98.49-1.88.938-1.996 1.004-1.265.692-2.706 1.38-2.765 1.317-.043-.038-.144.016-.23.122-.156.207-1.985 1.195-2.203 1.195-.063-.004-.117-.113-.117-.246l.01-.007zm5.41-7.91c-.05-.482-.164-1.32-.254-1.868l-.164-.992-.898 1.027c-.492.567-.984 1.028-1.094 1.028-.113 0-.2.063-.2.14 0 .08.11.142.247.145.137 0 .72.313 1.293.696.578.378 1.074.694 1.106.694.03.004.015-.387-.036-.867v-.004zm-48.882 6.82c-.23-.106-.954-.41-1.61-.68-.86-.36-1.19-.563-1.19-.743 0-.288 2.82-2.47 3.065-2.378.093.036.238.715.34 1.586.097.836.214 1.727.253 1.977.062.38.035.453-.184.445-.145-.008-.45-.097-.68-.203l.004-.004zM2.77 35.866C1.2 35.177.504 34.805.527 34.664c.04-.207 4.65-2.652 4.762-2.527.034.04.105 1.125.155 2.414.086 2.188.075 2.345-.156 2.33-.138-.01-1.274-.466-2.524-1.017l.004.004zm58.585-3.2c-.05-1.315-.035-2.323.04-2.397.203-.204 4.906 1.84 4.906 2.132 0 .16-.714.586-2.312 1.383-1.27.637-2.363 1.153-2.43 1.153-.062 0-.156-1.02-.206-2.27h.003zm-56.8-1.007c-.27-.187-1.23-.82-2.137-1.402-.902-.582-1.645-1.153-1.645-1.27 0-.117.02-.21.047-.21.028 0 1.082-.317 2.344-.7 2.664-.812 3-.855 2.875-.37-.126.5-.5 3.022-.54 3.655-.047.688-.28.762-.95.293l.005.004zm2.976-2.855c-.714-.676-1.296-1.336-1.296-1.47s.024-.24.055-.24.843-.243 1.808-.54c.964-.297 1.828-.496 1.922-.438.128.078.082.477-.188 1.625-.195.836-.38 1.68-.402 1.87-.082.673-.535.478-1.9-.81v.003zM61.2 29.88c-.036-.107-.138-.6-.223-1.103-.086-.5-.278-1.394-.426-1.984-.148-.59-.27-1.14-.27-1.227 0-.242.49-.175 2.943.395 1.695.395 2.32.595 2.35.76.03.143-.64.737-1.925 1.706-2.14 1.613-2.35 1.738-2.45 1.453zm-8.68-.72c-.028-.098-.215-.68-.418-1.297-.586-1.797-.485-2.027.628-1.46.305.156.708.34.887.41.293.113.324.093.254-.18-.042-.168-.26-.746-.487-1.285-.5-1.188-.59-1.55-.422-1.657.07-.042.63.044 1.24.193l1.343.328c.195.048.215 0 .105-.28-.16-.43-1.152-2.418-1.406-2.82-.332-.532-.058-.602 1.977-.49 1.62.09 1.885.138 1.925.345.05.254-1.508 2.808-1.954 3.21-.14.13-.256.298-.256.376 0 .278-1.442 2.403-1.63 2.403-.105 0-.19.12-.19.27 0 .148-.262.687-.587 1.19-.558.876-.902 1.13-1.015.747h.008zm-2.883-6.492c0-.06-.352-.566-.782-1.125-.43-.563-.738-1.086-.69-1.164.093-.157 1.757-.196 2.276-.056.38.102.388.25.083 1.555-.183.8-.293 1.015-.492 1.015l-.393-.227zm7.433 5.383c-.25-.628-.992-3.163-.992-3.39 0-.308.336-.285 2.238.172 1.192.285 1.622.445 1.653.617.046.245-2.24 2.804-2.58 2.882-.105.023-.25-.102-.32-.28zM3.926 25.396c-1-.938-1.84-1.786-1.867-1.89-.064-.267.026-.286 2.756-.614 1.65-.2 2.48-.25 2.575-.152.098.094.048.38-.156.883-.164.41-.472 1.345-.687 2.075-.246.844-.46 1.34-.594 1.364-.113.018-1.027-.732-2.027-1.665zm46.918-.71c-.356-.72-.645-1.384-.645-1.478 0-.223.32-.21 1.26.04.903.24.98.25.98.09 0-.067-.342-.67-.768-1.345-.422-.676-.77-1.312-.77-1.422 0-.148.24-.195 1.016-.19 1.43.003 2.066.124 2.066.4.004.404-1.015 2.677-1.195 2.677-.102 0-.153.105-.118.246.09.352-.7 2.195-.96 2.246-.153.027-.41-.348-.864-1.266h-.004zM8.836 24.4c-1.016-1.38-1.266-1.925-.883-1.925.098 0 .934-.094 1.856-.21.92-.115 1.72-.208 1.78-.212.222 0 .086.535-.465 1.82-.313.73-.63 1.473-.695 1.645-.07.17-.22.316-.332.316-.11 0-.68-.648-1.262-1.438v.004zm51.207.49c-.32-.904-1.105-2.857-1.336-3.306-.176-.348-.223-.59-.137-.676.086-.086 1.118-.098 2.74-.035 2.22.086 2.604.133 2.647.324.055.26-3.34 3.937-3.633 3.937-.105 0-.23-.11-.277-.246h-.004zM5.766 20.3c-1.61-2.157-1.754-2.548-.895-2.396.25.043 1.42.12 2.603.176 1.578.07 2.164.145 2.218.28.04.103-.15.556-.424 1.005-.274.453-.727 1.305-1.008 1.895-.336.7-.594 1.074-.742 1.07-.133 0-.883-.875-1.75-2.03zm5.05.003c-.44-.887-.8-1.715-.8-1.84 0-.203.203-.22 1.855-.153 1.02.043 1.982.126 2.138.188.246.098.258.082.094-.12-.204-.25-1.14-3.24-1.14-3.638 0-.324.17-.312 2.198.133 1.203.262 1.72.437 1.72.574 0 .11-.57.804-1.27 1.55-1.126 1.195-1.235 1.355-.946 1.387.18.02.867.086 1.527.144l1.205.11-.106-.495c-.06-.274-.153-.985-.204-1.583-.117-1.277-.195-1.238 1.734-.85.93.183 1.192.292 1.285.522.067.16.122.215.13.118.01-.23.382-.223 1.554.046.737.168.968.278.96.454-.012.23-2.23 1.984-2.508 1.984-.082 0-.14-.46-.14-1.12 0-.618-.05-1.122-.114-1.122-.058 0-.57.422-1.136.937-1.16 1.06-1.14 1.138.308 1.154.586.007.832.07.89.222.098.25-1.86 2.38-2.187 2.38-.16 0-.246-.274-.35-1.118l-.142-1.117-.327.348c-.18.192-.605.735-.945 1.21-.618.857-.957 1.134-1.102.892-.043-.07-.254-.703-.473-1.41l-.394-1.285-.423.51c-.23.283-.7.982-1.035 1.556-.34.575-.71 1.044-.828 1.044-.133 0-.516-.613-1.016-1.613l-.012.005zm47.48.175c-.12-.097-.456-.585-.753-1.085-.293-.5-.777-1.27-1.07-1.707-.293-.438-.535-.864-.535-.942 0-.195.3-.254 2.52-.504 1.038-.117 2.093-.25 2.343-.293.33-.06.477-.024.532.124.063.164-2.242 3.95-2.727 4.477-.054.06-.195.028-.312-.07h.004zm-4.788-.527c-.137-.234-.63-.898-1.086-1.48-.46-.582-.813-1.13-.785-1.223.07-.21 3.758-.68 3.945-.504.12.113-.25 1.168-1.074 3.03-.317.712-.645.77-1 .173v.003zm-6.723-.652c-.95-.87-1.242-1.323-.96-1.49.058-.037.628-.107 1.265-.165l1.16-.102-.043 1.297c-.027.87-.094 1.316-.21 1.355-.095.032-.642-.375-1.212-.898v.004zm3.55.83c0-.06-.444-.595-.99-1.192-.548-.598-.962-1.172-.927-1.27.06-.148 2.105-.512 2.89-.512.204 0 .188.578-.046 1.52-.11.433-.235.96-.285 1.176-.06.26-.176.386-.364.386-.152 0-.277-.047-.277-.105v-.004zm-40.71-2.177c-.07-.094-.625-1.16-1.23-2.37-.71-1.42-1.055-2.247-.97-2.333.188-.18 5.137.973 5.216 1.22.036.1-.308.635-.76 1.19s-1.036 1.305-1.294 1.664c-.512.723-.762.887-.96.63zm34.344-.887c-.626-.425-1.118-.867-1.118-.992 0-.164.285-.304 1.015-.504.738-.2.977-.32.88-.437-.2-.238-2.49-1.418-2.58-1.328-.042.043.048.484.2.98.45 1.48.453 1.48-1.195.774-.617-.263-1.23-.517-1.363-.556-.134-.043-.248-.164-.248-.274 0-.257 1.93-1.253 2.262-1.164.16.043.258-.007.258-.132 0-.11.59-.493 1.336-.86 1.047-.52 1.36-.62 1.453-.476.204.328.44 2.855.282 3.043-.093.118-.09.188.02.223.187.063.394 1.05.406 1.9.008.792-.19.768-1.6-.197h-.01zm3.362-.046c-.227-.235-.746-.66-1.152-.942-.41-.28-.74-.613-.74-.738 0-.16.337-.336 1.165-.606 1.868-.605 1.793-.652 1.747 1.125-.04 1.39-.063 1.507-.325 1.546-.172.024-.445-.13-.695-.386zm3.578-.266c-.082-.152-.637-.703-1.234-1.223-.598-.518-1.106-1.026-1.13-1.128-.026-.1.134-.254.35-.34.674-.26 3.104-.968 3.33-.968.297 0 .266.367-.183 2.238-.336 1.387-.43 1.617-.688 1.652-.187.028-.355-.062-.445-.234v.004zm-28.012-.332c0-.172.06-.535.125-.805.07-.27.165-.664.21-.87l.087-.384-.734.434c-.402.238-1 .613-1.324.836-.606.418-.97.508-1.05.27-.028-.075-.01-.786.038-1.575.137-2.3.234-4.187.25-4.902.012-.578.05-.664.312-.664.41 0 3.2 1.84 3.2 2.113 0 .133-.293.355-.735.555-1.007.457-2.484 1.293-2.484 1.41 0 .05.11.13.246.172.77.238 2.09.855 2.24 1.047.154.194.177.178.18-.12.01-.72.642-2.858.86-2.9.12-.024.586.202 1.043.503.453.3.965.62 1.14.71.173.09.313.26.313.372 0 .113.122.207.27.207.148 0 .684.262 1.184.582.703.45.886.633.792.797-.11.196-1.812.802-2.707.966-.488.09-.496-.098-.035-1.137.43-.974.434-1.06.035-.958-.55.145-2.843 1.145-2.625 1.148.45.008 2.102.782 2.102.985 0 .2-2.418 1.54-2.777 1.54-.086 0-.16-.142-.16-.317l.003-.016zm32.067-.727c-.305-.39-.934-1.086-1.4-1.547-.463-.46-.846-.937-.846-1.062 0-.168.397-.348 1.503-.68.828-.25 1.922-.594 2.43-.765.94-.32 1.25-.328 1.25-.038 0 .09-.446 1.207-.985 2.484-.64 1.508-1.06 2.324-1.19 2.324-.12 0-.458-.32-.763-.71v-.005zM16.96 15.22c-.15-.247-.52-3.845-.405-3.962.19-.192 3.68 1.29 3.68 1.562 0 .125-.297.442-.665.7-.367.26-1.03.773-1.476 1.144-.82.676-1.004.766-1.133.555zm21.056-.736c-.5-.136-1.078-.254-1.282-.26-.375-.013-.593-.28-.422-.517.05-.07.422-.38.83-.68.4-.304.686-.6.624-.66-.06-.058-.77-.19-1.575-.293-1.085-.136-1.475-.238-1.502-.394-.063-.32 1.824-2.3 2.093-2.196.31.118 1.415 2.32 1.333 2.645-.043.163.004.26.13.26.24 0 1.226 1.92 1.12 2.184-.09.235-.172.227-1.343-.094l-.004.004zM12.484 13.41c-.125-.44-.45-1.492-.718-2.336-.727-2.258-.68-2.375.7-1.754.46.207 1.495.653 2.292.992.797.336 1.484.7 1.527.81.047.116-.172.394-.543.694-.34.278-1.062.93-1.61 1.454-.542.523-1.085.95-1.206.95-.145 0-.293-.27-.442-.806v-.004zm16.852.617c0-.27 1.11-1.918 1.352-2.01.093-.037.144-.138.113-.232-.062-.187 1.466-2.504 1.7-2.578.184-.055 1.875 2.133 1.875 2.426 0 .11.055.195.125.195s.453.414.852.922c.843 1.074.85 1.402.035 1.27-.29-.047-.98-.086-1.54-.086-1.26 0-1.3-.16-.312-1.262.824-.914.81-.926-1.258-.77L30.95 12l.8.738c1.227 1.133 1.207 1.153-1.473 1.414-.812.082-.945.063-.945-.132l.004.007zm17.36-.79c-.81-.534-1.567-1.065-1.692-1.186-.12-.12-.31-.214-.414-.214-.11 0-.828-.277-1.598-.613-.77-.34-1.512-.653-1.648-.696-.133-.043-.242-.175-.242-.29 0-.268 2.906-2.464 3.144-2.374.125.047.27.72.43 2.008l.25 1.94 1.69-.892c1.13-.594 1.755-.852 1.888-.773.156.097.172.464.07 2.05-.066 1.063-.187 1.95-.262 1.973-.074.023-.8-.395-1.61-.926l-.007-.004zm-6.86-.35c-.918-.31-1.328-.512-1.328-.664 0-.285 1.988-1.817 2.285-1.762.238.044.977 1.97.992 2.6.012.413-.265.39-1.95-.173zm11.832-.57c-.31-.27-1.082-.88-1.72-1.348s-1.14-.927-1.112-1.01c.062-.202 4.29-2.437 4.637-2.452.234-.012.254.058.172.652-.223 1.594-1.004 4.582-1.207 4.613-.114.02-.458-.187-.77-.457zm-24.57.1c0-.417 1.066-2.68 1.265-2.68.258 0 2.164 1.83 2.164 2.075 0 .168-.3.286-1.19.465-2.33.477-2.243.473-2.243.14h.004zm-10.71-1.597c-.072-.19-.634-4.722-.634-5.07 0-.266.39-.28.687-.023.122.105 1.087.738 2.138 1.406 1.313.832 1.895 1.277 1.844 1.414-.043.11-.43.398-.867.644-.438.248-1.246.755-1.8 1.126-1.06.715-1.27.793-1.372.504h.004zm7.854-.078c-.047-.078.07-.793.262-1.59.19-.797.35-1.547.35-1.664 0-.12.087-.336.193-.48.187-.254.203-.25.594.054.868.676 2.555 2.426 2.493 2.586-.035.09-.41.247-.832.344-.42.098-1.128.305-1.573.46-1.137.4-1.39.45-1.49.29h.005zm15.246-.738c-.465-.145-1.125-.3-1.472-.348-1.45-.195-1.454-.316-.036-1.77.598-.61 1.137-1.198 1.2-1.312.058-.11.226-.2.363-.2.203 0 .355.345.766 1.716.28.94.51 1.824.51 1.96 0 .305-.246.298-1.332-.042v-.004zm8.188-.57c-.348-.215-1.18-.657-1.852-.985-.828-.4-1.226-.67-1.226-.83 0-.132.3-.46.664-.725.363-.27 1.254-.938 1.972-1.485.72-.547 1.407-.992 1.528-.992.19 0 .207.297.117 2.543-.056 1.4-.134 2.618-.165 2.708-.098.254-.356.2-1.035-.227l-.004-.006zm-19.32-.012c0-.363 1.445-3.606 1.61-3.606.19 0 2.452 2.95 2.452 3.2 0 .09-.078.164-.176.164-.097 0-.867.093-1.715.207-1.882.254-2.172.258-2.172.035zm7.21-.113c-.386-.06-1.183-.12-1.777-.122-.595-.008-1.118-.08-1.17-.16-.124-.2 1.915-3.337 2.177-3.344.133-.004.535.625 1.074 1.67.767 1.494.84 1.705.657 1.892-.117.113-.222.2-.234.188-.016-.008-.34-.067-.727-.13v.005zm-14.738-.943c-.308-.1-.11-5.35.207-5.457.094-.03.66.41 1.262.977.6.566 1.457 1.37 1.902 1.785.445.414.792.84.77.95-.025.105-.42.32-.884.476-.46.156-1.344.515-1.96.804-.618.29-1.204.5-1.298.465zm22.582-1c-.445-.195-2-.687-3.387-1.07-.09-.024-.152-.14-.132-.258.05-.325 3.348-3.864 3.606-3.864.184 0 .27.324.46 1.78.282 2.142.345 3.564.15 3.614-.08.024-.39-.07-.7-.207l.004.004zm-18.19-.832c-.048-.078.163-1.234.47-2.566.31-1.333.564-2.474.564-2.532 0-.06.113-.106.254-.106.308 0 3.156 3.7 3.168 4.117.008.238-.137.304-.973.448-.894.153-2.344.477-3.098.696-.164.047-.34.023-.386-.06zm13.62-.508c-.06-.058-3.328-.496-3.723-.496-.097 0-.18-.07-.18-.16 0-.33 2.73-4.444 2.958-4.452.167-.004.328.32.6 1.22.208.674.528 1.717.72 2.32.437 1.39.44 1.636.015 1.636-.18 0-.355-.028-.39-.067zm-8.738-.523C29.992 5.22 31.867.78 32.164.62c.203-.108.402.196 1.367 2.11.618 1.23 1.126 2.368 1.126 2.52 0 .27-.086.285-1.504.285-.828 0-1.836.043-2.238.09-.578.07-.75.043-.812-.12zM33.13 51.273c-.38-.765-.677-1.402-.657-1.42.02-.02.656-.056 1.41-.083.996-.04 1.37-.024 1.37.042 0 .05-.265.71-.59 1.473-.397.93-.632 1.38-.714 1.38-.08 0-.38-.505-.82-1.388v-.004zm-2.653 1.16c-.09-.148-.817-2.62-.825-2.804-.01-.24-.027-.24 1.137-.052.448.07.99.152 1.206.18.215.023.39.082.39.125 0 .047-.234.437-.52.875l-.82 1.265c-.27.43-.476.575-.573.41h.004zm5.76-1.347c-.47-.637-.87-1.207-.882-1.262-.04-.144.028-.168.883-.316.43-.074.977-.192 1.22-.262.3-.086.464-.1.522-.043.06.055.004.45-.18 1.254-.398 1.766-.402 1.785-.562 1.785-.086 0-.48-.46-1-1.16v.004zm-9.042.488c-.133-.664-.347-2.898-.285-2.965.047-.048.22-.024.465.074.21.086.773.27 1.242.41.47.144.87.308.89.363.02.06-.257.406-.61.773-.354.368-.815.864-1.022 1.102-.41.465-.617.54-.676.246l-.005-.004zm12.465-.86c-.375-.355-.87-.823-1.11-1.042-.234-.22-.43-.442-.43-.496 0-.06.286-.207.634-.328.348-.13.87-.336 1.156-.465.78-.356.797-.344.758.672-.05 1.496-.13 2.238-.234 2.273-.055.02-.407-.258-.778-.613h.004zm-15.484-.327c-.016-.035.004-.75.047-1.598.066-1.22.105-1.536.2-1.536.06 0 .397.164.745.363.348.2.844.46 1.102.578.304.137.472.266.472.356 0 .087-.465.49-1.176 1.016-1.132.844-1.312.954-1.386.82h-.004zm18.996-.66c-.024-.036-.56-.395-1.192-.8-.636-.404-1.148-.786-1.148-.853 0-.07.19-.23.43-.36.234-.128.726-.43 1.093-.675.368-.243.704-.438.75-.438.047 0 .114.234.145.52.03.288.12.98.2 1.534.077.56.128 1.043.11 1.074-.044.082-.333.08-.384-.003h-.004zm.305-11.184c.035.03.5-.97.585-1.262.102-.35.325-.214.602.372.145.305.27.606.28.676.013.067.064.16.115.207.15.133.768 1.36.768 1.527 0 .086.03.153.074.153.13 0 1.12 2.03 1.032 2.12-.05.052-.5.06-1.196.024l-1.113-.055.098.367c.054.203.2.695.324 1.094.133.433.19.754.148.8-.043.047-.453-.01-1.01-.144-1.474-.34-1.34-.328-1.283-.11.125.473.25 2.05.172 2.126-.054.058-.398-.05-1.058-.336-.54-.227-1.024-.457-1.082-.504-.08-.067-.102.078-.11.683-.012 1.064-.09 1.67-.222 1.67-.168 0-1.89-1.134-1.93-1.266-.016-.07-.04-.032-.043.082-.01.113-.103.59-.216 1.062l-.246 1.047c-.023.102-.094.184-.156.184-.063 0-.47-.333-.903-.74-.434-.41-.817-.722-.852-.703-.035.02-.246.485-.47 1.028-.26.64-.448.988-.526.988-.07 0-.41-.387-.762-.86-.352-.472-.668-.86-.707-.86-.04 0-.332.407-.656.903-.325.496-.637.9-.696.9-.057 0-.338-.47-.62-1.044-.28-.574-.543-1.102-.582-1.168-.53-.97-.8-1.535-.77-1.617.02-.055.005-.102-.038-.102-.12 0-.723-1.148-.68-1.308.035-.133.09-.13.828.054.438.107 1.3.24 1.918.29 1.28.102 1.344.15.836.64-.574.556-.562.57.434.567l.882-.004-.472-.45c-.578-.542-.59-.714-.055-.75.204-.014.603-.057.896-.1.29-.04.554-.06.593-.035.128.078.066.28-.204.667-.45.645-.445.622-.09.555.727-.13 1.426-.308 1.422-.36-.004-.03-.207-.183-.457-.34-.483-.304-.686-.554-.503-.608l.844-.262.83-.258c.187-.055.18.234-.024.734-.114.286-.246.56-.29.61-.07.086.93-.278 1.51-.55l.225-.106-.593-.262c-.328-.145-.605-.317-.617-.38-.015-.077.246-.25.75-.5.426-.21.81-.386.86-.386.164 0 .175.156.05.7-.07.304-.11.57-.086.59.063.062 1.442-.782 1.442-.884 0-.03-.137-.082-.31-.11-.968-.16-1.167-.347-.69-.64.164-.1.5-.347.738-.543.606-.492.688-.437.617.403-.065.793-.073.793.83-.04l.574-.523-.676-.058c-.37-.035-.7-.094-.723-.133-.062-.102 1.21-1.45 1.328-1.406.055.02.12.265.153.543.086.743.13.786.457.4.152-.18.402-.5.554-.712l.278-.387-.34.052-.668.098c-.246.04-.34.02-.375-.074-.06-.153.867-1.575 1.027-1.575.124 0 .515 1.122.472 1.35-.016.07.016.163.066.21.05.047.176.36.274.695l.218.727c.02.07.133-.02.31-.25.366-.48.964-1.46.89-1.46l-.797.112c-.406.063-.766.094-.8.074-.122-.074-.052-.285.347-1.035.222-.422.41-.79.41-.812 0-.023-.285.044-.63.15-.437.132-.66.167-.73.112-.05-.042-.11-.046-.125-.01l.122-.26zM33.54 47.54c0-.024-.204-.313-.45-.642-.246-.328-.45-.636-.45-.69 0-.052-.035-.114-.08-.142-.048-.027-.06.004-.033.08.035.084-.136.327-.51.72l-.56.595.367.048c.48.062 1.72.086 1.72.027l-.005.004zm1.41-.048c.464-.05.89-.117.952-.148.075-.043-.058-.21-.45-.574-.307-.282-.585-.575-.612-.65-.047-.112-.06-.104-.063.032-.004.09-.13.348-.277.575-.516.773-.566.86-.477.86l.93-.09-.004-.005zm2.628-.578c.395-.13.78-.23.856-.23.074 0-.192-.207-.594-.46-.4-.255-.778-.52-.828-.595-.055-.075-.125-.11-.16-.075l.035.062c.156 0 .113.2-.192.89-.156.36-.29.673-.29.7 0 .066.283-.004 1.173-.293zm2.453-1.035c.306-.165.552-.32.552-.35 0-.026-.324-.178-.715-.342-.5-.204-.715-.336-.707-.426.008-.07-.02-.11-.062-.086-.04.023-.075.144-.075.265 0 .122-.07.525-.152.892l-.15.668.378-.164c.207-.09.63-.297.933-.46v.003zm-7.69.042c-.215-.356-.72-.96-.762-.902-.066.09-.652.53-.863.652-.164.094-.164.098.035.144.273.067 1.133.188 1.418.2.164.007.21-.02.168-.094h.004zm9.273-1.055c.313-.23.664-.504.785-.605l.223-.188-.753-.18c-.414-.097-.793-.21-.836-.246-.05-.043-.09.23-.108.786-.016.484.008.855.05.855s.33-.188.64-.42v-.003zm1.903-2.637c-.48-.04-.87-.113-.907-.164-.048-.07-.06-.07-.063.004 0 .055.03.118.074.145.044.023.103.37.134.762.03.394.078.75.1.796.03.04.376-.273.775-.7l.73-.772-.844-.07zm-14.02 7.012c-.04-.07-.54-1.758-.605-2.047-.054-.242.08-.238 1.33.055.75.176.983.258.983.36 0 .163-1.406 1.695-1.558 1.695-.063 0-.13-.028-.15-.063zm-8.13-.707c-.022-.062.013-.312.08-.555.066-.242.222-.886.343-1.437.124-.55.272-1.016.327-1.04.06-.023.227.07.375.204.15.133.613.508 1.03.828.42.32.75.617.736.664-.03.09-2.586 1.437-2.746 1.445-.06 0-.125-.047-.15-.106l.005-.005zm5.42-.32c-.087-.403-.227-2.027-.184-2.137.023-.062.01-.148-.028-.19-.078-.08-.238-1.052-.238-1.486 0-.18.04-.265.117-.265.067 0 .465.183.887.41.422.223.79.41.812.41.04 0-.152-.687-.297-1.066-.027-.066-.015-.175.028-.234.058-.094.215-.054.847.223.426.186.82.34.875.34.055 0 .086.06.075.14-.016.08-.278.277-.602.445l-.574.3.246.098c.137.055.523.184.86.285.687.203.874.38.617.563-.09.063-.383.286-.65.493-.265.207-.554.38-.636.38-.08 0-.147.05-.147.112 0 .15-1.62 1.36-1.816 1.36-.086 0-.165-.08-.188-.188l-.005.008zm1.776-2.047c-.117-.37-.218-.758-.222-.86-.016-.206-.12-.36-.12-.167 0 .067-.208.223-.462.348-.254.125-.574.293-.71.38l-.25.152.65.3c.638.293 1.17.508 1.282.52.032.004-.042-.3-.16-.672h-.008zm16.055 1.062c-.976-.425-1.332-.617-1.332-.718 0-.078.176-.282.39-.453.216-.173.637-.552.938-.837.3-.29.594-.512.65-.493.053.02.182.31.28.645l.406 1.348c.27.87.288 1.054.124 1.074-.066.008-.722-.246-1.453-.563l-.003-.004zm-20.262-.2c-.01-.09.028-1.827.047-2.07.012-.112.075-.218.145-.23.176-.035 1.95 1.14 1.95 1.297 0 .078-.356.3-.942.594-.903.45-1.176.544-1.196.41h-.005zm-5.398-.82c0-.222 1.11-2.753 1.223-2.788.054-.02.273.16.48.402.207.246.59.664.852.938.26.273.472.55.472.617 0 .085-.425.245-1.414.546-.777.234-1.457.43-1.515.426-.06 0-.102-.067-.102-.15l.004.01zm4.688-6.757c-.07-.058-.102-.055-.102.008 0 .052.027.095.066.095.035 0 .128.11.206.238.08.133.31.44.508.69.203.25.367.513.367.587 0 .07.03.118.064.09.035-.02.39.274.793.652.402.38.742.692.762.692.014 0 .295.176.62.394.324.22.656.422.734.45.078.027.145.125.145.218 0 .133-.115.2-.58.34-.316.094-.664.16-.777.137-.11-.023-.18-.008-.156.03.023.04-.043.107-.145.15-.402.164-1.297.414-1.48.414-.106 0-.227.035-.27.074-.18.173-2.332.767-2.332.642 0-.192.524-2.254.594-2.348.086-.113.082-.113-.035-.024-.107.086-1.802.34-2.263.344-.18 0-.113-.277.3-1.277l.403-.973-.547-.05c-.3-.028-.812-.055-1.14-.063-.528-.007-.594-.026-.594-.167 0-.258 1.08-1.887 1.253-1.887.102 0 .22.15.363.47.117.257.344.686.496.952l.282.484.308-.726c.172-.402.367-.738.438-.754.074-.016.105-.074.078-.148-.04-.098-.063-.102-.113-.02-.05.086-.2.074-.74-.04-.932-.198-1.085-.265-1.038-.444.07-.274.9-1.492.992-1.46.05.014.245.41.433.87.187.46.36.86.38.88.018.018.14-.216.268-.52.216-.512.326-.677.455-.677.027 0 .218.348.425.778.207.43.4.778.43.778l.145.125zm.91 3.43c.027-.067-.047-.074-.266-.028-.165.036-.563.09-.888.122l-.582.054 1.578 1.486.06-.77c.03-.422.073-.808.093-.863h.005zm1.64.523c-.035-.28-.066-.57-.066-.64-.005-.106-.068-.118-.376-.067-.207.03-.54.066-.738.073-.204.004-.313.032-.246.06.066.026.308.198.53.386.415.342.88.69.93.694.016 0 0-.23-.035-.508zm-3.394-1.27c.055-.27.15-.656.212-.86.062-.202.156-.624.21-.94.055-.313.14-.63.192-.69l.008-.072c-.047.028-.317-.004-.602-.07-.285-.063-.55-.11-.59-.094-.04.016.133.348.383.738.606.954.59 1.008-.29.977-.378-.016-.757-.04-.835-.055-.14-.027-.14-.015-.004.192.157.246.508.718.88 1.18.132.163.265.277.292.242.028-.032.098-.282.153-.55l-.01.003zm1.802-.472l.007-.47h-.618c-.715 0-.715-.038 0 .767.465.524.5.548.55.368.032-.105.06-.402.063-.664h-.003zM46.81 45.03c-.744-.178-1.388-.358-1.43-.4-.048-.048.018-.192.182-.388.145-.168.508-.63.81-1.023.3-.396.593-.716.648-.716.128 0 1.425 2.45 1.425 2.69 0 .224-.015.224-1.636-.163zm-29.86-1.385c-.028-.047.312-.645.757-1.33.867-1.33 1.043-1.483 1.234-1.05.06.13.345.602.638 1.047.293.442.52.86.508.926-.016.094-.28.157-1.047.254-1.67.215-2.036.242-2.09.153zM48.772 42.5c-.52-.03-1.1-.062-1.293-.07-.457-.012-.45-.098.063-.992.223-.395.484-.887.578-1.094.107-.242.22-.38.31-.38.078.005.285.212.465.474.18.253.578.792.886 1.19.325.415.544.774.52.84-.027.075-.148.114-.312.102l-1.21-.07h-.005zm-31.78-1.648c-1.47-.08-1.56-.094-1.555-.25 0-.153 1.96-2.235 2.1-2.235.075 0 .235.29.43.778.173.43.387.94.485 1.14.21.434.22.543.047.613l-.145.04c-.007-.008-.62-.047-1.363-.086zm28.937-.782c-.024-.058.125-.504.328-.988.54-1.28.558-1.18-.172-.953-.96.3-.992.304-1.035.182-.038-.105.423-1.632.56-1.85.11-.177.187-.118.67.515.263.34.505.59.54.55.04-.04.13-.324.203-.636l.23-.976c.056-.223.138-.418.188-.434.115-.04 1.744 1.442 1.744 1.586 0 .06-.442.243-1.06.438-1.17.37-1.206.375-1.26.23-.024-.058-.044-.043-.048.043-.004.078.04.145.094.15.152.007 1.387 1.706 1.356 1.862-.036.187-2.266.46-2.336.28zm2.55-.3c-.027-.067.063-.43.2-.805.254-.703.37-1.086.46-1.477.083-.367.3-.273 1.083.453.398.376.882.822 1.078.998.595.542.587.546-1.167.742-.633.07-1.246.148-1.37.172-.158.03-.243.007-.275-.08l-.008-.002zm-29.562-1.15l-.97-.24c-.167-.044-.22-.103-.206-.22.03-.19 1.375-1.703 1.524-1.71.058-.005.136.073.175.175.17.426.58 1.86.58 2.02 0 .218-.13.214-1.106-.024h.004zm-3.016-.702c-.757-.172-1.398-.336-1.422-.36-.027-.023-.023-.097 0-.163.06-.157 2.31-1.852 2.454-1.852.097 0 .43 1.324.605 2.437.054.336.105.34-1.642-.058l.004-.004zm5.93-.406c-.29-.13-.566-.285-.613-.348-.052-.062-.15-.102-.22-.086-.074.012-.46-.117-.86-.297-.58-.257-.722-.35-.7-.47.033-.17.978-1.205 1.134-1.244.137-.035.242.2.305.68.03.223.112.59.182.805l.13.395.32-.52c.176-.284.32-.538.32-.562 0-.035-.72-.543-1.22-.86l-.807-.51c-.375-.24-.68-.485-.68-.552 0-.07-.047-.1-.12-.073-.146.06-2.01-1.152-2.01-1.305 0-.058.462-.343 1.028-.632.797-.41 1.043-.504 1.094-.422.05.082.078.07.113-.055.047-.183 1.485-.953 1.622-.87.043.026.078.01.078-.04 0-.047-.047-.09-.102-.09-.148-.008-.992-1.14-1-1.34-.004-.14.12-.21.774-.433.43-.145.824-.246.878-.23.055.02.122 0 .15-.044.026-.043-.01-.078-.08-.078-.18 0-.874-1.398-.777-1.57.047-.086.247-.15.586-.184l.855-.1c.285-.04.347-.025.38.104.03.125.042.13.05.016.01-.168.128-.203.89-.274.508-.047.594-.035.594.075 0 .2-.9 1.527-1.032 1.527-.133 0-.13.012-.317-.676-.07-.258-.163-.473-.202-.473-.082 0-.86 1.47-.805 1.524.02.02.25-.04.512-.13.633-.214.777-.21.777.024 0 .103-.03.224-.07.267-.04.043-.176.348-.304.68-.13.332-.278.62-.33.64-.053.02-.077.106-.057.188.024.082-.015.347-.085.59-.07.242-.15.613-.18.824-.078.53-.238.503-.683-.114-.25-.344-.38-.465-.422-.387-.067.128-.266 1.632-.22 1.675.017.015.25-.133.517-.336.265-.204.535-.368.593-.368.09-.004.102.187.07.96-.05 1.168-.1 1.208-.773.567l-.472-.45.043.847c.023.465.062.87.09.9.027.026.222-.138.43-.372.456-.508.655-.52.69-.035.012.18.06.582.106.894.066.445.062.582-.02.633-.082.05-.078.066.02.07.082 0 .195.246.35.758.376 1.227.357 1.262-.51.883l-.012.004zm-2.13-4.145c.267-.207.587-.426.712-.492s.18-.117.12-.117c-.054 0-.343-.23-.64-.512-.296-.28-.57-.523-.6-.535-.036-.01-.087.095-.118.235-.067.325-.07 1.797-.004 1.797.027 0 .266-.168.53-.375zm1.86-3.242c.258-.14.497-.28.528-.31.074-.065-.406-1.07-.512-1.07-.043 0-.172.325-.29.72l-.245.82c-.047.145-.004.133.52-.152v-.008zm27.766 6.828c-.016-.078 0-.273.04-.43.034-.156.112-.71.167-1.23.078-.734.13-.94.223-.94.187 0 2.617 1.6 2.617 1.72 0 .064-.43.243-1.086.45l-1.45.457c-.46.15-.48.15-.516-.027h.004zm-5.062-.082c0-.077.078-.5.18-.94.132-.602.21-.797.308-.797.07 0 .3.226.512.5l.382.504.06-.317c.03-.172.1-.605.15-.968.052-.364.138-.668.193-.684.055-.02.333.19.618.465.285.273.56.5.61.5.097 0 .163-.492.206-1.59.016-.402.004-.656-.03-.566-.052.136-.595.574-1.356 1.093-.094.067-.39.293-.657.508-.264.215-.55.39-.635.39-.145 0-.153-.046-.102-.628.027-.344.055-.77.055-.942 0-.445.183-.414.734.133l.453.45-.027-1-.023-1-.473.524c-.582.648-.695.633-.73-.086-.016-.285-.06-.68-.106-.875-.137-.605-.027-.637.684-.184.28.175.52.308.535.292.015-.015-.06-.433-.16-.933-.106-.497-.16-.93-.13-.966.075-.074.493.066 1.258.43.325.152.61.277.637.277.113 0 1.895.774 2.004.872.152.14.106.19-.887.934-.453.336-.82.632-.82.652 0 .023.426.312.94.644.517.33.94.65.94.704 0 .058-.47.336-1.044.62l-1.168.587c-.738.406-1.578.808-1.617.77-.024-.024-.086.007-.137.073-.09.118-1.16.7-1.288.7-.04 0-.074-.063-.074-.145h.008zm3.168-4.624c-.028-.28-.094-.773-.15-1.094l-.096-.582-.528.602c-.29.332-.574.6-.64.6-.067 0-.118.037-.118.083 0 .043.063.083.145.083.078 0 .418.183.758.406.336.222.63.406.644.406.02.004.01-.227-.02-.508l.004.004zm-28.598 3.992l-.94-.398c-.505-.207-.697-.328-.697-.434 0-.168 1.648-1.445 1.796-1.39.055.02.14.418.2.925.058.49.124 1.013.148 1.158.04.222.02.265-.106.257-.086-.003-.26-.054-.398-.117h-.004zm-3.46-1.46c-.92-.407-1.325-.622-1.31-.704.02-.12 2.72-1.55 2.786-1.476.02.023.062.66.09 1.414.05 1.28.042 1.37-.09 1.363-.08-.004-.747-.27-1.477-.594v-.003zm34.272-1.872c-.03-.77-.02-1.36.02-1.402.12-.117 2.87 1.078 2.87 1.246 0 .094-.417.344-1.35.812-.747.372-1.383.676-1.422.676-.04 0-.09-.597-.12-1.328l.002-.004zm-33.23-.594c-.156-.11-.72-.48-1.25-.82-.53-.34-.96-.676-.96-.742l.026-.12c.016 0 .633-.185 1.37-.41 1.56-.474 1.755-.5 1.685-.216-.075.293-.294 1.77-.317 2.14-.028.403-.164.446-.555.172v-.004zm1.742-1.67c-.418-.396-.758-.783-.758-.86l.032-.14 1.058-.318c.563-.176 1.07-.29 1.125-.254.074.047.047.278-.11.953-.116.49-.222.985-.234 1.094-.046.395-.312.28-1.11-.476h-.003zm31.395.628c-.02-.063-.078-.352-.13-.645-.05-.293-.163-.816-.25-1.16s-.16-.668-.16-.72c0-.14.286-.104 1.72.232.992.23 1.36.347 1.374.44.015.087-.376.43-1.126.997-1.254.945-1.375 1.016-1.433.852l.005.004zm-5.078-.418l-.243-.758c-.34-1.05-.285-1.188.368-.856.18.094.414.2.52.242.17.067.187.055.148-.105-.024-.098-.153-.437-.286-.75-.293-.695-.343-.91-.246-.97.043-.022.367.025.727.115l.785.19c.117.028.125 0 .062-.163-.093-.25-.675-1.414-.824-1.65-.195-.31-.035-.35 1.157-.284.95.055 1.105.082 1.128.203.028.15-.882 1.645-1.144 1.88-.087.074-.153.17-.153.218 0 .16-.844 1.406-.954 1.406-.062 0-.113.07-.113.16 0 .086-.152.403-.344.696-.324.512-.527.66-.59.433v-.008zm-1.684-3.797c0-.035-.207-.332-.457-.66-.25-.33-.434-.637-.402-.68.054-.09 1.027-.113 1.332-.035.222.058.226.144.046.91-.11.47-.17.594-.285.594l-.234-.13zm4.352 3.144c-.15-.368-.583-1.852-.583-1.985 0-.18.196-.164 1.31.1.694.17.948.263.968.365.027.144-1.31 1.64-1.508 1.687-.062.016-.148-.058-.187-.164V30.2zM16.05 28.647c-.585-.546-1.077-1.046-1.09-1.105-.034-.152.017-.168 1.614-.36.96-.117 1.45-.144 1.508-.09.06.055.027.223-.09.52-.097.24-.277.785-.402 1.21-.145.497-.27.786-.348.798-.066.013-.6-.425-1.187-.972h-.004zm27.45-.418c-.207-.42-.375-.808-.375-.863 0-.13.187-.125.738.024.528.14.575.15.575.055 0-.04-.204-.394-.45-.785-.25-.394-.453-.77-.453-.832 0-.086.14-.113.594-.113.835 0 1.206.074 1.206.234.004.234-.594 1.566-.7 1.566-.058 0-.085.062-.066.144.05.207-.41 1.285-.562 1.317-.09.02-.238-.204-.504-.74l-.004-.007zm-24.574-.164c-.594-.808-.742-1.125-.516-1.125.06 0 .547-.053 1.086-.12.54-.066 1.008-.12 1.043-.12.128 0 .05.312-.27 1.066l-.41.96c-.044.102-.13.184-.196.184s-.398-.38-.738-.84v-.004zm29.957.286c-.188-.528-.65-1.668-.78-1.934-.103-.203-.13-.344-.08-.395.047-.046.653-.054 1.598-.02 1.302.052 1.528.08 1.548.192.03.153-1.953 2.3-2.125 2.3-.063 0-.133-.065-.16-.143zM17.13 25.668c-.942-1.262-1.028-1.488-.525-1.402.145.027.833.07 1.524.1.925.044 1.265.087 1.296.165.023.06-.09.325-.25.59-.16.263-.426.763-.59 1.11-.195.41-.344.63-.434.63-.078 0-.52-.512-1.023-1.188v-.004zm2.956.004c-.258-.52-.47-1.004-.47-1.078 0-.117.118-.13 1.087-.09.598.023 1.16.074 1.25.11.145.058.152.046.055-.07-.117-.146-.668-1.896-.668-2.13 0-.187.1-.184 1.29.078.702.153 1.003.254 1.003.336 0 .063-.336.473-.746.906-.657.7-.723.793-.55.813l.893.086.704.062-.063-.29c-.034-.16-.09-.573-.12-.925-.066-.746-.113-.722 1.016-.5.543.11.695.172.754.31.04.093.07.124.074.07.008-.137.222-.13.91.027.43.097.566.16.562.265-.007.133-1.304 1.16-1.468 1.16-.047 0-.082-.27-.082-.656 0-.36-.032-.656-.067-.656s-.337.246-.665.547c-.68.62-.668.664.18.676.344.004.488.04.52.13.054.147-1.09 1.39-1.282 1.39-.094 0-.144-.16-.207-.653l-.082-.652-.19.203c-.107.114-.357.43-.556.708-.36.5-.56.66-.645.52-.027-.04-.148-.41-.277-.825l-.23-.75-.246.297c-.137.164-.41.574-.606.91-.2.336-.414.61-.484.61-.078-.005-.305-.36-.594-.946v.008zm27.777.105c-.07-.058-.265-.343-.437-.636s-.457-.742-.63-1c-.17-.257-.312-.503-.312-.55 0-.113.176-.15 1.473-.293.61-.07 1.227-.15 1.37-.172.193-.035.278-.016.314.074.04.093-1.308 2.308-1.593 2.62-.03.032-.113.016-.184-.043zm-2.8-.308c-.083-.138-.368-.53-.637-.868-.27-.34-.477-.66-.46-.715.042-.12 2.198-.4 2.307-.297.07.066-.148.683-.628 1.773-.184.418-.38.45-.583.102v.004zm-3.934-.384c-.556-.512-.728-.777-.564-.87.036-.02.368-.064.74-.095l.678-.058-.023.762c-.015.508-.054.77-.12.793-.055.02-.375-.22-.707-.527l-.004-.004zm2.077.484c0-.035-.262-.347-.582-.695-.32-.352-.563-.684-.54-.742.032-.086 1.23-.3 1.692-.3.12 0 .11.34-.027.89l-.168.687c-.035.152-.102.227-.215.227-.09 0-.16-.028-.16-.063v-.004zm-23.82-1.277c-.043-.05-.367-.676-.723-1.383-.414-.832-.617-1.316-.566-1.367.11-.105 3.004.57 3.05.71.02.06-.183.372-.445.696-.265.323-.605.76-.754.972-.302.422-.446.52-.563.367v.003zm20.09-.52c-.368-.25-.657-.507-.657-.582 0-.092.164-.178.594-.292.43-.117.57-.187.516-.257-.118-.136-1.457-.828-1.508-.777-.024.024.027.282.117.575.26.867.265.867-.7.453-.36-.156-.72-.3-.797-.324-.078-.023-.145-.097-.145-.16 0-.152 1.13-.734 1.325-.683.093.023.148-.004.148-.075 0-.066.35-.29.782-.503.614-.305.797-.364.848-.278.12.192.254 1.672.164 1.78-.055.068-.05.11.012.13.11.035.234.614.238 1.11.004.465-.113.45-.937-.114zm1.968-.027c-.133-.137-.433-.387-.672-.55-.238-.165-.437-.36-.437-.434 0-.094.2-.196.68-.356 1.09-.355 1.046-.383 1.023.66-.024.813-.04.883-.192.903-.098.014-.262-.075-.407-.228l.005.004zm2.094-.152c-.048-.09-.372-.41-.724-.715-.347-.306-.644-.603-.664-.66-.01-.06.078-.15.207-.2.394-.153 1.816-.567 1.95-.567.174 0 .155.215-.107 1.313-.195.812-.25.945-.402.968-.11.016-.206-.035-.26-.136v-.004zm-16.392-.196c0-.1.036-.312.075-.468l.12-.512.052-.223-.43.254c-.235.136-.586.36-.774.488-.354.242-.565.296-.616.156-.015-.043-.004-.46.024-.922.082-1.344.136-2.45.144-2.867.008-.34.03-.39.18-.39.242 0 1.87 1.073 1.875 1.233 0 .08-.172.207-.43.325-.59.265-1.453.757-1.453.824 0 .03.063.074.145.1.448.138 1.22.5 1.31.615.09.113.103.105.107-.07.003-.422.375-1.676.503-1.7.07-.015.344.117.61.293.265.176.566.363.668.418.1.055.183.152.183.22 0 .065.072.12.162.12.086 0 .398.152.69.34.415.262.52.367.466.465-.063.113-1.06.468-1.582.566-.285.05-.29-.06-.02-.668.25-.566.254-.62.02-.558-.324.082-1.664.667-1.535.67.262.005 1.227.458 1.227.576 0 .117-1.414.902-1.625.902-.05 0-.094-.086-.094-.188zm18.762-.42c-.176-.232-.547-.638-.82-.908-.274-.27-.496-.547-.496-.62 0-.098.23-.204.88-.4.483-.144 1.124-.347 1.417-.448.55-.188.73-.192.73-.024 0 .05-.257.707-.573 1.453-.375.884-.617 1.36-.695 1.36-.067 0-.266-.187-.446-.413h.004zm-22.234-.283c-.09-.144-.305-2.25-.238-2.316.113-.114 2.152.753 2.152.913 0 .074-.176.258-.387.41-.215.152-.6.453-.863.668-.48.396-.586.45-.664.325zm12.316-.43c-.293-.08-.63-.148-.75-.152-.22-.004-.347-.16-.246-.3.027-.043.246-.223.484-.4.24-.18.403-.35.368-.386-.036-.035-.45-.113-.922-.172-.637-.078-.864-.14-.883-.23-.035-.187 1.066-1.344 1.227-1.285.18.07.828 1.355.777 1.547-.027.097 0 .152.074.152.142 0 .72 1.12.657 1.276-.054.137-.1.133-.785-.058v.008zm-14.933-.628c-.076-.258-.263-.875-.423-1.367-.426-1.32-.4-1.387.41-1.028.27.12.875.383 1.34.578.468.196.867.41.894.473.03.066-.1.23-.315.406-.2.16-.62.542-.942.85-.32.305-.636.555-.707.555-.086 0-.17-.16-.26-.468h.003zm9.858.363c0-.156.648-1.12.793-1.176.056-.02.087-.082.067-.133-.04-.108.856-1.463.993-1.506.105-.032 1.097 1.25 1.097 1.418 0 .062.035.117.074.117.04 0 .267.24.5.538.494.63.5.82.02.742-.167-.027-.573-.05-.898-.05-.738 0-.76-.095-.18-.74.48-.534.473-.538-.737-.448l-.778.058.47.434c.718.664.706.672-.864.828-.477.047-.555.04-.555-.074V22zm10.156-.46c-.472-.313-.918-.626-.988-.696-.07-.07-.18-.13-.246-.13-.063 0-.485-.16-.934-.36-.45-.194-.883-.377-.965-.405-.077-.028-.143-.102-.143-.17 0-.16 1.7-1.44 1.84-1.39.07.028.156.422.254 1.176l.145 1.133.988-.52c.66-.348 1.028-.496 1.102-.453.094.058.102.27.043 1.2-.04.62-.11 1.14-.156 1.15-.043.013-.47-.23-.942-.542l.004.004zm-4.012-.208c-.535-.18-.777-.3-.777-.387 0-.168 1.16-1.062 1.336-1.03.142.026.57 1.15.583 1.52.008.24-.152.23-1.14-.103zm6.922-.336c-.183-.156-.636-.512-1.01-.79-.372-.272-.665-.538-.65-.59.04-.116 2.508-1.425 2.715-1.432.136-.008.148.035.1.382-.128.934-.585 2.68-.706 2.7-.07.01-.27-.11-.45-.27zm-14.375.06c0-.247.624-1.568.738-1.568.152 0 1.265 1.07 1.265 1.215 0 .098-.175.164-.695.274-1.363.277-1.313.273-1.313.082l.004-.005zm-6.266-.935c-.04-.112-.367-2.76-.367-2.964 0-.156.23-.164.402-.015.07.063.636.43 1.25.825.768.488 1.108.75 1.077.828-.023.062-.254.234-.508.375-.255.144-.727.44-1.055.66-.622.418-.743.465-.8.297v-.004zm4.597-.046c-.026-.047.044-.465.154-.93.113-.464.207-.902.207-.976 0-.07.052-.195.114-.28.11-.15.12-.15.348.03.508.394 1.492 1.418 1.457 1.512-.02.054-.24.144-.49.203-.246.058-.66.18-.918.27-.664.234-.812.26-.87.167v.004zm8.92-.43c-.27-.085-.657-.175-.86-.203-.848-.116-.852-.182-.02-1.034.348-.355.665-.703.7-.77.035-.066.132-.116.215-.116.12 0 .207.203.45 1.003.163.55.296 1.067.296 1.15-.003.175-.144.17-.78-.028zm4.788-.332c-.207-.124-.695-.386-1.086-.574-.484-.234-.718-.394-.718-.488 0-.078.176-.27.39-.426.215-.156.735-.547 1.153-.867.422-.32.82-.582.89-.582.114 0 .12.172.067 1.488-.035.817-.078 1.532-.098 1.586-.058.148-.207.116-.605-.134l.008-.004zm-11.304-.007c0-.21.844-2.11.94-2.11.114 0 1.435 1.727 1.435 1.87 0 .052-.048.095-.103.095-.055 0-.508.055-1.004.12-1.1.15-1.27.15-1.27.02v.005zm4.215-.067c-.224-.035-.693-.066-1.04-.07-.344-.004-.653-.047-.68-.094-.074-.117 1.117-1.953 1.273-1.957.075-.004.313.367.63.98.445.872.49.997.382 1.106l-.137.113-.426-.074-.003-.004zm-8.622-.55c-.18-.06-.063-3.133.12-3.192.055-.02.387.238.74.57.35.332.85.8 1.112 1.043.262.242.465.492.45.554-.012.063-.247.188-.516.277-.27.09-.785.302-1.15.47-.362.168-.702.293-.756.274v.004zm13.21-.586c-.26-.114-1.168-.403-1.98-.625-.05-.016-.086-.082-.078-.15.027-.186 1.957-2.257 2.11-2.26.11 0 .155.19.27 1.042.163 1.25.202 2.08.085 2.117-.043.01-.23-.043-.41-.122l.003-.003zm-10.64-.485c-.028-.047.097-.722.277-1.5.18-.78.328-1.445.328-1.48 0-.035.067-.063.15-.063.178 0 1.846 2.164 1.854 2.406.004.14-.078.18-.57.262-.524.09-1.37.278-1.813.406-.097.028-.2.012-.226-.03zm7.97-.297c-.04-.035-1.95-.29-2.18-.29-.06 0-.107-.042-.107-.092 0-.196 1.603-2.602 1.732-2.606.098-.004.19.188.35.71l.42 1.356c.257.813.257.957.01.957-.104 0-.206-.015-.23-.04l.005.005zm-5.115-.308c-.062-.168 1.032-2.762 1.207-2.856.12-.066.235.114.797 1.235.363.72.66 1.383.66 1.473 0 .157-.05.168-.88.168-.483 0-1.073.025-1.307.052-.336.04-.438.023-.473-.07h-.004zM33.21 43.64c-.218-.437-.386-.804-.374-.816.012-.012.375-.035.81-.05.57-.02.788-.016.788.023 0 .027-.153.41-.34.844-.227.536-.364.79-.41.79-.047 0-.215-.285-.47-.793l-.003.004zm-1.52.67c-.05-.087-.467-1.505-.47-1.61-.01-.138-.017-.138.65-.032l.692.105c.122.016.223.047.223.075 0 .023-.133.254-.297.504l-.468.726c-.157.246-.274.328-.33.234v-.003zm3.31-.775c-.273-.367-.5-.69-.508-.723-.02-.082.016-.093.508-.18.246-.042.56-.11.695-.152.172-.05.266-.058.3-.023.036.035 0 .258-.1.723-.23 1.015-.235 1.027-.325 1.027-.047 0-.277-.266-.574-.668l.004-.005zm-5.19.28c-.08-.377-.2-1.663-.165-1.698.027-.027.125-.015.265.043.12.047.445.152.715.235.27.082.5.175.512.207.01.035-.15.234-.352.445-.203.21-.47.496-.586.633-.235.265-.356.308-.388.14l-.003-.004zm7.155-.49l-.637-.598c-.133-.125-.246-.254-.246-.286 0-.03.164-.116.363-.19.203-.074.5-.19.668-.266.45-.203.457-.195.434.387-.03.857-.074 1.286-.133 1.306-.03.012-.234-.15-.445-.352h-.005zm-8.89-.192c-.013-.02 0-.434.027-.918.04-.703.062-.883.113-.883.035 0 .23.094.43.207.2.112.484.265.632.33.176.08.27.153.27.204 0 .047-.27.278-.676.586-.65.485-.753.547-.796.47v.003zm10.902-.38c-.016-.02-.32-.226-.684-.456-.367-.235-.66-.45-.66-.492 0-.04.11-.133.246-.207.132-.075.417-.25.628-.387.21-.14.402-.253.43-.253.027 0 .062.133.082.3l.117.884c.043.32.074.598.062.618-.028.05-.192.047-.22 0l-.003-.004zm.17-6.417c.02.02.29-.555.337-.727.06-.2.188-.122.344.21l.164.387.063.117c.086.078.44.78.44.875l.044.09c.073 0 .644 1.167.593 1.218-.03.027-.285.035-.688.012l-.636-.032.057.21.188.63c.074.25.11.434.086.46-.023.028-.257-.007-.58-.08-.845-.192-.77-.188-.736-.063.07.273.145 1.175.098 1.218-.03.035-.227-.027-.61-.19-.308-.134-.59-.263-.62-.29-.047-.04-.06.043-.063.39-.005.614-.052.96-.126.96-.098 0-1.086-.65-1.11-.73l-.023.048c-.003.063-.058.34-.124.61l-.14.602c-.016.058-.055.105-.09.105-.04 0-.27-.19-.52-.426-.25-.233-.47-.413-.488-.4-.02.01-.14.276-.27.59-.152.366-.258.565-.304.565-.04 0-.235-.222-.438-.496-.2-.27-.383-.493-.406-.493-.02 0-.192.23-.38.52-.187.285-.366.515-.398.515-.03 0-.195-.27-.355-.6l-.332-.67c-.31-.558-.46-.878-.44-.93l-.02-.058c-.07 0-.415-.66-.392-.75.02-.074.05-.074.477.032.25.062.746.136 1.102.168.734.058.773.086.476.367-.332.317-.324.33.25.325h.508l-.274-.258c-.328-.308-.335-.41-.03-.43l.51-.058c.165-.025.32-.032.34-.02.075.046.04.16-.116.382-.258.37-.258.36-.05.32.417-.074.815-.175.815-.207 0-.02-.116-.105-.26-.195-.278-.176-.395-.316-.29-.35l.485-.154.476-.148c.11-.03.107.133-.01.422l-.164.35c-.043.048.53-.155.867-.31l.13-.064-.34-.152c-.19-.086-.35-.184-.357-.22-.01-.042.14-.143.43-.288.246-.12.465-.223.492-.223.094 0 .102.09.028.403-.04.172-.063.328-.05.336.034.04.827-.45.827-.504l-.176-.063c-.555-.09-.672-.2-.394-.367.093-.058.285-.2.425-.312.348-.282.395-.25.356.23-.04.457-.043.457.476-.02l.33-.3-.392-.035c-.215-.02-.398-.054-.414-.074-.035-.058.695-.836.766-.808.03.012.07.152.085.312.047.426.075.45.262.23l.32-.41.16-.222-.195.027-.382.06c-.14.018-.196.01-.215-.044-.035-.085.5-.9.59-.9.074 0 .296.643.27.772l.038.12c.03.028.102.208.156.4l.124.418c.012.042.078-.008.18-.14.21-.278.555-.84.508-.84l-.457.065c-.23.036-.438.055-.46.043-.07-.043-.032-.164.198-.593l.235-.465c0-.016-.165.023-.364.086-.254.078-.38.097-.418.062l-.074-.008.066-.144zm-5.698 5.16l-.26-.367c-.14-.19-.256-.368-.256-.396l-.047-.082-.02.047c.02.05-.078.187-.293.413l-.32.34.21.027c.278.04.985.047.985.016zm.808-.027c.265-.03.512-.068.547-.087.043-.024-.032-.12-.258-.328-.176-.16-.336-.328-.356-.37l-.034.014c-.004.05-.074.198-.16.327-.297.446-.324.493-.273.493l.535-.055v.004zm1.508-.333c.226-.075.45-.133.492-.133.043 0-.11-.12-.34-.262-.23-.144-.445-.3-.477-.34l-.088-.043.02.035c.09 0 .062.113-.11.51l-.164.404c0 .034.16-.005.672-.173h-.004zm1.41-.594c.176-.094.32-.184.32-.2 0-.015-.187-.105-.41-.195-.285-.117-.41-.19-.406-.246l-.035-.047-.043.153c0 .07-.04.297-.086.512l-.086.382.218-.093c.122-.052.36-.173.532-.267h-.004zm-4.414.027c-.12-.207-.414-.55-.438-.52-.04.052-.375.305-.496.372-.094.055-.094.058.02.086.156.04.648.11.812.117.094.004.12-.012.098-.055h.004zm5.324-.605l.453-.348.128-.105-.434-.106c-.238-.058-.453-.12-.48-.144-.03-.024-.05.133-.063.453-.006.28.005.492.03.492.022 0 .186-.113.366-.242zm1.094-1.516c-.278-.02-.5-.063-.52-.095h-.035l.043.083c.023.015.06.214.078.437.016.227.047.43.06.457.014.023.214-.156.444-.398l.418-.446-.484-.043-.004.004zm-8.047 4.023c-.024-.04-.313-1.008-.348-1.176-.03-.137.043-.137.762.03.43.1.562.15.562.208 0 .094-.81.973-.895.973l-.086-.035h.003zm-4.672-.403c-.015-.035.005-.18.044-.316l.2-.828c.07-.317.155-.582.187-.598.032-.012.13.04.215.117.086.078.352.293.59.477.243.183.43.355.422.383-.015.05-1.484.824-1.574.828l-.086-.063h.004zm3.11-.18c-.05-.23-.13-1.163-.105-1.226l-.016-.11c-.048-.046-.138-.605-.138-.85 0-.106.02-.153.07-.153.04 0 .266.106.51.235l.463.235c.024 0-.085-.395-.17-.61l.014-.137c.034-.054.12-.03.488.13.246.11.472.19.5.19l.042.083c-.007.05-.156.156-.343.258l-.328.17.14.056c.077.035.296.106.49.164.396.117.505.22.353.324l-.37.282c-.153.117-.318.218-.364.218l-.087.067c0 .082-.93.78-1.043.78-.05 0-.094-.042-.11-.104zm1.02-1.175c-.067-.215-.125-.438-.13-.492-.007-.12-.07-.207-.07-.098 0 .04-.117.13-.265.2l-.41.218-.145.086.375.17c.364.17.672.294.735.302.02.003-.024-.172-.09-.383v-.005zm9.22.61c-.564-.247-.767-.356-.767-.415 0-.047.102-.164.223-.262.12-.1.367-.316.54-.48.17-.164.34-.293.37-.28.03.01.105.174.16.366l.234.773c.153.5.164.606.07.618-.038.003-.413-.14-.83-.325v.004zm-11.634-.118c-.008-.05.015-1.05.027-1.187.004-.067.043-.125.082-.133.102-.02 1.117.656 1.117.742 0 .046-.203.175-.543.34-.516.257-.676.31-.688.233l.004.004zm-3.098-.473c0-.13.637-1.582.703-1.6.032-.013.158.093.28.233l.487.54c.148.155.273.32.273.355 0 .047-.246.144-.812.312-.446.137-.836.246-.87.246l-.06-.086zm2.692-3.88l-.06.01.04.05.117.137c.043.075.176.255.293.395.117.145.21.297.21.336l.036.056c.02-.012.223.156.453.375.23.216.425.395.437.395l.355.23c.188.126.375.24.422.26.047.014.082.073.082.124 0 .073-.066.112-.332.19-.18.055-.383.09-.445.078l-.09.02-.087.082c-.23.094-.746.238-.848.238l-.156.043c-.102.103-1.337.44-1.337.368 0-.113.3-1.293.344-1.347l-.02-.015c-.062.047-1.03.195-1.296.2-.1 0-.062-.16.172-.735l.23-.56-.312-.026c-.17-.016-.464-.03-.652-.035-.305-.01-.34-.017-.34-.1 0-.147.62-1.085.72-1.085.058 0 .124.086.206.27.066.144.195.394.285.547l.163.277.18-.42c.098-.23.21-.425.25-.433l.047-.086-.067-.01c-.03.047-.117.043-.42-.024-.537-.113-.626-.152-.595-.258.043-.16.515-.855.57-.84.027.008.14.235.25.5l.22.504c.01.012.08-.12.15-.296.122-.293.19-.387.263-.39.017 0 .126.198.247.444.117.246.227.446.246.446l.067.09zm.535 1.958c.015-.04-.028-.042-.153-.02l-.507.07-.336.033.905.85.035-.44c.02-.246.043-.47.055-.496v.002zm.94.297l-.038-.368c0-.058-.04-.066-.215-.04l-.426.04c-.117.004-.18.02-.14.035.04.016.176.118.304.223.24.195.504.395.532.398l-.02-.293.004.004zm-1.96-.712l.12-.496c.036-.117.09-.36.122-.543.032-.18.078-.36.11-.395l.004-.04c-.027.016-.18 0-.343-.038-.164-.04-.317-.063-.34-.055-.023.008.078.2.22.426.346.547.34.578-.165.558-.22-.007-.434-.02-.48-.03-.08-.016-.08-.01-.005.112.09.14.293.41.504.676.08.094.154.16.17.14.015-.015.054-.16.085-.312v-.004zm1.035-.27l.004-.27h-.355c-.41 0-.41-.018 0 .443.264.302.284.313.315.212.02-.063.035-.235.04-.383h-.005zm12.746 1.934c-.43-.105-.796-.207-.82-.23-.027-.027.012-.113.106-.223.082-.098.293-.364.46-.59.172-.227.34-.41.376-.41.074 0 .816 1.41.816 1.546 0 .13-.008.13-.942-.094h.004zm-17.14-.8c-.016-.024.18-.367.433-.762.5-.766.597-.852.706-.605.036.078.2.347.368.6.168.255.296.497.293.532-.012.05-.165.09-.602.145-.957.125-1.168.14-1.2.086v.004zm18.27-.657l-.74-.04c-.26-.01-.26-.057.036-.57.13-.222.278-.507.332-.628.06-.14.125-.22.176-.22.043 0 .164.126.266.27.1.15.332.458.507.685.188.238.313.445.297.484-.015.043-.082.062-.18.06l-.695-.044v.003zm-18.247-.945c-.845-.043-.895-.05-.895-.14 0-.09 1.125-1.282 1.207-1.282.043 0 .133.164.246.446.097.246.222.543.277.656.12.25.125.312.027.35l-.082.02-.78-.05zm16.61-.45c-.017-.034.07-.288.186-.565.31-.74.32-.68-.098-.547-.554.172-.57.175-.593.105-.024-.058.242-.937.32-1.062.063-.1.11-.066.387.298.148.195.29.335.308.316.024-.02.075-.184.118-.367l.132-.56c.032-.128.078-.237.11-.25.062-.018 1 .83 1 .91 0 .036-.254.142-.606.25-.672.212-.69.22-.722.134l-.028.025.055.085c.085.004.796.977.776 1.07-.02.11-1.3.262-1.34.165l-.007-.004zm1.46-.17c-.016-.04.04-.247.113-.462.144-.402.215-.625.262-.848.046-.21.175-.156.62.262l.618.57c.34.31.336.313-.668.426-.363.04-.72.086-.79.098-.09.02-.136.004-.155-.043v-.004zm-16.965-.665l-.555-.137c-.098-.023-.13-.058-.117-.12.015-.11.79-.98.875-.985l.1.1c.095.244.333 1.068.333 1.158 0 .126-.073.122-.63-.015h-.005zm-1.73-.398c-.434-.098-.802-.192-.817-.207v-.094c.035-.09 1.324-1.063 1.41-1.063.055 0 .246.762.348 1.4.03.19.058.19-.942-.036zm3.402-.235c-.165-.074-.325-.164-.352-.2l-.125-.05c-.043.008-.266-.066-.496-.168-.336-.148-.414-.203-.402-.273.015-.093.558-.69.648-.714.078-.02.137.117.176.39.015.13.066.336.105.462l.075.226.184-.297.183-.324c0-.02-.414-.31-.7-.492l-.46-.292c-.215-.137-.39-.278-.39-.317l-.07-.042c-.083.032-1.154-.664-1.154-.75 0-.03.265-.195.59-.363.456-.234.597-.29.628-.242l.062-.03c.028-.107.852-.548.93-.5l.043-.025-.058-.05c-.086-.004-.57-.657-.575-.77-.004-.082.07-.12.446-.25.246-.082.472-.14.504-.133l.085-.023-.046-.047c-.107 0-.5-.8-.447-.9.028-.045.14-.085.336-.104l.488-.058c.164-.023.2-.01.218.06l.028.007c.007-.1.074-.118.51-.158.294-.027.34-.02.34.043 0 .114-.514.875-.593.875-.073 0-.073.004-.178-.386-.043-.15-.094-.27-.117-.27-.047 0-.493.844-.46.875.01.01.143-.024.292-.075.363-.125.445-.12.445.016l-.04.153c-.023.023-.1.2-.175.39-.074.192-.16.356-.187.368l-.032.11c.012.047-.008.2-.047.336s-.085.352-.104.473c-.043.303-.137.288-.395-.064-.143-.2-.217-.265-.24-.222-.04.074-.153.937-.126.96.008.008.145-.078.297-.19.153-.118.31-.212.345-.212.05 0 .058.106.04.55-.028.673-.06.692-.446.325l-.27-.258.022.484c.012.265.036.5.055.515.016.015.125-.08.246-.212.266-.293.38-.296.4-.023l.057.512c.04.254.035.336-.01.363l.01.04c.047 0 .114.14.203.437.215.703.204.722-.293.507l-.003.008zm-1.223-2.38c.152-.116.336-.245.41-.28l.07-.07c-.03 0-.2-.133-.367-.293l-.347-.31-.067.137c-.04.187-.04 1.03-.004 1.03l.304-.214zm1.07-1.858l.305-.18c.042-.04-.235-.617-.294-.617-.024 0-.098.188-.164.41l-.14.47c-.028.08 0 .073.296-.09l-.004.007zm15.938 3.922l.02-.25c.023-.09.066-.406.097-.703.046-.422.073-.54.128-.54.105 0 1.504.92 1.504.99 0 .034-.246.136-.62.257l-.833.26c-.263.087-.275.083-.294-.014h-.004zm-2.903-.047c0-.048.046-.29.1-.544.08-.344.122-.457.177-.457.043 0 .175.128.293.288l.222.29.032-.18.09-.555c.027-.207.078-.383.11-.395.03-.012.19.11.354.266.164.156.32.285.352.285.055 0 .094-.282.117-.915.012-.23 0-.38-.02-.324-.027.08-.34.33-.777.63l-.38.292c-.15.122-.315.223-.366.223-.082 0-.086-.027-.06-.36l.033-.538c0-.258.105-.24.422.074l.256.26-.01-.575-.017-.575-.27.3c-.332.372-.4.364-.422-.05-.008-.164-.036-.39-.06-.504-.077-.347-.015-.363.396-.105.16.102.296.18.308.173.012-.012-.03-.25-.09-.535-.058-.286-.093-.536-.074-.555.043-.043.28.04.723.246l.368.16c.066 0 1.09.445 1.148.5.09.077.063.11-.507.534-.26.192-.474.364-.474.375 0 .01.242.18.54.367.296.187.538.37.538.402 0 .03-.27.19-.598.354l-.668.336c-.425.235-.91.465-.93.442l-.077.043c-.054.07-.667.402-.738.402l-.04-.082-.003.004zm1.816-2.657l-.086-.63-.055-.335-.3.347c-.165.192-.33.344-.368.344l-.066.046.083.047c.047 0 .242.105.433.234l.372.235-.012-.293v.003zm-16.418 2.29l-.54-.232c-.288-.116-.398-.186-.398-.245 0-.097.946-.832 1.032-.8.03.01.082.242.117.53l.085.665c.02.125.01.152-.063.148l-.23-.07-.004.004zm-1.988-.84c-.528-.232-.762-.357-.75-.403.01-.07 1.562-.89 1.6-.848.013.012.036.38.052.812.027.735.027.79-.05.782-.048-.004-.427-.157-.85-.34l-.002-.004zm19.675-1.075c-.02-.442-.015-.782.012-.805.07-.066 1.648.617 1.648.715 0 .054-.238.195-.777.465-.426.215-.793.386-.812.386-.024 0-.055-.344-.07-.762zm-19.074-.34l-.718-.47c-.304-.194-.554-.386-.554-.425l.015-.07.79-.234c.894-.275 1.007-.287.964-.126-.043.168-.168 1.015-.18 1.226-.015.23-.093.254-.316.098zm1-.957c-.237-.226-.432-.448-.432-.49l.02-.083.604-.18c.325-.102.614-.164.645-.15.043.03.027.162-.062.548-.067.282-.13.563-.137.63-.028.226-.18.16-.637-.274zm18.025.36l-.075-.37c-.027-.17-.093-.47-.144-.67l-.09-.41c0-.08.164-.058.988.134.57.133.778.2.79.254.01.047-.216.246-.645.574-.72.543-.79.586-.825.488zm-2.915-.238l-.14-.438c-.195-.605-.164-.683.207-.492l.297.137c.097.038.11.03.086-.064-.012-.054-.086-.25-.164-.43-.168-.398-.196-.52-.14-.558.022-.016.21.016.417.067l.453.11c.066.015.074 0 .035-.095-.053-.144-.385-.812-.47-.945-.115-.18-.02-.203.663-.164.547.032.632.048.648.118.017.086-.507.945-.655 1.078l-.086.13c0 .093-.485.808-.548.808l-.062.09c0 .05-.09.23-.196.398-.187.293-.304.38-.34.25h-.004zm-.968-2.18c0-.02-.12-.19-.262-.38-.145-.186-.25-.362-.23-.39.03-.05.59-.066.765-.02.13.036.13.087.027.525-.062.27-.097.34-.164.34l-.136-.075zm2.5 1.805c-.082-.21-.332-1.063-.332-1.137 0-.1.113-.094.754.06.398.092.543.147.554.206.016.082-.75.94-.867.97-.034.006-.085-.033-.108-.095v-.003zm-17.852-.895c-.336-.312-.617-.6-.625-.632-.02-.09.008-.098.926-.208.556-.066.833-.085.864-.05.03.03.016.13-.054.297-.055.135-.16.448-.23.694-.083.285-.157.45-.2.457-.04.01-.344-.245-.684-.558h.004zm15.758-.238c-.12-.242-.22-.465-.22-.496 0-.074.107-.07.423.012.306.082.33.086.33.03 0-.02-.118-.222-.26-.452-.14-.227-.256-.442-.256-.477 0-.05.082-.065.34-.065.48 0 .69.043.695.137 0 .136-.34.898-.404.898l-.04.082c.033.117-.233.738-.323.754-.05.012-.14-.117-.29-.426l.005.004zm-14.11-.094c-.34-.46-.425-.644-.296-.644l.62-.07.598-.07c.075 0 .028.18-.156.61l-.234.55c-.024.058-.074.105-.11.105-.04 0-.226-.218-.425-.48h.004zm17.2.164c-.11-.3-.375-.957-.45-1.11-.058-.116-.074-.198-.046-.226.027-.027.375-.035.918-.01.746.026.875.042.89.108.02.086-1.12 1.32-1.218 1.32l-.09-.082h-.004zm-18.23-1.54c-.54-.72-.59-.854-.3-.803.084.016.475.04.874.06.53.023.726.05.746.093.01.035-.05.187-.145.336-.094.15-.242.436-.34.636-.11.234-.2.36-.25.36-.043 0-.297-.294-.586-.685v.005zm1.695 0c-.15-.296-.27-.573-.27-.616 0-.07.067-.074.62-.05.345.015.665.042.72.062l.03-.04c-.065-.08-.382-1.085-.382-1.222 0-.11.06-.105.74.043.402.09.578.15.578.192 0 .036-.192.27-.426.52-.38.402-.414.457-.316.465l.515.047.404.035-.036-.17c-.02-.09-.05-.327-.07-.53-.04-.43-.066-.414.582-.285.313.062.4.097.43.175l.043.04c.004-.08.13-.075.523.015.246.055.324.094.324.152-.003.078-.75.668-.843.668-.028 0-.047-.156-.047-.375 0-.207-.016-.375-.04-.375-.02 0-.19.14-.382.313-.39.355-.383.383.102.387.2.003.28.023.3.074.032.085-.625.8-.734.8-.055 0-.082-.094-.117-.375l-.048-.375-.11.117c-.062.062-.203.246-.32.406-.207.29-.32.38-.37.3l-.16-.472-.134-.43-.14.173c-.08.094-.235.328-.348.524-.113.19-.238.35-.278.35-.046 0-.175-.206-.343-.538l.003-.005zm15.945.06c-.04-.03-.152-.195-.254-.363l-.36-.574c-.097-.148-.18-.29-.18-.316 0-.066.103-.086.85-.168l.784-.098c.11-.02.16-.007.18.043.02.055-.754 1.325-.915 1.504l-.105-.022v-.004zm-1.61-.176c-.046-.078-.21-.3-.363-.496-.156-.195-.273-.38-.265-.41.023-.07 1.26-.23 1.324-.168.043.04-.086.394-.363 1.02-.105.238-.214.257-.335.058l.004-.004zm-2.257-.22c-.32-.292-.417-.444-.323-.5.02-.01.21-.034.425-.053l.39-.035-.015.437c-.01.293-.03.44-.07.457-.03.008-.215-.125-.406-.305zm1.192.28c0-.02-.148-.2-.332-.404-.183-.203-.324-.394-.308-.425.015-.052.707-.173.968-.173.07 0 .063.195-.015.51l-.094.396c-.02.086-.058.13-.12.13l-.094-.036h-.004zm-13.668-.732c-.023-.03-.21-.39-.414-.797-.238-.477-.355-.755-.324-.786.062-.062 1.723.328 1.75.41.012.036-.106.21-.258.4-.152.186-.348.436-.433.557-.172.244-.258.298-.325.212l.004.004zm11.53-.297c-.21-.145-.374-.294-.374-.337 0-.054.094-.1.34-.168.25-.066.328-.105.297-.148-.066-.078-.836-.477-.867-.445-.016.015.016.164.066.328.153.496.153.496-.398.262l-.457-.188-.08-.094c0-.086.647-.422.757-.39l.086-.043c0-.035.2-.164.45-.29.35-.175.456-.206.487-.16.07.11.15.96.094 1.024l.008.075c.062.02.133.352.136.637.004.266-.062.258-.535-.067l-.008.004zm1.13-.016c-.074-.078-.25-.223-.386-.317-.137-.093-.25-.207-.25-.246 0-.053.113-.112.39-.202.625-.203.602-.22.586.38-.012.468-.02.507-.11.52-.054.006-.148-.044-.23-.13v-.004zm1.204-.09c-.028-.05-.215-.238-.415-.414-.2-.176-.37-.344-.378-.38-.012-.034.043-.085.117-.112.226-.086 1.043-.325 1.117-.325.1 0 .09.122-.064.754-.113.465-.144.543-.23.555-.063.008-.12-.02-.148-.078zm-9.407-.113l.044-.27.07-.292.028-.13-.246.146-.446.28c-.203.142-.328.173-.355.09-.008-.023-.004-.26.012-.526.047-.774.078-1.407.086-1.65.004-.194.015-.222.105-.222.137 0 1.074.618 1.074.707 0 .043-.097.118-.246.188-.336.153-.836.435-.836.474l.082.058c.258.078.703.285.754.352.05.066.06.062.06-.04.003-.242.214-.96.288-.976.04-.008.2.07.35.168l.384.238c.06.032.106.086.106.125 0 .038.043.07.09.07.05 0 .23.09.398.195.238.152.297.21.266.266-.036.067-.606.27-.91.325-.165.03-.168-.03-.012-.383.144-.324.144-.355.012-.32-.188.047-.958.383-.883.386.152.004.703.262.703.332 0 .067-.813.516-.934.516l-.054-.1.01-.005zm10.77-.242c-.1-.132-.312-.367-.468-.52-.156-.155-.285-.312-.285-.355 0-.054.133-.117.504-.23.278-.082.645-.2.817-.258.317-.105.418-.11.418-.015 0 .03-.148.406-.332.835-.215.508-.355.782-.398.782-.04 0-.153-.106-.254-.24zm-12.76-.16c-.052-.086-.177-1.293-.138-1.328.063-.066 1.24.434 1.24.524 0 .043-.103.148-.224.234l-.496.383c-.277.227-.336.26-.38.188h-.003zm7.07-.246c-.17-.047-.364-.086-.43-.086-.125-.004-.2-.094-.14-.172l.276-.23c.137-.102.23-.203.21-.223-.018-.018-.256-.06-.53-.096-.363-.047-.496-.08-.504-.133-.02-.105.613-.773.703-.738.102.04.473.778.446.887-.015.054 0 .09.044.09.082 0 .41.644.375.733-.033.08-.06.08-.455-.03h.004zm-8.575-.363l-.242-.786c-.242-.758-.23-.797.234-.59l.77.332c.27.113.5.234.512.27.014.04-.06.132-.18.234-.114.094-.357.312-.54.488-.184.176-.367.32-.406.32-.05 0-.102-.09-.15-.27zm5.66.206c0-.09.37-.645.453-.676l.04-.078c-.024-.062.492-.84.57-.867.062-.02.63.72.63.816l.042.068c.023 0 .152.136.285.308.28.36.285.473.012.426-.094-.016-.33-.03-.516-.03-.425 0-.437-.056-.105-.427.278-.31.27-.31-.42-.258l-.447.03.27.25c.414.38.406.388-.496.478-.274.023-.32.02-.32-.047l.003.008zm5.832-.266c-.27-.18-.527-.36-.566-.398l-.14-.074c-.035 0-.277-.094-.535-.207l-.555-.234-.082-.097c0-.09.977-.83 1.06-.798.038.015.09.242.144.676l.086.652.57-.297c.383-.2.59-.285.633-.262.055.032.055.158.024.69-.023.354-.062.65-.09.663-.027.008-.27-.133-.543-.313h-.003zm-2.304-.117c-.31-.1-.446-.172-.446-.223 0-.093.668-.61.77-.59.078.016.328.66.336.872.004.14-.09.133-.656-.06h-.004zm3.972-.19c-.1-.09-.363-.294-.578-.454-.215-.162-.383-.314-.37-.34.02-.068 1.437-.822 1.558-.825.078-.004.086.02.058.218-.074.535-.336 1.54-.402 1.55-.038.01-.155-.06-.26-.15h-.005zm-8.25.034c0-.14.36-.9.426-.9.087 0 .728.615.728.697 0 .054-.102.094-.4.156-.78.16-.753.156-.753.047zm-3.597-.535c-.024-.063-.21-1.586-.21-1.703 0-.09.132-.095.23-.01.042.036.362.25.718.473.44.282.637.43.617.477-.015.035-.144.133-.293.215-.148.082-.418.254-.605.38-.356.237-.43.264-.46.167h.003zm2.636-.028c-.015-.027.024-.265.09-.535.067-.266.117-.52.117-.56l.064-.16c.062-.085.07-.085.2.02.292.227.858.812.835.867-.013.03-.138.082-.278.117-.14.036-.38.102-.528.157-.382.133-.468.153-.5.098v-.004zm5.12-.246c-.155-.047-.377-.1-.495-.117-.49-.065-.49-.104-.012-.593.2-.207.38-.402.402-.44l.12-.067c.068 0 .122.117.26.574.093.316.17.613.17.656 0 .102-.077.102-.445-.016v.004zm2.75-.19c-.116-.07-.393-.224-.62-.33-.277-.132-.41-.226-.41-.28 0-.043.102-.153.223-.247l.664-.5c.243-.182.474-.33.513-.33.062 0 .07.1.04.855-.02.47-.044.88-.056.91-.03.086-.117.066-.348-.078h-.005zm-6.487-.005c0-.12.485-1.21.54-1.21.062 0 .823.99.823 1.073l-.058.055-.574.07c-.633.087-.727.087-.727.013h-.003zm2.422-.04c-.13-.02-.4-.038-.6-.042-.198-.003-.374-.026-.39-.054-.042-.066.645-1.12.73-1.125.044 0 .18.208.365.564.257.5.28.574.218.636l-.078.063-.246-.043v.004zm-4.95-.315c-.102-.036-.035-1.797.07-1.833.03-.01.223.137.422.33l.637.596c.147.138.264.282.257.322-.008.035-.14.105-.297.16-.157.05-.453.176-.66.27-.208.097-.403.167-.438.156h.008zm7.586-.336c-.15-.067-.672-.23-1.137-.36l-.048-.086c.016-.11 1.125-1.297 1.21-1.297.064 0 .09.11.153.597.098.72.118 1.195.05 1.215-.026.008-.132-.024-.233-.07h.004zm-6.11-.278c-.015-.027.055-.414.16-.86.106-.448.192-.827.192-.85l.086-.036c.105 0 1.058 1.242 1.062 1.383.004.083-.046.102-.328.153-.3.05-.785.16-1.043.235l-.13-.02v-.004zm4.575-.172c-.02-.02-1.117-.168-1.25-.168l-.062-.054c0-.11.918-1.492.992-1.496.055-.004.114.105.203.41l.24.777c.147.47.147.552.003.552l-.133-.024.008.004zm-2.94-.18c-.04-.093.593-1.585.69-1.64.067-.04.133.066.458.707.207.413.38.792.38.847 0 .09-.033.093-.505.093-.278 0-.618.016-.75.032-.196.023-.25.015-.274-.043v.003z"/></g></svg>