<svg width="658" height="659" xmlns="http://www.w3.org/2000/svg"><title>sacred-3</title><desc>Created with Sketch.</desc><g><path d="M326.17 634.66c-6.52-13.04-11.56-23.94-11.21-24.29.39-.32 11.21-.98 24.1-1.45 16.99-.62 23.48-.43 23.48.74 0 .86-4.57 12.19-10.12 25.16-6.8 15.86-10.82 23.56-12.26 23.52-1.37 0-6.45-8.56-14.03-23.72l.04.04zm-45.31 19.89c-1.52-2.54-13.95-44.81-14.1-47.93-.16-4.14-.43-4.1 19.45-.9 7.7 1.21 16.99 2.62 20.67 3.05 3.67.46 6.64 1.44 6.64 2.18 0 .75-3.99 7.5-8.87 14.96-4.88 7.47-11.17 17.23-13.99 21.64-4.64 7.31-8.12 9.81-9.8 7zm98.52-23.05c-8.09-10.94-14.89-20.62-15.12-21.56-.63-2.46.47-2.85 15.12-5.35 7.3-1.25 16.64-3.29 20.78-4.46 5.15-1.48 7.96-1.72 8.94-.74 1.02.98.04 7.73-3.05 21.49-6.75 30.19-6.87 30.54-9.57 30.5-1.44 0-8.24-7.89-17.1-19.84v-.04zm-154.61 8.32c-2.27-11.33-5.94-49.57-4.89-50.7.82-.86 3.71-.43 7.89 1.21 3.64 1.4 13.21 4.61 21.25 7.03 8.05 2.46 14.89 5.23 15.2 6.21.31.98-4.38 6.91-10.43 13.24-6.06 6.29-13.95 14.77-17.54 18.79-6.95 7.93-10.51 9.22-11.52 4.22h.04zm213.12-14.69c-6.37-6.05-14.92-14.1-18.94-17.77-4.03-3.71-7.35-7.5-7.35-8.48 0-.93 4.88-3.47 10.86-5.62 5.98-2.15 14.88-5.74 19.77-7.97 13.36-6.06 13.55-5.9 12.97 11.52-.9 25.55-2.19 38.21-3.99 38.79-.94.31-6.91-4.41-13.28-10.47h-.04zm-264.77-5.62c-.31-.59.04-12.85.83-27.31 1.13-20.82 1.83-26.25 3.35-26.25 1.06 0 6.8 2.78 12.74 6.21 5.94 3.44 14.41 7.89 18.83 9.93 5.19 2.38 8.04 4.53 8.04 6.05 0 1.45-7.96 8.36-20.11 17.38-19.34 14.46-22.46 16.29-23.71 13.99h.03zm324.69-11.29c-.39-.63-9.53-6.76-20.35-13.67-10.9-6.92-19.65-13.44-19.65-14.61s3.28-3.95 7.31-6.14c4.02-2.22 12.42-7.38 18.71-11.56 6.25-4.14 12.03-7.54 12.85-7.54.82 0 1.91 4.03 2.46 8.95.55 4.92 2.03 16.72 3.4 26.25 1.33 9.49 2.19 17.77 1.87 18.36-.78 1.4-5.66 1.33-6.56-.12l-.04.08zm5.2-191.13c.58.58 8.55-16.53 10.04-21.57 1.75-5.97 5.58-3.63 10.23 6.33 2.46 5.2 4.61 10.39 4.84 11.53.2 1.17 1.06 2.73 1.92 3.51 2.62 2.34 13.16 23.24 13.16 26.09 0 1.45.55 2.62 1.25 2.62 2.23 0 19.14 34.77 17.66 36.25-.86.86-8.52 1.02-20.43.43l-19.02-.98 1.68 6.29c.93 3.48 3.39 11.88 5.5 18.71 2.27 7.39 3.32 12.93 2.54 13.68-.74.74-7.73-.2-17.26-2.43-25.2-5.78-22.89-5.58-21.92-1.87 2.15 8.09 4.3 35.04 2.93 36.41-.93.93-6.79-.9-18.12-5.75-9.18-3.94-17.5-7.81-18.44-8.59-1.37-1.13-1.8 1.37-1.87 11.68-.2 18.2-1.57 28.52-3.79 28.52-2.89 0-32.39-19.42-33.01-21.68-.31-1.18-.63-.51-.74 1.4-.08 1.92-1.72 10.12-3.68 18.21-1.91 8.08-3.82 16.13-4.21 17.85-.39 1.72-1.61 3.16-2.7 3.16-1.05 0-8.01-5.7-15.43-12.66-7.38-6.95-13.94-12.34-14.53-11.99-.59.35-4.22 8.28-8.01 17.54-4.53 11.02-7.65 16.92-9.02 16.92-1.17 0-7.03-6.61-13.01-14.69-6.02-8.09-11.45-14.69-12.11-14.69-.66 0-5.7 6.91-11.25 15.39-5.55 8.44-10.86 15.39-11.91 15.39-1.02 0-5.78-8.05-10.63-17.85-4.8-9.8-9.29-18.79-9.92-19.96-9.1-16.6-13.71-26.21-13.16-27.66.35-.93.07-1.75-.63-1.75-2.11 0-12.34-19.61-11.64-22.31.59-2.3 1.52-2.23 14.18.9 7.46 1.83 22.19 4.02 32.81 4.88 21.92 1.76 22.97 2.58 14.26 10.98-9.84 9.45-9.65 9.72 7.42 9.69l15.08-.04-8.16-7.7c-9.85-9.3-10.04-12.23-.94-12.85 3.48-.23 10.35-1.02 15.27-1.72 4.96-.74 9.53-.98 10.16-.59 2.22 1.37 1.17 4.81-3.44 11.45-7.73 11.02-7.66 10.63-1.52 9.53 12.38-2.26 24.33-5.31 24.26-6.17-.04-.51-3.56-3.16-7.82-5.86-8.24-5.23-11.76-9.41-8.59-10.39.98-.31 7.46-2.3 14.41-4.49 6.92-2.19 13.28-4.14 14.18-4.42 3.24-.89 3.09 4.03-.39 12.58-1.95 4.85-4.18 9.57-4.92 10.47-1.21 1.48 15.9-4.77 25.82-9.41l3.87-1.8-10.16-4.49c-5.58-2.46-10.35-5.35-10.58-6.49-.28-1.29 4.21-4.29 12.81-8.59 7.26-3.59 13.87-6.56 14.69-6.56 2.81 0 2.96 2.65.86 11.95-1.22 5.16-1.88 9.69-1.49 10.08 1.06 1.05 24.65-13.36 24.65-15.08 0-.55-2.34-1.41-5.24-1.88-16.56-2.73-20-5.89-11.83-10.93 2.85-1.76 8.55-5.94 12.65-9.26 10.32-8.44 11.76-7.5 10.55 6.87-1.13 13.52-1.29 13.56 14.18-.66l9.81-8.98-11.61-1.02c-6.36-.55-11.91-1.56-12.34-2.27-1.09-1.75 20.74-24.8 22.74-24.02.89.35 2.1 4.53 2.61 9.3 1.45 12.69 2.23 13.36 7.82 6.83 2.61-3.04 6.91-8.51 9.53-12.18l4.76-6.61-5.78.86c-3.2.47-8.32 1.22-11.41 1.72-4.21.59-5.78.28-6.36-1.29-1.02-2.61 14.84-26.87 17.58-26.87 2.14 0 8.86 19.18 8.08 23.01-.23 1.21.27 2.81 1.13 3.59.86.78 2.97 6.13 4.69 11.91 1.72 5.79 3.4 11.37 3.71 12.43.39 1.21 2.31-.28 5.31-4.22 6.29-8.21 16.49-25.04 15.2-24.96-.55 0-6.68.9-13.63 1.91-6.92 1.06-13.09 1.64-13.67 1.29-2.11-1.25-.9-4.88 5.93-17.7 3.83-7.18 7-13.47 7-13.9 0-.43-4.85.7-10.75 2.54-7.46 2.3-11.25 2.89-12.46 1.87-.94-.78-1.95-.9-2.22-.27l1.99-4.45zM333.2 570.95c0-.39-3.43-5.35-7.69-10.97-4.26-5.63-7.7-10.94-7.7-11.8 0-.86-.62-1.91-1.36-2.38-.83-.51-1.02.08-.55 1.32.55 1.45-2.38 5.59-8.75 12.35l-9.57 10.12 6.29.86c8.2 1.13 29.37 1.48 29.37.5h-.04zm24.07-.9c7.93-.85 15.23-1.99 16.25-2.53 1.28-.71-1.02-3.64-7.7-9.81-5.27-4.84-10-9.8-10.51-11.09-.78-1.88-.97-1.84-1.05.5-.04 1.57-2.19 5.94-4.77 9.81-8.83 13.16-9.65 14.65-8.12 14.65.82 0 7.97-.7 15.9-1.53zm44.92-9.88c6.79-2.19 13.36-3.98 14.61-3.98 1.29 0-3.28-3.52-10.16-7.81-6.84-4.3-13.24-8.87-14.14-10.16-.94-1.29-2.19-1.88-2.77-1.25-.59.58-.32 1.05.58 1.05 2.66 0 1.92 3.4-3.28 15.2-2.69 6.09-4.92 11.52-4.92 11.99 0 1.06 4.77-.16 20-5.04h.08zm41.95-17.69c5.2-2.78 9.45-5.47 9.45-5.94 0-.47-5.5-3.09-12.26-5.86-8.52-3.52-12.19-5.7-12.07-7.27.12-1.21-.35-1.87-1.06-1.44-.7.43-1.25 2.46-1.29 4.57 0 2.07-1.21 8.91-2.61 15.19l-2.58 11.41 6.48-2.77c3.56-1.53 10.75-5.04 15.9-7.85l.04-.04zm-131.44.74c-3.64-6.1-12.31-16.41-13.01-15.47-1.14 1.52-11.14 9.1-14.73 11.17-2.81 1.6-2.81 1.64.63 2.5 4.68 1.13 19.33 3.2 24.21 3.4 2.82.12 3.64-.31 2.9-1.56v-.04zm158.51-18.09c5.31-3.94 11.37-8.59 13.44-10.35l3.79-3.16-12.85-3.09c-7.11-1.72-13.52-3.63-14.3-4.26-.9-.74-1.56 3.99-1.84 13.44-.27 8.28.12 14.57.86 14.57.71 0 5.63-3.24 10.94-7.19l-.04.04zm32.54-45.08c-8.2-.66-14.92-1.87-15.51-2.81-.78-1.21-1.05-1.21-1.05.04 0 .94.54 2.03 1.25 2.46.7.43 1.72 6.29 2.26 13.01.55 6.76 1.37 12.85 1.8 13.59.43.75 6.37-4.64 13.24-11.91l12.46-13.24-14.45-1.17v.03zM264.1 599.94c-.7-1.17-9.26-30.04-10.35-35-.94-4.18 1.33-4.1 22.73.9 12.86 2.96 16.8 4.41 16.8 6.13 0 2.81-24.02 28.98-26.64 28.98-1.05 0-2.19-.47-2.54-1.05v.04zm-138.98-12.07c-.43-1.06.15-5.32 1.33-9.46 1.13-4.14 3.78-15.19 5.89-24.61 2.11-9.41 4.65-17.38 5.63-17.77.98-.39 3.87 1.21 6.44 3.48 2.54 2.3 10.51 8.67 17.66 14.14 7.15 5.51 12.77 10.62 12.54 11.37-.55 1.56-44.22 24.57-46.91 24.68-.98.04-2.11-.78-2.54-1.87l-.04.04zm92.61-5.43c-1.48-6.88-3.86-34.65-3.16-36.53.43-1.09.2-2.53-.47-3.24-1.37-1.33-4.06-18.01-4.1-25.35 0-3.09.62-4.53 2.03-4.53 1.13 0 7.97 3.12 15.16 6.99 7.22 3.87 13.43 6.99 13.9 6.99.67 0-2.61-11.72-5.07-18.2-.43-1.17-.24-2.97.43-4.06 1.01-1.64 3.63-.94 14.49 3.83 7.3 3.2 14.02 5.82 14.96 5.82.94 0 1.48 1.09 1.21 2.46-.27 1.36-4.73 4.68-10.27 7.58l-9.81 5.15 4.22 1.72c2.3.94 8.91 3.13 14.65 4.81 11.72 3.51 14.96 6.48 10.51 9.6-1.53 1.06-6.53 4.89-11.1 8.44-4.57 3.56-9.45 6.45-10.86 6.45-1.4 0-2.54.9-2.54 1.95 0 2.5-27.69 23.24-31.01 23.24-1.49 0-2.81-1.29-3.2-3.16l.03.04zm30.36-35c-2-6.37-3.71-12.97-3.83-14.69-.24-3.55-2.11-6.17-2.11-2.93 0 1.17-3.52 3.83-7.89 5.98-4.34 2.11-9.85 5.04-12.19 6.48l-4.3 2.62 11.14 5.08c10.86 5 20 8.71 21.87 8.9.51.04-.7-5.11-2.69-11.44zm274.41 18.12c-16.68-7.26-22.73-10.51-22.73-12.26 0-1.33 3-4.81 6.64-7.78 3.67-2.97 10.86-9.37 16.01-14.29 5.16-4.93 10.12-8.71 11.06-8.4.93.31 3.08 5.27 4.8 11.01 1.72 5.75 4.84 16.1 6.95 23.05 4.57 14.92 4.93 18.01 2.11 18.32-1.17.12-12.34-4.22-24.84-9.65zm-346.33-3.47c-.23-1.57.43-31.29.78-35.36.16-1.91 1.29-3.71 2.46-3.94 3.05-.59 33.32 19.53 33.32 22.15 0 1.33-6.05 5.15-16.13 10.15-15.43 7.7-20.08 9.3-20.43 6.96v.04zm-92.22-13.95c0-3.83 18.98-47.03 20.93-47.69.98-.32 4.65 2.77 8.24 6.91 3.56 4.14 10.12 11.37 14.58 16.05 4.45 4.69 8.08 9.46 8.08 10.59 0 1.41-7.26 4.26-24.14 9.34-13.28 4.06-24.92 7.34-25.9 7.3-.94-.04-1.76-1.17-1.76-2.5h-.03zm80.15-115.51c-1.21-.93-1.76-.9-1.76.16 0 .86.51 1.56 1.1 1.56.58 0 2.18 1.88 3.51 4.1 1.33 2.23 5.24 7.54 8.71 11.8 3.48 4.26 6.29 8.75 6.29 10s.47 1.95 1.06 1.6c.58-.35 6.68 4.65 13.55 11.13 6.88 6.49 12.7 11.76 12.97 11.76.27 0 5.08 3.05 10.63 6.76 5.54 3.71 11.21 7.15 12.54 7.66 1.36.5 2.46 2.18 2.46 3.71 0 2.22-1.92 3.36-9.85 5.78-5.43 1.64-11.36 2.69-13.24 2.34-1.87-.39-3.09-.15-2.66.55.39.66-.74 1.8-2.5 2.5-6.91 2.81-22.18 7.11-25.31 7.11-1.8 0-3.87.55-4.61 1.25-3.08 2.97-39.84 13.08-39.84 10.98 0-3.29 8.94-38.56 10.19-40.12 1.49-1.92 1.41-1.96-.58-.39-1.84 1.4-30.78 5.82-38.67 5.9-3.05 0-1.92-4.77 5.15-21.84l6.92-16.64-9.38-.9c-5.12-.47-13.9-.94-19.49-1.01-9.02-.16-10.16-.51-10.16-2.9 0-4.37 18.52-32.26 21.45-32.3 1.72 0 3.67 2.54 6.21 8.01 2.03 4.45 5.86 11.76 8.51 16.33l4.81 8.2 5.31-12.42c2.93-6.88 6.25-12.62 7.46-12.85 1.29-.28 1.8-1.33 1.33-2.58-.62-1.64-1.05-1.72-1.91-.35-.86 1.44-3.44 1.28-12.62-.71-15.94-3.43-18.56-4.57-17.73-7.65 1.21-4.69 15.35-25.51 16.95-25 .86.27 4.22 6.99 7.42 14.88 3.2 7.93 6.13 14.65 6.48 15 .36.35 2.43-3.67 4.61-8.91 3.68-8.79 5.51-11.52 7.74-11.56.47 0 3.75 5.94 7.26 13.28 3.56 7.31 6.84 13.28 7.31 13.28l2.38 2.5zm15.63 58.28c.43-1.17-.82-1.32-4.53-.5-2.82.58-9.65 1.52-15.12 2.07l-10 .93 26.95 25.39 1.02-13.16c.54-7.23 1.29-13.87 1.64-14.73h.04zm28.04 8.91c-.58-4.84-1.09-9.77-1.13-10.94-.04-1.79-1.17-1.99-6.41-1.13-3.47.59-9.18 1.13-12.65 1.25-3.48.12-5.35.55-4.18.98 1.17.47 5.23 3.43 9.1 6.64 7.07 5.9 15 11.83 15.9 11.91.27.04 0-3.91-.59-8.67l-.04-.04zm-58.16-21.37c.94-4.61 2.58-11.21 3.63-14.68 1.06-3.48 2.66-10.71 3.6-16.1.93-5.39 2.38-10.7 3.24-11.79.86-1.14.94-1.65.15-1.18-.78.47-5.43-.08-10.31-1.21-4.88-1.13-9.45-1.87-10.12-1.64-.66.24 2.27 5.94 6.57 12.66 10.39 16.29 10.11 17.22-4.96 16.68-6.49-.24-12.93-.67-14.3-.9-2.38-.51-2.38-.31-.12 3.28 2.7 4.18 8.71 12.27 15.04 20.16 2.31 2.85 4.53 4.76 5 4.18.47-.55 1.64-4.77 2.58-9.42v-.04zm30.78-8.04l.16-8.05h-10.59c-12.23 0-12.23-.7 0 13.09 7.93 8.98 8.52 9.37 9.42 6.28.5-1.79.97-6.91 1.05-11.36l-.04.04zm379.57 57.54c-12.69-3.05-23.67-6.1-24.41-6.84-.82-.82.35-3.32 3.12-6.6 2.46-2.93 8.67-10.78 13.79-17.54 5.12-6.76 10.12-12.27 11.09-12.27 2.19 0 24.38 41.88 24.38 46.02 0 3.87-.27 3.83-28.01-2.81l.04.04zM49.61 504.31c-.47-.78 5.35-11.01 12.97-22.73 14.84-22.81 17.85-25.35 21.09-18.01 1.02 2.27 5.9 10.31 10.9 17.89 5 7.62 8.91 14.73 8.67 15.86-.31 1.56-4.8 2.66-17.89 4.34-28.51 3.71-34.8 4.18-35.74 2.61v.04zm544.02-19.57c-8.86-.54-18.79-1.05-22.07-1.17-7.77-.23-7.69-1.72 1.06-16.95 3.83-6.72 8.28-15.16 9.84-18.71 1.84-4.11 3.75-6.49 5.27-6.45 1.33.04 4.89 3.63 7.93 8.05 3.05 4.41 9.89 13.55 15.16 20.35 5.51 7.11 9.3 13.24 8.87 14.37-.47 1.22-2.5 1.88-5.35 1.72-2.54-.11-11.84-.66-20.71-1.21zm-543.28-28.2c-25.08-1.33-26.6-1.56-26.6-4.26.04-2.62 33.52-38.2 35.98-38.2 1.29 0 4.02 5 7.34 13.28 2.89 7.34 6.64 16.09 8.28 19.53 3.63 7.42 3.75 9.3.82 10.47-1.25.43-2.38.74-2.5.62-.12-.11-10.62-.78-23.32-1.44zM545 443.18c-.39-1.02 2.15-8.63 5.62-16.88 9.22-21.87 9.54-20.19-2.96-16.25-16.45 5.16-16.96 5.24-17.74 3.17-.66-1.8 7.23-27.93 9.57-31.64 1.88-3.05 3.24-2.03 11.53 8.79 4.45 5.78 8.59 10.04 9.21 9.41.63-.62 2.19-5.55 3.44-10.9 1.29-5.35 3.05-12.85 3.95-16.64.9-3.79 2.34-7.11 3.2-7.42 1.95-.66 29.8 24.65 29.8 27.11 0 1.02-7.5 4.1-18.04 7.46-20.08 6.33-20.63 6.41-21.6 3.95-.43-1.06-.75-.75-.82.7-.08 1.33.66 2.5 1.64 2.54 2.58.15 23.67 29.14 23.16 31.83-.62 3.21-38.79 7.86-39.96 4.85v-.08zm43.59-5.12c-.47-1.17 1.06-7.38 3.36-13.75 4.34-11.99 6.37-18.63 7.85-25.27 1.37-6.29 5.12-4.69 18.48 7.73 6.84 6.41 15.12 14.03 18.4 17.03 10.16 9.26 9.96 9.34-19.96 12.7-10.78 1.21-21.33 2.54-23.44 2.93-2.69.51-4.1.12-4.65-1.37h-.04zM83.24 418.38c-6.91-1.72-14.37-3.56-16.52-4.11-2.89-.7-3.83-1.75-3.52-3.71.55-3.28 23.52-29.14 26.02-29.29.98-.04 2.34 1.32 3.05 3.04 2.85 7.23 9.88 31.76 9.88 34.49 0 3.72-2.19 3.68-18.91-.42zm-51.52-11.96c-12.97-2.93-23.91-5.7-24.34-6.13-.43-.47-.43-1.72 0-2.85 1.02-2.66 39.46-31.68 41.96-31.68 1.68 0 7.3 22.62 10.35 41.64.93 5.74 1.76 5.78-28.01-1.02l.04.04zm101.37-6.95c-4.97-2.19-9.69-4.85-10.51-5.94-.82-1.05-2.5-1.72-3.75-1.48-1.21.23-7.85-2.03-14.69-5.04-9.96-4.42-12.38-6.06-11.99-8.09.51-2.85 16.68-20.54 19.37-21.25 2.31-.58 4.14 3.4 5.24 11.64.51 3.87 1.91 10.04 3.12 13.75l2.19 6.76 5.43-8.87c3.01-4.88 5.47-9.18 5.47-9.57 0-.58-12.31-9.26-20.82-14.68-1.21-.79-7.42-4.69-13.79-8.75-6.37-4.03-11.6-8.29-11.6-9.42 0-1.21-.82-1.72-2.07-1.25-2.5.98-34.34-19.73-34.34-22.3 0-.98 7.89-5.86 17.54-10.82 13.59-7.04 17.81-8.64 18.71-7.19.9 1.44 1.33 1.21 1.92-.94.82-3.12 25.39-16.33 27.69-14.88.74.47 1.33.15 1.33-.67 0-.82-.78-1.52-1.76-1.56-2.54-.12-16.95-19.49-17.07-22.93-.08-2.46 2.07-3.63 13.2-7.42 7.31-2.46 14.07-4.22 15-3.91.94.32 2.07 0 2.54-.74.47-.74-.15-1.33-1.33-1.33-3.08 0-14.96-23.9-13.32-26.83.82-1.45 4.22-2.5 10.04-3.13 4.85-.51 11.41-1.29 14.61-1.72 4.89-.66 5.94-.39 6.49 1.8.54 2.15.7 2.19.82.24.19-2.86 2.19-3.48 15.19-4.69 8.67-.82 10.16-.63 10.16 1.25 0 3.4-15.31 26.09-17.62 26.09-2.22 0-2.15.16-5.43-11.56-1.21-4.45-2.77-8.05-3.44-8.05-1.36 0-14.64 25.12-13.74 26.02.31.35 4.25-.67 8.74-2.19 10.79-3.71 13.33-3.63 13.33.43 0 1.76-.55 3.83-1.22 4.53-.66.74-3 5.98-5.19 11.64-2.19 5.67-4.73 10.59-5.63 10.94-.93.35-1.36 1.8-.97 3.24.39 1.45-.28 5.94-1.45 10.04-1.17 4.1-2.58 10.47-3.08 14.1-1.33 9.1-4.07 8.64-11.72-1.91-4.3-5.9-6.49-7.93-7.19-6.6-1.17 2.18-4.53 27.89-3.75 28.67.27.27 4.26-2.31 8.79-5.74 4.57-3.44 9.14-6.29 10.19-6.29 1.53-.04 1.76 3.16 1.18 16.4-.86 20-1.72 20.63-13.25 9.69l-8.04-7.69.7 14.49c.39 7.97 1.09 14.84 1.56 15.35.47.47 3.79-2.34 7.31-6.29 7.81-8.71 11.21-8.91 11.79-.62.2 3.08 1.02 9.96 1.8 15.27 1.13 7.62 1.02 9.92-.39 10.82-1.41.9-1.33 1.13.31 1.17 1.45 0 3.36 4.18 6.06 12.97 6.36 21.02 6.01 21.6-8.75 15.12l.08-.08zm-36.41-70.86c4.57-3.52 10.04-7.27 12.15-8.4 2.11-1.09 3.05-2.03 2.11-2.03-.98 0-5.9-3.95-10.98-8.75-5.08-4.81-9.73-8.95-10.31-9.14-.59-.24-1.49 1.6-1.95 4.02-1.14 5.55-1.18 30.67-.08 30.67.47 0 4.53-2.86 9.1-6.37h-.04zm31.8-55.39c4.37-2.42 8.43-4.77 9.02-5.31 1.29-1.14-6.91-18.32-8.75-18.32-.7 0-2.93 5.5-4.92 12.22-1.99 6.76-3.91 13.05-4.22 13.99-.78 2.5-.04 2.26 8.87-2.62v.04zm474.61 116.72c-.32-1.33 0-4.65.62-7.35.63-2.69 1.95-12.14 2.93-20.97 1.37-12.54 2.23-16.1 3.83-16.1 3.16 0 44.73 27.31 44.73 29.42 0 1.09-7.35 4.1-18.56 7.65-10.19 3.21-21.33 6.76-24.76 7.86-7.86 2.53-8.21 2.53-8.83-.43l.04-.08zm-86.53-1.41c0-1.33 1.37-8.59 3.05-16.09 2.3-10.28 3.59-13.67 5.27-13.67 1.25 0 5.16 3.86 8.79 8.55l6.56 8.56 1.02-5.36c.55-2.97 1.72-10.39 2.58-16.52.9-6.17 2.38-11.37 3.28-11.68.94-.31 5.7 3.28 10.55 7.97 4.88 4.69 9.57 8.51 10.39 8.51 1.72 0 2.81-8.43 3.55-27.14.28-6.88.04-11.21-.55-9.69-.85 2.34-10.15 9.84-23.16 18.71-1.64 1.13-6.68 5-11.21 8.67-4.53 3.67-9.45 6.64-10.9 6.64-2.46 0-2.58-.82-1.76-10.7.51-5.9.9-13.13.9-16.09 0-7.62 3.13-7.08 12.54 2.26l7.74 7.66-.43-17.07-.43-17.11-8.09 8.98c-9.92 11.06-11.91 10.82-12.5-1.48-.23-4.92-1.02-11.64-1.8-14.96-2.3-10.39-.47-10.9 11.68-3.17 4.77 3.05 8.91 5.31 9.14 5.04.28-.27-.97-7.42-2.73-15.94-1.76-8.47-2.77-15.93-2.19-16.48 1.29-1.29 8.4 1.13 21.53 7.34 5.54 2.62 10.42 4.77 10.89 4.77 1.96 0 32.43 13.24 34.22 14.88 2.66 2.38 1.8 3.24-15.15 15.94-7.74 5.78-14.07 10.82-14.03 11.21 0 .39 7.23 5.31 16.06 10.98 8.83 5.66 16.05 11.05 16.05 12.03 0 .94-8.01 5.74-17.85 10.62-9.8 4.89-18.79 9.38-19.96 10.04-12.66 6.92-27.07 13.79-27.66 13.17-.43-.39-1.44.15-2.3 1.21-1.56 2.07-19.85 11.95-22.03 11.95-.63-.04-1.17-1.13-1.17-2.46l.11-.08zm54.1-79.1c-.5-4.81-1.64-13.2-2.54-18.67l-1.64-9.92-8.98 10.27c-4.92 5.66-9.84 10.27-10.94 10.27-1.13 0-1.99.63-1.99 1.41 0 .78 1.09 1.41 2.46 1.44 1.37 0 7.19 3.13 12.93 6.96 5.78 3.79 10.74 6.95 11.06 6.95.31.04.15-3.87-.36-8.67v-.04zm-488.82 68.2c-2.31-1.05-9.54-4.1-16.1-6.79-8.59-3.6-11.91-5.63-11.91-7.43 0-2.89 28.2-24.72 30.66-23.79.94.36 2.39 7.15 3.4 15.86.98 8.36 2.15 17.27 2.54 19.77.62 3.79.35 4.53-1.84 4.45-1.44-.08-4.49-.97-6.79-2.03l.04-.04zM22.7 352.67C6.99 345.76.04 342.05.27 340.64c.39-2.07 46.49-26.52 47.62-25.27.35.39 1.06 11.25 1.56 24.14.86 21.87.75 23.44-1.56 23.28-1.37-.08-12.73-4.65-25.23-10.16l.04.04zm585.85-31.99c-.5-13.16-.35-23.24.4-23.98 2.03-2.04 49.06 18.39 49.06 21.32 0 1.6-7.15 5.86-23.13 13.83-12.69 6.37-23.63 11.53-24.29 11.53-.63 0-1.57-10.2-2.07-22.7h.03zm-568-10.08c-2.7-1.87-12.31-8.2-21.37-14.02-9.02-5.82-16.45-11.53-16.45-12.7s.2-2.11.47-2.11c.28 0 10.82-3.16 23.44-6.99 26.64-8.12 30-8.55 28.75-3.71-1.25 5-5 30.23-5.39 36.56-.47 6.88-2.81 7.62-9.49 2.93l.04.04zm29.76-28.55c-7.15-6.76-12.97-13.36-12.97-14.69s.24-2.42.55-2.42c.31 0 8.44-2.42 18.09-5.39 9.64-2.97 18.28-4.96 19.22-4.38 1.28.78.82 4.77-1.88 16.25-1.95 8.36-3.79 16.8-4.02 18.71-.82 6.72-5.35 4.77-18.99-8.12v.04zm536.68 10.74c-.35-1.06-1.37-5.98-2.22-11.02-.86-5-2.78-13.94-4.26-19.84-1.49-5.9-2.7-11.41-2.7-12.27 0-2.42 4.89-1.75 29.42 3.95 16.95 3.94 23.2 5.94 23.51 7.58.28 1.44-6.4 7.38-19.26 17.07-21.4 16.13-23.51 17.38-24.49 14.53zm-86.79-7.19c-.28-.98-2.15-6.8-4.18-12.97-5.86-17.97-4.85-20.27 6.28-14.61 3.05 1.57 7.08 3.4 8.87 4.1 2.93 1.14 3.24.94 2.54-1.79-.43-1.68-2.62-7.46-4.88-12.85-5-11.88-5.9-15.51-4.22-16.57.7-.43 6.29.43 12.38 1.92 6.1 1.48 12.15 2.97 13.44 3.28 1.95.47 2.15 0 1.05-2.81-1.6-4.3-11.52-24.18-14.06-28.21-3.32-5.31-.58-6.01 19.77-4.88 16.21.9 18.86 1.37 19.26 3.44.5 2.54-15.08 28.08-19.54 32.11-1.4 1.29-2.57 2.97-2.57 3.75 0 2.77-14.42 24.02-16.29 24.02-1.06 0-1.92 1.21-1.92 2.7 0 1.48-2.61 6.87-5.86 11.91-5.58 8.75-9.02 11.29-10.15 7.46h.08zm-28.83-64.92c0-.59-3.52-5.66-7.82-11.25-4.29-5.63-7.38-10.86-6.91-11.64.94-1.56 17.58-1.95 22.77-.55 3.79 1.02 3.87 2.5.82 15.55-1.83 8.01-2.93 10.16-4.92 10.16l-3.94-2.27zm74.33 53.83c-2.5-6.29-9.92-31.64-9.92-33.91 0-3.08 3.36-2.85 22.38 1.72 11.92 2.85 16.22 4.45 16.53 6.17.47 2.46-22.39 28.05-25.78 28.83-1.06.23-2.5-1.02-3.21-2.81zM34.26 247.95c-10-9.38-18.4-17.86-18.67-18.91-.63-2.66.27-2.85 27.57-6.13 16.49-2 24.81-2.5 25.75-1.53.97.94.47 3.79-1.57 8.83-1.64 4.1-4.72 13.44-6.87 20.74-2.46 8.44-4.61 13.4-5.94 13.64-1.13.19-10.27-7.31-20.27-16.64zm469.18-7.11c-3.56-7.19-6.45-13.83-6.45-14.77 0-2.23 3.21-2.11 12.62.39 9.02 2.42 9.8 2.5 9.8.9 0-.66-3.43-6.68-7.69-13.44-4.22-6.76-7.7-13.12-7.7-14.22 0-1.48 2.39-1.95 10.16-1.91 14.3.04 20.66 1.25 20.66 4.02.04 4.03-10.15 26.76-11.95 26.76-1.01 0-1.52 1.05-1.17 2.46.9 3.52-6.99 21.95-9.61 22.46-1.52.28-4.1-3.47-8.63-12.65h-.04zm-420.08-2.82c-10.16-13.79-12.66-19.25-8.83-19.25.98 0 9.34-.94 18.56-2.11 9.21-1.14 17.22-2.07 17.81-2.11 2.22 0 .86 5.35-4.65 18.2-3.13 7.3-6.29 14.73-6.95 16.45-.71 1.71-2.19 3.16-3.32 3.16-1.1 0-6.8-6.48-12.62-14.38v.04zm512.07 4.89c-3.2-9.03-11.05-28.56-13.36-33.05-1.76-3.48-2.23-5.9-1.37-6.76.86-.86 11.18-.98 27.39-.35 22.22.86 26.05 1.33 26.48 3.24.55 2.62-33.4 39.38-36.33 39.38-1.05 0-2.3-1.1-2.77-2.46h-.04zm-542.77-45.9c-16.1-21.56-17.54-25.47-8.95-23.95 2.5.43 14.18 1.21 26.02 1.76 15.78.7 21.64 1.45 22.18 2.81.39 1.02-1.52 5.55-4.25 10.04-2.74 4.53-7.27 13.05-10.08 18.95-3.36 6.99-5.94 10.74-7.42 10.7-1.33 0-8.83-8.75-17.5-20.31zm50.5.04c-4.41-8.87-8-17.15-8-18.4 0-2.03 2.03-2.19 18.55-1.53 10.2.43 19.81 1.26 21.37 1.88 2.46.98 2.58.82.94-1.21-2.04-2.5-11.41-32.38-11.41-36.37 0-3.24 1.72-3.12 21.99 1.33 12.03 2.62 17.19 4.37 17.19 5.74 0 1.1-5.7 8.05-12.7 15.51-11.25 11.95-12.34 13.55-9.45 13.87 1.8.19 8.67.86 15.27 1.44l12.04 1.1-1.06-4.96c-.59-2.74-1.52-9.85-2.03-15.83-1.17-12.77-1.95-12.38 17.34-8.51 9.3 1.84 11.92 2.93 12.85 5.23.67 1.61 1.22 2.15 1.29 1.18.12-2.31 3.83-2.23 15.55.46 7.38 1.68 9.69 2.78 9.61 4.54-.12 2.3-22.3 19.84-25.08 19.84-.82 0-1.4-4.61-1.4-11.21 0-6.17-.51-11.21-1.14-11.21-.58 0-5.7 4.22-11.36 9.37-11.61 10.59-11.41 11.37 3.08 11.53 5.86.07 8.32.7 8.91 2.22.97 2.5-18.6 23.79-21.88 23.79-1.6 0-2.46-2.73-3.51-11.17l-1.41-11.17-3.28 3.47c-1.8 1.92-6.05 7.35-9.45 12.11-6.18 8.56-9.57 11.33-11.02 8.91-.43-.7-2.54-7.03-4.73-14.1l-3.94-12.85-4.22 5.11c-2.3 2.82-6.99 9.81-10.35 15.55-3.4 5.74-7.11 10.43-8.28 10.43-1.33 0-5.16-6.13-10.16-16.13l-.12.04zm474.81 1.75c-1.21-.97-4.57-5.85-7.54-10.85-2.93-5-7.77-12.7-10.7-17.07-2.93-4.38-5.35-8.64-5.35-9.42 0-1.95 3-2.54 25.19-5.04 10.39-1.17 20.94-2.5 23.44-2.93 3.28-.58 4.76-.23 5.31 1.25.63 1.64-22.42 39.49-27.27 44.77-.54.58-1.95.27-3.12-.71h.04zm-47.89-5.27c-1.37-2.34-6.29-8.98-10.86-14.8-4.61-5.82-8.13-11.29-7.85-12.23.7-2.11 37.58-6.8 39.45-5.04 1.21 1.13-2.5 11.68-10.74 30.31-3.17 7.11-6.45 7.7-10 1.72v.04zm-67.23-6.52c-9.49-8.71-12.42-13.24-9.61-14.92.59-.36 6.29-1.06 12.66-1.64l11.6-1.02-.43 12.97c-.27 8.71-.94 13.16-2.11 13.55-.94.32-6.41-3.75-12.11-8.98v.04zm35.51 8.28c0-.59-4.45-5.94-9.92-11.91-5.47-5.98-9.61-11.72-9.26-12.7.59-1.48 21.05-5.12 28.91-5.12 2.03 0 1.87 5.78-.47 15.2-1.1 4.33-2.35 9.61-2.85 11.76-.59 2.61-1.76 3.86-3.64 3.86-1.52 0-2.77-.47-2.77-1.05v-.04zM91.25 173.53c-.7-.94-6.25-11.6-12.3-23.71-7.11-14.18-10.55-22.46-9.69-23.32 1.87-1.8 51.36 9.73 52.15 12.19.35 1.01-3.09 6.36-7.62 11.91s-10.35 13.05-12.93 16.64c-5.12 7.23-7.62 8.87-9.61 6.29zm343.44-8.87c-6.25-4.25-11.17-8.67-11.17-9.92 0-1.64 2.85-3.04 10.15-5.04 7.38-1.99 9.77-3.2 8.79-4.37-1.99-2.38-24.88-14.18-25.78-13.28-.43.43.47 4.84 1.99 9.8 4.49 14.81 4.53 14.81-11.95 7.74-6.17-2.62-12.31-5.16-13.63-5.55-1.33-.43-2.47-1.64-2.47-2.74 0-2.57 19.3-12.53 22.62-11.64 1.6.43 2.58-.07 2.58-1.32 0-1.1 5.9-4.93 13.36-8.6 10.47-5.19 13.59-6.21 14.53-4.76 2.03 3.28 4.38 28.55 2.81 30.43-.93 1.17-.9 1.87.2 2.22 1.87.63 3.94 10.51 4.06 18.99.08 7.93-1.91 7.69-16.01-1.96h-.08zm33.63-.46c-2.27-2.35-7.46-6.61-11.52-9.42-4.1-2.81-7.39-6.13-7.39-7.38 0-1.6 3.36-3.36 11.64-6.06 18.68-6.05 17.93-6.52 17.47 11.25-.4 13.91-.63 15.08-3.25 15.47-1.72.24-4.45-1.29-6.95-3.86zm35.78-2.66c-.82-1.52-6.37-7.03-12.34-12.23-5.98-5.19-11.06-10.27-11.29-11.29-.27-1.01 1.33-2.54 3.48-3.4 6.75-2.61 31.05-9.68 33.32-9.68 2.96 0 2.65 3.67-1.84 22.38-3.36 13.87-4.3 16.17-6.88 16.52-1.87.28-3.55-.62-4.45-2.34v.04zm-280.12-3.32c0-1.72.59-5.35 1.25-8.05.71-2.69 1.65-6.64 2.11-8.71l.86-3.83-7.34 4.34c-4.02 2.38-10 6.13-13.24 8.36-6.06 4.18-9.69 5.08-10.51 2.69-.27-.74-.08-7.85.39-15.74 1.37-23.01 2.34-41.87 2.5-49.02.12-5.78.51-6.64 3.12-6.64 4.11 0 32 18.4 32 21.13 0 1.33-2.93 3.55-7.35 5.55-10.07 4.57-24.84 12.93-24.84 14.1 0 .51 1.09 1.29 2.46 1.72 7.7 2.38 20.9 8.55 22.42 10.47 1.53 1.95 1.76 1.79 1.8-1.18.08-7.22 6.41-28.59 8.59-29.02 1.21-.23 5.86 2.03 10.43 5.04 4.53 3.01 9.65 6.21 11.41 7.11 1.72.9 3.12 2.58 3.12 3.71s1.22 2.07 2.7 2.07c1.48 0 6.84 2.62 11.84 5.82 7.03 4.49 8.86 6.33 7.92 7.97-1.09 1.95-18.12 8.01-27.07 9.65-4.88.9-4.96-.98-.35-11.37 4.3-9.73 4.34-10.59.35-9.57-5.5 1.45-28.43 11.45-26.25 11.48 4.5.08 21.02 7.82 21.02 9.85 0 1.99-24.18 15.39-27.77 15.39-.86 0-1.6-1.41-1.6-3.16l.03-.16zm320.67-7.27c-3.05-3.9-9.34-10.86-13.99-15.47-4.64-4.6-8.47-9.37-8.47-10.62 0-1.68 3.98-3.48 15.04-6.8 8.28-2.5 19.22-5.94 24.29-7.65 9.42-3.21 12.5-3.29 12.5-.39 0 .89-4.45 12.07-9.84 24.84-6.41 15.08-10.59 23.24-11.91 23.24-1.18 0-4.57-3.2-7.62-7.11v-.04zm-380.04-4.76c-1.52-2.46-5.2-38.44-4.06-39.61 1.91-1.92 36.79 12.89 36.79 15.62 0 1.25-2.96 4.42-6.64 7-3.67 2.61-10.31 7.73-14.76 11.44-8.21 6.76-10.04 7.66-11.33 5.55zm210.55-7.35c-5-1.36-10.78-2.54-12.82-2.61-3.75-.12-5.93-2.78-4.22-5.16.51-.7 4.22-3.79 8.29-6.8 4.02-3.04 6.87-6.01 6.25-6.6-.59-.58-7.7-1.91-15.75-2.93-10.86-1.36-14.76-2.38-15.03-3.94-.63-3.21 18.24-23.01 20.93-21.96 3.09 1.18 14.14 23.21 13.32 26.45-.43 1.64.04 2.62 1.29 2.62 2.42 0 12.27 19.18 11.21 21.83-.9 2.35-1.72 2.27-13.43-.94l-.04.04zM119.84 128.1c-1.25-4.41-4.49-14.92-7.18-23.36-7.27-22.58-6.8-23.75 6.99-17.54 4.61 2.07 14.96 6.53 22.93 9.92 7.97 3.36 14.84 7 15.27 8.09.47 1.17-1.72 3.95-5.43 6.95-3.4 2.78-10.62 9.3-16.09 14.54-5.43 5.23-10.86 9.49-12.07 9.49-1.45 0-2.93-2.7-4.42-8.05v-.04zm168.52 6.17c0-2.69 11.09-19.18 13.52-20.11.93-.36 1.44-1.37 1.13-2.31-.63-1.87 14.65-25.04 16.99-25.78 1.84-.55 18.75 21.33 18.75 24.26 0 1.09.55 1.95 1.25 1.95s4.53 4.14 8.52 9.22c8.43 10.74 8.51 14.02.35 12.7-2.89-.47-9.81-.86-15.39-.86-12.62 0-13.01-1.61-3.13-12.62 8.24-9.14 8.09-9.26-12.58-7.7l-13.28.98 8.01 7.38c12.27 11.33 12.07 11.53-14.73 14.14-8.12.82-9.45.63-9.45-1.32l.04.07zm173.59-7.89c-8.08-5.35-15.66-10.66-16.91-11.87-1.21-1.21-3.09-2.15-4.14-2.15-1.1 0-8.28-2.77-15.98-6.13-7.69-3.4-15.12-6.53-16.48-6.96-1.33-.43-2.42-1.75-2.42-2.89 0-2.69 29.06-24.65 31.44-23.75 1.25.47 2.7 7.19 4.3 20.08l2.5 19.38 16.91-8.91c11.29-5.94 17.54-8.52 18.87-7.73 1.56.97 1.72 4.64.7 20.5-.66 10.63-1.87 19.5-2.62 19.73-.74.23-8-3.95-16.09-9.26l-.08-.04zm-68.59-3.51c-9.18-3.09-13.28-5.12-13.28-6.64 0-2.85 19.88-18.17 22.85-17.62 2.38.43 9.77 19.69 9.92 25.98.12 4.14-2.65 3.9-19.49-1.72zm118.32-5.71c-3.09-2.69-10.82-8.78-17.19-13.47-6.37-4.69-11.4-9.26-11.13-10.08.62-2.03 42.89-24.38 46.37-24.53 2.34-.12 2.54.58 1.72 6.52-2.23 15.94-10.04 45.82-12.07 46.13-1.14.2-4.58-1.87-7.7-4.57zm-245.7 1.02c0-4.18 10.66-26.8 12.65-26.8 2.58 0 21.64 18.28 21.64 20.74 0 1.68-3 2.86-11.91 4.65-23.28 4.77-22.42 4.73-22.42 1.41h.04zM158.87 102.2c-.71-1.91-6.33-47.22-6.33-50.7 0-2.66 3.91-2.81 6.87-.23 1.21 1.05 10.86 7.38 21.37 14.06 13.13 8.32 18.95 12.77 18.44 14.14-.43 1.09-4.3 3.98-8.67 6.44-4.38 2.47-12.46 7.54-18.01 11.25-10.59 7.15-12.7 7.93-13.71 5.04h.04zm78.55-.78c-.47-.78.7-7.93 2.62-15.9 1.91-7.97 3.51-15.47 3.51-16.64 0-1.21.86-3.36 1.92-4.8 1.87-2.54 2.03-2.5 5.94.54 8.67 6.76 25.54 24.26 24.92 25.86-.35.9-4.1 2.47-8.32 3.44-4.22.98-11.29 3.05-15.74 4.61-11.37 3.99-13.91 4.49-14.89 2.89h.04zm152.46-7.38c-4.65-1.45-11.25-3.01-14.72-3.48-14.5-1.95-14.54-3.16-.36-17.69 5.98-6.1 11.37-11.99 12-13.13.58-1.09 2.26-1.99 3.63-1.99 2.03 0 3.55 3.44 7.66 17.15 2.81 9.41 5.11 18.24 5.11 19.61 0 3.04-2.46 2.97-13.32-.43v-.04zm81.88-5.7c-3.48-2.15-11.8-6.57-18.52-9.85-8.28-3.98-12.26-6.68-12.26-8.28 0-1.33 3-4.61 6.64-7.26 3.63-2.7 12.54-9.38 19.72-14.85 7.19-5.47 14.07-9.92 15.28-9.92 1.91 0 2.07 2.97 1.17 25.43-.55 13.98-1.33 26.17-1.64 27.07-.98 2.54-3.56 1.99-10.35-2.27l-.04-.07zm-193.21-.12c0-3.63 14.46-36.06 16.1-36.06 1.91 0 24.53 29.5 24.53 32 0 .89-.78 1.64-1.76 1.64-.97 0-8.67.93-17.15 2.07-18.82 2.54-21.72 2.58-21.72.35zm72.11-1.13c-3.86-.59-11.83-1.18-17.77-1.21-5.94-.08-11.17-.79-11.68-1.61-1.25-1.99 19.14-33.36 21.76-33.43 1.33-.04 5.35 6.25 10.74 16.71 7.66 14.93 8.4 17.04 6.56 18.91-1.17 1.13-2.22 1.99-2.34 1.88-.16-.08-3.4-.67-7.27-1.29v.04zm-147.38-9.42c-3.08-1.01-1.09-53.51 2.07-54.57.94-.31 6.6 4.1 12.62 9.77 6.01 5.66 14.57 13.71 19.02 17.85 4.46 4.14 7.93 8.4 7.7 9.49-.24 1.06-4.18 3.2-8.83 4.77-4.61 1.56-13.44 5.15-19.61 8.04-6.17 2.89-12.03 5-12.97 4.65zm225.82-10c-4.45-1.95-20-6.87-33.87-10.7-.89-.24-1.52-1.41-1.32-2.58.5-3.24 33.47-38.63 36.05-38.63 1.84 0 2.7 3.24 4.61 17.81 2.81 21.41 3.44 35.63 1.48 36.13-.78.24-3.9-.7-6.99-2.07l.04.04zm-181.91-8.32c-.47-.78 1.64-12.34 4.72-25.66 3.09-13.32 5.63-24.73 5.63-25.31 0-.59 1.13-1.06 2.54-1.06 3.08 0 31.56 36.99 31.68 41.17.08 2.39-1.37 3.05-9.73 4.49-8.94 1.53-23.44 4.77-30.98 6.96-1.64.47-3.39.23-3.86-.59zm136.21-5.08c-.59-.58-33.28-4.96-37.23-4.96-.97 0-1.79-.7-1.79-1.6 0-3.32 27.3-44.45 29.57-44.53 1.67-.04 3.28 3.2 6.01 12.19 2.07 6.75 5.27 17.18 7.19 23.2 4.37 13.91 4.41 16.37.15 16.37-1.79 0-3.55-.28-3.9-.67zm-87.38-5.23c-1.1-2.85 17.65-47.23 20.62-48.83 2.03-1.09 4.02 1.95 13.67 21.09 6.17 12.31 11.25 23.68 11.25 25.2 0 2.7-.86 2.85-15.04 2.85-8.28 0-18.36.43-22.38.9-5.78.7-7.5.43-8.12-1.21zM326.29 506.73c-3.79-7.65-6.76-14.02-6.56-14.21.19-.2 6.56-.55 14.1-.82 9.96-.4 13.71-.24 13.71.42 0 .51-2.66 7.11-5.9 14.73-3.98 9.3-6.33 13.79-7.15 13.79-.78 0-3.79-5.04-8.2-13.87v-.04zm-26.52 11.61c-.9-1.49-8.17-26.22-8.25-28.05-.11-2.38-.27-2.38 11.37-.51 4.49.7 9.92 1.52 12.07 1.8 2.15.23 3.91.82 3.91 1.25 0 .47-2.35 4.37-5.2 8.75-2.85 4.37-6.52 10.08-8.2 12.65-2.7 4.3-4.77 5.75-5.74 4.11h.04zm57.61-13.48c-4.72-6.37-8.71-12.07-8.83-12.62-.39-1.44.28-1.68 8.83-3.16 4.3-.74 9.77-1.92 12.19-2.62 3.01-.86 4.65-1.01 5.23-.43.59.55.04 4.49-1.79 12.54-3.99 17.66-4.03 17.85-5.63 17.85-.86 0-4.8-4.61-10-11.6v.04zm-90.43 4.88c-1.33-6.64-3.47-28.98-2.85-29.65.47-.47 2.19-.23 4.65.75 2.11.86 7.73 2.69 12.42 4.1 4.69 1.44 8.71 3.08 8.91 3.63.19.59-2.58 4.06-6.1 7.73-3.55 3.68-8.16 8.64-10.23 11.02-4.1 4.65-6.17 5.39-6.76 2.46l-.04-.04zm124.65-8.59c-3.75-3.56-8.71-8.24-11.09-10.43-2.35-2.19-4.3-4.42-4.3-4.96 0-.59 2.85-2.07 6.33-3.28 3.48-1.29 8.71-3.36 11.56-4.65 7.81-3.56 7.97-3.44 7.58 6.72-.51 14.96-1.29 22.38-2.34 22.73-.55.2-4.07-2.58-7.78-6.13h.04zm-154.84-3.28c-.16-.35.04-7.5.47-15.98.66-12.19 1.05-15.35 1.99-15.35.62 0 3.98 1.64 7.46 3.63s8.44 4.61 11.02 5.78c3.04 1.37 4.72 2.66 4.72 3.56 0 .86-4.65 4.88-11.76 10.15-11.32 8.44-13.12 9.54-13.86 8.21h-.04zm189.96-6.6c-.24-.36-5.59-3.95-11.92-8.01-6.36-4.03-11.48-7.85-11.48-8.52 0-.7 1.91-2.3 4.3-3.59 2.34-1.29 7.26-4.3 10.93-6.76 3.68-2.42 7.04-4.37 7.5-4.37.47 0 1.14 2.34 1.45 5.19.31 2.89 1.21 9.81 1.99 15.35.78 5.59 1.29 10.43 1.1 10.74-.43.82-3.32.79-3.83-.03h-.04zm3.05-111.84c.35.31 5-9.69 5.85-12.62 1.02-3.51 3.25-2.15 6.02 3.71 1.45 3.05 2.7 6.06 2.81 6.76.12.67.63 1.6 1.14 2.07 1.52 1.33 7.69 13.6 7.69 15.27 0 .86.31 1.53.74 1.53 1.29 0 11.21 20.31 10.32 21.21-.51.51-5 .59-11.96.23l-11.13-.54.98 3.67c.54 2.03 1.99 6.95 3.24 10.94 1.33 4.33 1.91 7.54 1.48 8-.43.47-4.53-.11-10.11-1.44-14.73-3.4-13.4-3.28-12.82-1.1 1.25 4.73 2.5 20.51 1.72 21.26-.54.58-3.98-.51-10.58-3.36-5.39-2.27-10.24-4.57-10.82-5.04-.79-.67-1.02.78-1.1 6.83-.12 10.63-.9 16.68-2.22 16.68-1.68 0-18.91-11.33-19.3-12.65-.16-.71-.39-.32-.43.82-.08 1.13-1.02 5.89-2.15 10.62-1.13 4.73-2.23 9.45-2.46 10.47-.23 1.02-.94 1.84-1.56 1.84-.63 0-4.69-3.32-9.03-7.39-4.33-4.1-8.16-7.22-8.51-7.03-.35.2-2.46 4.85-4.69 10.28-2.62 6.4-4.49 9.88-5.27 9.88-.71 0-4.1-3.87-7.62-8.6-3.52-4.72-6.68-8.59-7.07-8.59-.39 0-3.32 4.06-6.56 9.02-3.25 4.96-6.37 8.99-6.96 8.99-.58 0-3.39-4.69-6.21-10.43-2.81-5.74-5.43-11.02-5.82-11.68-5.31-9.69-8-15.35-7.69-16.17.19-.55.04-1.02-.39-1.02-1.21 0-7.23-11.48-6.8-13.08.35-1.33.9-1.29 8.28.54 4.38 1.06 13.01 2.39 19.18 2.89 12.81 1.02 13.44 1.49 8.36 6.41-5.74 5.55-5.62 5.7 4.34 5.66l8.82-.04-4.72-4.49c-5.78-5.43-5.9-7.15-.55-7.5 2.03-.15 6.02-.58 8.95-1.01 2.89-.39 5.54-.59 5.93-.35 1.29.78.67 2.81-2.03 6.67-4.49 6.45-4.45 6.22-.9 5.55 7.27-1.29 14.26-3.08 14.22-3.59-.04-.31-2.07-1.84-4.57-3.4-4.84-3.05-6.87-5.55-5.04-6.09.59-.16 4.38-1.33 8.44-2.62 4.02-1.25 7.77-2.42 8.28-2.58 1.88-.55 1.8 2.34-.23 7.34-1.14 2.86-2.46 5.59-2.89 6.1-.71.86 9.29-2.78 15.08-5.51l2.26-1.05-5.94-2.62c-3.28-1.45-6.05-3.17-6.17-3.79-.15-.78 2.46-2.5 7.5-5 4.26-2.11 8.09-3.87 8.6-3.87 1.64 0 1.75 1.56.5 6.99-.7 3.05-1.09 5.71-.86 5.9.63.63 14.42-7.81 14.42-8.83 0-.31-1.37-.82-3.09-1.09-9.69-1.6-11.68-3.48-6.91-6.41 1.64-1.01 5-3.47 7.38-5.43 6.06-4.92 6.88-4.37 6.17 4.03-.66 7.93-.74 7.93 8.28-.39l5.75-5.24-6.76-.58c-3.71-.35-6.99-.94-7.23-1.33-.62-1.02 12.11-14.49 13.28-14.06.55.19 1.21 2.65 1.53 5.43.86 7.42 1.29 7.85 4.57 3.98 1.52-1.8 4.02-5 5.54-7.11l2.78-3.87-3.4.51c-1.88.28-4.88.7-6.68.98-2.46.39-3.4.19-3.75-.74-.59-1.53 8.67-15.75 10.27-15.75 1.25 0 5.16 11.21 4.73 13.48-.16.7.16 1.64.66 2.11.51.47 1.76 3.59 2.74 6.95 1.01 3.36 1.99 6.64 2.18 7.27.2.7 1.33-.2 3.09-2.5 3.67-4.81 9.65-14.61 8.91-14.61-.32 0-3.91.55-7.97 1.13-4.06.63-7.66.94-8.01.74-1.21-.74-.51-2.85 3.48-10.35 2.22-4.22 4.1-7.89 4.1-8.12 0-.24-2.85.43-6.29 1.48-4.38 1.33-6.6 1.68-7.31 1.13-.5-.42-1.09-.46-1.25-.11l1.22-2.58zm-99.38 89.96c0-.23-2.03-3.12-4.49-6.41-2.46-3.28-4.49-6.36-4.49-6.91 0-.51-.36-1.13-.82-1.41-.47-.27-.59.04-.32.79.35.85-1.36 3.28-5.11 7.22l-5.59 5.94 3.67.47c4.81.62 17.19.86 17.19.27l-.04.04zm14.1-.47c4.65-.51 8.91-1.17 9.53-1.48.75-.43-.58-2.11-4.49-5.74-3.08-2.82-5.86-5.75-6.13-6.49-.47-1.13-.59-1.05-.63.31-.04.9-1.29 3.48-2.77 5.75-5.16 7.73-5.66 8.59-4.77 8.59.47 0 4.69-.43 9.3-.9l-.04-.04zm26.29-5.78c3.95-1.29 7.81-2.3 8.56-2.3.74 0-1.92-2.07-5.94-4.61-3.99-2.54-7.78-5.2-8.28-5.94-.55-.74-1.25-1.09-1.6-.74-.32.35-.16.62.35.62 1.56 0 1.13 1.99-1.92 8.91-1.56 3.59-2.89 6.72-2.89 6.99 0 .66 2.82-.04 11.72-2.93zm24.53-10.35c3.05-1.64 5.51-3.2 5.51-3.48 0-.27-3.24-1.79-7.15-3.43-5-2.04-7.15-3.36-7.07-4.26.08-.71-.19-1.1-.62-.86-.39.23-.75 1.44-.75 2.65s-.7 5.24-1.52 8.91l-1.52 6.68 3.79-1.64c2.07-.9 6.29-2.97 9.33-4.61v.04zm-76.91.43c-2.15-3.56-7.19-9.61-7.62-9.02-.66.89-6.52 5.31-8.63 6.52-1.64.94-1.64.98.35 1.44 2.73.67 11.33 1.88 14.18 2 1.64.07 2.11-.2 1.68-.94h.04zm92.73-10.55c3.13-2.3 6.64-5.04 7.85-6.05l2.23-1.88-7.54-1.79c-4.14-.98-7.93-2.11-8.36-2.47-.51-.43-.9 2.31-1.09 7.86-.16 4.84.08 8.55.51 8.55s3.28-1.87 6.4-4.18v-.04zm19.03-26.37c-4.81-.39-8.71-1.13-9.07-1.64-.47-.7-.58-.7-.62.04 0 .55.31 1.18.74 1.45.43.23 1.02 3.71 1.33 7.62.31 3.94.78 7.5 1.01 7.96.28.39 3.75-2.73 7.74-6.99l7.3-7.73-8.43-.71zm-140.2 70.12c-.39-.7-5.39-17.58-6.05-20.47-.55-2.42.78-2.38 13.28.55 7.5 1.76 9.84 2.58 9.84 3.59 0 1.64-14.06 16.96-15.58 16.96-.63 0-1.29-.28-1.49-.63zm-81.29-7.07c-.23-.62.12-3.12.78-5.55.67-2.42 2.23-8.86 3.44-14.37 1.25-5.51 2.73-10.16 3.28-10.39.59-.24 2.27.7 3.75 2.03 1.49 1.33 6.13 5.08 10.31 8.28 4.18 3.2 7.5 6.17 7.35 6.64-.31.9-25.86 14.38-27.46 14.46-.59 0-1.25-.47-1.49-1.06l.04-.04zm54.18-3.2c-.86-4.03-2.26-20.27-1.83-21.37.23-.62.11-1.48-.28-1.91-.78-.78-2.38-10.51-2.38-14.85 0-1.79.39-2.65 1.17-2.65.67 0 4.65 1.83 8.87 4.1 4.22 2.23 7.89 4.1 8.12 4.1.39 0-1.52-6.87-2.97-10.66-.27-.67-.15-1.76.28-2.35.58-.94 2.15-.54 8.47 2.23 4.26 1.87 8.21 3.4 8.75 3.4.55 0 .86.62.75 1.4-.16.82-2.78 2.78-6.02 4.46l-5.74 3 2.46.98c1.37.55 5.23 1.84 8.59 2.85 6.88 2.03 8.75 3.79 6.18 5.63-.9.62-3.83 2.85-6.49 4.92s-5.55 3.79-6.37 3.79c-.82 0-1.48.51-1.48 1.13 0 1.49-16.21 13.6-18.16 13.6-.86 0-1.65-.79-1.88-1.88l-.04.08zm17.77-20.47c-1.17-3.71-2.18-7.58-2.22-8.59-.16-2.07-1.21-3.6-1.21-1.68 0 .66-2.07 2.22-4.61 3.47-2.54 1.25-5.74 2.93-7.11 3.79l-2.5 1.53 6.52 3c6.37 2.93 11.68 5.08 12.81 5.2.32.04-.42-3.01-1.6-6.72h-.08zm160.55 10.62c-9.76-4.25-13.32-6.17-13.32-7.18 0-.78 1.76-2.82 3.91-4.53 2.15-1.72 6.36-5.51 9.37-8.36 3.01-2.89 5.94-5.12 6.49-4.93.54.2 1.83 3.09 2.81 6.45 1.02 3.36 2.85 9.41 4.06 13.48 2.7 8.71 2.89 10.54 1.25 10.74-.66.08-7.22-2.46-14.53-5.63l-.04-.04zm-202.62-1.99c-.11-.9.28-18.28.47-20.7.12-1.13.75-2.19 1.45-2.31 1.76-.35 19.49 11.41 19.49 12.97 0 .78-3.55 3.01-9.41 5.94-9.03 4.49-11.76 5.43-11.96 4.1h-.04zm-53.98-8.2c0-2.23 11.09-27.54 12.23-27.89.54-.2 2.73 1.6 4.8 4.02 2.07 2.46 5.9 6.64 8.52 9.38 2.61 2.73 4.72 5.5 4.72 6.17 0 .86-4.25 2.46-14.14 5.47-7.77 2.34-14.57 4.29-15.15 4.26-.59 0-1.02-.67-1.02-1.49l.04.08zm46.88-67.58c-.71-.58-1.02-.55-1.02.08 0 .51.27.94.66.94.36 0 1.29 1.09 2.07 2.38.79 1.33 3.09 4.41 5.08 6.91 2.03 2.5 3.67 5.12 3.67 5.86 0 .71.28 1.18.63.9.35-.19 3.91 2.74 7.93 6.52 4.02 3.79 7.42 6.92 7.62 6.92.15 0 2.96 1.76 6.21 3.94 3.24 2.19 6.56 4.22 7.34 4.5.78.27 1.45 1.25 1.45 2.18 0 1.33-1.14 2-5.79 3.4-3.16.94-6.64 1.6-7.77 1.37-1.09-.23-1.8-.08-1.56.31.23.39-.43 1.06-1.45 1.49-4.02 1.64-12.97 4.14-14.8 4.14-1.06 0-2.27.35-2.7.74-1.79 1.72-23.32 7.66-23.32 6.41 0-1.92 5.24-22.54 5.94-23.48.86-1.13.82-1.13-.35-.24-1.06.86-18.01 3.4-22.62 3.44-1.79 0-1.13-2.77 3.01-12.77l4.02-9.73-5.47-.51c-3-.27-8.12-.54-11.4-.62-5.28-.08-5.94-.27-5.94-1.68 0-2.58 10.82-18.87 12.54-18.87 1.02 0 2.19 1.49 3.63 4.69 1.17 2.58 3.44 6.87 4.96 9.53l2.82 4.84 3.08-7.26c1.72-4.02 3.67-7.38 4.38-7.54.74-.16 1.05-.74.78-1.48-.39-.98-.63-1.02-1.13-.2-.51.86-2 .74-7.39-.39-9.33-1.99-10.86-2.66-10.39-4.45.71-2.74 8.99-14.92 9.92-14.61.51.15 2.46 4.1 4.34 8.71 1.87 4.61 3.59 8.59 3.79 8.79.19.19 1.4-2.15 2.69-5.2 2.15-5.11 3.25-6.76 4.54-6.76.27 0 2.18 3.48 4.25 7.78 2.07 4.29 3.99 7.77 4.3 7.77l1.45 1.25zm9.1 34.3c.27-.67-.47-.74-2.66-.28-1.64.36-5.62.9-8.87 1.22l-5.82.54 15.78 14.85.59-7.7c.31-4.22.74-8.08.94-8.63h.04zm16.4 5.23c-.35-2.81-.66-5.7-.66-6.4-.04-1.06-.67-1.18-3.75-.67-2.07.31-5.39.67-7.38.74-2.04.04-3.13.32-2.46.59.66.27 3.08 1.99 5.31 3.87 4.14 3.43 8.79 6.91 9.29 6.95.16 0 0-2.3-.35-5.08zm-33.94-12.69c.54-2.7 1.48-6.57 2.11-8.6.62-2.03 1.56-6.25 2.11-9.41.54-3.13 1.4-6.29 1.91-6.91.51-.67.55-.94.08-.71-.47.28-3.17-.04-6.02-.7-2.85-.63-5.5-1.09-5.9-.94-.39.16 1.33 3.48 3.83 7.38 6.06 9.54 5.9 10.08-2.89 9.77-3.79-.16-7.58-.39-8.36-.55-1.4-.27-1.4-.15-.04 1.92 1.57 2.46 5.08 7.18 8.79 11.79 1.33 1.64 2.66 2.78 2.93 2.43.28-.32.98-2.82 1.53-5.51l-.08.04zm18.01-4.73l.07-4.69h-6.17c-7.15 0-7.15-.39 0 7.66 4.65 5.23 5 5.47 5.51 3.67.31-1.05.59-4.02.62-6.64h-.03zm222.07 33.67c-7.43-1.79-13.87-3.59-14.3-4.02-.47-.47.19-1.91 1.83-3.87 1.45-1.68 5.08-6.29 8.09-10.23 3.01-3.95 5.94-7.15 6.49-7.15 1.28 0 14.25 24.49 14.25 26.91 0 2.23-.15 2.23-16.36-1.64zm-298.6-13.86c-.27-.47 3.13-6.45 7.58-13.29 8.67-13.32 10.43-14.84 12.34-10.5.59 1.29 3.44 6.01 6.37 10.46 2.93 4.42 5.2 8.6 5.08 9.26-.16.94-2.81 1.57-10.47 2.54-16.68 2.15-20.35 2.42-20.9 1.53zM482.73 419c-5.19-.31-11.01-.62-12.93-.7-4.57-.12-4.49-.98.63-9.92 2.23-3.95 4.84-8.87 5.78-10.94 1.06-2.42 2.19-3.79 3.09-3.79.78.04 2.85 2.11 4.65 4.73 1.79 2.53 5.78 7.92 8.86 11.91 3.24 4.14 5.43 7.73 5.2 8.4-.28.74-1.49 1.13-3.13 1.01-1.48-.08-6.91-.39-12.11-.7h-.04zm-317.81-16.48c-14.69-.79-15.58-.94-15.54-2.5 0-1.53 19.6-22.35 21.01-22.35.74 0 2.34 2.89 4.3 7.78 1.72 4.29 3.86 9.41 4.84 11.4 2.11 4.34 2.19 5.43.47 6.13-.7.28-1.37.43-1.45.4-.07-.08-6.21-.47-13.63-.86zm289.38-7.82c-.24-.58 1.25-5.04 3.28-9.88 5.39-12.81 5.58-11.8-1.72-9.53-9.61 3.01-9.92 3.05-10.35 1.83-.39-1.05 4.22-16.32 5.58-18.51 1.1-1.76 1.88-1.17 6.72 5.16 2.62 3.39 5.04 5.89 5.39 5.5.39-.39 1.29-3.24 2.03-6.36.75-3.17 1.76-7.5 2.31-9.77.55-2.23 1.37-4.18 1.87-4.34 1.14-.39 17.43 14.42 17.43 15.86 0 .59-4.42 2.43-10.59 4.38-11.72 3.71-12.07 3.75-12.62 2.3-.23-.58-.43-.43-.47.43-.04.78.39 1.45.94 1.49 1.52.08 13.87 17.07 13.56 18.63-.36 1.88-22.66 4.61-23.36 2.81zm25.5-3c-.27-.67.63-4.3 2-8.05 2.54-7.03 3.71-10.86 4.61-14.77.82-3.67 3-2.73 10.82 4.53 3.98 3.75 8.82 8.21 10.78 9.97 5.94 5.42 5.86 5.46-11.68 7.42-6.33.7-12.46 1.48-13.71 1.72-1.57.31-2.42.07-2.74-.79l-.08-.03zm-295.62-11.49c-4.06-1.01-8.4-2.11-9.69-2.42-1.68-.43-2.22-1.02-2.07-2.19.31-1.91 13.75-17.03 15.24-17.11.58-.04 1.36.74 1.75 1.76 1.68 4.26 5.79 18.59 5.79 20.2 0 2.18-1.29 2.14-11.06-.24h.04zm-30.16-7.03c-7.57-1.72-13.98-3.36-14.22-3.59-.27-.24-.23-.98 0-1.64.59-1.57 23.09-18.52 24.54-18.52.97 0 4.29 13.24 6.05 24.37.55 3.36 1.06 3.4-16.41-.58l.04-.04zm59.3-4.06c-2.89-1.29-5.66-2.85-6.13-3.48-.51-.62-1.49-1.02-2.19-.86-.74.12-4.61-1.17-8.59-2.97-5.82-2.58-7.23-3.51-7-4.72.32-1.68 9.77-12.04 11.33-12.43 1.37-.35 2.42 2 3.05 6.8.31 2.23 1.13 5.9 1.83 8.05l1.29 3.94 3.21-5.19c1.76-2.85 3.2-5.39 3.2-5.63 0-.35-7.19-5.43-12.19-8.59-.7-.47-4.33-2.77-8.08-5.12-3.75-2.38-6.8-4.84-6.8-5.51 0-.7-.47-1.01-1.21-.74-1.45.59-20.08-11.52-20.08-13.05 0-.58 4.61-3.43 10.27-6.32 7.97-4.1 10.43-5.04 10.94-4.22.51.82.78.7 1.13-.55.47-1.83 14.85-9.53 16.22-8.71.43.27.78.12.78-.39 0-.47-.47-.9-1.02-.9-1.48-.08-9.92-11.41-10-13.4-.04-1.4 1.21-2.11 7.74-4.33 4.29-1.45 8.24-2.46 8.78-2.31.55.2 1.22 0 1.49-.43s-.08-.78-.78-.78c-1.8 0-8.75-13.98-7.78-15.7.47-.86 2.47-1.49 5.86-1.84 2.82-.31 6.68-.74 8.56-1.01 2.85-.39 3.47-.24 3.79 1.05.31 1.25.43 1.29.51.16.11-1.68 1.28-2.03 8.9-2.74 5.08-.47 5.94-.35 5.94.75 0 1.99-8.99 15.27-10.31 15.27-1.33 0-1.29.12-3.17-6.76-.7-2.58-1.64-4.73-2.03-4.73-.82 0-8.59 14.69-8.05 15.24.2.19 2.5-.39 5.12-1.29 6.33-2.15 7.77-2.11 7.77.23 0 1.02-.31 2.23-.7 2.66-.39.43-1.76 3.48-3.04 6.8-1.29 3.32-2.78 6.21-3.29 6.4-.54.2-.78 1.06-.58 1.88.23.82-.16 3.47-.86 5.9-.7 2.42-1.49 6.13-1.8 8.24-.78 5.31-2.38 5.04-6.83-1.13-2.5-3.44-3.79-4.65-4.22-3.87-.67 1.29-2.66 16.33-2.19 16.76.16.15 2.5-1.33 5.16-3.36 2.65-2.03 5.35-3.67 5.93-3.67.9-.04 1.02 1.87.71 9.6-.51 11.68-1.02 12.08-7.74 5.67l-4.72-4.49.43 8.47c.23 4.65.62 8.71.89 8.99.28.27 2.23-1.37 4.3-3.71 4.57-5.08 6.56-5.2 6.91-.35.12 1.79.59 5.82 1.06 8.94.66 4.45.62 5.82-.2 6.33-.82.51-.78.66.2.7.82 0 1.95 2.46 3.51 7.58 3.75 12.27 3.56 12.62-5.11 8.83l-.12.04zm-21.29-41.45c2.66-2.07 5.86-4.26 7.11-4.92 1.25-.66 1.8-1.17 1.21-1.17-.55 0-3.44-2.31-6.4-5.12-2.97-2.81-5.71-5.23-6.02-5.35-.35-.12-.86.94-1.17 2.34-.67 3.25-.71 17.97-.04 17.97.27 0 2.66-1.68 5.31-3.75zm18.59-32.42c2.58-1.41 4.97-2.81 5.28-3.09.74-.66-4.06-10.7-5.12-10.7-.43 0-1.72 3.24-2.89 7.19-1.17 3.94-2.27 7.62-2.46 8.2-.47 1.45-.04 1.33 5.19-1.52v-.08zm277.66 68.28c-.16-.78 0-2.73.39-4.3.35-1.56 1.13-7.11 1.68-12.3.78-7.34 1.29-9.41 2.23-9.41 1.87 0 26.17 16.01 26.17 17.22 0 .63-4.3 2.42-10.86 4.49-5.98 1.88-12.5 3.95-14.49 4.57-4.61 1.49-4.81 1.49-5.16-.27h.04zm-50.62-.82c0-.78.78-5 1.79-9.41 1.33-6.02 2.11-7.97 3.09-7.97.7 0 3.01 2.26 5.12 5l3.82 5.04.59-3.17c.31-1.72 1.02-6.05 1.52-9.68.51-3.64 1.37-6.68 1.92-6.84.54-.2 3.32 1.91 6.17 4.65 2.85 2.73 5.59 5 6.09 5 .98 0 1.64-4.92 2.07-15.9.16-4.02.04-6.56-.31-5.66-.51 1.36-5.94 5.74-13.55 10.93-.94.67-3.91 2.93-6.57 5.08-2.65 2.15-5.5 3.91-6.36 3.91-1.45 0-1.53-.47-1.02-6.29.27-3.44.55-7.7.55-9.42 0-4.45 1.83-4.14 7.34 1.33l4.53 4.49-.27-10-.23-10-4.73 5.24c-5.82 6.48-6.95 6.33-7.31-.86-.15-2.85-.58-6.8-1.05-8.75-1.37-6.05-.27-6.37 6.84-1.84 2.81 1.76 5.19 3.09 5.35 2.93.15-.15-.59-4.33-1.6-9.33-1.06-4.96-1.61-9.3-1.29-9.65.74-.74 4.92.66 12.57 4.3 3.25 1.52 6.1 2.77 6.37 2.77 1.13 0 18.95 7.73 20.04 8.71 1.52 1.41 1.06 1.91-8.87 9.34-4.53 3.36-8.2 6.32-8.2 6.52 0 .23 4.26 3.12 9.41 6.44 5.16 3.29 9.38 6.49 9.38 7.04 0 .58-4.69 3.36-10.43 6.21-5.74 2.85-11.02 5.51-11.68 5.86-7.38 4.06-15.78 8.08-16.17 7.69-.24-.23-.86.08-1.37.74-.9 1.18-11.6 7-12.89 7-.39 0-.74-.63-.74-1.45h.08zm31.68-46.25c-.28-2.81-.94-7.73-1.49-10.94l-.97-5.82-5.28 6.02c-2.89 3.32-5.74 6.01-6.4 6.01-.67 0-1.18.36-1.18.82 0 .43.63.83 1.45.83.78 0 4.18 1.83 7.58 4.06 3.36 2.22 6.29 4.06 6.44 4.06.2.04.12-2.27-.19-5.08l.04.04zm-285.98 39.92c-1.37-.58-5.59-2.42-9.41-3.98-5.04-2.07-6.96-3.28-6.96-4.34 0-1.68 16.49-14.45 17.97-13.9.55.19 1.41 4.18 1.99 9.25.59 4.89 1.25 10.12 1.49 11.57.39 2.22.19 2.65-1.06 2.57-.86-.03-2.61-.54-3.98-1.17h-.04zm-34.61-14.61c-9.18-4.06-13.24-6.21-13.09-7.03.2-1.21 27.19-15.51 27.86-14.76.19.23.62 6.6.89 14.14.51 12.81.43 13.71-.89 13.63-.79-.04-7.47-2.7-14.77-5.94v-.04zm342.73-18.71c-.31-7.69-.19-13.59.2-14.02 1.21-1.17 28.71 10.78 28.71 12.46 0 .94-4.18 3.44-13.51 8.12-7.47 3.72-13.83 6.76-14.22 6.76-.39 0-.9-5.97-1.21-13.28l.03-.04zm-332.3-5.94c-1.56-1.09-7.19-4.8-12.5-8.2-5.31-3.4-9.61-6.76-9.61-7.42 0-.66.12-1.21.27-1.21.16 0 6.33-1.84 13.71-4.1 15.59-4.73 17.54-5 16.84-2.15-.74 2.93-2.93 17.69-3.16 21.41-.28 4.02-1.64 4.45-5.55 1.71v-.04zm17.42-16.71c-4.18-3.95-7.58-7.82-7.58-8.6 0-.78.16-1.4.32-1.4.15 0 4.92-1.45 10.58-3.17 5.63-1.76 10.7-2.89 11.25-2.54.74.47.47 2.78-1.09 9.53-1.17 4.89-2.23 9.85-2.35 10.94-.46 3.95-3.12 2.81-11.09-4.76h-.04zm313.95 6.29c-.2-.63-.78-3.52-1.29-6.45s-1.64-8.16-2.5-11.6c-.86-3.44-1.6-6.68-1.6-7.19 0-1.41 2.85-1.05 17.18 2.31 9.93 2.3 13.6 3.47 13.75 4.41.16.86-3.75 4.3-11.25 9.96-12.54 9.45-13.75 10.16-14.33 8.52l.04.04zm-50.78-4.18c-.16-.55-1.25-3.99-2.43-7.58-3.39-10.51-2.85-11.88 3.68-8.56 1.79.94 4.14 2 5.19 2.42 1.72.67 1.88.55 1.49-1.05-.24-.98-1.53-4.37-2.86-7.5-2.93-6.95-3.43-9.1-2.46-9.69.43-.23 3.67.24 7.27 1.14 3.55.85 7.11 1.75 7.85 1.91 1.17.27 1.25 0 .62-1.64-.93-2.5-6.75-14.14-8.24-16.49-1.95-3.12-.35-3.51 11.57-2.85 9.49.55 11.05.82 11.28 2.03.28 1.49-8.82 16.45-11.44 18.79-.86.75-1.52 1.72-1.52 2.19 0 1.6-8.44 14.06-9.54 14.06-.62 0-1.13.71-1.13 1.6 0 .86-1.52 4.03-3.44 6.96-3.24 5.12-5.27 6.6-5.89 4.33v-.07zm-16.84-37.97c0-.35-2.07-3.32-4.57-6.6-2.5-3.29-4.34-6.37-4.02-6.8.54-.9 10.27-1.13 13.32-.35 2.22.58 2.26 1.44.46 9.1-1.09 4.69-1.71 5.94-2.85 5.94l-2.34-1.29zm43.52 31.44c-1.49-3.67-5.83-18.51-5.83-19.84 0-1.8 1.96-1.64 13.09 1.01 6.95 1.68 9.49 2.62 9.69 3.64.27 1.44-13.09 16.4-15.08 16.87-.62.16-1.48-.58-1.87-1.64v-.04zm-310.94-15.51c-5.86-5.46-10.78-10.46-10.9-11.05-.35-1.52.16-1.68 16.13-3.59 9.61-1.18 14.49-1.45 15.08-.9.59.54.27 2.22-.9 5.19-.97 2.39-2.77 7.85-4.02 12.11-1.45 4.96-2.7 7.85-3.48 7.97-.66.12-6.01-4.26-11.87-9.73h-.04zM430 276.3c-2.07-4.21-3.75-8.08-3.75-8.63 0-1.29 1.87-1.25 7.38.24 5.28 1.4 5.75 1.48 5.75.54 0-.39-2.04-3.94-4.5-7.85-2.5-3.94-4.53-7.69-4.53-8.32 0-.86 1.41-1.13 5.94-1.13 8.36 0 12.07.74 12.07 2.34.04 2.35-5.94 15.67-6.99 15.67-.59 0-.86.62-.67 1.44.51 2.07-4.1 12.85-5.62 13.17-.9.19-2.38-2.04-5.04-7.39l-.04-.08zm-245.74-1.64c-5.94-8.08-7.42-11.25-5.16-11.25.59 0 5.47-.54 10.86-1.21 5.39-.66 10.08-1.21 10.43-1.21 1.29 0 .51 3.13-2.69 10.67-1.84 4.29-3.68 8.59-4.11 9.61-.43 1.01-1.29 1.83-1.95 1.83-.66 0-3.98-3.79-7.38-8.4v-.04zm299.57 2.86c-1.88-5.28-6.49-16.68-7.81-19.34-1.02-2.03-1.29-3.44-.79-3.95.47-.46 6.53-.54 15.98-.19 13.01.51 15.27.78 15.47 1.91.31 1.53-19.53 23.01-21.25 23.01-.63 0-1.33-.66-1.6-1.44zm-317.54-26.84c-9.41-12.62-10.27-14.88-5.24-14.02 1.45.27 8.33.7 15.24 1.01 9.26.43 12.66.86 12.97 1.64.23.59-.9 3.24-2.5 5.9-1.6 2.62-4.26 7.62-5.9 11.09-1.95 4.11-3.44 6.29-4.34 6.29-.78 0-5.19-5.11-10.23-11.87v-.04zm29.57.04c-2.58-5.2-4.69-10.04-4.69-10.78 0-1.17 1.17-1.29 10.86-.9 5.98.23 11.6.74 12.5 1.09 1.45.59 1.52.47.55-.7-1.17-1.45-6.68-18.95-6.68-21.29 0-1.87 1.01-1.84 12.89.78 7.03 1.53 10.04 2.54 10.04 3.36 0 .63-3.36 4.73-7.46 9.06-6.57 7-7.23 7.93-5.51 8.13 1.05.12 5.08.51 8.94.86l7.04.62-.63-2.89c-.35-1.6-.9-5.74-1.21-9.26-.66-7.46-1.13-7.22 10.16-5 5.43 1.1 6.95 1.72 7.54 3.09.39.94.7 1.25.74.7.08-1.36 2.22-1.29 9.1.28 4.3.97 5.66 1.6 5.62 2.65-.07 1.33-13.04 11.6-14.68 11.6-.47 0-.82-2.69-.82-6.56 0-3.59-.32-6.56-.67-6.56-.35 0-3.36 2.46-6.64 5.47-6.8 6.21-6.68 6.64 1.8 6.76 3.44.04 4.88.39 5.19 1.29.55 1.48-10.89 13.9-12.81 13.9-.94 0-1.44-1.6-2.07-6.52l-.82-6.52-1.91 2.03c-1.06 1.13-3.56 4.29-5.55 7.07-3.59 5-5.59 6.6-6.45 5.19-.27-.39-1.48-4.1-2.77-8.24l-2.3-7.5-2.46 2.97c-1.37 1.64-4.11 5.74-6.06 9.1-1.99 3.36-4.14 6.09-4.84 6.09-.78-.04-3.05-3.59-5.94-9.45v.08zm277.77 1.05c-.7-.58-2.65-3.43-4.37-6.36-1.72-2.93-4.57-7.43-6.29-10-1.72-2.58-3.13-5.04-3.13-5.51 0-1.13 1.76-1.49 14.73-2.93 6.09-.7 12.27-1.49 13.71-1.72 1.92-.35 2.77-.16 3.13.74.39.94-13.09 23.09-15.94 26.21-.31.32-1.13.16-1.84-.43zm-28.01-3.08c-.82-1.37-3.67-5.28-6.36-8.67-2.7-3.4-4.77-6.61-4.61-7.15.43-1.21 21.99-3.99 23.08-2.97.71.66-1.48 6.83-6.28 17.73-1.84 4.18-3.79 4.49-5.83 1.02v.04zm-39.33-3.83c-5.55-5.12-7.27-7.77-5.63-8.71.36-.2 3.68-.63 7.39-.94l6.79-.59-.23 7.62c-.16 5.08-.55 7.7-1.21 7.93-.55.2-3.75-2.19-7.07-5.27l-.04-.04zm20.78 4.84c0-.35-2.62-3.47-5.82-6.95-3.2-3.52-5.63-6.84-5.39-7.42.31-.86 12.3-3.01 16.91-3.01 1.21 0 1.1 3.4-.27 8.91-.62 2.54-1.37 5.62-1.68 6.87-.35 1.52-1.02 2.27-2.15 2.27-.9 0-1.6-.28-1.6-.63v-.04zm-238.2-12.77c-.43-.51-3.67-6.76-7.23-13.83-4.14-8.32-6.17-13.16-5.66-13.67 1.09-1.05 30.04 5.7 30.5 7.11.2.58-1.83 3.71-4.45 6.95-2.65 3.24-6.05 7.62-7.54 9.73-3.01 4.22-4.45 5.19-5.62 3.67v.04zm200.9-5.2c-3.68-2.5-6.57-5.07-6.57-5.82 0-.93 1.64-1.79 5.94-2.93 4.3-1.17 5.7-1.87 5.16-2.57-1.18-1.37-14.57-8.29-15.08-7.78-.24.24.27 2.82 1.17 5.75 2.62 8.67 2.66 8.67-6.99 4.53-3.6-1.57-7.19-3.01-7.97-3.25-.78-.23-1.45-.97-1.45-1.6 0-1.52 11.29-7.34 13.25-6.83.93.23 1.48-.04 1.48-.75 0-.66 3.48-2.89 7.81-5.03 6.14-3.05 7.97-3.64 8.48-2.78 1.21 1.92 2.54 16.72 1.64 17.81-.55.67-.51 1.1.12 1.29 1.09.35 2.34 6.14 2.38 11.1.04 4.65-1.13 4.49-9.37-1.14zm19.68-.27c-1.33-1.37-4.33-3.87-6.72-5.51-2.38-1.64-4.37-3.59-4.37-4.33 0-.94 1.99-1.96 6.8-3.56 10.89-3.55 10.46-3.83 10.23 6.6-.23 8.13-.39 8.83-1.91 9.03-.98.15-2.62-.74-4.07-2.27l.04.04zm20.94-1.52c-.47-.9-3.71-4.1-7.23-7.15-3.47-3.05-6.44-6.02-6.64-6.6-.11-.59.78-1.49 2.07-1.99 3.95-1.53 18.17-5.67 19.5-5.67 1.75 0 1.56 2.15-1.06 13.13-1.95 8.12-2.5 9.45-4.02 9.68-1.1.16-2.07-.35-2.62-1.36v-.04zm-163.91-1.96c0-1.01.36-3.12.75-4.68.39-1.57.97-3.87 1.21-5.12l.51-2.23-4.3 2.54c-2.35 1.37-5.86 3.6-7.74 4.89-3.55 2.42-5.66 2.96-6.17 1.56-.15-.43-.04-4.61.24-9.22.82-13.44 1.36-24.49 1.44-28.67.08-3.4.31-3.91 1.8-3.91 2.42 0 18.71 10.74 18.75 12.34 0 .79-1.72 2.07-4.3 3.25-5.9 2.65-14.53 7.57-14.53 8.24 0 .31.63.74 1.45 1.01 4.49 1.37 12.22 5 13.12 6.14.9 1.13 1.02 1.05 1.06-.71.03-4.21 3.75-16.75 5.03-16.99.71-.15 3.44 1.17 6.1 2.93 2.65 1.76 5.66 3.63 6.68 4.18 1.01.55 1.83 1.52 1.83 2.19 0 .66.71 1.21 1.61 1.21.86 0 3.98 1.52 6.91 3.4 4.14 2.62 5.19 3.67 4.65 4.65-.63 1.13-10.59 4.68-15.82 5.66-2.85.51-2.89-.59-.2-6.68 2.5-5.66 2.54-6.21.2-5.58-3.24.82-16.64 6.67-15.35 6.71 2.61.04 12.26 4.57 12.26 5.75 0 1.17-14.14 9.02-16.25 9.02-.51 0-.94-.86-.94-1.88zm187.62-4.21c-1.76-2.31-5.47-6.37-8.2-9.07-2.74-2.69-4.96-5.47-4.96-6.21 0-.97 2.3-2.03 8.79-3.98 4.84-1.45 11.25-3.48 14.18-4.49 5.5-1.88 7.3-1.92 7.3-.24 0 .51-2.58 7.07-5.74 14.53-3.75 8.83-6.17 13.6-6.95 13.6-.67 0-2.66-1.88-4.46-4.14h.04zm-222.34-2.82c-.9-1.44-3.05-22.5-2.38-23.16 1.13-1.13 21.52 7.54 21.52 9.14 0 .74-1.76 2.58-3.87 4.1-2.15 1.52-6.01 4.53-8.63 6.68-4.81 3.95-5.86 4.49-6.64 3.24zm123.16-4.29c-2.93-.82-6.29-1.49-7.5-1.53-2.19-.04-3.47-1.6-2.46-3.01.27-.42 2.46-2.22 4.84-3.98 2.39-1.8 4.03-3.52 3.68-3.87-.36-.35-4.5-1.13-9.22-1.72-6.37-.78-8.64-1.4-8.83-2.3-.35-1.87 10.66-13.44 12.27-12.85 1.79.7 8.28 13.55 7.77 15.47-.27.97 0 1.52.74 1.52 1.41 0 7.19 11.21 6.56 12.77-.54 1.37-1.01 1.33-7.85-.58v.08zm-149.33-6.29c-.75-2.58-2.62-8.75-4.22-13.67-4.26-13.21-3.99-13.87 4.1-10.28 2.69 1.21 8.75 3.83 13.4 5.78 4.68 1.96 8.67 4.1 8.94 4.73.28.66-1.01 2.3-3.16 4.06-1.99 1.6-6.21 5.43-9.42 8.52-3.2 3.04-6.36 5.54-7.07 5.54-.86 0-1.71-1.6-2.61-4.68h.04zm98.59 3.63c0-1.56 6.48-11.21 7.93-11.76.55-.19.86-.82.66-1.33-.39-1.09 8.56-14.64 9.93-15.07 1.05-.32 10.97 12.5 10.97 14.18 0 .62.35 1.17.74 1.17s2.66 2.42 5 5.39c4.93 6.29 5 8.2.2 7.42-1.68-.27-5.74-.51-8.99-.51-7.38 0-7.61-.94-1.79-7.38 4.8-5.35 4.72-5.39-7.38-4.49l-7.78.58 4.69 4.34c7.19 6.64 7.07 6.72-8.63 8.28-4.77.47-5.55.39-5.55-.74V214zm101.56-4.61c-4.72-3.12-9.18-6.25-9.88-6.95-.7-.71-1.8-1.29-2.46-1.29-.63 0-4.85-1.6-9.34-3.6-4.49-1.95-8.83-3.78-9.65-4.06-.78-.27-1.44-1.01-1.44-1.68 0-1.6 16.99-14.41 18.4-13.9.7.27 1.56 4.21 2.54 11.75l1.44 11.33 9.88-5.19c6.61-3.48 10.28-4.96 11.02-4.53.94.58 1.02 2.69.43 11.99-.39 6.21-1.09 11.4-1.56 11.52-.43.12-4.69-2.3-9.42-5.43l.04.04zm-40.12-2.07c-5.35-1.8-7.77-3.01-7.77-3.87 0-1.68 11.6-10.62 13.36-10.31 1.41.27 5.7 11.52 5.82 15.2.08 2.42-1.52 2.3-11.41-1.02zm69.22-3.36c-1.83-1.56-6.36-5.12-10.11-7.89-3.71-2.73-6.64-5.39-6.49-5.9.39-1.17 25.08-14.26 27.15-14.33 1.37-.08 1.49.35 1.02 3.82-1.29 9.34-5.86 26.8-7.07 27-.71.11-2.7-1.1-4.5-2.7zm-143.75.59c0-2.46 6.25-15.67 7.39-15.67 1.52 0 12.65 10.71 12.65 12.15 0 .98-1.75 1.64-6.95 2.74-13.63 2.77-13.13 2.73-13.13.82l.04-.04zm-62.65-9.34c-.39-1.13-3.67-27.62-3.67-29.65 0-1.56 2.3-1.64 4.02-.15.7.62 6.37 4.29 12.5 8.24 7.69 4.88 11.09 7.5 10.78 8.28-.23.62-2.54 2.34-5.08 3.75-2.54 1.44-7.26 4.41-10.54 6.6-6.22 4.18-7.43 4.65-8.01 2.97v-.04zm45.97-.47c-.27-.47.43-4.65 1.53-9.29 1.13-4.65 2.07-9.03 2.07-9.77 0-.7.51-1.95 1.13-2.81 1.09-1.49 1.21-1.49 3.48.31 5.08 3.94 14.92 14.18 14.57 15.12-.2.54-2.39 1.44-4.89 2.03-2.46.58-6.6 1.79-9.18 2.69-6.64 2.35-8.12 2.62-8.71 1.68v.04zm89.18-4.29c-2.69-.86-6.56-1.76-8.59-2.04-8.48-1.17-8.52-1.83-.2-10.35 3.48-3.55 6.65-7.03 7-7.69.35-.67 1.32-1.17 2.15-1.17 1.21 0 2.07 2.03 4.49 10.03 1.64 5.51 2.97 10.67 2.97 11.49-.04 1.76-1.45 1.72-7.82-.27zm47.89-3.33c-2.07-1.24-6.95-3.86-10.86-5.74-4.84-2.34-7.18-3.94-7.18-4.88 0-.78 1.76-2.7 3.9-4.26 2.15-1.56 7.35-5.47 11.53-8.67 4.22-3.2 8.2-5.82 8.9-5.82 1.14 0 1.21 1.72.67 14.88-.35 8.17-.78 15.32-.98 15.86-.58 1.49-2.07 1.17-6.05-1.33l.07-.04zm-113.04-.07c0-2.11 8.44-21.1 9.41-21.1 1.13 0 14.34 17.27 14.34 18.71 0 .51-.47.94-1.02.94s-5.08.55-10.04 1.21c-11.01 1.49-12.69 1.49-12.69.2v.04zm42.15-.67c-2.23-.35-6.92-.66-10.39-.7-3.44-.04-6.53-.47-6.8-.94-.74-1.17 11.17-19.53 12.73-19.57.75-.04 3.13 3.67 6.29 9.81 4.46 8.71 4.92 9.96 3.83 11.05-.7.67-1.29 1.17-1.37 1.13-.11-.04-1.99-.39-4.26-.74l-.03-.04zm-86.21-5.5c-1.8-.59-.63-31.33 1.21-31.92.54-.19 3.86 2.38 7.38 5.7 3.51 3.32 8.51 8.01 11.13 10.43 2.62 2.43 4.65 4.93 4.49 5.55-.11.63-2.46 1.88-5.15 2.77-2.7.9-7.85 3.01-11.49 4.69-3.63 1.68-7.03 2.93-7.57 2.74v.04zm132.1-5.86c-2.61-1.14-11.68-4.03-19.8-6.25-.51-.16-.86-.82-.78-1.49.27-1.87 19.57-22.58 21.09-22.62 1.1 0 1.56 1.92 2.7 10.43 1.64 12.5 2.03 20.82.86 21.18-.43.11-2.31-.43-4.1-1.22l.03-.03zm-106.4-4.85c-.28-.47.97-7.22 2.77-15 1.8-7.81 3.28-14.45 3.28-14.8 0-.35.67-.63 1.49-.63 1.79 0 18.47 21.64 18.55 24.06.04 1.41-.78 1.8-5.7 2.62-5.24.9-13.71 2.78-18.13 4.06-.97.28-1.99.12-2.26-.31zm79.69-2.97c-.39-.35-19.5-2.89-21.8-2.89-.59 0-1.06-.43-1.06-.93 0-1.96 16.02-26.02 17.31-26.06.98-.04 1.91 1.88 3.51 7.11 1.22 3.95 3.09 10.04 4.18 13.55 2.58 8.13 2.58 9.57.12 9.57-1.05 0-2.07-.15-2.3-.39l.04.04zm-51.14-3.08c-.62-1.68 10.32-27.62 12.07-28.56 1.21-.66 2.35 1.14 7.97 12.35 3.63 7.18 6.6 13.82 6.6 14.72 0 1.57-.5 1.68-8.79 1.68-4.84 0-10.74.24-13.08.51-3.36.39-4.38.23-4.73-.7h-.04zM327.11 430.41c-2.19-4.38-3.87-8.05-3.75-8.17.12-.12 3.75-.35 8.09-.51 5.7-.19 7.89-.15 7.89.24 0 .27-1.53 4.1-3.4 8.44-2.27 5.35-3.64 7.89-4.1 7.89-.47 0-2.15-2.85-4.69-7.93l-.04.04zm-15.2 6.68c-.5-.86-4.68-15.04-4.72-16.1-.08-1.37-.16-1.37 6.52-.31 2.58.43 5.7.86 6.91 1.05 1.22.16 2.23.47 2.23.75 0 .23-1.33 2.54-2.97 5.04-1.64 2.5-3.75 5.78-4.68 7.26-1.57 2.46-2.74 3.28-3.29 2.34v-.03zm33.09-7.74c-2.73-3.67-5-6.91-5.08-7.23-.19-.82.16-.93 5.08-1.79 2.46-.43 5.59-1.1 6.95-1.53 1.72-.5 2.66-.58 3.01-.23.35.35 0 2.58-1.01 7.23-2.31 10.15-2.35 10.27-3.25 10.27-.47 0-2.77-2.66-5.74-6.68l.04-.04zm-51.91 2.81c-.79-3.78-2-16.64-1.64-16.99.27-.27 1.25-.15 2.65.43 1.21.47 4.45 1.52 7.15 2.35 2.7.82 5 1.75 5.12 2.07.11.35-1.49 2.34-3.52 4.45-2.03 2.11-4.69 4.96-5.86 6.33-2.34 2.65-3.55 3.08-3.87 1.4l-.03-.04zm71.56-4.92c-2.15-2.03-5-4.72-6.37-5.97-1.33-1.25-2.46-2.54-2.46-2.86 0-.31 1.64-1.17 3.63-1.91 2.03-.74 5-1.91 6.68-2.66 4.49-2.03 4.57-1.95 4.34 3.87-.31 8.56-.74 12.85-1.33 13.05-.31.12-2.34-1.49-4.45-3.52h-.04zm-88.91-1.91c-.12-.2 0-4.34.28-9.18.39-7.03.62-8.83 1.13-8.83.35 0 2.3.94 4.3 2.07 1.99 1.13 4.84 2.66 6.32 3.32 1.76.78 2.7 1.52 2.7 2.03 0 .47-2.7 2.78-6.76 5.86-6.52 4.85-7.54 5.47-7.97 4.69v.04zm109.03-3.79c-.16-.2-3.21-2.27-6.84-4.57-3.67-2.35-6.6-4.49-6.6-4.92 0-.39 1.09-1.33 2.46-2.07 1.33-.75 4.18-2.5 6.29-3.87 2.11-1.41 4.02-2.54 4.3-2.54.27 0 .62 1.33.82 3.01.19 1.64.7 5.62 1.17 8.83.43 3.2.74 5.97.62 6.17-.27.51-1.91.47-2.19 0l-.03-.04zm1.71-64.18c.2.19 2.9-5.55 3.36-7.27.59-1.99 1.88-1.21 3.44 2.11.82 1.76 1.56 3.48 1.64 3.87.04.39.35.9.63 1.17.86.78 4.41 7.81 4.41 8.75 0 .51.2.9.43.9.74 0 6.45 11.68 5.94 12.19-.31.27-2.85.35-6.88.12l-6.36-.32.58 2.11c.31 1.17 1.13 3.99 1.88 6.29.74 2.5 1.09 4.34.86 4.61-.24.27-2.58-.08-5.82-.82-8.44-1.91-7.7-1.87-7.35-.62.71 2.73 1.45 11.75.98 12.18-.31.35-2.27-.27-6.1-1.91-3.08-1.33-5.89-2.62-6.21-2.89-.46-.39-.58.43-.62 3.9-.04 6.14-.51 9.61-1.25 9.61-.98 0-10.86-6.52-11.09-7.3-.12-.39-.2-.2-.24.47-.04.62-.59 3.4-1.25 6.09-.62 2.74-1.29 5.43-1.41 6.02-.15.58-.54 1.05-.89 1.05-.39 0-2.7-1.91-5.2-4.26-2.5-2.34-4.69-4.14-4.88-4.02-.2.12-1.41 2.77-2.7 5.9-1.52 3.67-2.58 5.66-3.04 5.66-.39 0-2.35-2.22-4.38-4.96-1.99-2.69-3.83-4.92-4.06-4.92-.2 0-1.92 2.31-3.79 5.2-1.88 2.85-3.67 5.15-3.99 5.15-.31 0-1.95-2.69-3.55-6.01-1.6-3.29-3.12-6.29-3.32-6.68-3.09-5.59-4.61-8.79-4.41-9.3.11-.31 0-.59-.2-.59-.7 0-4.14-6.6-3.91-7.5.2-.74.51-.74 4.77.32 2.5.62 7.46 1.36 11.02 1.68 7.34.58 7.73.86 4.76 3.67-3.32 3.16-3.24 3.28 2.5 3.24h5.08l-2.74-2.58c-3.28-3.08-3.35-4.1-.31-4.29 1.17-.08 3.48-.36 5.12-.59 1.64-.24 3.2-.31 3.4-.2.74.47.39 1.61-1.17 3.83-2.58 3.71-2.58 3.6-.51 3.2 4.18-.74 8.16-1.75 8.16-2.07 0-.19-1.17-1.05-2.61-1.95-2.78-1.76-3.95-3.16-2.9-3.51.36-.12 2.5-.79 4.85-1.53 2.34-.7 4.45-1.4 4.76-1.48 1.1-.31 1.06 1.33-.11 4.22-.67 1.64-1.41 3.2-1.64 3.51-.43.47 5.31-1.56 8.67-3.12l1.29-.63-3.4-1.52c-1.88-.86-3.48-1.84-3.56-2.19-.11-.43 1.41-1.44 4.3-2.89 2.46-1.21 4.65-2.23 4.92-2.23.94 0 1.02.9.28 4.03-.39 1.72-.63 3.28-.51 3.36.35.39 8.28-4.5 8.28-5.04 0-.2-.78-.47-1.76-.63-5.55-.9-6.72-1.99-3.94-3.67.93-.58 2.85-1.99 4.25-3.12 3.48-2.82 3.95-2.5 3.56 2.3-.39 4.57-.43 4.57 4.76-.19l3.29-3.01-3.91-.35c-2.15-.2-3.98-.55-4.14-.75-.35-.58 6.95-8.36 7.66-8.08.31.12.7 1.52.85 3.12.47 4.26.75 4.5 2.62 2.31.86-1.02 2.31-2.89 3.21-4.1l1.6-2.23-1.96.27-3.82.59c-1.41.19-1.96.12-2.15-.43-.35-.86 5-9.02 5.9-9.02.74 0 2.96 6.44 2.69 7.73-.08.39.12.94.39 1.21.31.27 1.02 2.07 1.56 3.99.59 1.95 1.14 3.82 1.25 4.18.12.42.78-.08 1.8-1.41 2.11-2.77 5.55-8.4 5.08-8.4-.16 0-2.23.31-4.57.66-2.31.36-4.38.55-4.61.43-.7-.43-.31-1.64 1.99-5.93 1.29-2.43 2.35-4.53 2.35-4.65 0-.16-1.65.23-3.64.86-2.54.78-3.79.97-4.18.62-.31-.27-.62-.31-.74-.08l.66-1.44zm-56.99 51.6c0-.12-1.17-1.8-2.58-3.67-1.4-1.88-2.57-3.67-2.57-3.95 0-.27-.2-.66-.47-.82-.28-.15-.35.04-.2.47.2.51-.78 1.88-2.93 4.14l-3.2 3.4 2.11.27c2.77.4 9.84.47 9.84.16zm8.09-.27c2.65-.28 5.12-.67 5.47-.86.43-.24-.32-1.21-2.58-3.28-1.76-1.6-3.36-3.28-3.56-3.71-.23-.67-.31-.63-.35.15-.04.51-.74 1.99-1.6 3.28-2.97 4.46-3.24 4.93-2.73 4.93.27 0 2.69-.24 5.35-.55v.04zm15.08-3.32c2.26-.75 4.49-1.33 4.92-1.33.43 0-1.1-1.21-3.4-2.62-2.3-1.44-4.45-3.01-4.77-3.4-.31-.43-.74-.62-.89-.43-.16.2-.12.36.19.36.9 0 .63 1.13-1.09 5.11-.9 2.07-1.64 3.87-1.64 4.03 0 .35 1.6-.04 6.72-1.72h-.04zm14.1-5.94c1.76-.94 3.2-1.84 3.2-1.99 0-.16-1.87-1.06-4.1-1.96-2.85-1.17-4.1-1.91-4.06-2.46.04-.43-.12-.62-.35-.47-.24.12-.43.83-.43 1.53 0 .7-.4 2.97-.86 5.12l-.86 3.82 2.18-.93c1.22-.51 3.6-1.72 5.32-2.66h-.04zm-44.14.27c-1.21-2.07-4.14-5.5-4.38-5.19-.39.51-3.75 3.04-4.96 3.71-.94.55-.94.58.2.86 1.56.39 6.48 1.09 8.12 1.17.94.04 1.21-.12.98-.55h.04zm53.24-6.05c1.8-1.33 3.83-2.93 4.53-3.48l1.29-1.05-4.34-1.06c-2.38-.58-4.53-1.21-4.8-1.44-.31-.24-.51 1.33-.63 4.53-.07 2.81.04 4.92.28 4.92.23 0 1.87-1.13 3.67-2.42zm10.94-15.16c-2.78-.19-5-.62-5.2-.94-.27-.39-.35-.39-.35 0 0 .32.2.71.43.83.23.15.59 2.14.78 4.37.16 2.27.47 4.3.59 4.57.15.23 2.15-1.56 4.45-3.98l4.18-4.46-4.84-.43-.04.04zm-80.47 40.24c-.24-.39-3.13-10.08-3.48-11.76-.31-1.37.43-1.37 7.62.31 4.3.98 5.62 1.49 5.62 2.07 0 .94-8.08 9.73-8.94 9.73-.35 0-.74-.16-.86-.35h.04zm-46.72-4.03c-.16-.35.04-1.79.43-3.16.39-1.41 1.25-5.12 1.99-8.28.7-3.17 1.56-5.82 1.88-5.98.31-.12 1.29.39 2.14 1.17.86.78 3.52 2.93 5.9 4.77 2.43 1.83 4.3 3.55 4.22 3.83-.15.5-14.84 8.24-15.74 8.28-.31 0-.7-.28-.86-.63h.04zm31.09-1.79c-.5-2.31-1.29-11.64-1.05-12.27.15-.39.08-.86-.16-1.09-.47-.47-1.37-6.06-1.37-8.52 0-1.05.2-1.52.71-1.52.39 0 2.65 1.05 5.08 2.34 2.42 1.29 4.53 2.35 4.64 2.35.24 0-.85-3.95-1.71-6.1-.16-.39-.08-1.01.15-1.37.35-.54 1.21-.31 4.89 1.29 2.46 1.1 4.72 1.92 5 1.92.31 0 .5.39.42.82-.07.51-1.56 1.56-3.43 2.58l-3.28 1.71 1.4.55c.78.35 2.97 1.06 4.92 1.64 3.95 1.17 5.04 2.19 3.52 3.24-.51.4-2.19 1.61-3.71 2.82-1.52 1.17-3.17 2.18-3.63 2.18-.47 0-.86.28-.86.67 0 .82-9.3 7.81-10.43 7.81-.51 0-.94-.43-1.1-1.05zm10.2-11.76c-.67-2.15-1.25-4.38-1.29-4.92-.08-1.21-.7-2.07-.7-.98 0 .39-1.18 1.29-2.66 1.99-1.45.71-3.28 1.68-4.1 2.19l-1.45.86 3.75 1.72c3.64 1.68 6.72 2.93 7.35 3.01.19.03-.24-1.72-.9-3.83v-.04zm92.19 6.09c-5.63-2.46-7.66-3.55-7.66-4.14 0-.47 1.02-1.64 2.23-2.62 1.21-1.01 3.67-3.16 5.39-4.8 1.72-1.64 3.4-2.93 3.71-2.81.31.11 1.05 1.75 1.6 3.67.59 1.91 1.64 5.43 2.34 7.73 1.53 5 1.64 6.06.71 6.18-.39.03-4.14-1.41-8.32-3.25v.04zm-116.33-1.17c-.08-.51.15-10.51.27-11.87.04-.67.43-1.25.82-1.33 1.02-.2 11.17 6.56 11.17 7.42 0 .47-2.03 1.76-5.43 3.4-5.15 2.58-6.75 3.12-6.87 2.34l.04.04zm-30.98-4.73c0-1.29 6.37-15.82 7.03-16.01.31-.12 1.57.94 2.78 2.34 1.21 1.37 3.39 3.79 4.88 5.39 1.48 1.56 2.73 3.21 2.73 3.56 0 .47-2.46 1.44-8.12 3.12-4.46 1.37-8.36 2.46-8.71 2.46-.32-.04-.59-.39-.59-.86zm26.92-38.79c-.4-.31-.59-.31-.59.08 0 .28.16.51.39.51.2 0 .74.63 1.17 1.37.43.74 1.76 2.54 2.93 3.94 1.17 1.45 2.11 2.97 2.11 3.36 0 .43.16.67.35.55.2-.12 2.23 1.56 4.53 3.75 2.31 2.15 4.26 3.94 4.38 3.94.08 0 1.72 1.06 3.55 2.31 1.88 1.25 3.75 2.38 4.22 2.58.47.15.82.74.82 1.25 0 .74-.66 1.13-3.32 1.91-1.79.55-3.83.9-4.45.78-.63-.11-1.02-.04-.9.2.12.19-.23.58-.86.82-2.3.94-7.46 2.38-8.48 2.38-.58 0-1.28.2-1.56.43-1.01 1.02-13.36 4.38-13.36 3.67 0-1.13 3.01-12.93 3.44-13.47.51-.67.47-.67-.19-.16-.63.47-10.32 1.95-12.97 1.99-1.02 0-.63-1.6 1.71-7.34l2.31-5.59-3.13-.27c-1.71-.16-4.64-.31-6.52-.35-3.05-.08-3.4-.16-3.4-.98 0-1.48 6.21-10.86 7.19-10.86.59 0 1.25.86 2.07 2.7.66 1.44 1.95 3.94 2.85 5.47l1.64 2.77 1.8-4.18c.98-2.31 2.11-4.26 2.5-4.34.43-.07.62-.43.47-.86-.2-.54-.35-.58-.67-.11-.31.47-1.17.43-4.21-.24-5.36-1.13-6.25-1.52-5.94-2.58.43-1.6 5.15-8.55 5.7-8.39.27.07 1.41 2.34 2.5 5 1.1 2.65 2.07 4.92 2.19 5.03.12.12.82-1.21 1.52-2.96 1.21-2.93 1.88-3.87 2.62-3.91.16 0 1.25 1.99 2.46 4.45 1.17 2.46 2.27 4.46 2.46 4.46l.67.89zm5.35 19.57c.15-.39-.28-.42-1.53-.19-.93.19-3.24.51-5.07.7l-3.36.32 9.06 8.51.35-4.41c.2-2.46.43-4.69.55-4.96v.03zm9.41 2.97c-.19-1.6-.39-3.28-.39-3.67 0-.58-.39-.66-2.15-.39-1.17.16-3.08.39-4.26.39-1.17.04-1.79.2-1.4.35.39.16 1.76 1.18 3.04 2.23 2.39 1.95 5.04 3.95 5.32 3.98.08 0 0-1.32-.2-2.93l.04.04zm-19.61-7.11c.31-1.56.86-3.78 1.21-4.96.35-1.17.9-3.59 1.21-5.43.32-1.79.78-3.59 1.1-3.94.31-.39.31-.55.04-.39-.28.15-1.8 0-3.44-.39s-3.17-.63-3.4-.55c-.23.08.78 1.99 2.19 4.26 3.47 5.47 3.4 5.78-1.64 5.58-2.19-.07-4.34-.19-4.81-.31-.78-.15-.78-.08-.04 1.13.9 1.41 2.93 4.11 5.04 6.76.78.94 1.53 1.6 1.68 1.41.16-.16.55-1.6.86-3.13v-.04zm10.35-2.69l.04-2.7h-3.55c-4.1 0-4.1-.19 0 4.42 2.65 3.01 2.85 3.12 3.16 2.11.2-.63.35-2.35.39-3.83h-.04zm127.46 19.33c-4.29-1.05-7.96-2.07-8.2-2.3-.27-.27.12-1.13 1.06-2.23.82-.97 2.93-3.63 4.6-5.89 1.72-2.27 3.4-4.11 3.76-4.11.74 0 8.16 14.11 8.16 15.47 0 1.29-.08 1.29-9.42-.94h.04zm-171.4-8c-.16-.24 1.79-3.67 4.33-7.62 5-7.66 5.98-8.52 7.07-6.05.36.78 2 3.47 3.68 6.01 1.68 2.54 2.96 4.96 2.93 5.31-.12.51-1.65.9-6.02 1.45-9.57 1.25-11.68 1.4-11.99.86v.04zm182.69-6.57c-2.97-.15-6.33-.35-7.38-.39-2.62-.11-2.62-.58.35-5.7 1.29-2.23 2.78-5.08 3.32-6.29.59-1.4 1.25-2.19 1.76-2.19.43 0 1.64 1.25 2.66 2.7 1.01 1.48 3.32 4.57 5.07 6.84 1.88 2.38 3.13 4.45 2.97 4.84-.15.43-.82.62-1.79.59-.86-.04-3.99-.24-6.96-.43v.03zm-182.46-9.45c-8.44-.43-8.94-.51-8.94-1.4 0-.9 11.25-12.82 12.07-12.82.43 0 1.33 1.64 2.46 4.46.97 2.46 2.22 5.43 2.77 6.56 1.21 2.5 1.25 3.12.27 3.51-.39.16-.78.24-.82.2-.03-.04-3.55-.27-7.81-.51zm166.1-4.49c-.16-.35.7-2.89 1.87-5.66 3.09-7.39 3.2-6.8-.98-5.47-5.54 1.72-5.7 1.75-5.93 1.05-.24-.58 2.42-9.37 3.2-10.62.63-1.02 1.09-.67 3.87 2.97 1.48 1.95 2.89 3.35 3.08 3.16.24-.2.75-1.84 1.18-3.67.42-1.8 1.01-4.3 1.32-5.59.32-1.29.78-2.38 1.1-2.5.62-.19 10 8.28 10 9.1 0 .35-2.54 1.41-6.06 2.5-6.72 2.11-6.91 2.19-7.22 1.33-.16-.35-.28-.27-.28.24-.04.46.2.85.55.85.86.04 7.97 9.77 7.77 10.71-.19 1.09-13.01 2.61-13.4 1.64l-.07-.04zm14.61-1.72c-.16-.39.39-2.46 1.13-4.61 1.44-4.02 2.15-6.25 2.62-8.48.46-2.1 1.75-1.56 6.21 2.62 2.26 2.15 5.07 4.73 6.17 5.7 3.4 3.09 3.36 3.13-6.68 4.26-3.63.39-7.19.86-7.89.98-.9.19-1.37.04-1.56-.43v-.04zm-169.65-6.64c-2.35-.59-4.81-1.21-5.55-1.37-.98-.23-1.29-.58-1.17-1.21.15-1.09 7.89-9.8 8.75-9.84.31 0 .78.43 1.01 1.01.94 2.43 3.32 10.67 3.32 11.57 0 1.25-.74 1.21-6.32-.16h-.04zm-17.31-3.98c-4.33-.98-8.01-1.92-8.16-2.07-.16-.16-.16-.55 0-.94.35-.9 13.24-10.63 14.1-10.63.55 0 2.46 7.62 3.48 13.99.31 1.91.58 1.91-9.42-.35zm34.03-2.35c-1.65-.74-3.25-1.64-3.52-1.99-.27-.35-.86-.59-1.25-.51-.43.08-2.66-.66-4.96-1.68-3.36-1.48-4.14-2.03-4.02-2.73.15-.94 5.58-6.92 6.48-7.15.78-.2 1.37 1.17 1.76 3.91.15 1.28.66 3.35 1.05 4.61l.74 2.26 1.84-2.97c1.02-1.64 1.84-3.08 1.84-3.24 0-.2-4.14-3.09-7-4.92-.39-.28-2.5-1.6-4.61-2.93-2.14-1.37-3.9-2.78-3.9-3.17 0-.43-.27-.58-.7-.43-.82.32-11.53-6.64-11.53-7.5 0-.31 2.66-1.95 5.9-3.63 4.57-2.34 5.98-2.89 6.29-2.42.31.47.47.39.62-.31.28-1.06 8.52-5.47 9.3-5 .24.15.43.04.43-.24 0-.27-.27-.5-.58-.5-.86-.04-5.71-6.57-5.75-7.7-.04-.82.71-1.21 4.46-2.5 2.46-.82 4.72-1.41 5.04-1.33.31.12.7 0 .85-.23.16-.24-.03-.47-.46-.47-1.06 0-5-8.01-4.46-8.99.28-.46 1.41-.86 3.36-1.05 1.6-.16 3.83-.43 4.89-.59 1.64-.23 1.99-.11 2.18.59.2.74.24.74.28.08.07-.98.74-1.17 5.11-1.57 2.93-.27 3.4-.19 3.4.43 0 1.14-5.15 8.75-5.94 8.75-.74 0-.74.04-1.79-3.86-.43-1.49-.94-2.7-1.17-2.7-.47 0-4.93 8.44-4.61 8.75.11.12 1.44-.23 2.93-.74 3.63-1.25 4.45-1.21 4.45.16 0 .58-.2 1.29-.39 1.52-.24.23-1.02 1.99-1.76 3.91-.74 1.91-1.6 3.55-1.87 3.67-.32.11-.47.62-.32 1.09.12.47-.08 1.99-.47 3.36-.39 1.37-.86 3.52-1.05 4.73-.43 3.04-1.37 2.89-3.95-.63-1.44-1.99-2.18-2.65-2.42-2.22-.39.74-1.52 9.37-1.25 9.61.08.07 1.45-.79 2.97-1.92 1.52-1.17 3.09-2.11 3.44-2.11.51 0 .58 1.06.39 5.51-.27 6.72-.59 6.91-4.45 3.24l-2.7-2.58.23 4.85c.12 2.65.36 5 .55 5.15.16.16 1.25-.78 2.46-2.11 2.66-2.93 3.79-2.96 3.99-.23.08 1.02.35 3.36.58 5.12.39 2.54.35 3.36-.11 3.63-.47.31-.43.39.11.39.47 0 1.14 1.41 2.03 4.38 2.15 7.03 2.04 7.22-2.93 5.07l-.03.08zm-12.23-23.79c1.52-1.17 3.36-2.46 4.1-2.81.7-.39 1.02-.66.7-.7-.31 0-1.99-1.33-3.67-2.93-1.72-1.6-3.28-3.01-3.47-3.09-.2-.08-.51.55-.67 1.37-.39 1.87-.39 10.31-.04 10.31.16 0 1.53-.98 3.05-2.15zm10.7-18.59c1.49-.82 2.85-1.6 3.05-1.8.43-.39-2.34-6.17-2.93-6.17-.24 0-.98 1.88-1.64 4.1-.67 2.27-1.33 4.38-1.41 4.69-.27.82 0 .74 2.97-.9l-.04.08zm159.38 39.22c-.08-.47 0-1.56.19-2.5.24-.9.67-4.06.98-7.03.47-4.22.74-5.39 1.29-5.39 1.05 0 15.04 9.18 15.04 9.88 0 .35-2.46 1.37-6.21 2.58-3.44 1.05-7.19 2.26-8.32 2.61-2.62.86-2.74.82-2.93-.15h-.04zm-29.03-.47c0-.47.47-2.89 1.02-5.43.78-3.44 1.21-4.57 1.76-4.57.43 0 1.75 1.29 2.93 2.89l2.22 2.89.32-1.8c.19-1.01.58-3.51.89-5.54.28-2.07.79-3.83 1.1-3.95.31-.12 1.91 1.1 3.55 2.66s3.21 2.85 3.52 2.85c.55 0 .94-2.81 1.17-9.14.12-2.31 0-3.79-.19-3.24-.28.78-3.4 3.28-7.78 6.29-.55.39-2.22 1.68-3.79 2.92-1.52 1.22-3.16 2.23-3.67 2.23-.82 0-.86-.27-.59-3.59.16-1.96.32-4.42.32-5.39 0-2.58 1.05-2.39 4.22.74l2.57 2.58-.11-5.74-.16-5.75-2.69 3.01c-3.32 3.71-3.99 3.63-4.22-.51-.08-1.64-.36-3.9-.59-5.04-.78-3.47-.16-3.63 3.95-1.05 1.6 1.01 2.96 1.8 3.08 1.72.12-.12-.31-2.5-.9-5.35-.58-2.86-.93-5.36-.74-5.55.43-.43 2.81.39 7.23 2.46 1.87.9 3.51 1.6 3.67 1.6.66 0 10.9 4.46 11.48 5 .9.78.63 1.1-5.07 5.35-2.58 1.92-4.73 3.64-4.73 3.75 0 .12 2.42 1.8 5.39 3.68 2.97 1.87 5.39 3.71 5.39 4.02 0 .31-2.69 1.91-5.98 3.55-3.28 1.64-6.32 3.13-6.68 3.36-4.25 2.35-9.1 4.65-9.29 4.42-.16-.16-.51.04-.78.43-.55.7-6.68 4.02-7.39 4.02-.23 0-.39-.35-.39-.82l-.04.04zm18.17-26.56c-.2-1.64-.55-4.5-.86-6.29l-.55-3.36-3.01 3.47c-1.64 1.92-3.28 3.44-3.67 3.44-.35 0-.66.2-.66.47 0 .27.35.47.82.47s2.42 1.05 4.33 2.34c1.92 1.29 3.64 2.35 3.72 2.35.07 0 .03-1.29-.12-2.93v.04zm-164.18 22.89c-.78-.35-3.2-1.37-5.39-2.31-2.89-1.17-3.99-1.87-3.99-2.46 0-.97 9.46-8.32 10.32-8.01.31.12.82 2.43 1.17 5.32.35 2.81.7 5.78.86 6.64.19 1.25.11 1.52-.63 1.48-.47-.04-1.52-.35-2.3-.7l-.04.04zm-19.88-8.4c-5.28-2.31-7.62-3.56-7.5-4.02.11-.71 15.62-8.91 16.01-8.48.12.12.35 3.79.51 8.12.27 7.35.27 7.89-.51 7.82-.47-.04-4.26-1.57-8.48-3.4l-.03-.04zm196.75-10.74c-.19-4.42-.15-7.82.12-8.05.7-.66 16.48 6.17 16.48 7.15 0 .54-2.38 1.95-7.77 4.65-4.26 2.15-7.93 3.86-8.12 3.86-.24 0-.55-3.43-.71-7.61zm-190.74-3.4c-.9-.63-4.14-2.74-7.19-4.69-3.04-1.95-5.54-3.87-5.54-4.26 0-.39.07-.7.15-.7.08 0 3.64-1.05 7.89-2.34 8.95-2.74 10.08-2.86 9.65-1.25-.43 1.68-1.68 10.15-1.79 12.26-.16 2.31-.94 2.54-3.17.98zm10-9.57c-2.38-2.27-4.33-4.49-4.33-4.92 0-.43.07-.82.19-.82s2.81-.82 6.05-1.8c3.25-1.02 6.14-1.64 6.45-1.49.43.28.27 1.61-.62 5.47-.67 2.82-1.29 5.63-1.37 6.29-.28 2.27-1.8 1.6-6.37-2.73zm180.24 3.59c-.12-.35-.47-2.03-.75-3.71-.27-1.68-.93-4.69-1.44-6.68-.51-1.99-.9-3.83-.9-4.1 0-.82 1.64-.59 9.88 1.33 5.71 1.33 7.78 1.99 7.89 2.54.12.47-2.15 2.46-6.44 5.74-7.19 5.43-7.89 5.86-8.24 4.88zm-29.15-2.38c-.11-.31-.74-2.31-1.4-4.38-1.95-6.05-1.64-6.83 2.07-4.92 1.05.55 2.38 1.13 2.97 1.37.97.39 1.09.31.86-.63-.12-.54-.86-2.5-1.64-4.29-1.68-3.99-1.96-5.2-1.41-5.59.23-.16 2.11.16 4.18.67 2.07.5 4.06.97 4.53 1.09.66.16.74 0 .35-.94-.54-1.44-3.86-8.12-4.72-9.45-1.14-1.8-.2-2.03 6.64-1.64 5.47.31 6.32.47 6.48 1.17.16.86-5.08 9.45-6.56 10.78-.51.43-.86 1.02-.86 1.29 0 .94-4.84 8.09-5.47 8.09-.35 0-.62.43-.62.89 0 .51-.9 2.31-1.96 3.99-1.87 2.93-3.04 3.79-3.4 2.5h-.04zm-9.68-21.8c0-.19-1.21-1.91-2.62-3.79-1.45-1.87-2.5-3.63-2.3-3.9.31-.51 5.89-.67 7.65-.2 1.29.35 1.29.86.27 5.24-.62 2.69-.97 3.39-1.64 3.39l-1.36-.74zm25 18.05c-.82-2.11-3.32-10.63-3.32-11.37 0-1.01 1.13-.94 7.54.59 3.98.93 5.43 1.48 5.54 2.07.16.82-7.5 9.41-8.67 9.69-.35.07-.86-.32-1.09-.94v-.04zm-178.52-8.95c-3.36-3.12-6.17-6.01-6.25-6.32-.19-.9.08-.98 9.26-2.08 5.55-.66 8.32-.85 8.63-.5.31.31.16 1.29-.54 2.97-.55 1.36-1.61 4.49-2.31 6.95-.82 2.85-1.56 4.49-1.99 4.57-.39.08-3.44-2.46-6.84-5.59h.04zm157.58-2.38c-1.21-2.42-2.19-4.65-2.19-4.96 0-.74 1.06-.7 4.22.12 3.05.82 3.28.86 3.28.31 0-.2-1.17-2.23-2.58-4.53-1.4-2.27-2.57-4.42-2.57-4.77 0-.51.82-.66 3.39-.66 4.81 0 6.92.43 6.96 1.37 0 1.36-3.4 8.98-4.03 8.98-.31 0-.5.35-.39.82.32 1.17-2.34 7.38-3.24 7.54-.51.12-1.41-1.17-2.89-4.26l.04.04zm-141.09-.94c-3.4-4.61-4.26-6.44-2.97-6.44.35 0 3.12-.31 6.21-.71 3.08-.39 5.78-.7 5.97-.7.75 0 .28 1.8-1.56 6.1-1.05 2.46-2.11 4.96-2.34 5.5-.24.59-.74 1.06-1.1 1.06-.39 0-2.26-2.19-4.25-4.81h.04zm171.99 1.64c-1.1-3-3.75-9.57-4.49-11.09-.59-1.17-.75-1.99-.47-2.27.27-.27 3.75-.35 9.18-.11 7.46.27 8.75.43 8.9 1.09.2.86-11.21 13.2-12.18 13.2-.36 0-.79-.39-.9-.82h-.04zm-182.31-15.39c-5.39-7.22-5.89-8.55-3-8.04.85.15 4.76.39 8.75.58 5.31.24 7.26.51 7.46.94.11.35-.51 1.87-1.45 3.36-.94 1.52-2.42 4.37-3.4 6.37-1.09 2.34-1.99 3.59-2.5 3.59-.43 0-2.97-2.93-5.86-6.84v.04zm16.96 0c-1.49-2.97-2.7-5.74-2.7-6.17 0-.7.67-.74 6.21-.51 3.44.16 6.64.43 7.19.63.82.31.86.27.31-.39-.66-.82-3.83-10.86-3.83-12.23 0-1.09.59-1.05 7.39.43 4.02.9 5.78 1.49 5.78 1.91 0 .36-1.92 2.7-4.26 5.2-3.79 4.02-4.14 4.57-3.16 4.65.58.08 2.93.27 5.15.47l4.03.35-.36-1.68c-.19-.9-.5-3.28-.7-5.31-.39-4.3-.66-4.14 5.82-2.85 3.13.62 3.99.97 4.3 1.75.23.55.43.71.43.39.04-.78 1.29-.74 5.23.16 2.46.55 3.24.94 3.24 1.52-.03.78-7.5 6.68-8.43 6.68-.28 0-.47-1.56-.47-3.75 0-2.07-.16-3.75-.39-3.75-.2 0-1.92 1.41-3.83 3.13-3.91 3.55-3.83 3.83 1.02 3.87 1.99.03 2.81.23 3 .74.32.86-6.25 8.01-7.34 8.01-.55 0-.82-.94-1.17-3.75l-.47-3.75-1.1 1.17c-.62.62-2.03 2.46-3.2 4.06-2.07 2.89-3.2 3.79-3.71 3.01-.16-.24-.86-2.35-1.6-4.73l-1.33-4.3-1.4 1.72c-.79.94-2.35 3.28-3.48 5.24-1.13 1.91-2.38 3.51-2.78 3.51-.46 0-1.75-2.07-3.43-5.39l.04-.04zm159.45.59c-.39-.31-1.52-1.95-2.54-3.63s-2.58-4.26-3.59-5.75c-.98-1.48-1.8-2.89-1.8-3.16 0-.66 1.02-.86 8.48-1.68 3.47-.39 7.03-.86 7.85-.98 1.09-.19 1.6-.07 1.8.43.19.55-7.54 13.25-9.15 15.04-.15.2-.66.12-1.05-.23v-.04zm-16.09-1.76c-.47-.78-2.11-3.01-3.64-4.96-1.56-1.95-2.73-3.79-2.65-4.1.23-.7 12.61-2.31 13.24-1.68.43.39-.86 3.94-3.63 10.19-1.06 2.39-2.15 2.58-3.36.59l.04-.04zm-22.58-2.19c-3.21-2.93-4.18-4.45-3.24-5 .19-.11 2.11-.35 4.25-.54l3.91-.35-.16 4.37c-.11 2.93-.31 4.41-.7 4.57-.31.08-2.15-1.25-4.06-3.05zm11.91 2.78c0-.2-1.48-1.99-3.32-4.03-1.83-2.03-3.24-3.94-3.08-4.25.15-.51 7.07-1.72 9.68-1.72.71 0 .63 1.95-.15 5.11-.39 1.45-.78 3.25-.94 3.95-.2.86-.59 1.29-1.21 1.29-.55 0-.94-.16-.94-.35h-.04zm-136.68-7.31c-.23-.31-2.11-3.9-4.14-7.97-2.38-4.76-3.55-7.54-3.24-7.85.62-.62 17.23 3.28 17.5 4.1.12.36-1.06 2.11-2.58 3.99-1.52 1.87-3.48 4.37-4.33 5.58-1.72 2.43-2.58 2.97-3.25 2.11l.04.04zm115.31-2.97c-2.1-1.44-3.75-2.93-3.75-3.36 0-.54.94-1.01 3.4-1.68 2.5-.66 3.28-1.05 2.97-1.48-.66-.78-8.36-4.77-8.67-4.45-.16.15.16 1.64.66 3.28 1.53 4.96 1.53 4.96-3.98 2.62-2.07-.9-4.14-1.72-4.57-1.88-.47-.16-.82-.55-.82-.94 0-.86 6.48-4.22 7.58-3.9.54.15.86-.04.86-.43 0-.35 1.99-1.64 4.49-2.89 3.51-1.76 4.57-2.07 4.88-1.6.7 1.09 1.49 9.6.94 10.23-.31.39-.31.62.08.74.62.2 1.33 3.52 1.36 6.37.04 2.66-.62 2.58-5.35-.67l-.08.04zm11.29-.15c-.74-.78-2.5-2.23-3.86-3.17-1.37-.93-2.5-2.07-2.5-2.46 0-.54 1.13-1.13 3.9-2.03 6.25-2.03 6.02-2.19 5.86 3.79-.12 4.69-.19 5.08-1.09 5.2-.55.07-1.49-.43-2.31-1.29v-.04zm12.04-.9c-.28-.51-2.15-2.38-4.15-4.14-1.99-1.76-3.71-3.44-3.78-3.79-.12-.35.43-.86 1.17-1.13 2.26-.86 10.43-3.25 11.17-3.25 1.01 0 .9 1.22-.63 7.54-1.13 4.65-1.44 5.43-2.3 5.55-.63.08-1.21-.2-1.48-.78zm-94.07-1.13c0-.59.2-1.8.43-2.7.24-.9.55-2.23.71-2.93l.27-1.29-2.46 1.45c-1.37.78-3.36 2.07-4.46 2.81-2.03 1.41-3.28 1.72-3.55.9-.08-.24-.04-2.62.12-5.27.47-7.74.78-14.07.86-16.49.04-1.95.15-2.23 1.05-2.23 1.37 0 10.74 6.18 10.74 7.07 0 .43-.97 1.18-2.46 1.88-3.36 1.52-8.36 4.34-8.36 4.73 0 .15.35.43.82.58 2.58.78 7.03 2.85 7.54 3.52.51.66.59.62.59-.39.04-2.43 2.15-9.61 2.89-9.77.39-.08 1.99.7 3.51 1.68 1.53 1.02 3.25 2.07 3.83 2.38.59.32 1.06.86 1.06 1.25s.43.71.9.71c.5 0 2.3.9 3.98 1.95 2.38 1.52 2.97 2.11 2.66 2.66-.36.66-6.06 2.69-9.1 3.24-1.65.31-1.68-.31-.12-3.83 1.44-3.24 1.44-3.55.12-3.2-1.88.47-9.58 3.83-8.83 3.86 1.52.04 7.03 2.62 7.03 3.32 0 .67-8.13 5.16-9.34 5.16-.31.04-.54-.43-.54-1.01l.11-.04zm107.7-2.43c-1.02-1.32-3.13-3.67-4.69-5.19-1.56-1.56-2.85-3.13-2.85-3.56 0-.54 1.33-1.17 5.04-2.3 2.77-.82 6.44-1.99 8.16-2.58 3.17-1.05 4.18-1.09 4.18-.15 0 .31-1.48 4.06-3.32 8.35-2.15 5.08-3.55 7.82-3.98 7.82-.39 0-1.53-1.06-2.54-2.39zm-127.62-1.6c-.51-.86-1.76-12.93-1.37-13.28.63-.66 12.39 4.34 12.39 5.24 0 .43-1.02 1.48-2.23 2.34-1.21.86-3.44 2.62-4.96 3.83-2.77 2.26-3.36 2.58-3.79 1.87h-.04zm70.7-2.46c-1.68-.47-3.63-.86-4.29-.86-1.25-.04-2-.94-1.41-1.72.16-.23 1.41-1.29 2.77-2.3 1.37-1.02 2.31-2.03 2.11-2.23-.19-.19-2.57-.62-5.31-.97-3.63-.47-4.96-.79-5.04-1.33-.19-1.06 6.13-7.74 7.03-7.39 1.02.4 4.73 7.78 4.46 8.87-.16.55 0 .9.43.9.82 0 4.1 6.45 3.75 7.34-.32.79-.59.79-4.54-.31h.04zm-85.74-3.63c-.43-1.49-1.52-5-2.42-7.85-2.42-7.58-2.31-7.97 2.34-5.9 1.57.7 5 2.19 7.7 3.32 2.69 1.13 5 2.34 5.12 2.69.15.4-.59 1.33-1.8 2.35-1.13.94-3.56 3.12-5.39 4.88-1.84 1.76-3.67 3.2-4.06 3.2-.51 0-1.02-.89-1.49-2.69zm56.6 2.07c0-.9 3.71-6.45 4.53-6.76.32-.12.51-.47.4-.78-.24-.62 4.92-8.4 5.7-8.67.62-.2 6.29 7.19 6.29 8.16 0 .35.19.67.43.67.23 0 1.52 1.36 2.85 3.08 2.81 3.6 2.85 4.73.12 4.26-.94-.16-3.29-.31-5.16-.31-4.26 0-4.38-.55-1.06-4.26 2.78-3.09 2.7-3.09-4.21-2.58l-4.46.31 2.7 2.5c4.14 3.79 4.06 3.87-4.96 4.77-2.74.23-3.21.2-3.21-.47l.04.08zm58.32-2.66c-2.69-1.79-5.27-3.59-5.66-3.98-.43-.39-1.06-.74-1.41-.74-.35 0-2.77-.94-5.35-2.07-2.58-1.14-5.08-2.19-5.55-2.35-.42-.15-.82-.58-.82-.97 0-.9 9.77-8.29 10.59-7.97.39.15.9 2.42 1.45 6.76l.86 6.52 5.7-2.97c3.83-1.99 5.9-2.85 6.33-2.62.54.31.54 1.57.23 6.88-.23 3.55-.62 6.52-.9 6.64-.27.08-2.69-1.33-5.43-3.13h-.04zm-23.04-1.17c-3.09-1.01-4.46-1.72-4.46-2.23 0-.93 6.68-6.09 7.7-5.89.78.15 3.28 6.6 3.36 8.71.04 1.4-.9 1.33-6.56-.59h-.04zm39.72-1.91c-1.01-.9-3.63-2.93-5.78-4.53-2.15-1.61-3.83-3.13-3.71-3.4.2-.67 14.38-8.21 15.59-8.24.78-.04.86.19.58 2.18-.74 5.35-3.36 15.39-4.02 15.51-.39.08-1.56-.62-2.62-1.52h-.04zm-82.5.35c0-1.41 3.6-8.99 4.26-8.99.86 0 7.27 6.14 7.27 6.96 0 .54-1.02.94-3.99 1.56-7.81 1.6-7.54 1.56-7.54.47zm-35.97-5.35c-.24-.63-2.11-15.86-2.11-17.03 0-.9 1.33-.94 2.3-.08.43.35 3.63 2.5 7.19 4.72 4.41 2.82 6.37 4.3 6.17 4.77-.15.35-1.44 1.33-2.93 2.15-1.48.82-4.18 2.54-6.05 3.79-3.56 2.38-4.3 2.65-4.61 1.68h.04zm26.36-.28c-.15-.27.24-2.65.9-5.35.67-2.65 1.17-5.19 1.17-5.58 0-.39.28-1.14.63-1.61.62-.85.7-.85 1.99.2 2.93 2.27 8.59 8.12 8.36 8.67-.12.31-1.37.82-2.77 1.17-1.41.36-3.79 1.02-5.28 1.57-3.82 1.32-4.68 1.52-5 .97v-.04zm51.21-2.46c-1.56-.47-3.78-1.01-4.96-1.17-4.88-.66-4.88-1.05-.11-5.94 1.99-2.07 3.79-4.02 4.02-4.41.23-.39.78-.66 1.21-.66.67 0 1.21 1.17 2.58 5.74.94 3.16 1.72 6.13 1.72 6.56 0 1.02-.78 1.02-4.46-.16v.04zm27.5-1.91c-1.17-.7-3.94-2.23-6.21-3.28-2.77-1.33-4.1-2.27-4.1-2.81 0-.43 1.02-1.53 2.23-2.47 1.21-.89 4.22-3.12 6.64-5 2.42-1.83 4.73-3.32 5.12-3.32.62 0 .7 1.02.39 8.56-.2 4.69-.43 8.79-.55 9.1-.31.86-1.17.66-3.48-.78h-.04zm-64.88-.04c0-1.21 4.85-12.11 5.39-12.11.63 0 8.24 9.92 8.24 10.74 0 .32-.27.55-.58.55-.31 0-2.93.31-5.74.7-6.33.86-7.27.86-7.27.12h-.04zm24.22-.39c-1.29-.2-3.98-.39-5.98-.43-1.99-.04-3.75-.27-3.9-.55-.43-.66 6.44-11.21 7.3-11.25.43 0 1.8 2.07 3.64 5.63 2.57 5 2.81 5.74 2.18 6.36-.39.4-.74.67-.78.63-.04-.04-1.17-.23-2.46-.43v.04zm-49.49-3.16c-1.02-.36-.35-17.97.7-18.33.31-.11 2.23 1.37 4.22 3.29 2.03 1.91 4.88 4.61 6.37 5.97 1.48 1.37 2.65 2.81 2.58 3.21-.08.35-1.41 1.05-2.97 1.6-1.57.5-4.53 1.76-6.6 2.69-2.08.98-4.03 1.68-4.38 1.57h.08zm75.86-3.36c-1.49-.67-6.72-2.31-11.37-3.6-.31-.08-.51-.47-.47-.86.16-1.09 11.25-12.97 12.11-12.97.63 0 .9 1.1 1.52 5.98.98 7.19 1.18 11.95.51 12.15-.27.08-1.33-.24-2.34-.7h.04zm-61.1-2.78c-.15-.27.55-4.14 1.61-8.59 1.05-4.49 1.91-8.28 1.91-8.52 0-.19.39-.35.86-.35 1.05 0 10.58 12.42 10.62 13.83.04.82-.46 1.01-3.28 1.52-3 .51-7.85 1.6-10.43 2.35-.54.15-1.13.07-1.29-.2v-.04zm45.75-1.72c-.2-.19-11.18-1.68-12.5-1.68-.36 0-.63-.23-.63-.54 0-1.1 9.18-14.92 9.92-14.96.55-.04 1.14 1.05 2.03 4.1.71 2.26 1.76 5.78 2.39 7.77 1.48 4.69 1.48 5.51.04 5.51-.63 0-1.21-.12-1.33-.24l.08.04zm-29.42-1.79c-.39-.94 5.94-15.86 6.92-16.41.66-.39 1.32.66 4.57 7.07 2.07 4.14 3.79 7.93 3.79 8.48 0 .9-.32.93-5.04.93-2.78 0-6.18.16-7.5.32-1.96.23-2.5.15-2.74-.43v.04z"/></g></svg>