<svg width="74" height="74" xmlns="http://www.w3.org/2000/svg"><title>Imported Layers</title><desc>Created with Sketch.</desc><path d="M39.5 73.5h-.015l-1.235-.082-1.36-.254-.71.156-1.258.157-.625.023h-.023l-1.227-.06-1.234-.198-1.21-.344-1.278-.714L29.23 72h-.02l-1.253.148-1.246-.082-1.21-.273-1.445-.543h-.117c-.09 0-.18-.03-.246-.094l-.3-.26-.704-.44-.606-.44-.09-.016-1.238-.3-1.18-.434-1.117-.563-1.046-.683-.968-.805-1.035-1.035-1.15-.555-1.065-.668-.5-.375-.93-.836-.832-.94-.727-1.04-.37-.653-.59-.425-.957-.83-.848-.92-.735-1.012-.617-1.094-.496-1.164-.23-.715-.492-.535-.766-1.008-.64-1.078-.516-1.14-.403-1.188-.554-1.81-.306-.573-.043-.175-.034-.64-.47-1.168-.33-1.207-.192-1.235-.047-1.257.11-1.38-.227-.695-.286-1.234-.144-1.247-.02-.62.07-1.25.216-1.243.394-1.325-.078-.726-.03-.634.046-1.258.187-1.238.328-1.207.508-1.258v-.574l.044-.175.664-1.195.227-1.153.375-1.195.507-1.14.637-1.083.762-1.012.504-.555.222-.695.493-1.164.617-1.094.734-1.012.848-.926.957-.832.606-.437.364-.633.722-1.04.828-.94.93-.836 1.023-.727 1.11-.613.683-.3.485-.544.927-.863 1.004-.75 1.083-.63 1.148-.503 1.208-.383.813-.194 1.047-.715 1.114-.59 1.17-.456 1.21-.32 1.246-.18 1.273-.04.11.005.663-.302 1.195-.414L32.41.14 33.654.01l.62-.008 1.26.082 1.358.254.712-.156L38.86.023 39.49 0l1.25.06 1.233.198 1.21.344 1.278.53.09-.003 1.275.038 1.246.18 1.212.316 1.168.453 1.113.586 1.226.797 1.238.3 1.183.434 1.12.563 1.045.687.97.805 1.034 1.034 1.148.55 1.066.673.977.78.883.892.778.987.798 1.23 1.008.778.902.875.793.965.677 1.054.558 1.128.524 1.367.823.973.703 1.043.574 1.114.24.578.37 1.2.125.62.086.634.028.597.453.766.536 1.143.4 1.188.26 1.224.12 1.25.01.628-.11 1.38.226.69.29 1.235.144 1.246.02.625-.07 1.25-.216 1.242-.394 1.33.078.725.03.633-.046 1.258-.187 1.238-.327 1.207-.47 1.173-.745 1.348.015.544-.105.675-.31 1.222-.202.59-.507 1.144-.638 1.08-.762 1.01-.5.555-.227.7-.492 1.164-.616 1.094-.35.516-.794.968-.903.88-1.14.92-.668 1.083-.78.988-.878.89-.476.407-1.024.727-1.105.613-.684.3-.484.544-.923.863-1.008.75-1.083.63-1.144.51-2.375.825-1.184.828c-.07.06-.156.09-.25.09h-.117l-.836.37-1.187.388-1.23.25-1.262.11-.64.003h-.02l-.085-.003-.664.3-1.194.415-1.223.273-1.242.133-.632.012H39.5zm-8.593-1.29l1.066.302 1.152.187 1.153.05 1.093-.07-.846-.36-1.297-.703-.746.242-1.573.35zm7.504.47l1.094.07 1.176-.055 1.152-.187 1.043-.293-.902-.176-1.418-.423-.676.39-1.47.673zm-4.29-1.414l.728.375 1.156.477.887.27.907-.278 1.156-.477.71-.367-.948-.438-1.28-.72-.544-.35-1.163.72-1.606.788zm7.236-.18l.79.22 1.23.225.925.08.83-.462 1.03-.707.618-.506-1.02-.23-1.402-.438-.602-.23-.988.944-1.41 1.106zm-14.27-1.078l.55.445 1.032.707.813.45.946-.083 1.227-.226.77-.214-.837-.625-1.105-.968-.452-.45-1.29.474-1.652.492zm20.633.09l-.58.515-1.296.965 1.098-.16 1.125-.297.586-.21-.934-.812zm-22.595.812l.606.22 1.13.296 1.074.156-.754-.527-.93-.778-.222.075-.578.29-.325.268zm5.653-2.183l.75.703 1.078.867.715.488.813-.336 1.23-.626.868-.527-.67-.512-1.212-1.04-.645-.62-.75.47-1.398.764-.777.367zm6.777.57l.883.535 1.23.62.797.33.727-.497 1.074-.867.738-.695-.058-.024-1.407-.704-1.458-.875-.636.614-1.21 1.04-.68.523zM49.332 70.5h.22l.4-.22.283-.245.074-.05.573-.3.762-.59.89-.85.922-.92-.324.175h-.015l-1.426-.242-1.37-.27-.775 1.086-.91 1.098-.383.398 1.078.93zm-25.105 0h.22l.553-.465.075-.047.582-.285-.496-.53-.914-1.122-.78-1.14-1.356.352-1.446.238h-.015l-.33-.176.512.555.864.862.703.586.33.043c.075.013.14.04.196.09l.903.82.397.22zm.035-3.746l.59.848.87 1.07.72.746.015-.008 3.024-.96-.554-.645-.97-1.27-.5-.742-.83.3-1.528.458-.836.204zm20.047 1.69l.972.34 1.336.357.85.157.61-.637.872-1.07.578-.836-.825-.195-1.527-.458-.844-.305-.492.734-.965 1.27-.566.645zm10.108-1.335l-.46.632L52.847 69l1.078-.422 1.043-.53.976-.646.836-.695-.895.207-1.47.195zM17 66.71l.852.708.973.637 1.043.523 1.015.375-.625-.672-.898-1.17-.78-.083L17 66.71zm17.332-.015l1.098 1.016 1.46 1.138.884-.657 1.168-1.002.508-.49-1.352-1.01-1.207-1.024-1.194 1.016-1.364 1.015zm-6.168-1.183l.864 1.222 1.19 1.414.997-.46 1.352-.743.597-.37-1.113-1.27-.964-1.25-1.38.746-1.542.712zm12.454 1.062l1.285.766 1.66.805.726-.83.933-1.225.395-.586-1.536-.707-1.39-.75-.957 1.242-1.117 1.284zm-20.836-.19l.87.022 1.387-.07 1.007-.13-.406-.737-.683-1.447-.336-.832-.874.122-1.59.133-.777.02h-.083l.4.95.628 1.226.457.743zm30.953-.173l1.023.13 1.37.066.872-.023.46-.75.63-1.09.395-.793h-.067l-1.566-.207-1.688-.273-.328.78-.683 1.427-.418.734zm-34.793-.628l.898.31 1.215.292.793.117-.512-.91-.613-1.335-.234-.602-1.365-.1-1.765-.31.367.734.656 1.067.56.738zm40.35-2.13l-.518 1.267-.836 1.58.812-.12 1.215-.293.88-.305.57-.758.652-1.066.36-.715-1.028.203-1.462.172-.645.035zm-24.557.216l.898 1.16 1.168 1.324.77-.55 1.313-1.047.457-.403-.875-.86-1.222-1.327-1.46 1.04-1.048.663zm5.71.484l1.118.95 1.418 1.05.64-.7 1.064-1.296.363-.488-1.035-.656-1.473-1.047-1.21 1.32-.884.867zm9.29.996l1.418.48 1.793.442.535-.957.66-1.394.267-.654-1.645-.37-1.52-.446-.68 1.414-.827 1.484zm-24.36-2.082l.59 1.375.87 1.63 1.076-.242 1.473-.44.664-.24-.824-1.472-.684-1.426-1.504.44-1.66.376zm37.973-.265l-.32.716-.79 1.406.934-.59.91-.73.82-.83.673-.85-.836.387-1.392.49zm-49.14-.878l.687.867.82.827.91.727.918.578-.472-.79-.636-1.335-.746-.242-1.48-.633zm31.92 1.516l1.29.695 1.606.734.48-.816.774-1.49.254-.552-1.15-.43-1.655-.715-.914 1.543-.684 1.032zm-16.878-1.43l.637 1.32.867 1.535.867-.38 1.5-.753.533-.296-.676-1.02-.918-1.555-1.646.71-1.164.438zm8.586-.5L36 62.773l.89.872.9-.88 1.156-1.257-.93-.758-1.125-1-1.116.988-.938.77zm-5.105-.97l.876 1.482.69 1.04 1.064-.673 1.39-.99-.754-.932-.89-1.21-1.297.737-1.08.547zm10.298.853l1.402.997 1.055.668.695-1.047.87-1.47-1.07-.546-1.308-.742-.886 1.203-.758.938zm12.398 1.09l1.485.176 1.512.067.336-.004.328-1.052.356-1.5.125-.81-.836-.108h-.01l-1.716.035-.707-.008-.37 1.55-.5 1.653zm-34.402.24l.347.003 1.513-.067 1.473-.176-.5-1.613-.37-1.535-1.564.008-.86-.09h-.01l-.833.11.292 1.523.512 1.836zm39.3-3.275l-.152.867-.367 1.555-.246.82 1.026-.085 1.364-.223.84-.204.296-.828.36-1.332.187-.996-.828.156-1.582.203-.898.065zm-43.33 2.735l.854.207 1.363.218 1.013.083-.242-.81-.366-1.554-.157-.883-.882-.06-1.582-.204-.844-.16.19 1.01.363 1.333.29.82zm34.55-.62l1.406.41 1.722.382.3-.895.58-2.21-1.212-.18-1.77-.356-.57 1.7-.457 1.15zM21.23 59.24l.35 1.422.53 1.684.926-.192 1.625-.422.583-.18-.45-1.14-.574-1.71-1.76.355-1.23.182zm-10.823 1.352l.812.492 1.128.535.75.282-.31-1-.323-1.433-.1-.638-1.314-.383-1.66-.67.208.794.418 1.176.39.844zm51.015-1.754l-.246 1.344-.488 1.722.765-.29 1.13-.538.796-.48.402-.86.418-1.176.203-.777-.96.414-1.392.472-.628.168zm-36.48-.313l.55 1.63.46 1.16 1.18-.438 1.568-.677-.543-1.074-.62-1.368-1.423.453-1.172.312zm20.14 1.676l1.58.68 1.167.433.463-1.17.547-1.62-1.16-.31-1.434-.458-.617 1.36-.548 1.085zm-7.644-.97l1.058.943.934.758.762-.946.836-1.133-1.953-1.296-1.637 1.674zm-4.684-.374l.844 1.14.754.938.94-.766 1.056-.934-1.64-1.672-1.954 1.293zm9.348-.23l1.234.698 1.07.547.547-1.082.583-1.28-2.176-.86-1.258 1.976zm-13.856-1.114l.586 1.29.543 1.073 1.078-.552 1.223-.695-1.258-1.977-2.172.86zm37.004-.16l-.164.765-.48 1.544.793-.773.737-.902.63-.98.48-.973-.735.55-1.262.77zM6.536 56.03l.492.993.63.98.737.903.777.758-.297-.87-.343-1.44-.68-.39-1.316-.933zm10.574 2.69l.937.007 1.684-.08.606-.057-.203-1.207-.207-1.793-.87.004-2.157-.102.042 1.465.168 1.762zm36.336-.126l1.46.11.825.023.942-.008.106-.94.097-1.675.008-.61-1.222.08-.92.023-.884-.004-.207 1.78-.204 1.22zm-18.13-1.473l1.067 1.11.508.493 1.575-1.602L36.89 55.9l-1.573 1.223zm22.317-1.694l-.043 1.566-.156 1.696 1.488-.137 1.82-.323.102-1.094.035-1.54-.024-.706-1.656.328-1.567.21zm-44.594 2.8l1.078.215 1.527.197.703.05-.156-1.68-.047-1.577-1.555-.207-1.668-.332-.023.72.034 1.538.105 1.08zm36.738-.242l1.683.34 1.236.18.21-1.242.2-1.696-1.2-.066-1.495-.145-.32 1.457-.312 1.172zM20.676 55.57l.2 1.707.206 1.23 1.247-.183 1.674-.336-.308-1.16-.325-1.47-1.483.146-1.21.066zM39.586 57l1.875 1.238 1.208-1.894-1.793-.867L39.585 57zm-8.472-.652l1.207 1.894 1.876-1.238-1.29-1.52-1.792.864zm30.484-1.645l.03.883-.034 1.594-.074.855.988-.297 1.285-.5.778-.375.118-.87.074-1.38-.023-1.015-.775.328-1.508.527-.86.25zm-52.39 2.16l.792.383 1.286.5.972.29-.07-.84-.035-1.594.03-.895-.847-.242-1.507-.527-.794-.333-.024 1.032.078 1.38.117.846zm37.33.203l1.353.43 1.16.313.314-1.173.304-1.375-2.308-.39-.82 2.194zm-22.42-1.804l.304 1.383.31 1.16 1.17-.317 1.34-.426-.816-2.195-2.308.395zm3.05-.543l.785 2.104 2.09-.824-.94-1.754-1.935.473zM43.738 56l2.09.824.786-2.105-1.934-.474L43.74 56zm-6.257-.586l1.493 1.148 1.223-1.433-1.457-.82-1.26 1.104zm-3.894-.285l1.223 1.432 1.49-1.148-1.253-1.105-1.46.82zm-27.558-.56l.69.65.993.757.677.43-.098-1.044-.024-.73.04-1.383-1.204-.648-1.484-.997.04.82.163 1.24.208.905zm59.45-1.316l.038 1.367-.12 1.786.686-.44.993-.763.68-.637.214-.92.163-1.24.035-.8-.85.605-1.267.75-.573.294zm-24.13 1.63l1.7.815.894-1.66-1.598-.5-.996 1.343zm-11.508-.845l.895 1.66 1.7-.817-1-1.344-1.595.5zm5.88-.138l1.17 1.028 1.173-1.024-1.172-.742-1.17.738zm-18.813.844l1.257.078.9.024.807-.004-.057-1.2-.016-.968.004-.535-1.483-.167-1.2-.188-.16 1.71-.05 1.25zm37.004.098l.82.004 2.145-.102-.05-1.258-.16-1.703-1.188.184-1.492.17.004.524-.08 2.18zm-3.36-.227l1.41.137 1.204.066.063-1.21.016-.946-.004-.46-2.34.097-.35 2.317zm-30.003-2.414l-.004.47.075 2.147 1.21-.066 1.403-.137-.343-2.316-2.34-.097zm36.856-.55l.168 1.785.05 1.234 1.455-.195 1.73-.352-.09-.94-.254-1.662-.12-.597-1.18.328-1.757.398zm-44.43 2.472l.922.203 1.656.274.607.07.05-1.223.168-1.798-1.75-.39-1.19-.332-.263 1.44-.2 1.755zm26.336-.352l1.358.758.934-1.245-1.3-.48-.993.968zm-7.134-.488l.934 1.246 1.36-.757-.993-.968-1.3.48zm15.414.87l2.22.372.33-2.222-1.99-.063-.56 1.914zm-23.945-1.85l.332 2.222 2.215-.37-.555-1.915-1.992.063zm2.754-.11l.53 1.81 1.832-.443-.7-1.523-1.663.155zm18.62 1.364l1.832.44.53-1.81-1.667-.155-.695 1.524zm16.043-2.853l.28 1.543.2 1.69 1.43-.444 1.71-.695-.128-1.09-.285-1.51-.168-.688-1.55.664-1.49.53zm-51.97 2.09l1.013.433 1.453.508.68.196.198-1.68.285-1.55-1.477-.528-1.562-.672-.328 1.46-.262 1.833zm59.82-1.79l.005.098-.043 1.36-.113.93.613-.922.532-1.04.41-1.09.27-1.05-.606.69-1.066 1.025zM3.087 49.173l.356 1.19.43 1.1.54 1.038.604.902-.11-.91-.042-1.36.004-.124-.582-.524-.922-.976-.278-.336zM34.24 52.5l.905.875 1.07-.668-.93-.648-1.046.44zm3.33.207l1.067.668.906-.875-1.043-.44-.93.647zm5.227.19l1.49.462.65-1.415-1.37-.203-.77 1.156zm-13.953-.952l.652 1.414 1.49-.458-.77-1.16-1.372.203zm12.03.274l1.185.428.702-1.046-1.113-.215-.775.832zm-9.854-.615l.703 1.043 1.184-.43-.778-.827-1.11.215zm-25.39-.937l.7.535 1.155.754.89.488.106-.836.298-1.567.218-.87-.78-.415-1.364-.828-.703-.49-.236 1.005-.218 1.364-.067.858zm59.16-1.496l.21.86.297 1.566.11.85.902-.495 1.155-.754.684-.528-.068-.88-.214-1.362-.235-.99-.695.482-1.356.828-.793.422zm-28.715 2.53l.816.56.817-.56-.816-.382-.815.383zm3.128-.155l.915.38.683-.72-.878-.207-.72.547zm-6.218-.34l.683.715.914-.38-.718-.546-.88.21zm15.35.293l1.884.05.144-1.878-1.664.195-.364 1.633zM23.42 49.676l.145 1.88 1.883-.052-.367-1.633-1.662-.194zm-2.855 1.777l2.246.098-.15-1.988-1.96-.355-.137 2.246zm30.558-1.89l-.147 1.988 2.246-.097-.138-2.242-1.96.352zm-5.096 1.753l1.55.14.348-1.518-1.383.09-.516 1.288zM25.86 49.938l.347 1.52 1.55-.142-.514-1.29-1.383-.088zm-8.64 1.105l1.198.187 1.4.157.143-2.336-2.268-.58-.285 1.39-.188 1.183zm36.6-1.992l.145 2.337 1.41-.16 1.188-.188-.192-1.2-.28-1.38-2.27.59zm-25.76 1.01l.472 1.167 1.25-.176-.586-.972-1.137-.02zm15.94.99l1.246.177.473-1.172-1.134.023-.586.973zm-6.254-.155l.665.304.583-.438-.65-.18-.597.313zm-2.957-.13l.58.438.666-.305-.598-.312-.65.18zm7.437-.023l.973.18.52-.844-.903-.02-.59.684zm-12.164-.664l.52.844.976-.18-.59-.683-.907.018zM56.81 48.25l.3 1.46.19 1.196 1.68-.375 1.2-.335-.312-1.218-.508-1.63-1.125.426-1.426.477zM13.6 50.195l1.21.34 1.67.37.19-1.186.3-1.474-1.417-.473-1.133-.433-.51 1.64-.31 1.215zm27.066.215l.71.16.482-.55-.672-.043-.52.433zm-8.746-.39l.48.546.712-.16-.52-.43-.672.044zm4.555.257l.414.207.415-.203-.414-.132-.413.13zm2.82-.207l.45.114.363-.29-.434-.04-.38.216zm-5.625-.175l.364.29.45-.115-.384-.21-.43.035zM2.446 46.8l.406.735.687 1.004.812.948.57.563.12-1.038.29-1.442.164-.62-1.043-.888-1.246-1.285-.132.81-.043.124-.586 1.09zm65.84.15l.324 1.327.254 1.77.582-.574.808-.953.422-.594-.035-.453v-.657l.048-.668-.027-.605-.105-.75-.695.75-1.078.996-.496.41zm-8.23.112l.534 1.71.31 1.2 1.378-.495 1.62-.704-.284-.902-.59-1.57-.242-.558-1.086.567-1.64.752zm-50.173 1.71l.86.392 1.562.613.574.196.304-1.188.54-1.723-1.63-.746-1.094-.57-.558 1.356-.56 1.67zm33.543.552l.653.012h.073l.355-.637-.664.097-.418.527zm-13.8.008h.074l.652-.012-.418-.527-.664-.098.355.637zm-1.856-.03l.992.026-.433-.793-.888-.168.328.934zm17.683-.767l-.433.793.988-.027.332-.933-.887.168zm-3.44.742l.464.02.297-.356-.465.083-.298.254zm-11.005-.34l.297.356.465-.02-.37-.29-.392-.045zm-5.305.235l1.258.086-.37-1.07-1.105-.258.218 1.242zm21.49-.98l-.372 1.07 1.26-.086.217-1.242-1.105.257zm-23.81.722l1.547.188-.234-1.368-1.336-.375v.464l.023 1.09zm25.703-1.184l-.234 1.368 1.547-.188.022-1.098v-.457l-1.336.375zm-28.312.73l1.855.34-.02-.968v-.703l-1.586-.536-.25 1.867zm30.398-1.335l.004.695-.02.98 1.852-.34-.25-1.866-1.586.53zM36.887 24.953l-1.387.043-2.414.547-2.246 1.035-1.984 1.48-1.633 1.86-1.21 2.16-.735 2.363-.24 2.337.306 2.586.797 2.344 1.267 2.125 1.68 1.816 2.02 1.43 2.272.977 2.425.484 1.086.007 1.392-.047 2.414-.547 2.246-1.035 1.984-1.48 1.633-1.86 1.21-2.16.734-2.363.24-2.336-.306-2.587-.797-2.344-1.265-2.126-1.68-1.816-2.02-1.43-2.272-.977-2.426-.48-1.09-.007zm26.55 20.422l.6 1.45.545 1.61 1.305-.732 1.53-1.035-.354-1.04-.594-1.42-.31-.638-1.378.977-1.344.828zM6.365 46.668l.898.633 1.317.802.62.332.543-1.598.6-1.46-1.335-.82-1.39-.982-.625 1.36-.63 1.734zm47.11-.344l.27 1.977 2.174-.562-.6-2.164-1.845.75zm-35.61 1.41l2.175.563.27-1.977-1.845-.754-.6 2.168zm26.902-.144l-.262.348.457-.08.216-.41-.41.142zm-15.945.27l.458.078-.3-.36-.372-.13.215.41zm17.38-.77l-.297.6.715-.14.214-.695-.632.235zm-19.032.457l.715.14-.3-.6-.63-.235.215.695zm-12.492-.906l1.133.434 1.335.446.63-2.258-2.1-1.043-.565 1.3-.434 1.12zm41.332-1.378l.63 2.258 1.343-.45 1.126-.43-.438-1.132-.562-1.29-2.098 1.044zM25.364 47.13l.965.233-.263-.863-.832-.352.13.98zm22.355-.63l-.263.863.965-.234.13-.982-.833.352zm-24.356.078l1.21.348-.14-1.125-1.027-.48-.043 1.258zm25.98-.78l-.14 1.124 1.21-.348-.046-1.262-1.024.485zm21.832-1.75l.024.09.125.674.086.672.028.676-.035.516.336-.746.37-1.11.242-1.14.11-1.164.003-.5-.445.804-.844 1.227zm-12.41-.193l.598 1.368.437 1.13 1.564-.716 1.105-.578-.56-1.13-.835-1.49-1.008.654-1.3.76zM11.313 45.06l1.113.58 1.55.712.435-1.122.602-1.378-1.285-.754-1.02-.657-.843 1.498-.55 1.12zm9.836.78l1.47.504.056-1.387-1.226-.645-.3 1.528zm29.952-.883l.055 1.387 1.472-.504-.3-1.528-1.228.645zM3.418 43.863l.57.672.973.98.77.665.278-.797.617-1.473.39-.805-.675-.566-1.16-1.095-.59-.625-.44.934-.493 1.29-.24.82zm63.344-.765l.387.793.612 1.473.285.813.782-.672.97-.98.556-.653-.246-.85-.49-1.29-.432-.918-.578.614-1.16 1.094-.688.578zm-19.914 2.62l-.184.395.43-.172.125-.444-.372.223zm-20.164.223l.43.173-.223-.414-.335-.204.13.445zM1.317 42.017l.047 1.105.18 1.153.308 1.125.2.54.296-.532.258-1.367-.46-.638-.83-1.386zm23.82 3.273l.668.288-.168-.652-.566-.36.067.723zm23.008-.364l-.168.652.668-.29.066-.726-.565.364zm-29.453-.074l1.742.718.328-1.64-1.44-.852-.63 1.774zm34.324-.922l.328 1.64 1.742-.718-.633-1.774-1.437.852zm-3.508.105l-.074.9.89-.427-.074-.988-.742.515zm-26.05.47l.894.43-.074-.9-.742-.515-.08.984zm38.234-2.482l.88 1.563.55 1.11 1.25-.77 1.437-1.024-.466-.824-.906-1.414-.352-.496-.945.78-1.448 1.075zm-53.72.872l.763.562 1.402.922.524.308.543-1.098.887-1.57-1.437-1.07-.953-.79-.825 1.21-.902 1.525zm8.02.644l2.012 1.003.672-1.875-1.648-1.12-1.035 1.99zm39.11-.872l.672 1.875 2.012-1.004-1.04-1.993-1.644 1.12zm-4.15.344l.1 1.13 1.112-.59-.304-1.224-.907.684zm-29.334.54l1.113.59.1-1.13-.908-.684-.304 1.223zm26.878-.1l-.097.423.386-.258.03-.46-.32.296zm-23.5.165l.387.258-.13-.453-.284-.27.026.465zm-11.89-1.812l1.02.66 1.214.71 1.086-2.077-1.836-1.453-.824 1.152-.66 1.008zm44.254-.703l1.086 2.078 1.222-.72 1.008-.65-.664-1.017-.816-1.145-1.836 1.454zm-37.758 1.265l1.336.797.344-1.344-1.067-.886-.613 1.433zM52.5 41.82l.344 1.344 1.336-.797-.613-1.433-1.067.886zm17.22-1.62l.59 1.234.612 1.683.453-.687.594-1.098.36-.855-.18-.93-.357-1.2-.293-.745-.535.898-.847 1.2-.4.5zm-68.27.273l.37.875.598 1.097.442.668.336-.988.582-1.352.29-.574-.837-1.083-.952-1.515-.297.76-.355 1.2-.175.91zm22.168 2.187l.593.422-.026-.672-.48-.472-.086.722zm25.98-.254l-.027.672.594-.422-.085-.722-.482.472zm-44.63-2.3l.747.808 1.12 1.055.54.456.864-1.453.89-1.305-1.134-1.082-1.156-1.25-.894 1.2-.977 1.57zm59.685-.438l.886 1.293.87 1.462 1.126-.988 1.28-1.33-.562-.944-.875-1.265-.434-.56-1.145 1.24-1.147 1.093zm-42.516 1.875l.785.605.114-.894-.618-.656-.28.945zm28.61-.29l.113.895.785-.605-.277-.95-.622.66zm-33.34-.362l1.554 1.067.665-1.535-1.23-1.133-.988 1.6zm36.75-.468l.664 1.535 1.555-1.066-.984-1.605-1.233 1.137zm5.61-1.27l.866 1.215.664 1.016 1.38-1.028.96-.796-.78-.986-1.13-1.28-.852.847-1.11 1.012zm-49.622.41l.97.8 1.37 1.02.656-1.003.876-1.224-1.102-1.008-.86-.855-1.136 1.29-.773.98zm39.492 1.33l-.008.432.323-.332-.066-.457-.25.356zm-25.808.1l.323.332-.008-.383v-.05l-.25-.355-.066.457zm-3.29-.765l.964.808.328-1.086-.742-.856-.55 1.133zm31.41-.278l.328 1.08.965-.807-.55-1.133-.743.86zm-36.91-.903l1.757 1.398 1.047-1.695-1.375-1.438-1.43 1.735zm40.894-.297l1.047 1.695 1.216-.945.543-.453-1.43-1.735-1.376 1.438zm-5.438.89l.114.665.496-.535-.235-.692-.374.563zm-27.82.13l.496.535.114-.664-.372-.558-.238.688zm30.535-1.305l.615 1.246 1.14-1.058-.898-1.273-.856 1.085zm-34.397.187l1.14 1.06.614-1.247-.86-1.09-.894 1.277zM67.43 36.75l.543.695.91 1.313.446.734.623-.82.75-1.16.407-.762-.418-.773-.75-1.16-.613-.81-.44.723-.905 1.313-.555.707zm-64.758 0l.418.777.75 1.16.613.81.438-.724.907-1.312.555-.71-.543-.695-.91-1.313-.447-.734-.624.82-.748 1.164-.41.758zm48.707 1.523l.296.852.64-.754-.468-.87-.47.773zm-29.92.098l.642.755.297-.852-.47-.773-.47.87zm40.786-1.62l1.188 1.344.77.968 1.058-1.015 1.19-1.297-.627-.707-1.18-1.195-.45-.41-.76.96-1.19 1.352zm-54.917 0l.627.707 1.18 1.19.445.415.762-.96 1.192-1.352-1.188-1.344-.77-.968-1.058 1.01-1.19 1.302zm64.616 0l.32.72.516 1.526.183-1.09.067-1.164-.067-1.164-.183-1.07-.27.88-.566 1.362zM1 34.504l-.187 1.094-.063 1.164.067 1.164.183 1.07.27-.88.566-1.366-.32-.72L1 34.505zm22.23 3.68l.25.394.083-.426-.172-.402-.16.434zm26.99-.032l.08.426.25-.39-.16-.438-.17.402zM12.574 36.75l.86.855 1.038.95 1.492-1.805-1.492-1.805-1.047.957-.85.848zm45.242 0l1.492 1.805 1.046-.957.85-.848-.858-.855-1.04-.95-1.49 1.805zm-40.848 0l1.3 1.363.97-1.363-.97-1.363-1.3 1.363zm37.573 0l.97 1.363 1.3-1.363-1.3-1.363-.97 1.363zm-34.37 0l.777.992.546-.992-.546-.992-.778.992zm32.113 0l.546.992.778-.992-.778-.992-.546.992zm-29.926 0l.375.625.246-.625-.245-.625-.375.625zm28.44 0l.247.625.375-.625-.37-.625-.25.625zm-40.655-2.812l.78.984 1.13 1.28.852-.847 1.11-1.015-.868-1.215-.665-1.016-1.38 1.027-.96.8zm49.62.406l1.103 1.008.86.855 1.136-1.29.773-.976-.97-.8-1.37-1.02-.656 1.01-.874 1.214zm-44.726.11l1.43 1.734 1.378-1.438-1.05-1.695-1.76 1.398zm40.894.296l1.38 1.438 1.43-1.735-1.76-1.398-1.05 1.695zm8.72-.918l1.132 1.082 1.156 1.25.894-1.2.977-1.57-.746-.808-1.12-1.055-.54-.456-.864 1.453-.89 1.305zm-59.685-.437l.562.945.875 1.265.433.56 1.145-1.24 1.144-1.09-.887-1.292-.872-1.46-1.124.987-1.277 1.325zm13.843 1.453l.894 1.273.86-1.09-.614-1.245-1.14 1.063zm34.398.187l.86 1.09.9-1.273-1.14-1.06-.62 1.243zm-1.83.192l.468.773.473-.87-.64-.755-.3.852zm-29.915-.098l.47.87.468-.773-.297-.852-.64.754zM1.45 33.022l.18.93.355 1.2.293.745.535-.898.848-1.2.403-.5-.594-1.234-.626-1.668-.44.672-.595 1.098-.36.855zm68.27.278l.835 1.083.953 1.515.297-.76.352-1.2.175-.91-.367-.872-.597-1.097-.442-.67-.336.99-.582 1.35-.29.57zm-19.5 2.048l.17.402.16-.434-.245-.39-.086.422zm-26.985-.032l.16.438.172-.402-.082-.426-.25.39zm27.26-1.457l.373.562.234-.692-.496-.535-.11.664zm-27.82-.13l.236.688.372-.563-.114-.664-.492.54zm-2.136-.457l.554 1.133.742-.855-.328-1.085-.97.808zm31.41.278l.742.856.554-1.133-.964-.808-.332 1.086zm2.207-.472l1.23 1.133.984-1.605-1.553-1.066-.66 1.538zm-36.75-.47l.988 1.607 1.23-1.133-.664-1.535-1.553 1.062zm-4.3-.913l.663 1.016.816 1.145 1.836-1.453-1.086-2.078-1.222.72-1.008.65zm44.253.703l1.836 1.454.824-1.153.656-1.01-1.02-.66-1.214-.71-1.082 2.078zM7.973 30.602l.465.824.906 1.414.352.496.945-.78 1.45-1.08-.88-1.562-.55-1.105-1.246.768-1.44 1.024zm53.72.875l1.436 1.07.952.79.83-1.212.897-1.52-.763-.562-1.402-.922-.524-.308-.54 1.098-.888 1.567zm-37.864 1.03l.065.462.25-.4.008-.39-.324.328zm25.807.102l.25.355.066-.46-.324-.333.007.437zm1.11-.364l.617.66.28-.95-.784-.604-.114.894zm-28.61-.29l.277.95.618-.656-.114-.895-.78.602zm-18.734-2.3l.254.817.5 1.293.433.922.578-.618 1.16-1.093.688-.58-.387-.792-.618-1.472-.28-.813-.782.676-.973.98-.574.68zm63.36.746l.675.567 1.16 1.092.59.626.437-.934.493-1.29.242-.827-.57-.668-.973-.982-.77-.66-.277.797-.613 1.473-.395.804zM52.5 31.68l1.067.886.613-1.433-1.336-.797-.344 1.344zm-32.898-.547l.613 1.433 1.067-.886-.344-1.344-1.336.797zm-3.61-1.172l1.04 1.997 1.648-1.12-.672-1.876-2.015 1zm39.11.872l1.648 1.12 1.04-1.99-2.012-1.005-.676 1.875zm-31.484.008l.085.722.48-.472.028-.672-.592.422zm25.98.254l.48.472.086-.722-.593-.422.028.672zM71.18 29.46l.46.638.825 1.39-.047-1.11-.18-1.15-.308-1.126-.53-1.278.05 1.137-.106.716-.164.785zM2.036 27.59l-.364 1.09-.242 1.14-.11 1.164-.003.5.445-.8.813-1.188-.54-1.906zm48.917 2.898l.907.684.304-1.223-1.113-.59-.097 1.128zm-29.335-.54l.304 1.224.907-.684-.1-1.13-1.112.59zm37.148-.307l1.29.755 1.02.656.842-1.5.555-1.116-1.113-.582-1.55-.71-.435 1.12-.61 1.38zM11.313 28.44l.558 1.128.837 1.49 1.008-.654 1.297-.76-.594-1.37-.437-1.127-1.562.718-1.105.575zm7.38.21l.632 1.774 1.44-.852-.327-1.64-1.746.718zm34.323.922l1.44.852.634-1.774-1.742-.718-.332 1.64zm-28.02.313l-.03.46.327-.34.09-.382-.387.263zm23.5.164l.32.297-.03-.46-.387-.26.096.423zm1.012-.582l.742.515.075-.988-.89-.426.073.9zm-26.05-.473l.074.988.742-.515.074-.9-.89.427zm39.98-.867l1.336.82 1.39.98.625-1.36.628-1.737-.898-.633-1.317-.8-.624-.333-.544 1.598-.598 1.465zM6.364 26.832l.35 1.04.595 1.42.308.638 1.378-.977 1.344-.828-.597-1.45-.547-1.61-1.305.732-1.526 1.035zm8.312.027l.438 1.132.562 1.29 2.098-1.044-.63-2.258-1.343.45-1.124.43zm41.332 1.378l2.098 1.043.566-1.3.434-1.12-1.133-.434-1.336-.446-.63 2.258zm-34.86-.578l.302 1.528 1.226-.645-.055-1.387-1.47.504zm29.954.883l1.23.645.3-1.528-1.47-.504-.06 1.387zm-25.965-.332l-.066.728.567-.36.168-.652-.668.285zm23.008.364l.57.36-.066-.727-.673-.29.168.657zM2.442 26.7l.234.456.235.7.247.925.757-.823 1.08-.996.5-.405-.326-1.328-.254-1.77-.582.574-.812.954-.68.996-.398.72zm65.844-.15l1.043.888 1.245 1.285.132-.81-.066-1.858.036-.485-.433-.61-.813-.948-.57-.563-.12 1.038-.29 1.442-.164.62zm-44.922.372l.047 1.258 1.028-.48.14-1.126-1.214.348zm25.98.78l1.027.482.048-1.258-1.21-.348.136 1.125zm-2.496.08l.37.222-.124-.445-.43-.173.184.394zm-20.164-.223l-.125.444.39-.262.168-.355-.434.172zm-8.82-1.794l.6 2.164 1.845-.754-.27-1.973-2.176.563zm35.61 1.41l1.843.754.6-2.164-2.174-.563-.27 1.973zm6.58-.738l1.63.746 1.098.57.554-1.356.563-1.67-.86-.392-1.563-.61-.578-.195-.306 1.19-.54 1.718zm-50.17-1.71l.284.9.59 1.57.242.56 1.086-.567 1.64-.75-.534-1.71-.31-1.195-1.378.496-1.62.697zM47.718 27l.83.352-.128-.98-.965-.235.262.863zm-22.356-.63l-.133.985.833-.35.262-.864-.96.23zm-4.59-1.33l.25 1.866 1.586-.535v-.694l.02-.98-1.856.343zm30.398 1.335l1.586.535.25-1.867-1.85-.34.018.97-.004.702zm-24.004-.422l-.215.695.63-.234.3-.602-.715.14zm19.032.46l.63.235-.216-.695-.715-.14.3.6zm10.61-1.163l1.413.473 1.133.43.512-1.64.308-1.208-1.21-.34-1.67-.37-.19 1.186-.297 1.47zM13.6 23.305l.312 1.218.508 1.63 1.125-.426 1.426-.477-.3-1.46-.192-1.196-1.68.375-1.198.335zm35.484 2.465l1.336.375v-.465l-.023-1.09-1.548-.188.234 1.368zm-25.703-1.184l-.023 1.102v.457l1.336-.375.234-1.368-1.547.184zm41.406-.258l.78.414 1.364.828.707.49.235-1.005.21-1.364.068-.858-.7-.54-1.156-.753-.89-.49-.106.837-.296 1.566-.215.875zM5.63 22.832l.066.88.215 1.362.235.988.695-.48 1.36-.832.793-.422-.215-.855-.297-1.567-.11-.85-.905.495-1.152.755-.684.527zm39.14 3.078l.41.14-.215-.41-.457-.078.262.348zm-15.95-.27l-.214.41.437-.175.235-.313-.457.08zm18.372-.328l1.105.258-.218-1.242-1.26-.086.372 1.07zm-21.49-.984l-.217 1.242 1.105-.258.37-1.07-1.257.086zm19.75.637l.888.168-.332-.934-.988-.028.433.793zM27.775 24.2l-.332.933.887-.168.436-.793-.992.027zm26.047.25l2.27.58.285-1.39.192-1.187-1.2-.187-1.398-.157-.15 2.34zm-36.6-1.993l.19 1.195.282 1.38 2.27-.583-.15-2.337-1.405.16-1.188.184zm12.405 1.71l-.355.638.664-.098.418-.527-.656-.012h-.07zm14.22.536l.663.098-.355-.636h-.082l-.648.012.422.527zm-12.54-.5l-.297.356.465-.083.297-.258-.465-.017zm11.035.305l.434.054-.297-.355-.465.02.328.28zm-21.777-2.46l.137 2.24 1.96-.354.15-1.99-2.247.103zm30.558 1.89l1.962.35.137-2.24-2.247-.1.148 1.99zM5.017 20.102l-.613.92-.532 1.037-.41 1.088-.264 1.05.605-.69 1.07-1.016-.002-.097.043-1.36.106-.933zm63.898 2.39l.582.524 1.07 1.156-.1-.484-.345-1.11-.47-1.062-.595-1.004-.29-.407.11.91.043 1.364-.004.112zm-59.82-1.79l.13 1.095.284 1.512.168.682 1.55-.668 1.49-.53-.282-1.544-.2-1.688-1.43.446-1.71.695zm51.97 2.09l1.475.528 1.562.672.328-1.46.254-1.83-1.012-.432-1.453-.508-.677-.196-.2 1.676-.28 1.55zm-37.5-.847l-.146 1.88 1.664-.196.368-1.634-1.887-.05zm25.14 1.688l1.664.19-.145-1.878-1.883.05.363 1.638zm-15.032-.028l.434.04.383-.21-.45-.115-.368.285zm5.625-.175l.383.21.434-.038-.364-.29-.453.118zm-13.09-1.387l-.347 1.52 1.383-.09.515-1.29-1.55-.14zm20.332 1.43l1.382.09-.347-1.52-1.55.14.514 1.29zm-14.618.007l.672.043.52-.43-.71-.16-.482.547zm8.746-.39l.52.43.672-.043-.48-.547-.712.16zm-12.136-.817l-.473 1.168 1.132-.018.586-.973-1.246-.177zm16.054 1.145l1.133.02-.474-1.168-1.246.18.586.968zm-14.523.004l.902.02.59-.684-.973-.18-.52.844zm12.164-.664l.59.683.902-.018-.52-.844-.973.18zm-5.754.465l.418.13.42-.13-.42-.207-.417.207zm1.277-.618l.598.313.648-.18-.582-.437-.664.305zm-2.96.13l.648.18.598-.313-.66-.305-.587.437zm-21.817-3.36l.09.94.254 1.662.12.597 1.18-.328 1.762-.394-.17-1.786-.05-1.234-1.453.195-1.734.348zm44.43 2.473l1.75.39 1.19.332.263-1.44.203-1.755-.923-.203-1.656-.274-.605-.07-.05 1.223-.172 1.798zm-24.418.445l.88.207.717-.547-.914-.38-.683.72zm6.218-.34l.72.547.878-.207-.68-.72-.917.38zm-3.128-.156l.816.383.817-.383-.816-.56-.815.56zm4.796-.516l.78.83 1.112-.215-.703-1.043-1.19.43zm-9.85.615l1.113.214.774-.83-1.184-.428-.703 1.043zM6.028 18.93l-.215.925-.164 1.24-.036.8.85-.606 1.267-.75.57-.294-.038-1.367.12-1.786-.686.44-.993.763-.675.633zm59.45 1.316l1.202.65 1.484.995-.04-.816-.163-1.238-.21-.902-.695-.65-.992-.76-.676-.43.094 1.04.024.73-.027 1.382zm-36.634 1.31l1.375.198.77-1.152-1.49-.46-.656 1.413zm13.953-.954l.77 1.152 1.375-.2-.653-1.413-1.493.462zm11.188.757l1.484.167 1.198.188.16-1.71.05-1.247-1.257-.078-.897-.024-.81.004.06 1.2.016.968-.005.53zm-37.078-2.606l.05 1.258.16 1.7 1.188-.185 1.492-.168-.004-.524.075-2.18-.82-.004-2.14.102zm9.492 2.55l1.663.157.7-1.52-1.833-.44-.53 1.805zm18.62-1.363l.7 1.52 1.663-.155-.53-1.81-1.833.446zM34.24 21l1.042.44.93-.647-1.067-.668-.906.875zm3.33-.207l.93.648 1.043-.44-.906-.875-1.066.668zM20.62 18.68l-.06 1.21-.017.95.004.46 2.34-.097.344-2.316-1.41-.137-1.2-.07zm30.275 2.52l2.34.097.004-.47-.08-2.147-1.21.066-1.4.137.345 2.316zm-27.25-.005l1.992.063.555-1.914-2.215-.37-.332 2.22zm23.945-1.85l.555 1.913 1.992-.063-.332-2.222-2.215.37zm-15.414.87l1.3.48.993-.968-1.36-.758-.934 1.245zm7.133-.488l.99.968 1.302-.48-.934-1.246-1.36.757zm-3.59-.13l1.17.74 1.173-.743-1.172-1.024-1.17 1.028zm-5.88-.136l1.598.5 1-1.343-1.7-.812-.898 1.656zm11.508-.843l1 1.344 1.598-.5-.895-1.655-1.702.812zm20.25.184l.848.243 1.507.527.793.332.024-1.03-.078-1.38-.113-.855-.798-.38-1.286-.495-.972-.293.07.842.035 1.594-.032.895zm-52.39-2.163l-.118.875-.074 1.38.023 1.014.777-.328 1.508-.527.86-.245-.032-.883.035-1.594.07-.855-.988.297-1.285.5-.778.367zm17.96 2.144l1.934.474.94-1.754-2.09-.824-.784 2.105zm16.57-1.28l.942 1.754 1.934-.473-.52-1.444-.265-.66-2.09.824zm-6.257.586l1.255 1.105 1.457-.82-1.223-1.432-1.49 1.148zm-3.894.285l1.457.82 1.254-1.104-1.492-1.148-1.22 1.433zm12.95-1.936l.816 2.195 2.31-.392-.306-1.383-.31-1.16-1.17.317-1.34.422zm-22.418 1.804l2.308.39.817-2.194-1.352-.426-1.16-.313-.312 1.172-.3 1.37zm-11.08-2.965l-.1 1.094-.035 1.54.023.706 1.656-.328 1.567-.21.042-1.567.156-1.696-1.492.137-1.817.323zm44.595 2.8l1.555.208 1.668.333.023-.718-.036-1.54-.1-1.082-1.08-.214-1.527-.197-.703-.05.156 1.683.043 1.578zm-36.957-.143l1.2.066 1.495.145.322-1.456.312-1.172-1.683-.34-1.234-.184-.21 1.242-.2 1.7zm29.102-2.414l.308 1.16.325 1.47L51.896 18l1.21-.066-.198-1.707-.207-1.23-1.247.183-1.675.336zm-18.664 1.636l1.793.868 1.285-1.52-1.875-1.238-1.203 1.89zm8.472-.652l1.29 1.52 1.792-.868-1.207-1.894-1.874 1.242zm15.145 1.402l2.153.102-.043-1.465-.168-1.76-.945-.007-1.676.08-.604.057.203 1.207.206 1.793.875-.008zm-37.62-3.12l-.106.94-.097 1.676-.008.61 1.22-.078.923-.024.883.004.207-1.78.203-1.22-1.46-.11-.833-.023-.933.004zm18.207 1.597L36.89 17.6l1.575-1.22-1.574-1.605-1.573 1.602zm29.933-.235l.68.39 1.316.934-.492-.993-.63-.98-.737-.903-.777-.758.297.87.343 1.44zm-56.078-2.31l-.793.778-.74.903-.628.98-.48.973.734-.552 1.258-.773.164-.766.484-1.544zm19.074 2.15l2.176.86 1.258-1.978-1.234-.7-1.07-.546-.547 1.083-.584 1.28zm13.856-1.114l1.258 1.978 2.18-.86-.587-1.29-.542-1.073-1.078.555-1.23.69zm-9.348-.23l1.953 1.298 1.64-1.672-1.058-.942-.934-.758-.762.946-.84 1.13zm4.684-.374l1.64 1.672 1.95-1.297-.84-1.14-.754-.938-.94.766-1.056.938zm7.644-.97l.543 1.07.62 1.368 1.423-.453 1.168-.315-.547-1.63-.46-1.16-1.18.438-1.568.684zm-20.14 1.673l1.16.31 1.434.454.617-1.36.547-1.08-1.58-.685-1.167-.434-.464 1.172-.548 1.62zM10.407 12.9l-.403.86-.418 1.18-.203.773.96-.414 1.396-.472.62-.168.246-1.344.488-1.722-.765.29-1.13.538-.793.48zm51.015 1.762l1.313.387 1.66.67-.207-.794-.418-1.176-.395-.84-.812-.488-1.13-.535-.75-.282.31 1 .324 1.434.105.624zm-12.88-2.723l.454 1.142.575 1.71 1.76-.354 1.22-.18-.347-1.426-.527-1.684-.926.188-1.625.426-.582.18zM21.236 14.26l1.21.18 1.77.355.57-1.7.454-1.148-1.408-.41-1.722-.383-.3.9-.442 1.612-.133.594zm36.09-.203l.882.062 1.582.203.843.16-.19-1.01-.36-1.333-.29-.813-.855-.207-1.363-.22-1.012-.08.242.808.367 1.555.153.875zM13.993 11.32l-.297.828-.36 1.332-.187.997.827-.157 1.582-.203.893-.062.153-.87.367-1.552.246-.824-1.028.085-1.363.218-.837.207zm26.035.79l.754.937.89 1.21 1.3-.737 1.08-.555-.876-1.48-.69-1.04-1.064.672-1.394.992zm-10.293.85l1.07.548 1.31.742.885-1.203.762-.945-1.402-.997-1.055-.667-.695 1.046-.875 1.477zm22.69-1.94l.5 1.613.372 1.535 1.563-.12.855-.028.844.003-.294-1.468-.512-1.778-.35-.004-1.513.067-1.464.18zm-34.374 3.003l1.728.08.707.065.367-1.523.504-1.625-1.488-.176-1.512-.067-.336.004-.324 1.052-.356 1.5-.125.695.836-.004zm16.786-2.03l.93.757 1.125 1 1.118-.992.942-.766-1.164-1.265-.895-.872-.897.88-1.157 1.257zm8.293-1.93l.675 1.023.918 1.55 1.645-.71 1.156-.43-.637-1.32-.867-1.535-.867.38-1.5.753-.524.29zm-16.88 1.43l1.15.425 1.655.715.914-1.543.683-1.03-1.29-.697-1.605-.734-.48.815-.774 1.493-.254.554zm34.098-.794l.746.24 1.48.642-.687-.867-.82-.828-.91-.727-.918-.582.47.79.638 1.33zM14.543 8.573l-.937.594-.91.73-.82.83-.673.85.833-.387 1.39-.49.32-.72.797-1.406zm22.903.774l.875.855 1.223 1.328 1.46-1.038 1.044-.664-.894-1.16-1.168-1.324-.77.55-1.312 1.047-.457.408zm-5.71.484l1.034.656 1.473 1.047 1.214-1.32.883-.863-1.12-.954-1.42-1.05-.636.7-1.062 1.296-.367.488zm15-1.48l.827 1.472.68 1.426 1.503-.44 1.66-.376-.59-1.375-.866-1.63-1.075.242-1.472.44-.668.24zm-24.36 2.082l1.644.37 1.52.446.675-1.414.832-1.484-1.418-.48-1.794-.446-.54.96-.655 1.39-.265.658zm-6.43-2.516l-.575.758-.65 1.066-.36.715 1.023-.203 1.46-.172.642-.035.52-1.266.835-1.58-.812.12-1.215.293-.867.305zm40.347 2.125l1.364.105 1.76.31-.366-.73-.65-1.068-.564-.742-.894-.31-1.215-.288-.793-.12.512.91.613 1.335.233.598zm-37.93-.293l1.567.207 1.688.273.332-.78.68-1.427.413-.746-1.023-.125-1.38-.066-.862.027-.46.75-.63 1.09-.39.797h.066zm32.372-2.46l.406.74.685 1.443.336.832.876-.12 1.59-.134.777-.02h.082l-.4-.948-.628-1.227-.453-.734-.88-.022-1.378.07-1.01.12zm-10.117-.364l1.113 1.27.966 1.25 1.38-.747 1.545-.712-.862-1.222-1.19-1.414-.997.46-1.35.74-.602.374zM28.164 7.988l1.536.707 1.39.75.957-1.242 1.12-1.277-1.284-.766-1.66-.808-.727.828-.933 1.226-.4.582zm6.168-1.183l1.352 1.01 1.207 1.02 1.196-1.015 1.36-1.02-1.098-1.015-1.457-1.133-.878.657-1.168 1.006-.512.49zm-10.07-.06l.82.196 1.528.458.843.305.497-.73.964-1.27.563-.648-.973-.34-1.336-.352-.847-.156-.61.637-.87 1.07-.578.832zm20.043-1.694l.555.64.97 1.27.5.743.827-.3 1.527-.462.836-.194-.59-.848-.867-1.07-.637-.664-1.484.348-1.637.54zm10.113 1.34l.782.083 1.582.316-.852-.708-.977-.64-1.042-.524-1.02-.375.626.672.902 1.176zM20.903 4.53l-1.05.396-1.044.527-.974.64L17 6.79l.895-.204 1.465-.19.46-.634 1.083-1.23zM48.3 3.99l.79.89.88 1.18.35.54 1.356-.18 1.442-.074.343.008-.51-.64-.864-.907-.7-.614-.33-.05-1.263-.39h-.547l-.945.238zM20.65 6.34l1.444.07 1.37.184.775-1.13.91-1.12.307-.328-.92-.266h-.548l-.59.168-.915.203-.81.696-.858.907-.5.625.332-.008zm10.124-1.563l.762.36 1.398.765.762.477.636-.614 1.21-1.04.685-.52-.883-.534-1.23-.625-.797-.328-.727.495-1.078.867-.738.695zm6.78-.574l.673.512 1.21 1.04.645.62.75-.47 1.4-.764.776-.367-.75-.707-1.078-.86-.715-.487-.812.335-1.23.625-.868.523zm-10.55-.637l1.02.23 1.402.438.602.227.988-.944 1.406-1.106-.79-.22-1.23-.225-.925-.078-.828.46-1.032.708-.614.51zm14.352-1.152l.836.625 1.105.968.453.453L45.04 4l1.71-.453-.61-.496-1.026-.71-.813-.45-.944.083-1.23.226-.77.214zm-7.235-.18l.95.438 1.282.72.54.35 1.163-.72 1.606-.788-.726-.375-1.156-.477-.887-.27-.905.278-1.156.477-.71.367zM24.228 3h.355l.098.012 1.37.402.587-.527 1.297-.965-1.098.16-1.125.297-1.085.42-.398.2zm21.62-1.078l.755.527 1.066.902.797-.164.637-.176.094-.012h.36l-.958-.434-1.11-.36-1.144-.23-.496-.054zm-14.94-.633l.902.175 1.417.422.68-.39 1.468-.673-1.11-.074-1.163.06-1.152.186-1.043.293zM38.41.82l.848.36 1.297.703.746-.242 1.575-.355-1.066-.3-1.153-.188L39.493.75 38.41.82z" fill="none"/></svg>