<svg width="72" height="72" xmlns="http://www.w3.org/2000/svg"><title>squig</title><desc>Created with Sketch.</desc><g><path d="M59.667 7.145c-3.348 0-5.093-1.25-6.627-2.356-1.417-1.02-2.638-1.9-5.21-1.9-2.568 0-3.79.88-5.208 1.9-1.538 1.105-3.278 2.355-6.627 2.355-3.348 0-5.09-1.25-6.627-2.356-1.417-1.02-2.638-1.9-5.21-1.9-2.564 0-3.79.88-5.204 1.9-1.538 1.105-3.276 2.355-6.627 2.355-3.348 0-5.09-1.25-6.627-2.356-1.417-1.02-2.64-1.9-5.21-1.9V.403c3.35 0 5.09 1.25 6.628 2.356 1.417 1.02 2.64 1.898 5.21 1.898 2.565 0 3.79-.88 5.204-1.898C19.07 1.652 20.808.402 24.16.402c3.347 0 5.088 1.25 6.626 2.356 1.417 1.02 2.64 1.898 5.21 1.898s3.79-.88 5.208-1.898C42.742 1.652 44.484.402 47.83.402c3.353 0 5.094 1.25 6.632 2.356 1.417 1.02 2.64 1.898 5.21 1.898 2.568 0 3.79-.88 5.208-1.898C66.418 1.652 68.158.402 71.51.402v2.49c-2.57 0-3.794.878-5.208 1.897-1.542 1.1-3.282 2.355-6.635 2.355zM59.667 12.98c-3.348 0-5.093-1.25-6.627-2.355-1.417-1.02-2.638-1.898-5.21-1.898-2.568 0-3.79.878-5.208 1.898-1.538 1.105-3.278 2.355-6.627 2.355-3.348 0-5.09-1.25-6.627-2.355-1.417-1.02-2.638-1.898-5.21-1.898-2.564 0-3.79.878-5.204 1.898-1.538 1.105-3.276 2.355-6.627 2.355-3.348 0-5.09-1.25-6.627-2.355C4.283 9.61 3.06 8.73.49 8.73V6.242c3.35 0 5.09 1.25 6.628 2.356 1.417 1.02 2.64 1.898 5.21 1.898 2.565 0 3.79-.88 5.204-1.898 1.538-1.106 3.276-2.356 6.627-2.356 3.347 0 5.088 1.25 6.626 2.356 1.417 1.02 2.64 1.898 5.21 1.898s3.79-.88 5.208-1.898c1.538-1.106 3.28-2.356 6.627-2.356 3.353 0 5.094 1.25 6.632 2.356 1.417 1.02 2.64 1.898 5.21 1.898 2.568 0 3.79-.88 5.208-1.898 1.538-1.106 3.278-2.356 6.63-2.356V8.73c-2.57 0-3.794.88-5.208 1.9-1.542 1.1-3.282 2.35-6.635 2.35zM59.667 18.82c-3.348 0-5.093-1.25-6.627-2.355-1.417-1.02-2.638-1.9-5.21-1.9-2.568 0-3.79.88-5.208 1.9-1.538 1.105-3.278 2.355-6.627 2.355-3.348 0-5.09-1.25-6.627-2.355-1.417-1.02-2.638-1.9-5.21-1.9-2.564 0-3.79.88-5.204 1.9-1.538 1.105-3.276 2.355-6.627 2.355-3.348 0-5.09-1.25-6.627-2.355C4.283 15.45 3.06 14.57.49 14.57v-2.488c3.35 0 5.09 1.25 6.628 2.356 1.417 1.02 2.64 1.898 5.21 1.898 2.565 0 3.79-.88 5.204-1.898 1.538-1.106 3.276-2.356 6.627-2.356 3.347 0 5.088 1.25 6.626 2.356 1.417 1.02 2.64 1.898 5.21 1.898s3.79-.88 5.208-1.898c1.538-1.106 3.28-2.356 6.627-2.356 3.353 0 5.094 1.25 6.632 2.356 1.417 1.02 2.64 1.898 5.21 1.898 2.568 0 3.79-.88 5.208-1.898 1.538-1.106 3.278-2.356 6.63-2.356v2.488c-2.57 0-3.794.88-5.208 1.9-1.542 1.1-3.282 2.35-6.635 2.35zM59.667 24.66c-3.348 0-5.093-1.25-6.627-2.355-1.417-1.02-2.638-1.9-5.21-1.9-2.568 0-3.79.88-5.208 1.9-1.538 1.105-3.278 2.355-6.627 2.355-3.348 0-5.09-1.25-6.627-2.355-1.417-1.02-2.638-1.9-5.21-1.9-2.564 0-3.79.88-5.204 1.9-1.538 1.105-3.276 2.355-6.627 2.355-3.348 0-5.09-1.25-6.627-2.355-1.417-1.02-2.64-1.9-5.21-1.9V17.92c3.35 0 5.09 1.25 6.628 2.355 1.417 1.02 2.64 1.9 5.21 1.9 2.565 0 3.79-.88 5.204-1.9 1.538-1.105 3.276-2.355 6.627-2.355 3.347 0 5.088 1.25 6.626 2.355 1.417 1.02 2.64 1.9 5.21 1.9s3.79-.88 5.208-1.9c1.538-1.105 3.28-2.355 6.627-2.355 3.353 0 5.094 1.25 6.632 2.355 1.417 1.02 2.64 1.9 5.21 1.9 2.568 0 3.79-.88 5.208-1.9 1.538-1.105 3.278-2.355 6.63-2.355v2.488c-2.57 0-3.794.88-5.208 1.9-1.542 1.1-3.282 2.354-6.635 2.354zM59.667 30.496c-3.348 0-5.093-1.25-6.627-2.355-1.417-1.02-2.638-1.898-5.21-1.898-2.568 0-3.79.88-5.208 1.9-1.538 1.104-3.278 2.354-6.627 2.354-3.348 0-5.09-1.25-6.627-2.355-1.417-1.02-2.638-1.898-5.21-1.898-2.564 0-3.79.88-5.204 1.9-1.538 1.104-3.276 2.354-6.627 2.354-3.348 0-5.09-1.25-6.627-2.355-1.417-1.015-2.64-1.894-5.21-1.894v-2.488c3.35 0 5.09 1.25 6.628 2.355 1.417 1.02 2.64 1.9 5.21 1.9 2.565 0 3.79-.88 5.204-1.9 1.538-1.105 3.276-2.355 6.627-2.355 3.347 0 5.088 1.25 6.626 2.355 1.417 1.02 2.64 1.9 5.21 1.9s3.79-.88 5.208-1.9c1.538-1.105 3.28-2.355 6.627-2.355 3.353 0 5.094 1.25 6.632 2.355 1.417 1.02 2.64 1.9 5.21 1.9 2.568 0 3.79-.88 5.208-1.9 1.538-1.105 3.278-2.355 6.63-2.355v2.488c-2.57 0-3.794.88-5.208 1.9-1.542 1.1-3.282 2.35-6.635 2.35zM59.667 36.336c-3.348 0-5.093-1.25-6.627-2.356-1.417-1.02-2.638-1.898-5.21-1.898-2.568 0-3.79.88-5.208 1.898-1.538 1.106-3.278 2.356-6.627 2.356-3.348 0-5.09-1.25-6.627-2.356-1.417-1.02-2.638-1.898-5.21-1.898-2.564 0-3.79.88-5.204 1.898-1.538 1.106-3.276 2.356-6.627 2.356-3.348 0-5.09-1.25-6.627-2.356-1.417-1.015-2.64-1.894-5.21-1.894v-2.488c3.35 0 5.09 1.25 6.628 2.355 1.417 1.02 2.64 1.9 5.21 1.9 2.565 0 3.79-.88 5.204-1.9 1.538-1.105 3.276-2.355 6.627-2.355 3.347 0 5.088 1.25 6.626 2.355 1.417 1.02 2.64 1.9 5.21 1.9s3.79-.88 5.208-1.9c1.538-1.105 3.28-2.355 6.627-2.355 3.353 0 5.094 1.25 6.632 2.355 1.417 1.02 2.64 1.9 5.21 1.9 2.568 0 3.79-.88 5.208-1.9 1.538-1.105 3.278-2.355 6.63-2.355v2.488c-2.57 0-3.794.88-5.208 1.898-1.542 1.102-3.282 2.352-6.635 2.352zM59.667 42.176c-3.348 0-5.093-1.25-6.627-2.356-1.417-1.02-2.638-1.898-5.21-1.898-2.568 0-3.79.88-5.208 1.898-1.538 1.106-3.278 2.356-6.627 2.356-3.348 0-5.09-1.25-6.627-2.356-1.417-1.02-2.638-1.898-5.21-1.898-2.564 0-3.79.88-5.204 1.894-1.538 1.106-3.276 2.356-6.627 2.356-3.348 0-5.09-1.25-6.627-2.356C4.283 38.8 3.06 37.922.49 37.922v-2.488c3.35 0 5.09 1.25 6.628 2.355 1.417 1.02 2.64 1.898 5.21 1.898 2.565 0 3.79-.88 5.204-1.9 1.538-1.104 3.276-2.354 6.627-2.354 3.347 0 5.088 1.25 6.626 2.355 1.417 1.02 2.64 1.898 5.21 1.898s3.79-.88 5.208-1.9c1.538-1.104 3.28-2.354 6.627-2.354 3.353 0 5.094 1.25 6.632 2.355 1.417 1.02 2.64 1.898 5.21 1.898 2.568 0 3.79-.88 5.208-1.9 1.538-1.104 3.278-2.354 6.63-2.354v2.488c-2.57 0-3.794.88-5.208 1.898-1.542 1.106-3.282 2.356-6.635 2.356zM59.667 48.016c-3.348 0-5.093-1.25-6.627-2.356-1.417-1.02-2.638-1.898-5.21-1.898-2.568 0-3.79.88-5.208 1.898-1.538 1.106-3.278 2.356-6.627 2.356-3.348 0-5.09-1.25-6.627-2.356-1.417-1.02-2.638-1.898-5.21-1.898-2.564 0-3.79.88-5.204 1.898-1.538 1.106-3.276 2.356-6.627 2.356-3.348 0-5.09-1.25-6.627-2.356-1.417-1.02-2.64-1.898-5.21-1.898v-2.49c3.35 0 5.09 1.25 6.628 2.357 1.417 1.018 2.64 1.897 5.21 1.897 2.565 0 3.79-.88 5.204-1.898 1.538-1.107 3.276-2.357 6.627-2.357 3.347 0 5.088 1.25 6.626 2.356 1.417 1.018 2.64 1.897 5.21 1.897s3.79-.88 5.208-1.898c1.538-1.107 3.28-2.357 6.627-2.357 3.353 0 5.094 1.25 6.632 2.356 1.417 1.018 2.64 1.897 5.21 1.897 2.568 0 3.79-.88 5.208-1.898 1.538-1.107 3.278-2.357 6.63-2.357v2.49c-2.57 0-3.794.878-5.208 1.897-1.542 1.106-3.282 2.356-6.635 2.356zM59.667 53.852c-3.348 0-5.093-1.25-6.627-2.356-1.417-1.02-2.638-1.898-5.21-1.898-2.568 0-3.79.88-5.208 1.898-1.538 1.106-3.278 2.356-6.627 2.356-3.348 0-5.09-1.25-6.627-2.356-1.417-1.02-2.638-1.898-5.21-1.898-2.564 0-3.79.88-5.204 1.898-1.538 1.106-3.276 2.356-6.627 2.356-3.348 0-5.09-1.25-6.627-2.356-1.417-1.016-2.64-1.894-5.21-1.894v-2.49c3.35 0 5.09 1.25 6.628 2.357 1.417 1.018 2.64 1.897 5.21 1.897 2.565 0 3.79-.88 5.204-1.898 1.538-1.107 3.276-2.357 6.627-2.357 3.347 0 5.088 1.25 6.626 2.356 1.417 1.018 2.64 1.897 5.21 1.897s3.79-.88 5.208-1.898c1.538-1.107 3.28-2.357 6.627-2.357 3.353 0 5.094 1.25 6.632 2.356 1.417 1.018 2.64 1.897 5.21 1.897 2.568 0 3.79-.88 5.208-1.898 1.538-1.107 3.278-2.357 6.63-2.357v2.49c-2.57 0-3.794.877-5.208 1.897-1.542 1.102-3.282 2.352-6.635 2.352zM59.667 59.69c-3.348 0-5.093-1.25-6.627-2.354-1.417-1.02-2.638-1.898-5.21-1.898-2.568 0-3.79.878-5.208 1.898-1.538 1.105-3.278 2.355-6.627 2.355-3.348 0-5.09-1.25-6.627-2.354-1.417-1.02-2.638-1.898-5.21-1.898-2.564 0-3.79.878-5.204 1.898-1.538 1.105-3.276 2.355-6.627 2.355-3.348 0-5.09-1.25-6.627-2.354C4.283 56.32 3.06 55.44.49 55.44v-2.487c3.35 0 5.09 1.25 6.628 2.356 1.417 1.018 2.64 1.897 5.21 1.897 2.565 0 3.79-.88 5.204-1.898 1.538-1.107 3.276-2.357 6.627-2.357 3.347 0 5.088 1.25 6.626 2.356 1.417 1.018 2.64 1.897 5.21 1.897s3.79-.88 5.208-1.898c1.538-1.107 3.28-2.357 6.627-2.357 3.353 0 5.094 1.25 6.632 2.356 1.417 1.018 2.64 1.897 5.21 1.897 2.568 0 3.79-.88 5.208-1.898 1.538-1.107 3.278-2.357 6.63-2.357v2.488c-2.57 0-3.794.88-5.208 1.9-1.542 1.1-3.282 2.35-6.635 2.35zM59.667 65.53c-3.348 0-5.093-1.25-6.627-2.354-1.417-1.02-2.638-1.9-5.21-1.9-2.568 0-3.79.88-5.208 1.9-1.538 1.105-3.278 2.355-6.627 2.355-3.348 0-5.09-1.25-6.627-2.354-1.417-1.02-2.638-1.9-5.21-1.9-2.564 0-3.79.88-5.204 1.9-1.538 1.105-3.276 2.355-6.627 2.355-3.348 0-5.09-1.25-6.627-2.354-1.417-1.016-2.64-1.9-5.21-1.9V58.79c3.35 0 5.09 1.25 6.628 2.355 1.417 1.02 2.64 1.898 5.21 1.898 2.565 0 3.79-.88 5.204-1.898 1.538-1.106 3.276-2.356 6.627-2.356 3.347 0 5.088 1.25 6.626 2.355 1.417 1.02 2.64 1.898 5.21 1.898s3.79-.88 5.208-1.898c1.538-1.106 3.28-2.356 6.627-2.356 3.353 0 5.094 1.25 6.632 2.355 1.417 1.02 2.64 1.898 5.21 1.898 2.568 0 3.79-.88 5.208-1.898 1.538-1.106 3.278-2.356 6.63-2.356v2.487c-2.57 0-3.794.88-5.208 1.9-1.542 1.104-3.282 2.354-6.635 2.354zM59.667 71.37c-3.348 0-5.093-1.25-6.627-2.354-1.417-1.02-2.638-1.9-5.21-1.9-2.568 0-3.79.88-5.208 1.9-1.538 1.105-3.278 2.355-6.627 2.355-3.348 0-5.09-1.25-6.627-2.354-1.417-1.02-2.638-1.9-5.21-1.9-2.564 0-3.79.88-5.204 1.9-1.538 1.105-3.276 2.355-6.627 2.355-3.348 0-5.09-1.25-6.627-2.354-1.417-1.02-2.64-1.9-5.21-1.9V64.63c3.35 0 5.09 1.25 6.628 2.354 1.417 1.02 2.64 1.9 5.21 1.9 2.565 0 3.79-.88 5.204-1.9 1.538-1.105 3.276-2.355 6.627-2.355 3.347 0 5.088 1.25 6.626 2.354 1.417 1.02 2.64 1.9 5.21 1.9s3.79-.88 5.208-1.9c1.538-1.105 3.28-2.355 6.627-2.355 3.353 0 5.094 1.25 6.632 2.354 1.417 1.02 2.64 1.9 5.21 1.9 2.568 0 3.79-.88 5.208-1.9 1.538-1.105 3.278-2.355 6.63-2.355v2.487c-2.57 0-3.794.88-5.208 1.9-1.542 1.1-3.282 2.354-6.635 2.354z"/></g></svg>