<svg width="80" height="80" xmlns="http://www.w3.org/2000/svg"><title>tri</title><desc>Created with Sketch.</desc><path d="M74.772 52.5L44.925.824c-.3-.523-.9-.824-1.5-.824H31.5c-.603 0-1.2.3-1.5.824L.225 52.5c-.3.523-.3 1.2 0 1.726l6 10.352c.3.523.898.824 1.5.824H67.35c.602 0 1.2-.3 1.5-.824l6-10.352c.223-.527.223-1.203-.078-1.726zM32.55 3.45h7.95L18.146 42.147c-.3.524-.3 1.2 0 1.727.3.523.9.824 1.5.824h22.875l3.977 6.897H4.725L32.55 3.45zm4.95 32.698l3 5.176h-6l3-5.176zM4.725 55.05h44.7c.6 0 1.198-.3 1.5-.824.3-.523.3-1.2 0-1.726L39.52 32.7l3.977-6.9 20.85 36.15H8.7l-3.972-6.9zm62.625 5.172l-22.425-38.7c-.3-.522-.9-.823-1.5-.823-.602 0-1.2.3-1.5.823l-11.403 19.8h-7.95L43.5 5.177l27.823 48.226-3.972 6.82z"/></svg>