<svg width="1439" height="802" xmlns="http://www.w3.org/2000/svg"><path d="M-29-53L-79 97l48-15zM-29-53l-2 135L19 9z" fill="#fff6f0" stroke="#fff6f0"/><path d="M-29-53L19 9l36-78z" fill="#fff4f0" stroke="#fff4f0"/><path d="M-29-53l84-16 68-15z" fill="#fff1ed" stroke="#fff1ed"/><path d="M55-69L19 9l125 14z" fill="#feefeb" stroke="#feefeb"/><path d="M55-69l89 92-21-107z" fill="#feebe8" stroke="#feebe8"/><path d="M123-84l21 107 120-92z" fill="#fee5e2" stroke="#fee5e2"/><path d="M123-84l141 15 69-9z" fill="#fedfdf" stroke="#fedfdf"/><path d="M123-84l210 6 987-3z" fill="#fbb7d1" stroke="#fbb7d1"/><path d="M264-69L144 23l97 16z" fill="#fee1df" stroke="#fee1df"/><path d="M264-69L241 39l46-30z" fill="#fdddde" stroke="#fdddde"/><path d="M264-69l23 78 46-87z" fill="#fddadd" stroke="#fddadd"/><path d="M333-78L287 9l127-64z" fill="#fdd5dc" stroke="#fdd5dc"/><path d="M333-78l81 23 58-9z" fill="#fdd0da" stroke="#fdd0da"/><path d="M333-78l139 14 563-9z" fill="#fbb4d0" stroke="#fbb4d0"/><path d="M333-78l702 5 285-8z" fill="#e691c7" stroke="#e691c7"/><path d="M414-55L287 9l153 46z" fill="#fdd2db" stroke="#fdd2db"/><path d="M414-55l26 110 32-119z" fill="#fdcbd9" stroke="#fdcbd9"/><path d="M472-64L440 55l62 7z" fill="#fcc6d5" stroke="#fcc6d5"/><path d="M472-64l30 126 47-94z" fill="#fcc2d6" stroke="#fcc2d6"/><path d="M472-64l77 32 136-10z" fill="#fcbad3" stroke="#fcbad3"/><path d="M472-64l213 22 350-31z" fill="#f4a5cd" stroke="#f4a5cd"/><path d="M549-32l-47 94 47 11z" fill="#fcbcd0" stroke="#fcbcd0"/><path d="M549-32V73l142-54z" fill="#fbb5cf" stroke="#fbb5cf"/><path d="M549-32l142 51-6-61z" fill="#fab1d0" stroke="#fab1d0"/><path d="M685-42l6 61 47-38z" fill="#f6a9ce" stroke="#f6a9ce"/><path d="M685-42l53 23 124-5z" fill="#f2a1cd" stroke="#f2a1cd"/><path d="M685-42l177 18 173-49z" fill="#ea95c9" stroke="#ea95c9"/><path d="M738-19l-47 38 58 55z" fill="#f4a4cb" stroke="#f4a4cb"/><path d="M738-19l11 93 73-60z" fill="#f29eca" stroke="#f29eca"/><path d="M738-19l84 33 40-38z" fill="#ef9ccc" stroke="#ef9ccc"/><path d="M862-24l-40 38 124 34z" fill="#e892c6" stroke="#e892c6"/><path d="M862-24l84 72 35-93z" fill="#e28cc5" stroke="#e28cc5"/><path d="M862-24l119-21 54-28z" fill="#df89c3" stroke="#df89c3"/><path d="M981-45l-35 93 97 12z" fill="#db83bf" stroke="#db83bf"/><path d="M981-45l62 105-8-133z" fill="#d881bf" stroke="#d881bf"/><path d="M1035-73l8 133 100-43z" fill="#d180be" stroke="#d180be"/><path d="M1035-73l108 90 18-49z" fill="#cc80bd" stroke="#cc80bd"/><path d="M1035-73l126 41 159-49z" fill="#c580bc" stroke="#c580bc"/><path d="M1161-32l-18 49 94-33z" fill="#c380bc" stroke="#c380bc"/><path d="M1161-32l76 16 83-65z" fill="#bc80bb" stroke="#bc80bb"/><path d="M1237-16l-94 33 82 49z" fill="#c17eb9" stroke="#c17eb9"/><path d="M1237-16l-12 82 100-19z" fill="#b97db7" stroke="#b97db7"/><path d="M1237-16l88 63-5-128z" fill="#b580ba" stroke="#b580ba"/><path d="M1320-81l5 128 36-6z" fill="#b080b9" stroke="#b080b9"/><path d="M1320-81l41 122 40-65z" fill="#ad80b9" stroke="#ad80b9"/><path d="M1320-81l81 57 61 11z" fill="#a880b9" stroke="#a880b9"/><path d="M1401-24l-40 65 101-54z" fill="#a780b8" stroke="#a780b8"/><path d="M1462-13l-101 54 17 66z" fill="#a87cb3" stroke="#a87cb3"/><path d="M1462-13l-84 120 138-37z" fill="#a17bb2" stroke="#a17bb2"/><path d="M-31 82l-48 15 50 145z" fill="#ffebe6" stroke="#ffebe6"/><path d="M-31 82l2 160 84-27z" fill="#ffdee0" stroke="#ffdee0"/><path d="M-31 82l86 133 14-96z" fill="#ffe4e0" stroke="#ffe4e0"/><path d="M-31 82l100 37L19 9z" fill="#ffede7" stroke="#ffede7"/><path d="M19 9l50 110 75-96z" fill="#feeae5" stroke="#feeae5"/><path d="M144 23l-75 96 66 71z" fill="#fee1db" stroke="#fee1db"/><path d="M144 23l-9 167 116-77z" fill="#fedbd6" stroke="#fedbd6"/><path d="M144 23l107 90-10-74z" fill="#feddd9" stroke="#feddd9"/><path d="M241 39l10 74L287 9z" fill="#fdd9d8" stroke="#fdd9d8"/><path d="M287 9l-36 104 42 44z" fill="#fdd4d3" stroke="#fdd4d3"/><path d="M287 9l6 148 140-61z" fill="#fdcfd2" stroke="#fdcfd2"/><path d="M287 9l146 87 7-41z" fill="#fdcdd5" stroke="#fdcdd5"/><path d="M440 55l-7 41 69-34z" fill="#fcc3d0" stroke="#fcc3d0"/><path d="M502 62l-69 34 32 26z" fill="#fcc0cd" stroke="#fcc0cd"/><path d="M502 62l-37 60 84-49z" fill="#fcbbcc" stroke="#fcbbcc"/><path d="M549 73l-84 49 109 21z" fill="#fcb5c8" stroke="#fcb5c8"/><path d="M549 73l25 70L691 19z" fill="#fbaec8" stroke="#fbaec8"/><path d="M691 19L574 143l108 29z" fill="#f9a6c3" stroke="#f9a6c3"/><path d="M691 19l-9 153 67-98z" fill="#f6a1c4" stroke="#f6a1c4"/><path d="M749 74l-67 98 98-54z" fill="#f499c0" stroke="#f499c0"/><path d="M749 74l31 44 42-104z" fill="#f199c4" stroke="#f199c4"/><path d="M822 14l-42 104 142-20z" fill="#ec91c2" stroke="#ec91c2"/><path d="M822 14l100 84 24-50z" fill="#e68cc1" stroke="#e68cc1"/><path d="M946 48l-24 50 121-38z" fill="#dd81ba" stroke="#dd81ba"/><path d="M1043 60L922 98l127 40z" fill="#d97bb5" stroke="#d97bb5"/><path d="M1043 60l6 78 116-25z" fill="#cf77b2" stroke="#cf77b2"/><path d="M1043 60l122 53-22-96z" fill="#cb7bb6" stroke="#cb7bb6"/><path d="M1143 17l22 96 60-47z" fill="#c47bb5" stroke="#c47bb5"/><path d="M1225 66l-60 47 47-7z" fill="#c178b1" stroke="#c178b1"/><path d="M1225 66l-13 40 92 55z" fill="#bb77af" stroke="#bb77af"/><path d="M1225 66l79 95 21-114z" fill="#b678b0" stroke="#b678b0"/><path d="M1325 47l-21 114 74-54z" fill="#b077ae" stroke="#b077ae"/><path d="M1325 47l53 60-17-66z" fill="#ad7bb2" stroke="#ad7bb2"/><path d="M1516 70l-138 37 114 51z" fill="#a077ab" stroke="#a077ab"/><path d="M1516 70l-24 88 7 179z" fill="#9b68a6" stroke="#9b68a6"/><path d="M1516 70l-17 267 23 162z" fill="#994b9c" stroke="#994b9c"/><path d="M-79 97l3 597 36-190z" fill="#ffa2d2" stroke="#ffa2d2"/><path d="M-79 97l39 407 17-83z" fill="#ffb9d6" stroke="#ffb9d6"/><path d="M-79 97l56 324-6-179z" fill="#ffd2de" stroke="#ffd2de"/><path d="M69 119l-14 96 41-41z" fill="#fed9db" stroke="#fed9db"/><path d="M69 119l27 55 39 16z" fill="#fed9d9" stroke="#fed9d9"/><path d="M96 174l-41 41 80-25z" fill="#fed3d7" stroke="#fed3d7"/><path d="M251 113l-116 77 144 7z" fill="#fecdcf" stroke="#fecdcf"/><path d="M251 113l28 84 14-40z" fill="#fdcace" stroke="#fdcace"/><path d="M293 157l-14 40 99 23z" fill="#fdbfcb" stroke="#fdbfcb"/><path d="M293 157l85 63 55-124z" fill="#fdc1cc" stroke="#fdc1cc"/><path d="M433 96l-55 124 87-98z" fill="#fdbdcb" stroke="#fdbdcb"/><path d="M465 122l-87 98 143 9z" fill="#fcb0c7" stroke="#fcb0c7"/><path d="M465 122l56 107 53-86z" fill="#fcadc5" stroke="#fcadc5"/><path d="M574 143l-53 86 51 9z" fill="#fca0c1" stroke="#fca0c1"/><path d="M574 143l-2 95 82-42z" fill="#fb9cc0" stroke="#fb9cc0"/><path d="M574 143l80 53 28-24z" fill="#fa9cc0" stroke="#fa9cc0"/><path d="M682 172l-28 24 77 58z" fill="#f78fbc" stroke="#f78fbc"/><path d="M682 172l49 82 49-136z" fill="#f48ebc" stroke="#f48ebc"/><path d="M780 118l-49 136 105-86z" fill="#f188bc" stroke="#f188bc"/><path d="M780 118l56 50 86-70z" fill="#ec8abc" stroke="#ec8abc"/><path d="M836 168l-105 86 29 55z" fill="#f17bb7" stroke="#f17bb7"/><path d="M836 168l-76 141 130-108z" fill="#ee79b7" stroke="#ee79b7"/><path d="M836 168l54 33 32-103z" fill="#e780b8" stroke="#e780b8"/><path d="M922 98l-32 103 159-63z" fill="#df79b4" stroke="#df79b4"/><path d="M1049 138l-159 63 73 63z" fill="#de6db0" stroke="#de6db0"/><path d="M1049 138l-86 126 97-77z" fill="#d767ad" stroke="#d767ad"/><path d="M1049 138l11 49 105-74z" fill="#cf70af" stroke="#cf70af"/><path d="M1165 113l-105 74 25 36z" fill="#cd6bad" stroke="#cd6bad"/><path d="M1165 113l-80 110 134-31z" fill="#c76aac" stroke="#c76aac"/><path d="M1165 113l54 79-7-86z" fill="#c172ad" stroke="#c172ad"/><path d="M1212 106l7 86 85-31z" fill="#bb6fac" stroke="#bb6fac"/><path d="M1304 161l-85 31 104 38z" fill="#b767a9" stroke="#b767a9"/><path d="M1304 161l19 69 40 20z" fill="#b163a7" stroke="#b163a7"/><path d="M1304 161l59 89 15-143z" fill="#ae6ba9" stroke="#ae6ba9"/><path d="M1378 107l-15 143 83 2z" fill="#a865a6" stroke="#a865a6"/><path d="M1378 107l68 145 46-94z" fill="#a36ba7" stroke="#a36ba7"/><path d="M1492 158l-46 94 53 85z" fill="#9e5aa2" stroke="#9e5aa2"/><path d="M-29 242l6 179 16-70z" fill="#ffb7d3" stroke="#ffb7d3"/><path d="M-29 242l22 109 23-56z" fill="#ffc2d7" stroke="#ffc2d7"/><path d="M-29 242l45 53 39-80z" fill="#ffcdda" stroke="#ffcdda"/><path d="M55 215l-39 80 133 1z" fill="#fec2d3" stroke="#fec2d3"/><path d="M55 215l94 81-14-106z" fill="#fec9d3" stroke="#fec9d3"/><path d="M135 190l14 106 95-19z" fill="#febdcc" stroke="#febdcc"/><path d="M135 190l109 87 13-27z" fill="#febecb" stroke="#febecb"/><path d="M135 190l122 60 22-53z" fill="#fec4cd" stroke="#fec4cd"/><path d="M257 250l-13 27 94 77z" fill="#fda8c3" stroke="#fda8c3"/><path d="M257 250l81 104 40-134z" fill="#fdaac4" stroke="#fdaac4"/><path d="M257 250l121-30-99-23z" fill="#fdbaca" stroke="#fdbaca"/><path d="M378 220l-40 134 61-31z" fill="#fd9ec0" stroke="#fd9ec0"/><path d="M378 220l21 103 106-14z" fill="#fd9dc0" stroke="#fd9dc0"/><path d="M378 220l127 89 16-80z" fill="#fca0c1" stroke="#fca0c1"/><path d="M521 229l-16 80 67-71z" fill="#fc96be" stroke="#fc96be"/><path d="M572 238l-67 71 41 41z" fill="#fc89b9" stroke="#fc89b9"/><path d="M572 238l-26 112 148-26z" fill="#fb7fb5" stroke="#fb7fb5"/><path d="M572 238l122 86-40-128z" fill="#fa89ba" stroke="#fa89ba"/><path d="M654 196l40 128 37-70z" fill="#f681b8" stroke="#f681b8"/><path d="M731 254l-37 70 66-15z" fill="#f472b3" stroke="#f472b3"/><path d="M890 201L760 309l134 41z" fill="#eb66b0" stroke="#eb66b0"/><path d="M890 201l4 149 69-86z" fill="#e462ae" stroke="#e462ae"/><path d="M963 264l-69 86 90-73z" fill="#e056a9" stroke="#e056a9"/><path d="M963 264l21 13 76-90z" fill="#da5fab" stroke="#da5fab"/><path d="M1060 187l-76 90 101-54z" fill="#d560ab" stroke="#d560ab"/><path d="M1085 223l-101 54 60 52z" fill="#d652a6" stroke="#d652a6"/><path d="M1085 223l-41 106 94-19z" fill="#cf4fa4" stroke="#cf4fa4"/><path d="M1085 223l53 87 81-118z" fill="#c85ca8" stroke="#c85ca8"/><path d="M1219 192l-81 118 110 22z" fill="#c152a3" stroke="#c152a3"/><path d="M1219 192l29 140 75-102z" fill="#b959a5" stroke="#b959a5"/><path d="M1323 230l-75 102 34 1z" fill="#b64ca0" stroke="#b64ca0"/><path d="M1323 230l-41 103 79-38z" fill="#b24fa0" stroke="#b24fa0"/><path d="M1323 230l38 65 2-45z" fill="#ae57a3" stroke="#ae57a3"/><path d="M1363 250l-2 45 85-43z" fill="#a955a1" stroke="#a955a1"/><path d="M1446 252l-85 43 138 42z" fill="#a34d9d" stroke="#a34d9d"/><path d="M-7 351l-16 70 45-54z" fill="#ffaacf" stroke="#ffaacf"/><path d="M-7 351l29 16-6-72z" fill="#ffb4d1" stroke="#ffb4d1"/><path d="M16 295l6 72 127-71z" fill="#feb5cf" stroke="#feb5cf"/><path d="M149 296L22 367l81 46z" fill="#fea7c9" stroke="#fea7c9"/><path d="M149 296l-46 117 112-29z" fill="#fea0c3" stroke="#fea0c3"/><path d="M149 296l66 88 29-107z" fill="#fea8c3" stroke="#fea8c3"/><path d="M244 277l-29 107 123-30z" fill="#fd9dbf" stroke="#fd9dbf"/><path d="M338 354l-123 30 120 29z" fill="#fd8dbc" stroke="#fd8dbc"/><path d="M338 354l-3 59 53 18z" fill="#fd84b9" stroke="#fd84b9"/><path d="M338 354l50 77 11-108z" fill="#fd8aba" stroke="#fd8aba"/><path d="M399 323l-11 108 128-4z" fill="#fd7db7" stroke="#fd7db7"/><path d="M399 323l117 104-11-118z" fill="#fc83b7" stroke="#fc83b7"/><path d="M505 309l11 118 30-77z" fill="#fc7ab4" stroke="#fc7ab4"/><path d="M546 350l-30 77 59-32z" fill="#fc6fb2" stroke="#fc6fb2"/><path d="M546 350l29 45 119-71z" fill="#fb70b1" stroke="#fb70b1"/><path d="M694 324l-119 71 102 49z" fill="#f962ad" stroke="#f962ad"/><path d="M694 324l-17 120 53-58z" fill="#f65dad" stroke="#f65dad"/><path d="M694 324l36 62 30-77z" fill="#f465af" stroke="#f465af"/><path d="M760 309l-30 77 154-19z" fill="#f059ac" stroke="#f059ac"/><path d="M760 309l124 58 10-17z" fill="#ec56aa" stroke="#ec56aa"/><path d="M894 350l-10 17 95 75z" fill="#e341a4" stroke="#e341a4"/><path d="M894 350l85 92 44-25z" fill="#de37a0" stroke="#de37a0"/><path d="M894 350l129 67 21-88z" fill="#db3ea1" stroke="#db3ea1"/><path d="M894 350l150-21-60-52z" fill="#dd4ca5" stroke="#dd4ca5"/><path d="M1044 329l-21 88 106 18z" fill="#d2319c" stroke="#d2319c"/><path d="M1044 329l85 106 9-125z" fill="#cd3b9d" stroke="#cd3b9d"/><path d="M1138 310l-9 125 113-49z" fill="#c5369b" stroke="#c5369b"/><path d="M1138 310l104 76 6-54z" fill="#c03f9c" stroke="#c03f9c"/><path d="M1248 332l-6 54 40-53z" fill="#ba3d9b" stroke="#ba3d9b"/><path d="M1282 333l-40 53 32 25z" fill="#b9369a" stroke="#b9369a"/><path d="M1282 333l-8 78 147-11z" fill="#b13598" stroke="#b13598"/><path d="M1282 333l139 67-60-105z" fill="#ad3f9a" stroke="#ad3f9a"/><path d="M1361 295l60 105 78-63z" fill="#a43f98" stroke="#a43f98"/><path d="M1499 337l-78 63 31 9z" fill="#a03496" stroke="#a03496"/><path d="M1499 337l-47 72 70 90z" fill="#9c2b94" stroke="#9c2b94"/><path d="M-23 421l-17 83 63-20z" fill="#fc94cb" stroke="#fc94cb"/><path d="M-23 421l46 63-1-117z" fill="#ff9ecd" stroke="#ff9ecd"/><path d="M22 367l1 117 80-71z" fill="#ff9ac9" stroke="#ff9ac9"/><path d="M103 413l-80 71 141 8z" fill="#fd8bc3" stroke="#fd8bc3"/><path d="M103 413l61 79 51-108z" fill="#fe8dbf" stroke="#fe8dbf"/><path d="M215 384l-51 108 115-13z" fill="#fe82ba" stroke="#fe82ba"/><path d="M215 384l64 95 56-66z" fill="#fd84ba" stroke="#fd84ba"/><path d="M335 413l-56 66 111 26z" fill="#fc75b6" stroke="#fc75b6"/><path d="M335 413l55 92-2-74z" fill="#fd75b6" stroke="#fd75b6"/><path d="M388 431l2 74 113-2z" fill="#f86ab1" stroke="#f86ab1"/><path d="M388 431l115 72 13-76z" fill="#fc68b2" stroke="#fc68b2"/><path d="M516 427l-13 76 78-41z" fill="#fb5eae" stroke="#fb5eae"/><path d="M516 427l65 35-6-67z" fill="#fc63af" stroke="#fc63af"/><path d="M575 395l6 67 96-18z" fill="#fb5bad" stroke="#fb5bad"/><path d="M677 444l-96 18 87 3z" fill="#fa51aa" stroke="#fa51aa"/><path d="M677 444l-9 21 128 65z" fill="#f144a5" stroke="#f144a5"/><path d="M677 444l119 86-66-144z" fill="#f446a8" stroke="#f446a8"/><path d="M730 386l66 144 70-14z" fill="#ec3aa4" stroke="#ec3aa4"/><path d="M730 386l136 130 18-149z" fill="#ee42a7" stroke="#ee42a7"/><path d="M884 367l-18 149 96-41z" fill="#e531a1" stroke="#e531a1"/><path d="M884 367l78 108 17-33z" fill="#e132a0" stroke="#e132a0"/><path d="M979 442l-17 33 97 42z" fill="#d62198" stroke="#d62198"/><path d="M979 442l80 75-36-100z" fill="#d8219a" stroke="#d8219a"/><path d="M1023 417l36 100 70-82z" fill="#d12099" stroke="#d12099"/><path d="M1129 435l-70 82 75 5z" fill="#c61c93" stroke="#c61c93"/><path d="M1129 435l5 87 102-4z" fill="#be1c92" stroke="#be1c92"/><path d="M1129 435l107 83 6-132z" fill="#c12397" stroke="#c12397"/><path d="M1242 386l-6 132 36-36z" fill="#ba1f95" stroke="#ba1f95"/><path d="M1242 386l30 96 2-71z" fill="#b92897" stroke="#b92897"/><path d="M1274 411l-2 71 119-10z" fill="#b32194" stroke="#b32194"/><path d="M1274 411l117 61 30-72z" fill="#ac2895" stroke="#ac2895"/><path d="M1421 400l-30 72 61-63z" fill="#a52894" stroke="#a52894"/><path d="M1452 409l-61 63 131 27z" fill="#a02092" stroke="#a02092"/><path d="M-40 504l-36 190 65-139z" fill="#e48bbf" stroke="#e48bbf"/><path d="M-40 504l29 51 34-71z" fill="#f38fc5" stroke="#f38fc5"/><path d="M23 484l-34 71 40 66z" fill="#eb88be" stroke="#eb88be"/><path d="M23 484l6 137 135-129z" fill="#ef86bc" stroke="#ef86bc"/><path d="M164 492L29 621l135 3z" fill="#e57cb2" stroke="#e57cb2"/><path d="M164 492v132l69-93z" fill="#eb79b0" stroke="#eb79b0"/><path d="M164 492l69 39 46-52z" fill="#f57bb4" stroke="#f57bb4"/><path d="M233 531l-69 93 55-10z" fill="#e174ab" stroke="#e174ab"/><path d="M233 531l-14 83 91-48z" fill="#e670aa" stroke="#e670aa"/><path d="M233 531l77 35-31-87z" fill="#ef73af" stroke="#ef73af"/><path d="M279 479l31 87 80-61z" fill="#f170b0" stroke="#f170b0"/><path d="M390 505l-80 61 126 19z" fill="#e967a9" stroke="#e967a9"/><path d="M390 505l46 80 67-82z" fill="#ee62aa" stroke="#ee62aa"/><path d="M503 503l-67 82 52-15z" fill="#e85ba5" stroke="#e85ba5"/><path d="M503 503l-15 67 102-14z" fill="#ea55a4" stroke="#ea55a4"/><path d="M503 503l87 53-9-94z" fill="#f256a7" stroke="#f256a7"/><path d="M581 462l9 94 78-91z" fill="#f450a6" stroke="#f450a6"/><path d="M668 465l-78 91 121 22z" fill="#e945a0" stroke="#e945a0"/><path d="M668 465l43 113 85-48z" fill="#e63ea0" stroke="#e63ea0"/><path d="M796 530l-85 48 44 43z" fill="#da3498" stroke="#da3498"/><path d="M796 530l-41 91 138-40z" fill="#d62d97" stroke="#d62d97"/><path d="M796 530l97 51-27-65z" fill="#d92c99" stroke="#d92c99"/><path d="M866 516l27 65 56-11z" fill="#d12494" stroke="#d12494"/><path d="M866 516l83 54 13-95z" fill="#d52597" stroke="#d52597"/><path d="M962 475l-13 95 68 4z" fill="#cc1d92" stroke="#cc1d92"/><path d="M962 475l55 99 42-57z" fill="#cb1a92" stroke="#cb1a92"/><path d="M1059 517l-42 57 74 44z" fill="#bc138a" stroke="#bc138a"/><path d="M1059 517l32 101 43-96z" fill="#bb158c" stroke="#bb158c"/><path d="M1134 522l-43 96 54 32z" fill="#ac1288" stroke="#ac1288"/><path d="M1134 522l11 128 69-50z" fill="#a81287" stroke="#a81287"/><path d="M1134 522l80 78 22-82z" fill="#af158b" stroke="#af158b"/><path d="M1236 518l-22 82 129-39z" fill="#a41488" stroke="#a41488"/><path d="M1236 518l107 43-71-79z" fill="#a9188d" stroke="#a9188d"/><path d="M1272 482l71 79 48-89z" fill="#a61a8e" stroke="#a61a8e"/><path d="M1391 472l-48 89 90 22z" fill="#981689" stroke="#981689"/><path d="M1391 472l42 111 89-84z" fill="#95198a" stroke="#95198a"/><path d="M1522 499l-89 84 85 21z" fill="#871484" stroke="#871484"/><path d="M-11 555l-65 139 105-73z" fill="#d989bc" stroke="#d989bc"/><path d="M29 621l-105 73 151-23z" fill="#cf86b8" stroke="#cf86b8"/><path d="M29 621l46 50 55-7z" fill="#d180b3" stroke="#d180b3"/><path d="M29 621l101 43 34-40z" fill="#d57db1" stroke="#d57db1"/><path d="M164 624l-34 40 92 20z" fill="#cf77ab" stroke="#cf77ab"/><path d="M164 624l58 60-3-70z" fill="#d375a9" stroke="#d375a9"/><path d="M219 614l3 70 115-26z" fill="#d06fa7" stroke="#d06fa7"/><path d="M219 614l118 44-27-92z" fill="#da6da8" stroke="#da6da8"/><path d="M310 566l27 92 99-73z" fill="#dd66a6" stroke="#dd66a6"/><path d="M436 585l-99 73 80 25z" fill="#d263a4" stroke="#d263a4"/><path d="M436 585l-19 98 75-28z" fill="#d25ca1" stroke="#d25ca1"/><path d="M436 585l56 70-4-85z" fill="#dc59a2" stroke="#dc59a2"/><path d="M488 570l4 85 98-99z" fill="#de52a0" stroke="#de52a0"/><path d="M590 556l-98 99 93 59z" fill="#d14e9c" stroke="#d14e9c"/><path d="M590 556l-5 158 82-62z" fill="#d14699" stroke="#d14699"/><path d="M590 556l77 96 44-74z" fill="#db419a" stroke="#db419a"/><path d="M711 578l-44 74 88-31z" fill="#d13a98" stroke="#d13a98"/><path d="M755 621l-88 31 75 44z" fill="#c63996" stroke="#c63996"/><path d="M755 621l-13 75 102-24z" fill="#c03195" stroke="#c03195"/><path d="M755 621l89 51 49-91z" fill="#c72b94" stroke="#c72b94"/><path d="M893 581l-49 91 127-3z" fill="#bb228f" stroke="#bb228f"/><path d="M893 581l78 88-22-99z" fill="#c01d8f" stroke="#c01d8f"/><path d="M949 570l22 99 46-95z" fill="#bc188c" stroke="#bc188c"/><path d="M1017 574l-46 95 90-18z" fill="#b01489" stroke="#b01489"/><path d="M1017 574l44 77 30-33z" fill="#b01288" stroke="#b01288"/><path d="M1091 618l-30 33 84-1z" fill="#a41287" stroke="#a41287"/><path d="M1214 600l-69 50 95-14zM1214 600l26 36 103-75z" fill="#9a1285" stroke="#9a1285"/><path d="M1343 561l-103 75 32 12z" fill="#931284" stroke="#931284"/><path d="M1343 561l-71 87 116-11zM1343 561l45 76 45-54z" fill="#8c1284" stroke="#8c1284"/><path d="M1433 583l-45 54 103 59z" fill="#791281" stroke="#791281"/><path d="M1433 583l58 113 27-92z" fill="#761281" stroke="#761281"/><path d="M1518 604l-27 92 18 54z" fill="#64127e" stroke="#64127e"/><path d="M-76 694l26 82 65-3z" fill="#b78bb9" stroke="#b78bb9"/><path d="M-76 694l91 79 60-102z" fill="#c187b7" stroke="#c187b7"/><path d="M75 671L15 773l152 1z" fill="#b97faf" stroke="#b97faf"/><path d="M75 671l92 103-37-110z" fill="#c37cad" stroke="#c37cad"/><path d="M130 664l37 110 55-90z" fill="#c177a9" stroke="#c177a9"/><path d="M222 684l-55 90 39 26z" fill="#b575a5" stroke="#b575a5"/><path d="M222 684l-16 116 72-60z" fill="#b871a4" stroke="#b871a4"/><path d="M222 684l56 56 59-82z" fill="#c46da5" stroke="#c46da5"/><path d="M337 658l-59 82 111 12z" fill="#be68a3" stroke="#be68a3"/><path d="M337 658l52 94 28-69z" fill="#c364a2" stroke="#c364a2"/><path d="M417 683l-28 69 141-23z" fill="#bd5d9f" stroke="#bd5d9f"/><path d="M417 683l113 46-38-74z" fill="#c5589e" stroke="#c5589e"/><path d="M492 655l38 74 55-15z" fill="#c2519b" stroke="#c2519b"/><path d="M585 714l-55 15 57 59z" fill="#b64c98" stroke="#b64c98"/><path d="M585 714l2 74 91-27z" fill="#b24695" stroke="#b24695"/><path d="M585 714l93 47-11-109z" fill="#bd4296" stroke="#bd4296"/><path d="M667 652l11 109 64-65z" fill="#bb3c95" stroke="#bb3c95"/><path d="M742 696l-64 65 86 12z" fill="#ae3893" stroke="#ae3893"/><path d="M742 696l22 77 80-101z" fill="#b33193" stroke="#b33193"/><path d="M844 672l-80 101 107-48z" fill="#ad2b91" stroke="#ad2b91"/><path d="M844 672l27 53 100-56z" fill="#ae238e" stroke="#ae238e"/><path d="M971 669l-100 56 40 63z" fill="#a1208b" stroke="#a1208b"/><path d="M971 669l-60 119 148-60z" fill="#9a1888" stroke="#9a1888"/><path d="M971 669l88 59 2-77z" fill="#a11286" stroke="#a11286"/><path d="M1061 651l-2 77 86-78z" fill="#9b1286" stroke="#9b1286"/><path d="M1145 650l-86 78 67 23z" fill="#8f1284" stroke="#8f1284"/><path d="M1145 650l-19 101 67-2z" fill="#881283" stroke="#881283"/><path d="M1145 650l48 99 47-113z" fill="#8d1284" stroke="#8d1284"/><path d="M1240 636l-47 113 79-101z" fill="#881283" stroke="#881283"/><path d="M1272 648l-79 101 106 4z" fill="#7b1281" stroke="#7b1281"/><path d="M1272 648l27 105 57-20z" fill="#761280" stroke="#761280"/><path d="M1272 648l84 85 32-96z" fill="#7c1281" stroke="#7c1281"/><path d="M1388 637l-32 96 135-37z" fill="#6f1280" stroke="#6f1280"/><path d="M1491 696l-135 37 153 17z" fill="#60127e" stroke="#60127e"/><path d="M-50 776l39 61 26-64z" fill="#ab89b6" stroke="#ab89b6"/><path d="M15 773l-26 64 37 15z" fill="#a486b3" stroke="#a486b3"/><path d="M15 773l11 79 141-78z" fill="#a981af" stroke="#a981af"/><path d="M167 774L26 852l82 41z" fill="#9e7eaa" stroke="#9e7eaa"/><path d="M167 774l-59 119 98-93z" fill="#a278a6" stroke="#a278a6"/><path d="M206 800l-98 93 117-13z" fill="#9977a3" stroke="#9977a3"/><path d="M206 800l19 80 106-32z" fill="#9d70a0" stroke="#9d70a0"/><path d="M206 800l125 48-53-108z" fill="#a96ea1" stroke="#a96ea1"/><path d="M278 740l53 108 58-96z" fill="#ad69a1" stroke="#ad69a1"/><path d="M389 752l-58 96 92 27z" fill="#a1649e" stroke="#a1649e"/><path d="M389 752l34 123 85-6z" fill="#9f5d9b" stroke="#9f5d9b"/><path d="M389 752l119 117 22-140z" fill="#ab599b" stroke="#ab599b"/><path d="M530 729l-22 140 79-81z" fill="#a85097" stroke="#a85097"/><path d="M587 788l-79 81 90-50z" fill="#9f4d95" stroke="#9f4d95"/><path d="M587 788l11 31 80-58z" fill="#a84594" stroke="#a84594"/><path d="M678 761l-80 58 71 15z" fill="#a34293" stroke="#a34293"/><path d="M678 761l-9 73 95-61z" fill="#a33b92" stroke="#a33b92"/><path d="M764 773l-95 61 111 3z" fill="#9a3690" stroke="#9a3690"/><path d="M764 773l16 64 77-8z" fill="#972f8f" stroke="#972f8f"/><path d="M764 773l93 56 14-104z" fill="#9e2b8f" stroke="#9e2b8f"/><path d="M871 725l-14 104 54-41z" fill="#98258c" stroke="#98258c"/><path d="M911 788l-54 41 75 30z" fill="#892289" stroke="#892289"/><path d="M911 788l21 71 71 7z" fill="#801c86" stroke="#801c86"/><path d="M911 788l92 78 56-138z" fill="#871785" stroke="#871785"/><path d="M1059 728l-56 138 123-115z" fill="#821282" stroke="#821282"/><path d="M1126 751l-123 115 153 4z" fill="#711280" stroke="#711280"/><path d="M1126 751l30 119 27-22z" fill="#6b1280" stroke="#6b1280"/><path d="M1126 751l57 97 10-99z" fill="#741280" stroke="#741280"/><path d="M1193 749l-10 99 115-11z" fill="#65127e" stroke="#65127e"/><path d="M1193 749l105 88 1-84z" fill="#69127f" stroke="#69127f"/><path d="M1299 753l-1 84 58-104z" fill="#64127e" stroke="#64127e"/><path d="M1356 733l-58 104 59 49z" fill="#55127c" stroke="#55127c"/><path d="M1356 733l1 153 139-19z" fill="#4a127b" stroke="#4a127b"/><path d="M1356 733l140 134 13-117z" fill="#50127c" stroke="#50127c"/><path d="M-11 837l119 56-82-41z" fill="#9983af" stroke="#9983af"/><path d="M108 893l1249-7-934-11z" fill="#8e4490" stroke="#8e4490"/><path d="M108 893l315-18-198 5z" fill="#92709f" stroke="#92709f"/><path d="M225 880l198-5-92-27z" fill="#95699e" stroke="#95699e"/><path d="M423 875l934 11-354-20z" fill="#781f86" stroke="#781f86"/><path d="M423 875l580-9-495 3z" fill="#914291" stroke="#914291"/><path d="M508 869l495-3-71-7z" fill="#882d8d" stroke="#882d8d"/><path d="M508 869l424-10-152-22z" fill="#8f368f" stroke="#8f368f"/><path d="M508 869l272-32-111-3z" fill="#974191" stroke="#974191"/><path d="M508 869l161-35-71-15z" fill="#9b4993" stroke="#9b4993"/><path d="M780 837l152 22-75-30z" fill="#8a288b" stroke="#8a288b"/><path d="M1003 866l354 20-201-16z" fill="#5b127d" stroke="#5b127d"/><path d="M1156 870l201 16-174-38z" fill="#55127c" stroke="#55127c"/><path d="M1183 848l174 38-59-49z" fill="#52127c" stroke="#52127c"/></svg>