<svg width="988" height="987" xmlns="http://www.w3.org/2000/svg"><title>wav</title><desc>Created with Sketch.</desc><g><path d="M822.712 94.236c-46.493 0-70.74-17.36-92.04-32.722-19.686-14.153-36.645-26.36-72.343-26.36-35.686 0-52.66 12.207-72.343 26.36-21.356 15.36-45.534 32.722-92.04 32.722-46.494 0-70.686-17.36-92.042-32.722-19.685-14.153-36.644-26.36-72.342-26.36-35.63 0-52.658 12.207-72.288 26.36-21.356 15.36-45.493 32.722-92.04 32.722-46.508 0-70.686-17.36-92.042-32.722C53.508 47.36 36.535 35.154.85 35.154V.583c46.508 0 70.686 17.36 92.042 32.722 19.685 14.153 36.658 26.36 72.342 26.36 35.644 0 52.658-12.207 72.288-26.36C258.878 17.946 283.015.584 329.562.584c46.508 0 70.686 17.36 92.042 32.722 19.685 14.153 36.658 26.36 72.342 26.36 35.7 0 52.658-12.207 72.342-26.36C587.644 17.946 611.836.584 658.328.584c46.563 0 70.74 17.36 92.097 32.722 19.685 14.153 36.658 26.36 72.342 26.36 35.685 0 52.658-12.207 72.342-26.36C916.464 17.946 940.642.584 987.204.584v34.57c-35.7 0-52.712 12.207-72.342 26.36-21.41 15.306-45.59 32.722-92.15 32.722zM822.712 175.278c-46.493 0-70.74-17.36-92.04-32.708-19.686-14.167-36.645-26.36-72.343-26.36-35.686 0-52.66 12.193-72.343 26.36-21.356 15.347-45.534 32.708-92.04 32.708-46.494 0-70.686-17.36-92.042-32.708-19.685-14.167-36.644-26.36-72.342-26.36-35.63 0-52.658 12.193-72.288 26.36-21.356 15.347-45.493 32.708-92.04 32.708-46.508 0-70.686-17.36-92.042-32.708C53.508 128.46 36.535 116.25.85 116.25V81.696c46.508 0 70.686 17.36 92.042 32.722 19.685 14.153 36.658 26.36 72.342 26.36 35.644 0 52.658-12.207 72.288-26.36 21.356-15.36 45.493-32.722 92.04-32.722 46.508 0 70.686 17.36 92.042 32.722 19.685 14.153 36.658 26.36 72.342 26.36 35.7 0 52.658-12.207 72.342-26.36 21.356-15.36 45.548-32.722 92.04-32.722 46.563 0 70.74 17.36 92.097 32.722 19.685 14.153 36.658 26.36 72.342 26.36 35.685 0 52.658-12.207 72.342-26.36 21.355-15.36 45.533-32.722 92.095-32.722v34.556c-35.7 0-52.712 12.21-72.342 26.376-21.41 15.292-45.59 32.653-92.15 32.653zM822.712 256.39c-46.493 0-70.74-17.362-92.04-32.71-19.686-14.166-36.645-26.374-72.343-26.374-35.686 0-52.66 12.208-72.343 26.375-21.356 15.348-45.534 32.71-92.04 32.71-46.494 0-70.686-17.362-92.042-32.71-19.685-14.166-36.644-26.374-72.342-26.374-35.63 0-52.658 12.208-72.288 26.375-21.356 15.348-45.493 32.71-92.04 32.71-46.508 0-70.686-17.362-92.042-32.71C53.508 209.57 36.535 197.363.85 197.363v-34.556c46.508 0 70.686 17.36 92.042 32.722 19.685 14.153 36.658 26.36 72.342 26.36 35.644 0 52.658-12.207 72.288-26.36 21.356-15.36 45.493-32.722 92.04-32.722 46.508 0 70.686 17.36 92.042 32.722 19.685 14.153 36.658 26.36 72.342 26.36 35.7 0 52.658-12.207 72.342-26.36 21.356-15.36 45.548-32.722 92.04-32.722 46.563 0 70.74 17.36 92.097 32.722 19.685 14.153 36.658 26.36 72.342 26.36 35.685 0 52.658-12.207 72.342-26.36 21.355-15.36 45.533-32.722 92.095-32.722v34.556c-35.7 0-52.712 12.208-72.342 26.375-21.41 15.292-45.59 32.653-92.15 32.653zM822.712 337.5c-46.493 0-70.74-17.36-92.04-32.708-19.686-14.167-36.645-26.375-72.343-26.375-35.686 0-52.66 12.208-72.343 26.375-21.356 15.347-45.534 32.708-92.04 32.708-46.494 0-70.686-17.36-92.042-32.708-19.685-14.167-36.644-26.375-72.342-26.375-35.63 0-52.658 12.208-72.288 26.375-21.356 15.347-45.493 32.708-92.04 32.708-46.508 0-70.686-17.36-92.042-32.708C53.508 290.625 36.535 278.417.85 278.417V243.86c46.508 0 70.686 17.362 92.042 32.71 19.685 14.166 36.658 26.374 72.342 26.374 35.644 0 52.658-12.208 72.288-26.375 21.356-15.348 45.493-32.71 92.04-32.71 46.508 0 70.686 17.362 92.042 32.71 19.685 14.166 36.658 26.374 72.342 26.374 35.7 0 52.658-12.208 72.342-26.375 21.356-15.348 45.548-32.71 92.04-32.71 46.563 0 70.74 17.362 92.097 32.71 19.685 14.166 36.658 26.374 72.342 26.374 35.685 0 52.658-12.208 72.342-26.375 21.355-15.348 45.533-32.71 92.095-32.71v34.557c-35.7 0-52.712 12.208-72.342 26.375-21.41 15.292-45.59 32.708-92.15 32.708zM822.712 418.556c-46.493 0-70.74-17.36-92.04-32.708-19.686-14.167-36.645-26.375-72.343-26.375-35.686 0-52.66 12.208-72.343 26.375-21.356 15.347-45.534 32.708-92.04 32.708-46.494 0-70.686-17.36-92.042-32.708-19.685-14.167-36.644-26.375-72.342-26.375-35.63 0-52.658 12.208-72.288 26.375-21.356 15.347-45.493 32.708-92.04 32.708-46.508 0-70.686-17.36-92.042-32.708-19.685-14.11-36.658-26.32-72.342-26.32v-34.555c46.508 0 70.686 17.36 92.042 32.708 19.685 14.168 36.658 26.376 72.342 26.376 35.644 0 52.658-12.208 72.288-26.375 21.356-15.346 45.493-32.707 92.04-32.707 46.508 0 70.686 17.36 92.042 32.708 19.685 14.168 36.658 26.376 72.342 26.376 35.7 0 52.658-12.208 72.342-26.375 21.356-15.346 45.548-32.707 92.04-32.707 46.563 0 70.74 17.36 92.097 32.708 19.685 14.168 36.658 26.376 72.342 26.376 35.685 0 52.658-12.208 72.342-26.375 21.355-15.346 45.533-32.707 92.095-32.707v34.556c-35.7 0-52.712 12.207-72.342 26.374-21.41 15.292-45.59 32.653-92.15 32.653zM730.67 466.944c-19.684-14.153-36.643-26.36-72.34-26.36-35.686 0-52.66 12.207-72.343 26.36-21.356 15.36-45.534 32.722-92.04 32.722-46.494 0-70.686-17.36-92.042-32.722-19.685-14.153-36.644-26.36-72.342-26.36-35.63 0-52.658 12.207-72.288 26.36-21.356 15.36-45.493 32.722-92.04 32.722-46.508 0-70.686-17.36-92.042-32.722C53.508 452.847 36.535 440.638.85 440.638v-34.556c46.508 0 70.686 17.36 92.042 32.708 19.685 14.167 36.658 26.375 72.342 26.375 35.644 0 52.658-12.208 72.288-26.375 21.356-15.347 45.493-32.708 92.04-32.708 46.508 0 70.686 17.36 92.042 32.708 19.685 14.167 36.658 26.375 72.342 26.375 35.7 0 52.658-12.208 72.342-26.375 21.356-15.347 45.548-32.708 92.04-32.708 46.563 0 70.74 17.36 92.097 32.708 19.685 14.167 36.658 26.375 72.342 26.375 35.685 0 52.658-12.208 72.342-26.375 21.355-15.347 45.533-32.708 92.095-32.708v34.556c-35.7 0-52.712 12.208-72.342 26.36-21.41 15.307-45.59 32.668-92.15 32.668-46.494 0-70.74-17.36-92.042-32.722zM822.712 580.778c-46.493 0-70.74-17.36-92.04-32.722-19.686-14.153-36.645-26.36-72.343-26.36-35.686 0-52.66 12.207-72.343 26.36-21.356 15.36-45.534 32.722-92.04 32.722-46.494 0-70.686-17.36-92.042-32.722-19.685-14.153-36.644-26.36-72.342-26.36-35.63 0-52.658 12.207-72.288 26.305-21.356 15.362-45.493 32.723-92.04 32.723-46.508 0-70.686-17.36-92.042-32.722C53.508 533.905 36.535 521.696.85 521.696V487.14c46.508 0 70.686 17.36 92.042 32.707 19.685 14.167 36.658 26.375 72.342 26.375 35.644 0 52.658-12.208 72.288-26.375 21.356-15.347 45.493-32.708 92.04-32.708 46.508 0 70.686 17.36 92.042 32.707 19.685 14.167 36.658 26.375 72.342 26.375 35.7 0 52.658-12.208 72.342-26.375 21.356-15.347 45.548-32.708 92.04-32.708 46.563 0 70.74 17.36 92.097 32.707 19.685 14.167 36.658 26.375 72.342 26.375 35.685 0 52.658-12.208 72.342-26.375 21.355-15.347 45.533-32.708 92.095-32.708v34.555c-35.7 0-52.712 12.208-72.342 26.36-21.41 15.362-45.59 32.723-92.15 32.723zM822.712 661.89c-46.493 0-70.74-17.362-92.04-32.723-19.686-14.153-36.645-26.36-72.343-26.36-35.686 0-52.66 12.207-72.343 26.36-21.356 15.36-45.534 32.722-92.04 32.722-46.494 0-70.686-17.362-92.042-32.723-19.685-14.153-36.644-26.36-72.342-26.36-35.63 0-52.658 12.207-72.288 26.36-21.356 15.36-45.493 32.722-92.04 32.722-46.508 0-70.686-17.362-92.042-32.723-19.685-14.153-36.658-26.36-72.342-26.36v-34.57c46.508 0 70.686 17.36 92.042 32.722 19.685 14.152 36.658 26.36 72.342 26.36 35.644 0 52.658-12.208 72.288-26.36 21.356-15.362 45.493-32.723 92.04-32.723 46.508 0 70.686 17.36 92.042 32.722 19.685 14.152 36.658 26.36 72.342 26.36 35.7 0 52.658-12.208 72.342-26.36 21.356-15.362 45.548-32.723 92.04-32.723 46.563 0 70.74 17.36 92.097 32.722 19.685 14.152 36.658 26.36 72.342 26.36 35.685 0 52.658-12.208 72.342-26.36 21.355-15.362 45.533-32.723 92.095-32.723v34.57c-35.7 0-52.712 12.207-72.342 26.36-21.41 15.36-45.59 32.722-92.15 32.722zM822.712 742.944c-46.493 0-70.74-17.36-92.04-32.722-19.686-14.153-36.645-26.36-72.343-26.36-35.686 0-52.66 12.207-72.343 26.36-21.356 15.36-45.534 32.722-92.04 32.722-46.494 0-70.686-17.36-92.042-32.722-19.685-14.153-36.644-26.36-72.342-26.36-35.63 0-52.658 12.207-72.288 26.36-21.356 15.36-45.493 32.722-92.04 32.722-46.508 0-70.686-17.36-92.042-32.722-19.685-14.11-36.658-26.306-72.342-26.306v-34.57c46.508 0 70.686 17.362 92.042 32.723 19.685 14.152 36.658 26.36 72.342 26.36 35.644 0 52.658-12.208 72.288-26.36 21.356-15.362 45.493-32.723 92.04-32.723 46.508 0 70.686 17.36 92.042 32.722 19.685 14.152 36.658 26.36 72.342 26.36 35.7 0 52.658-12.208 72.342-26.36 21.356-15.362 45.548-32.723 92.04-32.723 46.563 0 70.74 17.36 92.097 32.722 19.685 14.152 36.658 26.36 72.342 26.36 35.685 0 52.658-12.208 72.342-26.36 21.355-15.362 45.533-32.723 92.095-32.723v34.57c-35.7 0-52.712 12.193-72.342 26.36-21.41 15.306-45.59 32.667-92.15 32.667zM822.712 824.042c-46.493 0-70.74-17.36-92.04-32.708-19.686-14.167-36.645-26.36-72.343-26.36-35.686 0-52.66 12.193-72.343 26.36-21.356 15.347-45.534 32.708-92.04 32.708-46.494 0-70.686-17.36-92.042-32.708-19.685-14.167-36.644-26.36-72.342-26.36-35.63 0-52.658 12.193-72.288 26.36-21.356 15.347-45.493 32.708-92.04 32.708-46.508 0-70.686-17.36-92.042-32.708-19.685-14.11-36.658-26.32-72.342-26.32V730.46c46.508 0 70.686 17.36 92.042 32.72 19.685 14.154 36.658 26.362 72.342 26.362 35.644 0 52.658-12.208 72.288-26.36 21.356-15.362 45.493-32.723 92.04-32.723 46.508 0 70.686 17.36 92.042 32.72 19.685 14.154 36.658 26.362 72.342 26.362 35.7 0 52.658-12.208 72.342-26.36 21.356-15.362 45.548-32.723 92.04-32.723 46.563 0 70.74 17.36 92.097 32.72 19.685 14.154 36.658 26.362 72.342 26.362 35.685 0 52.658-12.208 72.342-26.36 21.355-15.362 45.533-32.723 92.095-32.723v34.555c-35.7 0-52.712 12.208-72.342 26.375-21.41 15.292-45.59 32.653-92.15 32.653zM822.712 905.153c-46.493 0-70.74-17.36-92.04-32.708-19.686-14.167-36.645-26.375-72.343-26.375-35.686 0-52.66 12.208-72.343 26.375-21.356 15.347-45.534 32.708-92.04 32.708-46.494 0-70.686-17.36-92.042-32.708-19.685-14.167-36.644-26.375-72.342-26.375-35.63 0-52.658 12.208-72.288 26.375-21.356 15.347-45.493 32.708-92.04 32.708-46.508 0-70.686-17.36-92.042-32.708C53.508 858.335 36.535 846.07.85 846.07v-34.556c46.508 0 70.686 17.36 92.042 32.722 19.685 14.153 36.658 26.36 72.342 26.36 35.644 0 52.658-12.207 72.288-26.36 21.356-15.36 45.493-32.722 92.04-32.722 46.508 0 70.686 17.36 92.042 32.722 19.685 14.153 36.658 26.36 72.342 26.36 35.7 0 52.658-12.207 72.342-26.36 21.356-15.36 45.548-32.722 92.04-32.722 46.563 0 70.74 17.36 92.097 32.722 19.685 14.153 36.658 26.36 72.342 26.36 35.685 0 52.658-12.207 72.342-26.36 21.355-15.36 45.533-32.722 92.095-32.722v34.556c-35.7 0-52.712 12.208-72.342 26.375-21.41 15.347-45.59 32.708-92.15 32.708zM822.712 986.264c-46.493 0-70.74-17.36-92.04-32.708-19.686-14.167-36.645-26.375-72.343-26.375-35.686 0-52.66 12.21-72.343 26.376-21.356 15.347-45.534 32.708-92.04 32.708-46.494 0-70.686-17.36-92.042-32.708-19.685-14.167-36.644-26.375-72.342-26.375-35.63 0-52.658 12.21-72.288 26.376-21.356 15.347-45.493 32.708-92.04 32.708-46.508 0-70.686-17.36-92.042-32.708C53.508 939.39 36.535 927.18.85 927.18v-34.555c46.508 0 70.686 17.36 92.042 32.708 19.685 14.167 36.658 26.375 72.342 26.375 35.644 0 52.658-12.208 72.288-26.375 21.356-15.347 45.493-32.708 92.04-32.708 46.508 0 70.686 17.36 92.042 32.708 19.685 14.167 36.658 26.375 72.342 26.375 35.7 0 52.658-12.208 72.342-26.375 21.356-15.347 45.548-32.708 92.04-32.708 46.563 0 70.74 17.36 92.097 32.708 19.685 14.167 36.658 26.375 72.342 26.375 35.685 0 52.658-12.208 72.342-26.375 21.355-15.347 45.533-32.708 92.095-32.708v34.556c-35.7 0-52.712 12.21-72.342 26.376-21.41 15.292-45.59 32.708-92.15 32.708z"/></g></svg>