<svg width="55" height="54" xmlns="http://www.w3.org/2000/svg"><title>zigzag</title><desc>Created with Sketch.</desc><g><path d="M40.875 0l-13.5 6.75L13.875 0 .375 6.75v6.75l13.5-6.75 13.5 6.75 13.5-6.75 13.5 6.75V6.75L40.875 0zM27.375 20.25l-13.5-6.75-13.5 6.75V27l13.5-6.75 13.5 6.75 13.5-6.75 13.5 6.75v-6.75l-13.5-6.75-13.5 6.75zM27.375 33.75L13.875 27l-13.5 6.75v6.75l13.5-6.75 13.5 6.75 13.5-6.75 13.5 6.75v-6.75L40.875 27l-13.5 6.75zM27.375 47.25l-13.5-6.75-13.5 6.75V54l13.5-6.75 13.5 6.75 13.5-6.75 13.5 6.75v-6.75l-13.5-6.75-13.5 6.75z"/></g></svg>