<svg width="68" height="68" xmlns="http://www.w3.org/2000/svg" xmlns:sketch="http://www.bohemiancoding.com/sketch/ns"><title>blocks</title><desc>Created with Sketch.</desc><path d="M0 53.573v3.199l.004.051.015.16.024.137.043.141.05.136.071.129.074.121.094.114.097.105.11.09.133.094.043.031 16.031 9.215.074.039.184.078.129.039.128.027.145.016.094.004.09-.008.144-.015.129-.028.129-.039.184-.078.074-.035 15.281-8.774 15.273 8.774.075.039.183.078.129.039.129.027.145.016.097.004.09-.008.145-.015.129-.028.128-.039.184-.078.074-.035 16.031-9.207.043-.031.133-.094.11-.09.097-.105.094-.114.074-.121.071-.129.05-.136.043-.141.024-.137.015-.16.004-.051v-18.426000000000002l-.027-.269-.012-.07-.078-.246-.012-.028-.109-.203-.039-.059-.164-.199-.004-.004-.195-.16-.063-.043-.058-.039-15.262-8.769v-17.532l-.027-.269-.012-.07-.078-.247-.012-.027-.109-.203-.039-.059-.165-.199-.003-.004-.196-.16-.062-.043-.059-.039-16.031-9.211c-.469-.269-1.043-.269-1.512 0l-16.027 9.211-.059.039-.062.043-.196.16-.003.004-.165.199-.039.059-.113.207-.012.027-.078.246-.011.071-.028.269v17.532000000000004l-15.265 8.769-.059.039-.063.043-.195.16-.004.004-.164.199-.035.055-.113.207-.008.024-.078.246-.012.07-.027.269v15.219zm3.031-12.597l1.418.812-1.418 1.418v-2.23zm0 6.519l4.141-4.141 1.535.883-5.676 5.676v-2.418zm16.031-34.148l1.414.812-1.414 1.418v-2.23zm0 6.519l4.141-4.14 1.535.882-5.676 5.676v-2.418zm45.055 21.11v2.23l-1.418-1.418 1.418-.812zm-4.141 2.378l4.141 4.141v2.414l-5.676-5.676 1.535-.879zm-4.261 2.446l8.402 8.402v1.695l-.461.262-9.473-9.476 1.532-.883zm3.683 12.804l-8.277-8.277v-1.887l.336-.195 9.476 9.477-1.535.882zm-4.258 2.446l-4.019-4.02v-2.414l5.555 5.555-1.536.879zm-12.605-.883l5.555-5.555v2.414l-4.02 4.02-1.535-.879zm-4.262-2.445l9.477-9.477.336.192v1.886l-8.278 8.281-1.535-.882zm9.813 3.597v2.035l-1.293-.742 1.293-1.293zm3.035 2.039v-2.035l1.293 1.293-1.293.742zm-15.57-7.199l-.461-.262v-1.695l8.402-8.402 1.535.883-9.476 9.476zm-3.493-35.348v1.887l-8.281 8.278-1.535-.883 9.477-9.477.339.195zm0 6.176v2.414l-4.019 4.02-1.535-.883 5.554-5.551zm0 6.707v2.035l-1.293-.742 1.293-1.293zm3.032 16.215v-2.414l4.14-4.141 1.535.883-5.675 5.672zm0-6.703v-2.23l1.418.812-1.418 1.418zm0-7.477v-2.035l1.293 1.293-1.293.742zm4.019-2.308l-4.019-4.02v-2.414l5.554 5.555-1.535.879zm4.262-2.445l-8.281-8.278v-1.887l.336-.191 9.476 9.477-1.531.879zm4.715-17.629v2.23l-1.414-1.414 1.414-.816zm-4.141 2.379l4.141 4.14v2.414l-5.676-5.676 1.535-.878zm-4.258 2.445l8.399 8.402v1.696l-.461.261-9.473-9.476 1.535-.883zm-20.168 10.359l-.461-.261v-1.696l8.403-8.402 1.535.883-9.477 9.476zm12.539 12.446v2.23l-1.418-1.418 1.418-.812zm-4.14 2.378l4.14 4.141v2.414l-5.675-5.676 1.535-.879zm-4.262 2.446l8.402 8.402v1.695l-.461.262-9.476-9.476 1.535-.883zm3.684 12.804l-8.278-8.277v-1.887l.336-.191 9.477 9.477-1.535.878zm-4.258 2.446l-4.02-4.02v-2.414l5.555 5.555-1.535.879zm-12.606-.883l5.555-5.555v2.414l-4.019 4.02-1.536-.879zm-4.261-2.445l9.476-9.477.336.195v1.887l-8.277 8.277-1.535-.882zm9.812 3.597v2.035l-1.293-.742 1.293-1.293zm3.035 2.039v-2.035l1.293 1.293-1.293.742zm-15.574-7.199l-.461-.262v-1.695l8.402-8.402 1.536.883-9.477 9.476zm46.117-10.348l-12.988-7.46 12.988-7.461 12.985 7.461-12.985 7.46zm-16.031-42.546l12.984 7.461-12.984 7.457-12.984-7.457 12.984-7.461zm-16.031 27.629l12.988 7.46-12.988 7.461-12.985-7.461 12.985-7.46z" sketch:type="MSShapeGroup" fill=""/></svg>
