<svg width="540" height="541" xmlns="http://www.w3.org/2000/svg" xmlns:sketch="http://www.bohemiancoding.com/sketch/ns"><title>crazy</title><desc>Created with Sketch.</desc><g sketch:type="MSLayerGroup" fill=""><path d="M135 135.5l135-135h-270v135l135-135v135z" sketch:type="MSShapeGroup"/><path d="M405 .5h-135v135l135-135z" sketch:type="MSShapeGroup"/><path d="M405 .5v135l135-135h-135z" sketch:type="MSShapeGroup"/><path d="M405 405.5l-135 135h270v-135l-135 135v-135z" sketch:type="MSShapeGroup"/><path d="M405 270.5l135 135v-135l-135-135v135l-135-135v135l135 135v-135z" sketch:type="MSShapeGroup"/><path d="M135 540.5h135v-135l-135 135z" sketch:type="MSShapeGroup"/><path d="M270 270.5l-135-135v135l-135-135v135l135 135v-135l135 135v-135z" sketch:type="MSShapeGroup"/><path d="M135 540.5v-135l-135 135h135z" sketch:type="MSShapeGroup"/></g></svg>
