<svg width="57" height="57" xmlns="http://www.w3.org/2000/svg" xmlns:sketch="http://www.bohemiancoding.com/sketch/ns"><title>Imported Layers 16</title><desc>Created with Sketch.</desc><path d="M43.679 15.089l13.5-13.5-1.589-1.589-13.5 13.5-13.5-13.5-13.5 13.5-13.5-13.5-1.59 1.589 13.5 13.5-13.5 13.5 13.5 13.5-13.5 13.5 1.59 1.59 13.5-13.5 13.5 13.5 13.5-13.5 13.5 13.5 1.589-1.59-13.5-13.5 13.5-13.5-13.5-13.5zm-15.089-11.91l11.91 11.91-11.91 11.907-11.911-11.907 11.911-11.91zm-25.411 25.41l11.911-11.91 11.91 11.91-11.91 11.907-11.911-11.907zm25.411 25.407l-11.911-11.907 11.911-11.91 11.91 11.91-11.91 11.907zm1.589-25.407l11.911-11.91 11.91 11.91-11.91 11.907-11.911-11.907z" sketch:type="MSShapeGroup" fill=""/></svg>
