<svg width="751" height="655" xmlns="http://www.w3.org/2000/svg" xmlns:sketch="http://www.bohemiancoding.com/sketch/ns"><title>Imported Layers</title><desc>Created with Sketch.</desc><path d="M747.717 525l-298.47-516.76c-3.01-5.23-8.99-8.24-15-8.24h-119.26c-6.02 0-11.99 3.01-15 8.24l-297.73 516.76c-3.01 5.23-3.01 11.99 0 17.26l60 103.52c3 5.23 8.98 8.24 15 8.24h596.25c6.01 0 11.99-3.01 15-8.24l60-103.52c2.22-5.27 2.22-12.03-.79-17.26zm-422.22-490.51h79.49l-223.52 386.99c-3 5.24-3 11.99 0 17.27 3.01 5.23 8.99 8.24 15 8.24h228.75l39.77 68.98h-417.73l278.24-481.48zm49.49 326.99l30 51.76h-60l30-51.76zm-327.73 189.03h446.99c6.01 0 11.99-3.01 15-8.25 3.01-5.23 3.01-11.99 0-17.26l-114.03-198.01 39.77-68.98 208.52 361.48h-556.53l-39.72-68.98zm626.25 51.71l-224.26-386.99c-3.01-5.23-8.99-8.24-15-8.24-6.02 0-11.99 3.01-15 8.24l-114.03 198.01h-79.49l209.26-361.48 278.24 482.26-39.72 68.2z" sketch:type="MSShapeGroup" fill=""/></svg>
