<svg width="57" height="57" xmlns="http://www.w3.org/2000/svg" xmlns:sketch="http://www.bohemiancoding.com/sketch/ns"><title>Imported Layers</title><desc>Created with Sketch.</desc><g sketch:type="MSLayerGroup" fill=""><path d="M21.625 15c0 3.727-3.023 6.75-6.75 6.75s-6.75-3.023-6.75-6.75 3.023-6.75 6.75-6.75 6.75 3.023 6.75 6.75" sketch:type="MSShapeGroup"/><path d="M48.625 15c0 3.727-3.023 6.75-6.75 6.75s-6.75-3.023-6.75-6.75 3.023-6.75 6.75-6.75 6.75 3.023 6.75 6.75" sketch:type="MSShapeGroup"/><path d="M21.625 42c0 3.727-3.023 6.75-6.75 6.75s-6.75-3.023-6.75-6.75 3.023-6.75 6.75-6.75 6.75 3.023 6.75 6.75" sketch:type="MSShapeGroup"/><path d="M48.625 42c0 3.727-3.023 6.75-6.75 6.75s-6.75-3.023-6.75-6.75 3.023-6.75 6.75-6.75 6.75 3.023 6.75 6.75" sketch:type="MSShapeGroup"/><path d="M47.492 28.5c5.285-2.207 9.008-7.426 9.008-13.5 0-8.062-6.562-14.625-14.625-14.625-6.074 0-11.293 3.727-13.5 9.008-2.207-5.285-7.426-9.008-13.5-9.008-8.063 0-14.625 6.563-14.625 14.625 0 6.074 3.727 11.293 9.008 13.5-5.285 2.207-9.008 7.426-9.008 13.5 0 8.062 6.562 14.625 14.625 14.625 6.074 0 11.293-3.727 13.5-9.008 2.207 5.285 7.426 9.008 13.5 9.008 8.063 0 14.625-6.563 14.625-14.625 0-6.074-3.727-11.293-9.008-13.5zm-5.617-25.875c6.824 0 12.375 5.551 12.375 12.375s-5.551 12.375-12.375 12.375-12.375-5.551-12.375-12.375 5.551-12.375 12.375-12.375zm-5.617 25.875c-3.555 1.484-6.403 4.328-7.883 7.883-1.484-3.555-4.328-6.399-7.883-7.883 3.555-1.484 6.399-4.328 7.883-7.883 1.484 3.555 4.328 6.399 7.883 7.883zm-33.758-13.5c0-6.824 5.551-12.375 12.375-12.375s12.375 5.551 12.375 12.375-5.551 12.375-12.375 12.375-12.375-5.551-12.375-12.375zm12.375 39.375c-6.824 0-12.375-5.551-12.375-12.375s5.551-12.375 12.375-12.375 12.375 5.551 12.375 12.375-5.551 12.375-12.375 12.375zm27 0c-6.824 0-12.375-5.551-12.375-12.375s5.551-12.375 12.375-12.375 12.375 5.551 12.375 12.375-5.551 12.375-12.375 12.375z" sketch:type="MSShapeGroup"/></g></svg>
