<svg width="62" height="62" xmlns="http://www.w3.org/2000/svg" xmlns:sketch="http://www.bohemiancoding.com/sketch/ns"><title>Imported Layers 16</title><desc>Created with Sketch.</desc><path d="M34.444.01c-.664.062-1.348.39-2.055.922-1.211.906-2.507 2.449-3.847 4.406-1.621-1.633-3.125-2.871-4.446-3.535-.418-.211-.82-.36-1.203-.453l-.172-.075c-.695-.23-1.367-.152-1.937.192-.57.343-1.047.937-1.457 1.718-.699 1.344-1.195 3.293-1.555 5.645-2.168-.766-4.062-1.23-5.539-1.254-.469-.008-.894.027-1.277.113l-.188.012c-.726.094-1.297.453-1.66 1.012-.363.558-.535 1.297-.562 2.183-.051 1.512.347 3.485 1.043 5.758-2.285.25-4.196.653-5.535 1.274-.426.195-.793.414-1.102.656l-.164.09c-.613.398-.973.972-1.059 1.633-.086.664.086 1.402.442 2.207.613 1.382 1.828 2.992 3.441 4.738-1.949 1.215-3.496 2.41-4.434 3.547-.296.363-.539.718-.714 1.074l-.106.148c-.379.625-.453 1.297-.242 1.93.211.633.68 1.227 1.355 1.801 1.153.98 2.946 1.898 5.157 2.769-1.231 1.942-2.106 3.688-2.457 5.122-.114.453-.168.878-.172 1.277l-.035.183c-.067.731.152 1.364.617 1.844.465.481 1.148.813 2.004 1.035 1.465.383 3.476.434 5.847.258-.265 2.285-.296 4.235.008 5.68.098.457.227.867.395 1.226l.051.176c.253.688.73 1.164 1.359 1.395.625.23 1.383.234 2.25.062 1.484-.293 3.32-1.117 5.383-2.301.75 2.172 1.57 3.942 2.468 5.114.286.371.582.679.887.929l.125.141c.528.508 1.164.731 1.828.668.664-.063 1.348-.391 2.055-.922 1.211-.906 2.508-2.449 3.852-4.406 1.621 1.633 3.125 2.871 4.445 3.535.418.211.82.359 1.203.453l.172.074c.695.231 1.367.153 1.937-.191.571-.344 1.043-.938 1.45-1.719.699-1.344 1.199-3.293 1.558-5.644 2.168.765 4.063 1.23 5.539 1.254.469.007.895-.028 1.281-.114l.184-.011c.727-.094 1.297-.454 1.66-1.012.364-.559.535-1.297.563-2.184.051-1.511-.348-3.488-1.047-5.758 2.285-.25 4.195-.652 5.539-1.273.422-.195.793-.41 1.101-.656l.165-.09c.613-.399.972-.973 1.058-1.633.086-.664-.086-1.402-.441-2.211-.614-1.383-1.828-2.988-3.442-4.734 1.95-1.215 3.496-2.41 4.434-3.547.297-.359.531-.715.707-1.07l.109-.153c.379-.625.457-1.297.246-1.929-.21-.633-.679-1.227-1.355-1.801-1.152-.981-2.941-1.903-5.152-2.774 1.226-1.941 2.101-3.687 2.453-5.121.113-.453.168-.879.172-1.273l.035-.184c.066-.73-.153-1.363-.617-1.843-.465-.481-1.149-.813-2.004-1.036-1.465-.382-3.477-.433-5.848-.257.266-2.286.293-4.235-.008-5.68-.097-.457-.226-.867-.394-1.227l-.051-.176c-.254-.687-.731-1.164-1.359-1.394-.629-.23-1.383-.234-2.254-.063-1.485.293-3.321 1.118-5.383 2.301-.75-2.172-1.571-3.945-2.469-5.117-.285-.367-.578-.676-.883-.922l-.125-.144c-.527-.508-1.164-.731-1.828-.668zm.18.675c.246-.019.488.024.734.118.223.086.453.23.684.414.711.804 1.004 2.086.902 3.769-.074 1.211-.363 2.629-.812 4.172-.864.594-1.75 1.235-2.657 1.914-.675-.875-1.343-1.711-2.004-2.496-.015-1.57.086-2.988.333-4.152.374-1.758 1.058-2.961 2.054-3.5.266-.145.516-.219.762-.239h.004zm-2.336 1.04c-.453.691-.785 1.566-1.004 2.589-.227 1.055-.324 2.286-.34 3.629-.484-.562-.965-1.105-1.433-1.609l-.594-.606c1.187-1.742 2.332-3.113 3.371-4.003zm-10.34.062c.242-.02.512.012.797.078.988.414 1.809 1.442 2.449 3.004.457 1.125.813 2.527 1.078 4.113-.519.911-1.043 1.868-1.562 2.875-.989-.492-1.949-.953-2.883-1.375-.695-1.41-1.223-2.726-1.504-3.882-.426-1.747-.332-3.129.332-4.051.352-.489.77-.719 1.293-.762zm2.672.953c1.082.684 2.301 1.719 3.613 3.047l-.375.555c-.39.605-.781 1.246-1.176 1.918-.257-1.352-.582-2.571-.996-3.586-.304-.75-.66-1.395-1.066-1.93v-.004zm12.73.078c.676 1.086 1.325 2.551 1.934 4.317l-.578.336c-.613.375-1.246.781-1.891 1.214.356-1.328.594-2.566.66-3.664.051-.808 0-1.543-.125-2.203zm-17.765 1.129c-.11.82-.024 1.75.219 2.774.253 1.046.699 2.199 1.265 3.418-.683-.297-1.348-.579-1.988-.832l-.793-.29c.316-2.085.746-3.82 1.297-5.07zm26.883 1.246c.601-.027 1.039.157 1.402.539.164.176.308.403.437.672.289 1.031 0 2.317-.824 3.789-.594 1.059-1.469 2.207-2.539 3.407-1.039.16-2.113.351-3.223.57-.23-1.082-.472-2.125-.722-3.117.668-1.422 1.371-2.653 2.097-3.594 1.102-1.422 2.239-2.207 3.372-2.262v-.004zm-1.766.035c-.707.426-1.383 1.071-2.027 1.899-.661.851-1.286 1.918-1.883 3.117-.192-.719-.391-1.414-.594-2.074l-.27-.801c1.829-1.055 3.45-1.797 4.774-2.144v.003zm-16.09.946l.508.519c.594.637 1.203 1.344 1.824 2.074.008.758.043 1.536.106 2.36.05.547.105 1.113.171 1.683-.617.493-1.242 1-1.871 1.52-.699-.395-1.394-.777-2.082-1.145-.043-.632-.086-1.25-.144-1.847-.074-.789-.184-1.539-.297-2.258.496-.863.988-1.691 1.477-2.449l.308-.453v-.004zm10.848 1.472l.226.684c.258.832.504 1.734.746 2.664-.316.688-.628 1.399-.925 2.168-.2.512-.387 1.047-.575 1.59-.773.176-1.554.363-2.343.558-.461-.66-.918-1.304-1.379-1.937.238-.586.468-1.16.676-1.723.273-.746.5-1.465.707-2.164.82-.562 1.625-1.093 2.394-1.566l.477-.277-.004.003zm-26.348.547c1.27.149 2.82.551 4.582 1.176l-.101.664c-.09.715-.165 1.461-.231 2.234-.816-1.105-1.637-2.062-2.453-2.8-.602-.543-1.203-.969-1.801-1.278l.004.004zm-1.848.012c1.012.027 2.125.602 3.293 1.656.903.813 1.829 1.922 2.754 3.235-.074 1.047-.125 2.136-.16 3.269-1.105-.015-2.172-.015-3.199.012-1.238-.969-2.281-1.926-3.039-2.848-1.141-1.386-1.652-2.676-1.457-3.789.105-.594.379-.98.832-1.246.207-.121.461-.211.742-.277l.231-.012h.003zm37.52.207c.137 1.27.09 2.871-.129 4.723l-.664.054c-.715.075-1.465.164-2.23.274.894-1.043 1.648-2.055 2.187-3.012.395-.707.676-1.387.84-2.035l-.004-.004zm-17.301 1.016c.516.625 1.035 1.277 1.563 1.961-.442.336-.883.683-1.332 1.031-.051-.449-.102-.906-.137-1.34-.051-.57-.074-1.117-.094-1.652zm-13.285.125l.684.246c.812.316 1.668.687 2.543 1.078.339.676.707 1.367 1.121 2.078.277.473.578.957.882 1.441-.343.711-.687 1.438-1.027 2.18-.801-.051-1.594-.094-2.371-.125-.309-.555-.617-1.09-.93-1.605-.414-.68-.832-1.309-1.25-1.907.075-.992.157-1.949.266-2.843l.074-.543h.008zm8.207.273c.066.508.137 1.02.191 1.563.051.484.086.992.118 1.496-.516-.274-1.024-.539-1.528-.793.41-.785.813-1.539 1.219-2.266zm9.484.149c-.156.488-.32.98-.507 1.492-.168.457-.356.929-.543 1.402-.348-.469-.692-.934-1.035-1.383.707-.531 1.402-1.031 2.085-1.511zm-13.683 1.261c.734.34 1.488.703 2.258 1.086-.254.492-.504 1-.754 1.512-.239-.383-.485-.77-.699-1.145-.29-.496-.551-.976-.801-1.453h-.004zm-13.106.235c.258.785.735 1.586 1.399 2.398.683.832 1.582 1.676 2.621 2.527-.742.028-1.465.063-2.152.118l-.84.086c-.621-2.016-.981-3.762-1.028-5.129zm24.274.336c.406.535.82 1.086 1.23 1.648-.363.871-.773 1.77-1.203 2.684l-.64.171-.543-.32c-.172-1.008-.325-1.996-.438-2.941.535-.422 1.07-.84 1.594-1.239v-.003zm7.262.015c.191.789.378 1.602.558 2.442-.543.109-1.094.23-1.652.351.152-.426.301-.859.457-1.262.207-.535.418-1.039.633-1.531h.004zm-15.696.738c.598.305 1.203.625 1.821.954.05.945.074 1.933.085 2.941l-.5.434-.632-.055c-.59-.832-1.157-1.656-1.672-2.457.301-.617.597-1.223.902-1.813l-.004-.004zm6.356.872c.09.718.199 1.453.32 2.203-.594-.348-1.18-.692-1.766-1.028.485-.398.965-.793 1.446-1.175zm20.668.097c.922.02 1.707.11 2.406.246-.824.075-1.715.36-2.656.832-.965.481-1.989 1.168-3.047 1.993.137-.731.261-1.446.363-2.125.051-.293.066-.555.102-.836 1.011-.075 1.976-.125 2.828-.106l.004-.004zm-3.368.145c-.023.242-.05.469-.089.722-.129.864-.301 1.778-.489 2.719-.582.481-1.172.992-1.773 1.555-.399.375-.805.777-1.211 1.183-.77-.175-1.555-.347-2.356-.515-.128-.793-.261-1.574-.402-2.34.469-.422.926-.848 1.356-1.266.57-.554 1.089-1.101 1.586-1.644.98-.149 1.937-.278 2.828-.367l.547-.043.003-.004zm-30.792.129c.285.425.566.859.851 1.32.254.414.504.859.758 1.301-.582-.024-1.156-.043-1.723-.055.024-.883.067-1.738.117-2.57l-.003.004zm9.503 0c.532.289 1.067.586 1.606.886-.512.426-1.02.868-1.535 1.309-.008-.75-.035-1.481-.074-2.195h.003zm7.664.144c.356.488.707.992 1.063 1.496-.645.164-1.297.332-1.949.508.316-.68.609-1.348.886-2.008v.004zm9.395.278c-.352.371-.715.746-1.102 1.125-.347.339-.726.679-1.101 1.023-.106-.57-.215-1.133-.328-1.688.867-.171 1.711-.328 2.531-.46zm10.301.054c.476-.015.914.059 1.304.227.555.234.872.59 1.032 1.094.074.23.105.5.105.796-.187 1.055-1.004 2.082-2.387 3.051-.992.699-2.281 1.356-3.769 1.965-1.004-.305-2.055-.598-3.148-.883.261-1.074.5-2.113.703-3.117 1.218-.992 2.386-1.801 3.449-2.332 1.004-.504 1.914-.773 2.711-.801zm-13.36.508c.137.66.27 1.332.395 2.016-.707.629-1.465 1.261-2.25 1.898l-.648-.121-.352-.531c.285-.981.574-1.938.883-2.84.668-.149 1.324-.293 1.972-.426v.004zm-17.535.145c.395.605.813 1.222 1.246 1.843-.683-.058-1.363-.109-2.035-.156.262-.57.528-1.133.789-1.687zm5.641.043c.769.437 1.547.886 2.328 1.347l.051.274c-.723.207-1.446.418-2.172.636-.746-.086-1.488-.164-2.231-.238v-.293c.68-.59 1.356-1.164 2.032-1.726h-.008zm9.32.371c-.23.687-.453 1.398-.668 2.125-.383-.571-.765-1.133-1.148-1.692.613-.148 1.219-.297 1.816-.433zm-2.371.57c.504.727 1.008 1.469 1.512 2.227l-.074.269c-.743-.129-1.485-.254-2.235-.371-.637-.402-1.273-.793-1.906-1.184l.125-.265c.867-.235 1.727-.461 2.578-.676zm-20.641.965c.461 0 .946.012 1.418.019l-.023 1.688c-.383-.242-.773-.485-1.133-.727-.472-.32-.918-.64-1.351-.961l1.089-.019zm16.973.008l.281.168-.277.566-.016-.004-.171-.023-.114-.621.301-.086h-.004zm-15.023.019c.672.016 1.355.039 2.05.067.457.828.911 1.707 1.356 2.613l-.266.609-.59.227c-.894-.492-1.761-.989-2.574-1.492 0-.684.008-1.364.024-2.024zm-3.895.008c.598.461 1.231.926 1.914 1.387.453.308.938.609 1.426.918 0 .789 0 1.593.016 2.406-.746.301-1.477.605-2.192.914-.519-.363-1.031-.719-1.535-1.043-.668-.434-1.316-.816-1.953-1.176-.363-.922-.707-1.824-.996-2.676l-.164-.523.726-.074c.868-.067 1.797-.106 2.758-.133zm6.563.086c.605.027 1.215.062 1.836.101-.278.61-.547 1.223-.817 1.848-.336-.668-.676-1.32-1.015-1.945l-.004-.004zm11.543.121l.066.402-1.012-.125.942-.277h.004zm-9.137.012c.883.058 1.777.129 2.683.211l.161.222c-.563.5-1.129 1.004-1.688 1.52-.711.246-1.41.5-2.109.754l-.129-.266c.355-.824.719-1.637 1.082-2.437v-.004zm-12.988.039l.199.636c.23.68.484 1.387.762 2.114-1.215-.641-2.372-1.149-3.426-1.457-.778-.227-1.508-.348-2.18-.367 1.207-.418 2.781-.727 4.641-.926h.004zm23.671.164l.817.508-.992-.145.175-.363zm8.387.07c.106.598.207 1.203.309 1.813-.653-.133-1.317-.262-1.985-.387.579-.477 1.137-.953 1.676-1.426zm-15.293.035l.332.032v.625l-.008.007-.164.055-.375-.516.227-.203h-.012zm.864.086l.953.102-.957.301v-.403h.004zm2.281.242c.797.094 1.594.196 2.394.301l.117.563c-.648 1.261-1.351 2.535-2.093 3.82-.957-1.133-1.871-2.27-2.731-3.395l.016-.566c.766-.246 1.531-.488 2.297-.723zm18.176.188c-.168.793-.356 1.605-.559 2.437-.535-.136-1.086-.269-1.637-.398.321-.316.645-.645.961-.941.418-.391.828-.75 1.235-1.098zm-21.946.047l.235.332-.965.32.73-.656v.004zm7.098.195c.793.109 1.59.227 2.379.348.68.429 1.355.871 2.031 1.316l-.137.551c-1.132.851-2.316 1.699-3.543 2.535-.371-1.437-.703-2.851-.988-4.238l.258-.512zm23.672.215c-.426 1.207-1.164 2.629-2.168 4.203l-.625-.246c-.676-.246-1.387-.484-2.129-.719 1.262-.551 2.375-1.14 3.273-1.769.66-.465 1.215-.953 1.645-1.469h.004zm-51.848.211c.68-.02 1.461.098 2.32.351 1.165.34 2.481.938 3.883 1.719.387.977.817 1.981 1.278 3.016-1.004.465-1.965.93-2.875 1.398-1.536-.336-2.895-.746-3.973-1.246-1.633-.758-2.652-1.691-2.957-2.785-.164-.582-.086-1.047.211-1.484.137-.2.324-.395.558-.579.442-.238.957-.374 1.555-.39zm31.859.137l.969.16-.113.394-.856-.554zm-10.207.015l.348.453c-.043 1.418-.117 2.871-.226 4.348-1.356-.605-2.668-1.23-3.934-1.871l-.234-.524c.582-.554 1.171-1.101 1.757-1.644.758-.262 1.524-.516 2.289-.766v.004zm11.704.231l.3.054.184.278-.496.386-.016-.011-.144-.094.168-.613h.004zm1.414.261c.886.164 1.757.336 2.617.512.14.875.269 1.766.394 2.664l-.183.207c-.613-.433-1.223-.871-1.848-1.301-.398-.64-.805-1.269-1.211-1.898l.227-.184h.004zm-7.246.192c.269 1.25.574 2.519.91 3.804-.516.348-1.043.696-1.571 1.036-.418-.473-.832-.942-1.234-1.418.664-1.149 1.301-2.289 1.898-3.422h-.003zm-14.707.082c.617.375 1.261.75 1.921 1.121-.64.246-1.277.488-1.902.742-.008-.629-.016-1.25-.016-1.863h-.003zm21.312.242l.52.813-.832-.563.316-.254-.004.004zm3.82.109c.618.129 1.227.258 1.828.395-.507.519-1.015 1.062-1.523 1.629-.098-.684-.195-1.356-.301-2.024h-.004zm-15.433.012c.781 1.008 1.613 2.016 2.469 3.027-.317.54-.637 1.079-.965 1.618-.582-.243-1.157-.493-1.727-.743.102-1.32.18-2.625.227-3.898l-.004-.004zm-4.407.082l-.73.684-.176-.364.906-.32zm15.262.387c.668.445 1.336.89 1.992 1.344.426.683.844 1.375 1.262 2.066l-.367.434c-1.391.277-2.824.527-4.293.746.289-1.457.605-2.875.949-4.25l.453-.344.004.004zm7.004.055c.668.156 1.324.312 1.965.476-.164.652-.34 1.317-.523 1.988-.911.262-1.872.504-2.852.739l-.531-.391-.086-.633c.679-.761 1.355-1.496 2.027-2.176v-.003zm-23.676.058l.266.567-.008.011-.121.121-.559-.3.118-.286.312-.117-.008.004zm-1.343.508l.242.133c-.289.695-.578 1.39-.86 2.097-.531.528-1.054 1.059-1.574 1.59l-.23-.179c-.035-.899-.067-1.789-.086-2.668.82-.328 1.656-.657 2.504-.977l.004.004zm27.503.043c.856.223 1.68.449 2.477.684-.477.183-.965.363-1.477.535-.46.156-.949.3-1.433.449.152-.563.297-1.117.433-1.668zm-35.902.074c.442.262.887.528 1.344.824.406.266.824.555 1.246.844-.535.234-1.059.465-1.574.699-.36-.808-.699-1.597-1.012-2.367h-.004zm25.285.117c-.3 1.243-.574 2.52-.832 3.821-.617.09-1.238.172-1.863.254-.172-.61-.34-1.211-.496-1.817 1.094-.742 2.168-1.496 3.191-2.254v-.004zm-16.172.157l.36.195-.731.711.371-.906zm.856.453l.508.254c.578 1.293 1.14 2.636 1.683 4.015-1.484.043-2.937.047-4.355.02l-.434-.367c.285-.754.574-1.504.871-2.25.571-.563 1.149-1.121 1.727-1.676v.004zm29.242.133c.949.289 1.863.585 2.707.894l.512.199-.391.61c-.492.718-1.039 1.472-1.617 2.238-.734.18-1.488.379-2.273.629-.524.164-1.063.351-1.606.543-.617-.492-1.246-.985-1.894-1.481.226-.769.445-1.531.652-2.285.605-.179 1.203-.359 1.769-.551.758-.254 1.465-.519 2.145-.793l-.004-.003zm-33.851.218c.007.668.035 1.34.058 2.016-.594-.457-1.18-.895-1.758-1.313.555-.238 1.121-.472 1.696-.703h.004zm5.871.289c1.144.567 2.328 1.121 3.539 1.661-.051.621-.106 1.246-.168 1.874-.629.032-1.254.059-1.879.079-.481-1.235-.977-2.446-1.492-3.614zm18.261.004l.797.563-.269.304-.528-.867zm-38.351.301c.574.598 1.355 1.117 2.308 1.559.977.453 2.153.824 3.457 1.14-.656.348-1.293.696-1.89 1.039l-.723.442c-1.437-1.547-2.519-2.965-3.156-4.18h.004zm11.953.356c.773.546 1.558 1.148 2.355 1.769l.024.66-.438.457c-1.019-.058-2.015-.125-2.965-.226-.292-.618-.582-1.231-.855-1.832.613-.278 1.238-.555 1.879-.832v.004zm39.84.124c1.965.77 3.554 1.579 4.652 2.395-.777-.289-1.703-.418-2.754-.402-1.078.015-2.297.187-3.613.472.441-.597.863-1.183 1.254-1.754l.457-.711h.004zm-12.207.09l.25.176.051.328-.61.133-.008-.012-.09-.144.415-.477-.008-.004zm-12.34.012c.351.41.707.816 1.066 1.223l-.91.582-.988-.41c.281-.465.562-.926.836-1.391l-.004-.004zm16.308.121c-.16.582-.328 1.172-.503 1.766-.532-.403-1.071-.805-1.618-1.211.727-.176 1.438-.363 2.121-.559v.004zm-13.078.32c.137.52.282 1.043.43 1.567l-1.066.129-.719-.801c.457-.297.906-.594 1.355-.895zm-20.886.387c.226.504.468 1.02.714 1.535-.449-.05-.906-.101-1.335-.168-.567-.082-1.11-.179-1.637-.277.726-.363 1.476-.727 2.258-1.09zm31.16.012c.726.531 1.437 1.062 2.137 1.594-.254.847-.524 1.703-.801 2.566l-.254.109c-.363-.66-.727-1.32-1.102-1.98-.086-.746-.172-1.488-.261-2.227l.285-.066-.004.004zm-16.61.168c.493.215.989.43 1.493.64l-.567.915-1.074.058c.051-.539.102-1.078.145-1.613h.003zm15.801.019l.113.954-.503-.864.39-.09zm-23.789.079l-.363.937-.317-.254.68-.683zm22.852.125c.41.691.816 1.382 1.211 2.078.086.797.164 1.601.238 2.402l-.524.234c-1.375-.351-2.773-.754-4.187-1.187.891-1.184 1.797-2.328 2.699-3.418l.559-.109h.004zm-1.387.277c-.809.988-1.613 2.019-2.406 3.082-.598-.188-1.192-.383-1.789-.582.109-.621.218-1.238.339-1.852 1.313-.195 2.606-.41 3.86-.652l-.004.004zm-8.941.117l.515.578-.605.059-.559-.215.649-.422zm-2.543.231l.711.296-.512.313-.602.047.403-.656zm-11.028.316l.489.394v.016l-.059.164-.633-.027-.008-.309.227-.238h-.016zm18.094.074c-.102.528-.195 1.059-.289 1.594l-1.02-.344-.3-1.031 1.609-.215v-.004zm-26.621.059c.742.156 1.504.301 2.32.418.543.078 1.11.144 1.68.211.34.711.695 1.433 1.062 2.16-.539.594-1.066 1.187-1.578 1.773-.625-.101-1.238-.195-1.832-.269-.789-.098-1.539-.164-2.269-.211-.731-.676-1.43-1.34-2.059-1.985l-.375-.402.617-.379c.758-.437 1.578-.875 2.434-1.316zm47.133.121c1.797-.028 3.121.371 3.871 1.222.398.454.531.911.457 1.43-.035.238-.125.496-.254.762-.625.871-1.809 1.445-3.477 1.719-1.199.199-2.644.23-4.246.136-.773-.711-1.593-1.429-2.457-2.164.703-.851 1.367-1.691 1.985-2.507 1.531-.364 2.929-.583 4.121-.602v.004zm-22.649.098l.215.742-.566-.207-.41-.438.765-.097h-.004zm12.285.257c.497.383.989.766 1.469 1.145-.679.246-1.371.519-2.074.805.207-.657.41-1.305.605-1.95zm-14.832.024l1.008.386.883.321.734.789.661.676c.105.343.207.683.32 1.027l.301.891-.161 1.066-.117.941-.601.887-.512.793-.93.543-.804.492-1.075.082-.937.094-1.008-.387-.887-.32-.734-.789-.656-.672c-.106-.344-.207-.687-.321-1.031l-.3-.899.156-1.062.117-.93.606-.894.511-.793.93-.543.805-.492 1.07-.083.937-.093h.004zm-17.312.187c.723.071 1.461.129 2.219.176-.473.5-.938.996-1.391 1.496-.281-.562-.562-1.117-.828-1.672zm13.516.121l-.325.504-.519.301c.035-.258.051-.512.074-.766l.77-.039zm-1.305.071l-.113 1.07-.942.52c-.187-.512-.375-1.02-.566-1.52.539-.02 1.078-.043 1.621-.07zm-9.289.023l.277.012c.043.75.086 1.504.137 2.262-.25.707-.492 1.414-.731 2.121l-.285-.063c-.422-.793-.836-1.582-1.234-2.363.598-.656 1.211-1.309 1.836-1.965v-.004zm34.636.02c-.496.64-1.015 1.297-1.562 1.961-.426-.356-.863-.711-1.305-1.071.43-.148.86-.301 1.274-.433.547-.172 1.074-.321 1.593-.457zm-33.828.019l.407.024-.348.961-.059-.985zm6.297.028c.227.582.446 1.167.66 1.761-.55.301-1.105.598-1.656.887-.969-.902-1.941-1.777-2.91-2.609 1.277.015 2.586 0 3.91-.039h-.004zm-5.328.007l.567.012c1.085.914 2.175 1.879 3.261 2.891-1.316.679-2.629 1.316-3.914 1.906l-.551-.145c-.066-.8-.136-1.601-.191-2.398.27-.758.551-1.512.832-2.27l-.004.004zm16.188.84l.73.246c-.051.254-.09.508-.129.762l-.422-.434-.179-.574zm-29.02.156l.461.493c.5.515 1.039 1.039 1.602 1.57-1.375-.051-2.637-.008-3.719.172-.797.133-1.504.336-2.117.609.906-.902 2.187-1.863 3.773-2.847v.003zm42.227.043c.531.43 1.058.856 1.562 1.278-.43.515-.875 1.035-1.332 1.562-.933-.16-1.902-.355-2.887-.57l-.312-.586.195-.606c.946-.39 1.875-.757 2.77-1.078h.004zm-4.43.141l.48.855-.378.161c-.024-.34-.067-.68-.102-1.016zm-7.539.078c.516.172 1.031.34 1.543.5-.32.434-.641.871-.957 1.313l-.77-.758c.051-.356.121-.703.18-1.055h.004zm-10.109.367l-.075.598-.34.5-.265-.723.676-.371.004-.004zm12.191.301c1.266.395 2.519.762 3.754 1.09-1.156.539-2.324 1.121-3.5 1.73-.457-.425-.91-.859-1.363-1.296.367-.512.738-1.02 1.109-1.52v-.004zm-13.34.332l.367 1.012-.621.875c-.39-.379-.781-.754-1.172-1.121.477-.25.953-.508 1.43-.766h-.004zm-10.168.059c.301.593.617 1.191.934 1.789-.735-.156-1.453-.297-2.16-.422.398-.457.808-.91 1.226-1.367zm29.703.187l.149.27-.102.316-.613-.144v-.016l-.016-.168.586-.254-.004-.004zm5.656.156c.676.571 1.321 1.137 1.942 1.696-.512-.043-1.027-.09-1.566-.16-.481-.063-.985-.145-1.489-.223.379-.441.754-.879 1.117-1.316l-.004.003zm-14.21.309l.55.543-.445.629-.191-.566c.023-.2.05-.403.086-.602v-.004zm6.937.254l.551.144c.066.801.133 1.602.187 2.399-.269.758-.547 1.512-.828 2.269l-.566-.011c-1.082-.914-2.176-1.879-3.262-2.891 1.317-.68 2.629-1.316 3.918-1.906v-.004zm-19.851.062c.453.426.91.86 1.363 1.297-.367.512-.739 1.02-1.11 1.52-1.265-.395-2.519-.762-3.753-1.09 1.156-.539 2.324-1.121 3.5-1.73v.003zm20.945.215l.39.094-.312.906-.074-1h-.004zm-26.449.02l.074 1.008-.391-.094.313-.914h.004zm-10.118.039c.391.008.809.031 1.227.058.773.711 1.594 1.434 2.457 2.165-.703.851-1.367 1.687-1.984 2.503-1.528.364-2.93.582-4.121.602-1.797.027-3.122-.375-3.872-1.227-.398-.453-.531-.91-.457-1.433.036-.238.122-.488.25-.754.625-.875 1.809-1.449 3.477-1.723.887-.144 1.902-.207 3.023-.191zm2.079.113c.511.043 1.027.09 1.57.16.48.063.984.145 1.488.223-.379.441-.754.879-1.117 1.316-.676-.574-1.32-1.136-1.941-1.699zm35.402.031l.289.067c.422.793.832 1.578 1.23 2.363-.597.656-1.211 1.313-1.836 1.969l-.277-.012c-.043-.75-.086-1.504-.137-2.262.25-.711.493-1.414.731-2.121v-.004zm-8.012.176c.391.379.777.754 1.168 1.121-.476.25-.949.504-1.426.766l-.363-1.008c.203-.297.414-.586.621-.875v-.004zm-11.344.008l.196.574-.086.594-.551-.543.445-.629-.004.004zm20.325.027c.734.157 1.453.297 2.156.422-.399.453-.809.91-1.227 1.367-.3-.593-.613-1.191-.929-1.789zm-32.696.231c.934.16 1.899.355 2.887.57l.309.582-.192.61c-.945.39-1.871.761-2.769 1.082-.532-.43-1.059-.856-1.563-1.278.43-.515.875-1.039 1.332-1.566h-.004zm46.239.035c-.907.902-2.192 1.859-3.778 2.844l-.457-.489c-.504-.515-1.039-1.039-1.605-1.57 1.375.051 2.633.008 3.719-.172.8-.133 1.511-.336 2.124-.609l-.003-.004zm-10.778.262c.625.101 1.239.195 1.832.269.789.098 1.539.164 2.27.211.73.676 1.429 1.34 2.058 1.985l.375.402-.621.379c-.754.437-1.574.875-2.429 1.316-.739-.156-1.504-.301-2.321-.418-.543-.078-1.109-.144-1.679-.211-.34-.711-.696-1.433-1.063-2.16.539-.594 1.067-1.187 1.578-1.773zm-31.59.492l.614.144v.016l.007.168-.582.254-.152-.273.102-.313.011.004zm7.739.016l.765.757-.183 1.055c-.516-.172-1.028-.34-1.543-.5.32-.434.64-.871.957-1.312h.004zm11.105.347l.266.723-.68.375.074-.594.34-.5v-.004zm-17.129.059c1.371.351 2.774.754 4.188 1.187-.895 1.184-1.797 2.324-2.699 3.414l-.559.114c-.41-.692-.816-1.383-1.211-2.078-.086-.797-.164-1.598-.238-2.403l.523-.234h-.004zm19.707.023c.969.903 1.942 1.778 2.914 2.61-1.277-.016-2.586 0-3.91.039-.226-.582-.445-1.172-.66-1.766.551-.301 1.105-.594 1.656-.883zm-20.738.446l.102 1.011-.477-.855.379-.16-.004.004zm-6.23.289c.425.355.863.711 1.304 1.07-.426.148-.855.301-1.273.433-.547.172-1.074.321-1.594.458.496-.641 1.016-1.297 1.563-1.961zm14.507.058l.422.434.18.574-.731-.246c.051-.254.09-.508.129-.762zm-9.144.016c.363.66.726 1.32 1.101 1.98.086.746.172 1.489.262 2.227l-.285.066c-.727-.531-1.438-1.062-2.137-1.594.254-.847.524-1.703.801-2.566l.258-.109v-.004zm19.476.336c.188.511.375 1.019.567 1.519-.539.02-1.078.043-1.621.071l.113-1.075.941-.519v.004zm-20.382.047c-.207.652-.411 1.3-.606 1.945-.496-.383-.988-.766-1.469-1.145.68-.246 1.371-.515 2.075-.8zm30.71.062c.282.563.563 1.117.829 1.672-.723-.07-1.461-.129-2.219-.176.473-.5.937-.996 1.39-1.496zm-23.179.074c.597.188 1.191.383 1.789.582-.106.621-.219 1.239-.34 1.852-1.312.195-2.602.406-3.855.648.808-.988 1.609-2.019 2.406-3.078v-.004zm20.222.364c.016.328.043.652.051.98l-.406-.023.348-.957h.007zm-8.882.3c-.035.258-.051.512-.075.77l-.769.039.328-.508.523-.301h-.007zm-9.043.09l1.023.344.297 1.031c-.539.067-1.074.141-1.609.215.101-.527.195-1.058.289-1.594v.004zm-12.489.114c.618.492 1.247.988 1.895 1.484-.231.769-.445 1.531-.652 2.285-.606.18-1.204.359-1.77.551-.754.254-1.461.519-2.144.793-.95-.289-1.868-.586-2.711-.895l-.508-.199.39-.609c.489-.719 1.039-1.473 1.618-2.239.734-.179 1.488-.382 2.277-.632.523-.164 1.062-.352 1.605-.543v.004zm42.243.125c1.437 1.546 2.519 2.964 3.156 4.175-.574-.597-1.356-1.113-2.309-1.554-.976-.454-2.152-.825-3.457-1.141.66-.348 1.293-.695 1.891-1.039l.719-.441zm-28.114.332l.571.207.41.437-.766.098-.215-.742zm13.575.5c.351 0 .691.015 1.039.023l.433.367c-.285.75-.574 1.5-.871 2.246-.57.563-1.152 1.125-1.73 1.68l-.504-.254c-.578-1.293-1.145-2.637-1.684-4.016 1.117-.031 2.231-.05 3.317-.043v-.003zm2.175.046l.629.028.008.308-.227.239-.488-.395v-.019l.059-.161h.019zm-6.054.012c.48 1.235.976 2.445 1.492 3.613-1.145-.566-2.328-1.121-3.543-1.66.051-.621.109-1.246.172-1.875.629-.031 1.254-.058 1.879-.078zm7.679.067c1.02.058 2.02.125 2.969.226.293.617.582 1.231.856 1.832-.614.278-1.243.555-1.879.832-.77-.547-1.559-1.144-2.352-1.765l-.023-.665.433-.457-.004-.003zm-10.097.043c-.051.539-.102 1.078-.145 1.613-.492-.215-.988-.43-1.492-.641l.566-.914 1.075-.058h-.004zm-1.731.109l-.402.656-.715-.297.516-.316.601-.047v.004zm-24.355.144c-.442.598-.864 1.184-1.254 1.754l-.457.711c-1.965-.769-3.551-1.578-4.653-2.394.774.289 1.704.418 2.75.402 1.079-.016 2.297-.187 3.61-.473h.004zm39.777 0c.449.051.902.102 1.332.168.567.082 1.109.18 1.637.278-.727.363-1.477.726-2.258 1.086-.227-.504-.469-1.016-.711-1.532zm-18.281.098l.566.219-.648.422-.516-.578.598-.063zm-1.25.129l.715.801c-.457.297-.907.594-1.356.894-.137-.519-.281-1.043-.429-1.566l1.07-.129zm14.043.094l.312.254-.675.683.363-.937zm-24.266.058l.504.868-.391.089-.113-.957zm8.617.043c.172.606.34 1.211.496 1.813-1.097.742-2.168 1.496-3.191 2.254.301-1.242.574-2.516.832-3.817.617-.09 1.238-.172 1.863-.254v.004zm-11.609.051c.531.402 1.07.805 1.617 1.211-.726.176-1.433.363-2.121.559.164-.582.328-1.172.504-1.766v-.004zm15.645.086l.992.41c-.282.465-.563.926-.832 1.391-.352-.41-.707-.817-1.067-1.227l.907-.578v.004zm20.902.063c1.535.335 2.89.746 3.972 1.246 1.629.757 2.653 1.691 2.958 2.785.164.582.085 1.047-.211 1.484-.137.199-.325.395-.559.578-.941.512-2.258.516-3.875.039-1.164-.34-2.48-.941-3.887-1.718-.386-.973-.812-1.981-1.273-3.012 1.004-.465 1.965-.93 2.875-1.399v-.003zm-27.36.136c-.289 1.453-.609 2.871-.949 4.246l-.461.348c-.668-.445-1.332-.895-1.988-1.344-.426-.683-.844-1.375-1.258-2.066l.367-.434c1.391-.277 2.825-.527 4.293-.746l-.004-.004zm18.805.145l.231.179c.035.899.066 1.79.086 2.668-.821.329-1.657.657-2.504.977l-.246-.133c.289-.695.578-1.39.859-2.097.535-.532 1.059-1.063 1.578-1.594h-.004zm-10.855.273c.582.242 1.156.492 1.726.742-.101 1.321-.179 2.625-.226 3.899-.782-1.008-1.614-2.016-2.469-3.027.316-.54.637-1.079.969-1.618v.004zm-2.852.254c.418.473.828.945 1.231 1.422-.664 1.145-1.297 2.289-1.895 3.418-.269-1.25-.578-2.52-.91-3.805.516-.347 1.043-.695 1.57-1.035h.004zm14.481.09c.593.457 1.179.894 1.761 1.312-.558.239-1.125.473-1.699.708-.008-.668-.035-1.34-.059-2.02h-.003zm-24.989.211l.008.016.09.144-.414.477-.254-.18-.051-.324.613-.137.008.004zm-1.593.367l.531.391.086.633c-.68.761-1.356 1.496-2.024 2.175-.668-.156-1.324-.312-1.965-.476.165-.653.34-1.317.524-1.985.91-.261 1.871-.504 2.851-.738h-.003zm17.191.055c1.355.605 2.668 1.23 3.934 1.871l.234.519c-.582.555-1.168 1.106-1.758 1.649-.762.262-1.523.515-2.293.765l-.347-.453c.042-1.418.113-2.867.226-4.347l.004-.004zm13.809.094c.359.808.699 1.593 1.015 2.363-.441-.262-.887-.528-1.344-.82-.406-.266-.824-.555-1.246-.844.536-.235 1.059-.465 1.575-.699zm-29.016.132l.527.868-.797-.563.27-.305zm8.078.411c.371 1.437.699 2.855.988 4.242l-.257.508c-.797-.11-1.59-.231-2.383-.352-.676-.43-1.352-.871-2.028-1.313l.137-.55c1.133-.852 2.316-1.7 3.543-2.535zm-13.519.234c-.153.562-.297 1.117-.434 1.668-.856-.223-1.684-.449-2.484-.684.48-.183.968-.363 1.484-.535.461-.156.945-.301 1.434-.449zm4.816.062c.613.438 1.223.875 1.852 1.305.398.637.8 1.266 1.207 1.891l-.231.187c-.883-.164-1.754-.336-2.613-.512-.141-.875-.27-1.761-.395-2.66l.184-.211h-.004zm-12.078.036l.625.242c.676.246 1.387.484 2.129.722-1.262.551-2.375 1.141-3.278 1.77-.66.465-1.211.953-1.644 1.469.426-1.207 1.164-2.629 2.164-4.203h.004zm39.562.074c.52.363 1.032.718 1.535 1.043.668.433 1.317.816 1.954 1.175.363.922.707 1.825.992 2.676l.164.524-.719.074c-.867.066-1.797.105-2.758.133-.597-.461-1.226-.926-1.914-1.387-.453-.305-.937-.609-1.426-.914 0-.793 0-1.594-.015-2.41.746-.301 1.476-.606 2.191-.914h-.004zm-15.144.086c.957 1.132 1.867 2.265 2.73 3.39l-.015.575c-.762.246-1.532.484-2.293.718-.797-.093-1.598-.195-2.395-.301l-.117-.562c.648-1.262 1.352-2.535 2.094-3.82h-.004zm9.57.152l-.371.906-.359-.195.73-.711zm-22.558.379c.097.68.195 1.351.3 2.019-.613-.128-1.226-.257-1.824-.394.504-.52 1.012-1.063 1.524-1.625zm-7.879.508c1.003.304 2.054.597 3.152.883-.262 1.074-.5 2.113-.703 3.117-1.219.992-2.387 1.801-3.449 2.332-1.61.804-2.977 1.015-4.02.574-.555-.234-.867-.59-1.027-1.094-.074-.23-.106-.496-.106-.793.184-1.054 1.008-2.09 2.387-3.058.992-.7 2.281-1.352 3.766-1.965v.004zm33.293 0c.007.629.015 1.254.015 1.867-.617-.379-1.262-.754-1.922-1.125.645-.246 1.278-.488 1.903-.742h.004zm-3.989.211l.559.3-.121.286-.309.117-.265-.567.007-.011.121-.121.008-.004zm-.547.515l.176.367-.906.321.73-.688zm-17.273.082l.832.559-.316.25-.516-.809zm19.25.18c.895.492 1.762.992 2.574 1.492 0 .684-.008 1.363-.023 2.024-.672-.016-1.356-.039-2.051-.067-.457-.828-.91-1.707-1.355-2.613l.265-.609.59-.227zm-27.066.027c.535.137 1.085.27 1.636.399-.32.316-.644.64-.961.937-.418.391-.828.754-1.234 1.102.168-.793.355-1.606.559-2.438zm36.562.465c1.215.641 2.371 1.153 3.43 1.461.777.227 1.508.348 2.179.367-1.207.418-2.781.727-4.64.926l-.199-.637c-.231-.683-.489-1.39-.766-2.117h-.004zm-34.316.074c.769.176 1.558.348 2.355.516.129.793.262 1.574.402 2.34-.468.422-.925.844-1.355 1.262-.57.554-1.09 1.101-1.582 1.644-.981.149-1.938.281-2.832.371l-.547.043c.024-.242.051-.469.09-.722.129-.864.301-1.778.488-2.719.586-.481 1.172-.992 1.774-1.555.398-.375.804-.777 1.207-1.183v.003zm23.246.012l.129.262c-.356.828-.719 1.637-1.082 2.437-.883-.058-1.778-.125-2.684-.207l-.16-.222c.562-.5 1.125-1.004 1.68-1.516.71-.246 1.414-.504 2.117-.758v.004zm-16.383.113l.016.012.144.094-.172.609-.304-.054-.18-.274.496-.387zm.629.411l.855.554-.965-.164.11-.39zm-4.582.097c.652.133 1.312.262 1.98.387-.578.477-1.136.953-1.672 1.426-.105-.598-.207-1.203-.308-1.813zm20.769.278c.336.671.68 1.316 1.02 1.945-.606-.027-1.219-.063-1.836-.098.277-.609.547-1.222.816-1.847zm-18.101.242l.648.121.352.531c-.281.981-.574 1.938-.879 2.84-.668.148-1.328.293-1.977.426-.136-.66-.265-1.332-.39-2.016.707-.629 1.465-1.262 2.25-1.898l-.004-.004zm14.285.047l-.731.656-.234-.332.965-.32v-.004zm8.051.07c.383.242.773.484 1.133.727.476.32.921.64 1.351.96-.812.012-1.648.012-2.508 0 .016-.554.016-1.117.024-1.687zm-20.684.176c.742.129 1.485.254 2.235.371.636.402 1.273.793 1.906 1.183l-.125.262c-.867.235-1.727.465-2.582.676-.504-.727-1.008-1.469-1.508-2.227l.074-.269v.004zm11.133.254l.371.511-.23.207-.332-.027v-.625l.015-.008.164-.054.012-.004zm-.719.23v.402l-.953-.101.953-.301zm-6.863.082l.996.145-.176.363-.82-.508zm1.551.227h.015l.172.019.113.625-.3.086-.282-.168.278-.566.004.004zm.746.097l1.008.125-.942.278-.066-.403zm-6.113.055c.382.57.765 1.133 1.148 1.691-.613.149-1.219.297-1.816.434.23-.687.453-1.398.668-2.125zm8.449.238c.746.086 1.488.168 2.226.243v.293c-.679.589-1.355 1.164-2.031 1.722-.77-.437-1.547-.887-2.328-1.348l-.051-.277c.723-.207 1.445-.414 2.172-.633h.012zm3.269.344l.633.059c.59.832 1.156 1.656 1.672 2.457-.301.617-.598 1.222-.899 1.812-.601-.304-1.21-.625-1.824-.953-.05-.945-.074-1.933-.086-2.941l.5-.434h.004zm1.328.117c.684.059 1.364.11 2.036.157-.266.57-.528 1.136-.793 1.687-.395-.605-.809-1.223-1.247-1.844h.004zm14.883.172c.621 2.016.981 3.762 1.028 5.129-.258-.785-.739-1.59-1.403-2.398-.683-.832-1.578-1.676-2.617-2.528.742-.027 1.461-.066 2.148-.121l.844-.082zm-38.535 0c-.137.731-.262 1.442-.363 2.121-.051.293-.067.559-.106.84-2.105.156-3.89.121-5.234-.141.824-.074 1.719-.359 2.656-.832.965-.48 1.988-1.168 3.047-1.992v.004zm26.262.016c.801.051 1.594.094 2.371.125.308.551.617 1.094.93 1.605.414.68.832 1.309 1.25 1.907-.075.992-.157 1.949-.266 2.843l-.086.543-.68-.246c-.812-.316-1.668-.691-2.543-1.082-.34-.676-.703-1.363-1.121-2.074-.277-.473-.578-.957-.883-1.442.344-.71.688-1.437 1.028-2.179zm3 .152c.582.024 1.156.043 1.722.055-.023.883-.066 1.738-.117 2.57-.285-.426-.566-.859-.851-1.32-.254-.414-.504-.86-.758-1.301l.004-.004zm-22.754.051c.105.57.215 1.137.328 1.691-.867.172-1.707.325-2.531.457.351-.371.711-.742 1.101-1.121.348-.34.727-.683 1.102-1.027zm28.207 0c1.238.969 2.281 1.926 3.039 2.848 1.141 1.386 1.656 2.675 1.453 3.789-.105.593-.383.98-.836 1.246-.207.121-.457.211-.742.277-1.074.059-2.262-.508-3.52-1.644-.902-.813-1.828-1.922-2.753-3.231.074-1.047.124-2.141.16-3.273 1.105.015 2.175.015 3.199-.012zm-18.813.062l.547.321c.172 1.008.324 1.996.438 2.945-.535.422-1.071.84-1.594 1.238-.41-.535-.82-1.086-1.234-1.648.363-.875.773-1.774 1.203-2.688l.636-.172.004.004zm5.391.317c.008.75.035 1.48.074 2.195-.531-.289-1.066-.586-1.609-.887.512-.425 1.019-.867 1.535-1.308zm-6.703.039c-.313.68-.613 1.348-.891 2.008-.355-.489-.711-.989-1.066-1.496.648-.164 1.301-.336 1.957-.512zm2.461.324c.594.348 1.179.692 1.765 1.027-.484.399-.964.793-1.445 1.176-.09-.719-.199-1.453-.32-2.203zm-4.969.32c.461.661.914 1.305 1.375 1.934-.238.586-.465 1.164-.672 1.727-.273.75-.504 1.468-.715 2.168-.82.558-1.621 1.089-2.39 1.562l-.477.277-.23-.687c-.258-.832-.504-1.731-.743-2.656.317-.688.629-1.407.926-2.176.196-.508.387-1.047.574-1.586.774-.176 1.555-.363 2.344-.559l.008-.004zm-2.957.696c-.152.426-.301.859-.457 1.261-.207.536-.422 1.039-.637 1.532-.191-.789-.375-1.602-.554-2.442.543-.109 1.093-.23 1.652-.351h-.004zm10.191.289c.7.394 1.395.777 2.082 1.144.043.633.086 1.25.141 1.848.074.789.184 1.539.301 2.258-.496.863-.992 1.691-1.477 2.449l-.308.453-.504-.519c-.594-.637-1.203-1.344-1.824-2.075-.008-.757-.051-1.535-.11-2.359-.051-.547-.105-1.113-.172-1.684.621-.492 1.243-1 1.871-1.519v.004zm-12.367.164c.231 1.078.473 2.121.727 3.113-.668 1.426-1.367 2.656-2.098 3.602-1.098 1.422-2.238 2.207-3.371 2.261-.601.028-1.039-.152-1.402-.539-.164-.175-.313-.406-.438-.675-.289-1.032 0-2.313.824-3.786.594-1.058 1.469-2.207 2.539-3.406 1.036-.16 2.114-.351 3.223-.57h-.004zm18.012.328c.238.383.48.769.699 1.145.289.496.551.976.801 1.453-.734-.34-1.484-.703-2.254-1.086.254-.493.504-1 .754-1.512zm-22.051.375c-.894 1.043-1.648 2.055-2.187 3.012-.395.707-.68 1.386-.844 2.039-.141-1.27-.09-2.871.129-4.727l.668-.054c.715-.075 1.461-.165 2.23-.274l.004.004zm19.043.574c.516.274 1.027.539 1.531.793-.406.785-.812 1.539-1.218 2.266-.067-.508-.137-1.02-.192-1.563-.051-.484-.086-.992-.121-1.5v.004zm-8.121.016c.348.469.691.93 1.035 1.383-.707.531-1.402 1.031-2.086 1.511.157-.488.321-.98.504-1.492.164-.457.356-.93.547-1.402zm3.121.449c.051.449.102.906.137 1.34.051.57.074 1.117.094 1.652-.516-.625-1.036-1.277-1.563-1.961.442-.336.887-.683 1.332-1.031zm14.352.152c.816 1.106 1.636 2.063 2.449 2.801.602.543 1.203.969 1.801 1.278-1.27-.149-2.821-.551-4.582-1.176.023-.227.066-.434.101-.664.09-.715.164-1.461.231-2.235v-.004zm-7.344.414c.988.497 1.949.957 2.883 1.379.695 1.41 1.222 2.723 1.504 3.879.425 1.746.332 3.129-.332 4.047-.352.488-.77.719-1.297.762-.242.019-.512-.008-.801-.074-.988-.418-1.809-1.442-2.449-3.004-.461-1.125-.809-2.532-1.074-4.117.519-.911 1.043-1.868 1.562-2.872h.004zm-8.77.786c.676.875 1.344 1.711 2.004 2.496.008 1.57-.086 2.984-.332 4.148-.375 1.758-1.058 2.965-2.05 3.504-.532.289-1.008.313-1.5.121-.227-.086-.457-.23-.688-.418-.707-.805-1.004-2.082-.902-3.765.074-1.211.363-2.629.812-4.172.863-.594 1.75-1.235 2.656-1.914zm-7.316.824c.191.719.391 1.414.594 2.074l.269.801c-1.828 1.054-3.449 1.797-4.773 2.144.707-.425 1.383-1.07 2.027-1.898.66-.852 1.285-1.918 1.883-3.117v-.004zm19.723.113c.679.297 1.347.578 1.988.828l.793.289c-.316 2.086-.746 3.817-1.297 5.071.109-.821.024-1.754-.223-2.774-.253-1.047-.695-2.195-1.261-3.41v-.004zm-15.75 1.453c-.356 1.328-.59 2.567-.657 3.66-.05.809 0 1.543.125 2.203-.675-1.085-1.324-2.55-1.933-4.316l.578-.336c.613-.375 1.242-.781 1.887-1.211zm10.136.418c.258 1.352.579 2.574.993 3.59.304.75.664 1.398 1.074 1.934-1.082-.684-2.305-1.723-3.617-3.051l.375-.555c.39-.605.781-1.25 1.175-1.922v.004zm-4.261.321c.484.562.965 1.105 1.433 1.609l.59.605c-1.187 1.743-2.332 3.114-3.371 4.004.453-.691.785-1.566 1.004-2.59.227-1.054.324-2.285.344-3.628z" sketch:type="MSShapeGroup" fill=""/></svg>
