<svg width="75" height="75" xmlns="http://www.w3.org/2000/svg" xmlns:sketch="http://www.bohemiancoding.com/sketch/ns"><title>Imported Layers</title><desc>Created with Sketch.</desc><path d="M37.5 0c-20.676 0-37.5 16.824-37.5 37.5s16.824 37.5 37.5 37.5 37.5-16.824 37.5-37.5-16.824-37.5-37.5-37.5zm-18.059 6.145c5.161-2.997 11.465-3.219 16.735-.653-5.031 3.207-8.449 8.684-8.77 14.953-1.113-.55-2.281-1-3.504-1.332-4.55-1.242-9.277-.765-13.429 1.332.199-2.617.972-5.234 2.371-7.66 1.586-2.762 3.867-5.055 6.597-6.64zm45.082 15.793c-.132 4.55-1.98 8.812-5.246 12.05-1.035 1.024-2.175 1.907-3.394 2.645-4.387-2.383-9.528-2.879-14.266-1.508 1.184-1.187 2.215-2.531 3.059-4 1.668-2.895 2.535-6.094 2.578-9.332 5.543-3.043 12.058-2.789 17.269.145zm-26.441 14.593c.277-5.711 3.273-10.957 8.012-14.054-.153 2.804-.957 5.562-2.406 8.074-1.36 2.359-3.227 4.375-5.446 5.902l-.16.078zm-1.684.989l-.253.179c-5.098 2.567-11.137 2.547-16.172-.054 2.539-1.313 5.375-2.016 8.324-2.016 2.824-.004 5.601.648 8.101 1.891zm-7.847-15.118c2.422 1.543 4.461 3.657 5.941 6.219 1.391 2.402 2.211 5.086 2.406 7.828-4.898-3.074-8.019-8.332-8.347-14.047zm8.152 16.289l.211-.113c-.281 5.707-3.269 10.953-8.012 14.051.153-2.805.957-5.563 2.407-8.074 1.347-2.34 3.199-4.344 5.394-5.864zm2.07-1.218l.086-.063c4.985-2.508 10.868-2.558 15.829-.125-2.493 1.254-5.266 1.926-8.145 1.93-2.695 0-5.355-.602-7.77-1.742zm7.524 15.125c-2.352-1.536-4.34-3.606-5.793-6.114-1.418-2.453-2.242-5.203-2.414-8 4.863 3.114 7.933 8.395 8.207 14.114zm-8.832-19.688c-.438-1.691-1.102-3.328-1.985-4.859-1.703-2.946-4.097-5.332-6.953-6.996.129-6.348 3.633-11.891 8.809-14.942 4.074 2.375 6.984 6.207 8.195 10.797.367 1.391.559 2.805.59 4.211-4.383 2.609-7.469 6.899-8.656 11.789zm-27.043-11.152c4.035-2.219 8.699-2.77 13.18-1.547 1.336.363 2.597.891 3.789 1.527.089 5.125 2.297 9.961 5.988 13.426-1.649-.445-3.359-.676-5.082-.676-3.383.004-6.633.875-9.488 2.496-5.407-3.339-8.407-9.195-8.387-15.226zm8.383 16.551c4.453 2.531 9.734 3.086 14.59 1.679-1.184 1.188-2.223 2.528-3.067 3.996-1.668 2.895-2.535 6.094-2.582 9.336-5.594 3.067-12.187 2.77-17.426-.246.09-4.617 1.942-8.945 5.25-12.222.989-.977 2.075-1.825 3.235-2.543zm18.73 3.886c.438 1.696 1.102 3.332 1.985 4.86 1.671 2.89 4.007 5.242 6.792 6.902-.187 6.328-3.734 11.84-8.941 14.848-3.918-2.391-6.723-6.129-7.898-10.61-.368-1.39-.559-2.804-.59-4.211 4.379-2.613 7.465-6.898 8.652-11.789zm3.93-2.519c1.648.445 3.359.676 5.082.676 3.328-.004 6.519-.844 9.344-2.414 5.597 3.308 8.707 9.269 8.687 15.414-4.035 2.214-8.699 2.769-13.18 1.546-1.39-.378-2.703-.933-3.937-1.613-.039-5.191-2.262-10.101-5.996-13.609zm15.527-2.399c1.102-.715 2.137-1.539 3.086-2.484 3.32-3.293 5.266-7.578 5.555-12.18 2.265 1.496 4.234 3.528 5.687 6.039 1.594 2.754 2.442 5.879 2.45 9.032.015 6.07-3.055 11.726-8.063 14.988-.195-6.098-3.289-11.949-8.715-15.395zm15.926-8.043c-.191-.39-.395-.773-.613-1.152-1.668-2.887-3.977-5.176-6.633-6.797-.024-3.586-1.09-7.035-2.977-9.988 4.981 4.797 8.602 10.988 10.223 17.937zm-8.406-8.593c-5.278-2.739-11.703-2.961-17.278-.133-.07-1.301-.269-2.602-.605-3.887-1.227-4.664-4.098-8.586-8.129-11.137 2.414-1.195 5.133-1.871 8.012-1.875 3.183-.004 6.312.829 9.047 2.395 5.308 3.051 8.683 8.609 8.953 14.637zm-17.121-18.137c-.293-.016-.586-.027-.879-.027-3.328.003-6.453.851-9.18 2.335-3.144-1.687-6.672-2.421-10.164-2.187 3.277-.973 6.742-1.5 10.332-1.5 3.43 0 6.746.488 9.891 1.379zm-34.75 8.473c-.274.402-.539.816-.786 1.238-1.617 2.808-2.445 5.851-2.558 8.875-3.055 1.82-5.485 4.461-7.078 7.551 1.726-6.868 5.41-12.965 10.422-17.664zm-3.348 11.457c.191 5.992 3.18 11.742 8.43 15.211-1.051.695-2.043 1.496-2.957 2.398-3.36 3.328-5.313 7.676-5.567 12.336-2.195-1.484-4.097-3.477-5.515-5.926-1.594-2.754-2.442-5.879-2.45-9.031-.015-6.074 3.051-11.731 8.059-14.988zm-7.164 23.527c.18.359.367.711.566 1.059 1.641 2.832 3.891 5.089 6.481 6.703.058 3.535 1.125 6.933 2.992 9.843-4.863-4.722-8.41-10.793-10.039-17.605zm8.211 8.43c5.305 2.808 11.797 3.07 17.426.211.07 1.296.269 2.597.605 3.882 1.195 4.547 3.961 8.391 7.832 10.942-2.379 1.148-5.047 1.797-7.867 1.801-3.184.003-6.313-.829-9.047-2.395-5.258-3.016-8.617-8.488-8.949-14.441zm27.16 19.484c-3.664 0-7.203-.551-10.539-1.563.457.032.914.051 1.375.051 3.258-.004 6.324-.816 9.012-2.242 3.093 1.738 6.582 2.527 10.047 2.375-3.149.891-6.465 1.379-9.895 1.379zm18.059-4.914c-5.262 3.059-11.719 3.219-17.055.484 5.07-3.164 8.539-8.613 8.922-14.875 1.16.59 2.39 1.071 3.672 1.422 4.547 1.238 9.273.762 13.429-1.332-.199 2.617-.972 5.235-2.371 7.66-1.586 2.762-3.871 5.059-6.597 6.641zm7.007-5.141c.2-.304.395-.613.579-.929 1.617-2.805 2.445-5.852 2.558-8.875 3.031-1.805 5.438-4.414 7.031-7.469-1.718 6.695-5.308 12.644-10.168 17.273z" sketch:type="MSShapeGroup" fill="none"/></svg>