<svg width="67" height="67" xmlns="http://www.w3.org/2000/svg" xmlns:sketch="http://www.bohemiancoding.com/sketch/ns"><title>sacred-3</title><desc>Created with Sketch.</desc><g sketch:type="MSLayerGroup" fill="none"><path d="M33.117 64.066c-.652-1.304-1.156-2.394-1.121-2.429.039-.032 1.121-.098 2.41-.145 1.699-.062 2.348-.043 2.348.074 0 .086-.457 1.219-1.012 2.516-.68 1.586-1.082 2.356-1.226 2.352-.137 0-.645-.856-1.403-2.372l.004.004zm-4.531 1.989c-.152-.254-1.395-4.481-1.41-4.793-.016-.414-.043-.41 1.945-.09.77.121 1.699.262 2.067.305.367.046.664.144.664.218 0 .075-.399.75-.887 1.496-.488.747-1.117 1.723-1.399 2.164-.464.731-.812.981-.98.7zm9.852-2.305c-.809-1.094-1.489-2.062-1.512-2.156-.063-.246.047-.285 1.512-.535.73-.125 1.664-.329 2.078-.446.515-.148.796-.172.894-.074.102.098.004.773-.305 2.149-.675 3.019-.687 3.054-.957 3.05-.144 0-.824-.789-1.71-1.984v-.004zm-15.461.832c-.227-1.133-.594-4.957-.489-5.07.082-.086.371-.043.789.121.364.14 1.321.461 2.125.703.805.246 1.489.523 1.52.621.031.098-.438.691-1.043 1.324-.606.629-1.395 1.477-1.754 1.879-.695.793-1.051.922-1.152.422h.004zm21.312-1.469c-.637-.605-1.492-1.41-1.894-1.777-.403-.371-.735-.75-.735-.848 0-.093.488-.347 1.086-.562.598-.215 1.488-.574 1.977-.797 1.336-.606 1.355-.59 1.297 1.152-.09 2.555-.219 3.821-.399 3.879-.094.031-.691-.441-1.328-1.047h-.004zm-26.477-.562c-.031-.059.004-1.285.083-2.731.113-2.082.183-2.625.335-2.625.106 0 .68.278 1.274.621.594.344 1.441.789 1.883.993.519.238.804.453.804.605 0 .145-.796.836-2.011 1.738-1.934 1.446-2.246 1.629-2.371 1.399h.003zm32.469-1.129c-.039-.063-.953-.676-2.035-1.367-1.09-.692-1.965-1.344-1.965-1.461 0-.117.328-.395.731-.614.402-.222 1.242-.738 1.871-1.156.625-.414 1.203-.754 1.285-.754.082 0 .191.403.246.895.055.492.203 1.672.34 2.625.133.949.219 1.777.187 1.836-.078.14-.566.133-.656-.012l-.004.008zm.52-19.113c.058.058.855-1.653 1.004-2.157.175-.597.558-.363 1.023.633.246.52.461 1.039.484 1.153.02.117.106.273.192.351.262.234 1.316 2.324 1.316 2.609 0 .145.055.262.125.262.223 0 1.914 3.477 1.766 3.625-.086.086-.852.102-2.043.043l-1.902-.098.168.629c.093.348.339 1.188.55 1.871.227.739.332 1.293.254 1.368-.074.074-.773-.02-1.726-.243-2.52-.578-2.289-.558-2.192-.187.215.809.43 3.504.293 3.641-.093.093-.679-.09-1.812-.575-.918-.394-1.75-.781-1.844-.859-.137-.113-.18.137-.187 1.168-.02 1.82-.157 2.852-.379 2.852-.289 0-3.239-1.942-3.301-2.168-.031-.118-.063-.051-.074.14-.008.192-.172 1.012-.368 1.821l-.421 1.785c-.039.172-.161.316-.27.316-.105 0-.801-.57-1.543-1.266-.738-.695-1.394-1.234-1.453-1.199-.059.035-.422.828-.801 1.754-.453 1.102-.765 1.692-.902 1.692-.117 0-.703-.661-1.301-1.469-.602-.809-1.145-1.469-1.211-1.469-.066 0-.57.691-1.125 1.539-.555.844-1.086 1.539-1.191 1.539-.102 0-.578-.805-1.063-1.785-.48-.98-.929-1.879-.992-1.996-.91-1.66-1.371-2.621-1.316-2.766.035-.093.007-.175-.063-.175-.211 0-1.234-1.961-1.164-2.231.059-.23.152-.223 1.418.09.746.183 2.219.402 3.281.488 2.192.176 2.297.258 1.426 1.098-.984.945-.965.972.742.969l1.508-.004-.816-.77c-.985-.93-1.004-1.223-.094-1.285.348-.023 1.035-.102 1.527-.172.496-.074.953-.098 1.016-.059.222.137.117.481-.344 1.145-.773 1.102-.766 1.063-.152.953 1.238-.226 2.433-.531 2.426-.617-.004-.051-.356-.316-.782-.586-.824-.523-1.176-.941-.859-1.039l1.441-.449 1.418-.442c.324-.089.309.403-.039 1.258-.195.485-.418.957-.492 1.047-.121.148 1.59-.477 2.582-.941l.387-.18-1.016-.449c-.558-.246-1.035-.535-1.058-.649-.028-.129.421-.429 1.281-.859.726-.359 1.387-.656 1.469-.656.281 0 .296.265.086 1.195-.122.516-.188.969-.149 1.008.106.105 2.465-1.336 2.465-1.508 0-.055-.234-.141-.524-.188-1.656-.273-2-.589-1.183-1.093.285-.176.855-.594 1.265-.926 1.032-.844 1.176-.75 1.055.687-.113 1.352-.129 1.356 1.418-.066l.981-.898-1.161-.102c-.636-.055-1.191-.156-1.234-.227-.109-.175 2.074-2.48 2.274-2.402.089.035.21.453.261.93.145 1.269.223 1.336.782.683.261-.304.691-.851.953-1.218l.476-.661-.578.086-1.141.172c-.421.059-.578.028-.636-.129-.102-.261 1.484-2.687 1.758-2.687.214 0 .886 1.918.808 2.301-.023.121.027.281.113.359.086.078.297.613.469 1.191l.371 1.243c.039.121.231-.028.531-.422.629-.821 1.649-2.504 1.52-2.496-.055 0-.668.09-1.363.191-.692.106-1.309.164-1.367.129-.211-.125-.09-.488.593-1.77.383-.718.7-1.347.7-1.39 0-.043-.485.07-1.075.254-.746.23-1.125.289-1.246.187-.094-.078-.195-.09-.222-.027l.199-.445zm-16.981 15.386c0-.039-.343-.535-.769-1.097-.426-.563-.77-1.094-.77-1.18 0-.086-.062-.191-.136-.238-.083-.051-.102.008-.055.132.055.145-.238.559-.875 1.235l-.957 1.012.629.086c.82.113 2.937.148 2.937.05h-.004zm2.407-.09c.793-.085 1.523-.199 1.625-.253.128-.071-.102-.364-.77-.981-.527-.484-1-.98-1.051-1.109-.078-.188-.097-.184-.105.05-.004.157-.219.594-.477.981-.883 1.316-.965 1.465-.812 1.465.082 0 .797-.07 1.59-.153zm4.492-.988c.679-.219 1.336-.398 1.461-.398.129 0-.328-.352-1.016-.781-.684-.43-1.324-.887-1.414-1.016-.094-.129-.219-.188-.277-.125-.059.058-.032.105.058.105.266 0 .192.34-.328 1.52-.269.609-.492 1.152-.492 1.199 0 .106.477-.016 2-.504h.008zm4.195-1.769c.52-.278.945-.547.945-.594 0-.047-.55-.309-1.226-.586-.852-.352-1.219-.57-1.207-.727.012-.121-.035-.187-.106-.144-.07.043-.125.246-.129.457 0 .207-.121.891-.261 1.519l-.258 1.141.648-.277c.356-.153 1.075-.504 1.59-.785l.004-.004zm-13.144.074c-.364-.61-1.231-1.641-1.301-1.547-.114.152-1.114.91-1.473 1.117-.281.16-.281.164.063.25.468.113 1.933.32 2.421.34.282.012.364-.031.29-.156v-.004zm15.851-1.809c.531-.394 1.137-.859 1.344-1.035l.379-.316-1.285-.309c-.711-.172-1.352-.363-1.43-.426-.09-.074-.156.399-.184 1.344-.027.828.012 1.457.086 1.457.071 0 .563-.324 1.094-.719l-.004.004zm3.254-4.508c-.82-.066-1.492-.187-1.551-.281-.078-.121-.105-.121-.105.004 0 .094.054.203.125.246.07.043.172.629.226 1.301.055.676.137 1.285.18 1.359.043.075.637-.464 1.324-1.191l1.246-1.324-1.445-.117v.003zm-23.965 11.989c-.07-.117-.926-3.004-1.035-3.5-.094-.418.133-.41 2.273.09 1.286.296 1.68.441 1.68.613 0 .281-2.402 2.898-2.664 2.898-.105 0-.219-.047-.254-.105v.004zm-13.898-1.207c-.043-.106.015-.532.133-.946.113-.414.378-1.519.589-2.461.211-.941.465-1.738.563-1.777.098-.039.387.121.644.348.254.23 1.051.867 1.766 1.414.715.551 1.277 1.062 1.254 1.137-.055.156-4.422 2.457-4.691 2.468-.098.004-.211-.078-.254-.187l-.004.004zm9.261-.543c-.148-.688-.386-3.465-.316-3.653.043-.109.02-.253-.047-.324-.137-.133-.406-1.801-.41-2.535 0-.309.062-.453.203-.453.113 0 .797.312 1.516.699.722.387 1.343.699 1.39.699.067 0-.261-1.172-.507-1.82-.043-.117-.024-.297.043-.406.101-.164.363-.094 1.449.383.73.32 1.402.582 1.496.582.094 0 .148.109.121.246-.027.136-.473.468-1.027.758l-.981.515.422.172c.23.094.891.313 1.465.481 1.172.351 1.496.648 1.051.96-.153.106-.653.489-1.11.844-.457.356-.945.645-1.086.645-.14 0-.254.09-.254.195 0 .25-2.769 2.324-3.101 2.324-.149 0-.281-.129-.32-.316l.003.004zm3.036-3.5c-.2-.637-.371-1.297-.383-1.469-.024-.355-.211-.617-.211-.293 0 .117-.352.383-.789.598-.434.211-.985.504-1.219.648l-.43.262 1.114.508c1.086.5 2 .871 2.187.89.051.004-.07-.511-.269-1.144zm27.441 1.812c-1.668-.726-2.273-1.051-2.273-1.226 0-.133.3-.481.664-.778.367-.297 1.086-.937 1.601-1.429.516-.493 1.012-.871 1.106-.84.093.031.308.527.48 1.101l.695 2.305c.457 1.492.493 1.801.211 1.832-.117.012-1.234-.422-2.484-.965zm-34.633-.347c-.023-.157.043-3.129.078-3.536.016-.191.129-.371.246-.394.305-.059 3.332 1.953 3.332 2.215 0 .133-.605.515-1.613 1.015-1.543.77-2.008.93-2.043.696v.004zm-9.222-1.395c0-.383 1.898-4.703 2.093-4.769.098-.032.465.277.824.691.356.414 1.012 1.137 1.458 1.605.445.469.808.946.808 1.059 0 .141-.726.426-2.414.934-1.328.406-2.492.734-2.59.73-.094-.004-.176-.117-.176-.25h-.003zm8.015-11.551c-.121-.093-.176-.09-.176.016 0 .086.051.156.11.156.058 0 .218.188.351.41.133.223.524.754.871 1.18.348.426.629.875.629 1s.047.195.106.16c.058-.035.668.465 1.355 1.113.688.649 1.27 1.176 1.297 1.176.027 0 .508.305 1.063.676.554.371 1.121.715 1.254.766.136.05.246.218.246.371 0 .222-.192.336-.985.578-.543.164-1.136.269-1.324.234-.187-.039-.309-.015-.266.055.039.066-.074.18-.25.25-.691.281-2.218.711-2.531.711-.18 0-.387.055-.461.125-.308.297-3.984 1.308-3.984 1.098 0-.329.894-3.856 1.019-4.012.149-.192.141-.196-.058-.039-.184.14-3.078.582-3.867.59-.305 0-.192-.477.515-2.184l.692-1.664-.938-.09c-.512-.047-1.39-.094-1.949-.101-.902-.016-1.016-.051-1.016-.29 0-.437 1.852-3.226 2.145-3.23.172 0 .367.254.621.801.203.445.586 1.176.851 1.633l.481.82.531-1.242c.293-.688.625-1.262.746-1.285.129-.028.18-.133.133-.258-.062-.164-.105-.172-.191-.035-.086.144-.344.128-1.262-.071-1.594-.343-1.856-.457-1.773-.765.121-.469 1.535-2.551 1.695-2.5.086.027.422.699.742 1.488.32.793.613 1.465.648 1.5.036.035.243-.367.461-.891.368-.879.551-1.152.774-1.156.047 0 .375.594.726 1.328.356.731.684 1.328.731 1.328l.238.25zm1.563 5.828c.043-.117-.082-.132-.453-.05-.282.058-.965.152-1.512.207l-1 .093 2.695 2.539.102-1.316c.054-.723.129-1.387.164-1.473h.004zm2.804.891c-.058-.484-.109-.977-.113-1.094-.004-.179-.117-.199-.641-.113-.347.059-.918.113-1.265.125-.348.012-.535.055-.418.098.117.047.523.343.91.664.707.59 1.5 1.183 1.59 1.191.027.004 0-.391-.059-.867l-.004-.004zm-5.816-2.137c.094-.461.258-1.121.363-1.468.106-.348.266-1.071.36-1.61.093-.539.238-1.07.324-1.179.086-.114.094-.165.015-.118-.078.047-.543-.008-1.031-.121-.488-.113-.945-.187-1.012-.164-.066.024.227.594.657 1.266 1.039 1.629 1.011 1.722-.496 1.668-.649-.024-1.293-.067-1.43-.09-.238-.051-.238-.031-.012.328.27.418.871 1.227 1.504 2.016.231.285.453.476.5.418.047-.055.164-.477.258-.942v-.004zm3.078-.804l.016-.805h-1.059c-1.223 0-1.223-.07 0 1.309.793.898.852.937.942.628.05-.179.097-.691.105-1.136l-.004.004zm37.957 5.754c-1.269-.305-2.367-.61-2.441-.684-.082-.082.035-.332.312-.66.246-.293.867-1.078 1.379-1.754.512-.676 1.012-1.227 1.109-1.227.219 0 2.438 4.188 2.438 4.602 0 .387-.027.383-2.801-.281l.004.004zm-51.035-2.364c-.047-.078.535-1.101 1.297-2.273 1.484-2.281 1.785-2.535 2.109-1.801.102.227.59 1.031 1.09 1.789.5.762.891 1.473.867 1.586-.031.156-.48.266-1.789.434-2.851.371-3.48.418-3.574.261v.004zm54.402-1.957c-.886-.054-1.879-.105-2.207-.117-.777-.023-.769-.172.106-1.695.383-.672.828-1.516.984-1.871.184-.411.375-.649.527-.645.133.004.489.363.793.805.305.441.989 1.355 1.516 2.035.551.711.93 1.324.887 1.437-.047.122-.25.188-.535.172-.254-.011-1.184-.066-2.071-.121zm-54.328-2.82c-2.508-.133-2.66-.156-2.66-.426.004-.262 3.352-3.82 3.598-3.82.129 0 .402.5.734 1.328.289.734.664 1.609.828 1.953.363.742.375.93.082 1.047l-.25.062c-.012-.011-1.062-.078-2.332-.144zm49.465-1.336c-.039-.102.215-.863.562-1.688.922-2.187.954-2.019-.296-1.625-1.645.516-1.696.524-1.774.317-.066-.18.723-2.793.957-3.164.188-.305.324-.203 1.153.879.445.578.859 1.004.921.941.063-.062.219-.555.344-1.09l.395-1.664c.09-.379.234-.711.32-.742.195-.066 2.98 2.465 2.98 2.711 0 .102-.75.41-1.804.746-2.008.633-2.063.641-2.16.395-.043-.106-.075-.075-.082.07-.008.133.066.25.164.254.258.015 2.367 2.914 2.316 3.183-.062.321-3.879.786-3.996.485v-.008zm4.359-.512c-.047-.117.106-.738.336-1.375.434-1.199.637-1.863.785-2.527.137-.629.512-.469 1.848.773.684.641 1.512 1.403 1.84 1.703 1.016.926.996.934-1.996 1.27-1.078.121-2.133.254-2.344.293-.269.051-.41.012-.465-.137h-.004zm-50.535-1.968l-1.652-.411c-.289-.07-.383-.175-.352-.371.055-.328 2.352-2.914 2.602-2.929.098-.004.234.132.305.304.285.723.988 3.176.988 3.449 0 .372-.219.368-1.891-.042zm-5.152-1.196c-1.297-.293-2.391-.57-2.434-.613-.043-.047-.043-.172 0-.285.102-.266 3.946-3.168 4.196-3.168.168 0 .73 2.262 1.035 4.164.093.574.176.578-2.801-.102l.004.004zm10.137-.695c-.497-.219-.969-.485-1.051-.594-.082-.105-.25-.172-.375-.148-.121.023-.785-.203-1.469-.504-.996-.442-1.238-.606-1.199-.809.051-.285 1.668-2.054 1.937-2.125.231-.058.414.34.524 1.164.051.387.191 1.004.312 1.375l.219.676.543-.887c.301-.488.547-.918.547-.957 0-.058-1.231-.926-2.082-1.468l-1.379-.875c-.637-.403-1.16-.829-1.16-.942 0-.121-.082-.172-.207-.125-.25.098-3.434-1.973-3.434-2.23 0-.098.789-.586 1.754-1.082 1.359-.704 1.781-.864 1.871-.719.09.144.133.121.192-.094.082-.312 2.539-1.633 2.769-1.488.074.047.133.015.133-.067s-.078-.152-.176-.156c-.254-.012-1.695-1.949-1.707-2.293-.008-.246.207-.363 1.32-.742.731-.246 1.407-.422 1.5-.391.094.032.207 0 .254-.074.047-.074-.015-.133-.133-.133-.308 0-1.496-2.39-1.332-2.683.082-.145.422-.25 1.004-.313.485-.051 1.141-.129 1.461-.172.489-.066.594-.039.649.18.054.215.07.219.082.024.019-.286.219-.348 1.519-.469.867-.082 1.016-.063 1.016.125 0 .34-1.531 2.609-1.762 2.609-.222 0-.215.016-.543-1.156-.121-.445-.277-.805-.344-.805-.136 0-1.464 2.512-1.374 2.602.031.035.425-.067.874-.219 1.079-.371 1.333-.363 1.333.043 0 .176-.055.383-.122.453-.066.074-.3.598-.519 1.164-.219.567-.473 1.059-.563 1.094-.093.035-.136.18-.097.324.039.145-.028.594-.145 1.004-.117.41-.258 1.047-.308 1.41-.133.91-.407.864-1.172-.191-.43-.59-.649-.793-.719-.66-.117.218-.453 2.789-.375 2.867.027.027.426-.231.879-.574.457-.344.914-.629 1.019-.629.153-.004.176.316.118 1.64-.086 2-.172 2.063-1.325.969l-.804-.769.07 1.449c.039.797.109 1.484.156 1.535.047.047.379-.234.731-.629.781-.871 1.121-.891 1.179-.062.02.308.102.996.18 1.527.113.762.102.992-.039 1.082-.141.09-.133.113.031.117.145 0 .336.418.606 1.297.636 2.102.601 2.16-.875 1.512l.008-.008zm-3.641-7.086c.457-.352 1.004-.727 1.215-.84.211-.109.305-.203.211-.203-.098 0-.59-.395-1.098-.875-.508-.481-.973-.895-1.031-.914-.059-.024-.149.16-.195.402-.114.555-.118 3.067-.008 3.067.047 0 .453-.286.91-.637h-.004zm3.18-5.539c.437-.242.843-.477.902-.531.129-.114-.691-1.832-.875-1.832-.07 0-.293.55-.492 1.222-.199.676-.391 1.305-.422 1.399-.078.25-.004.226.887-.262v.004zm47.461 11.672c-.032-.133 0-.465.062-.735.063-.269.195-1.214.293-2.097.137-1.254.223-1.61.383-1.61.316 0 4.473 2.731 4.473 2.942 0 .109-.735.41-1.856.765-1.019.321-2.133.676-2.476.786-.786.253-.821.253-.883-.043l.004-.008zm-8.653-.141c0-.133.137-.859.305-1.609.23-1.028.359-1.367.527-1.367.125 0 .516.386.879.855l.656.856.102-.536c.055-.297.172-1.039.258-1.652.09-.617.238-1.137.328-1.168.094-.031.57.328 1.055.797.488.469.957.851 1.039.851.172 0 .281-.843.355-2.714.028-.688.004-1.121-.055-.969-.085.234-1.015.984-2.316 1.871-.164.113-.668.5-1.121.867-.453.367-.945.664-1.09.664-.246 0-.258-.082-.176-1.07.051-.59.09-1.313.09-1.609 0-.762.313-.708 1.254.226l.774.766-.043-1.707-.043-1.711-.809.898c-.992 1.106-1.191 1.082-1.25-.148-.023-.492-.102-1.164-.18-1.496-.23-1.039-.047-1.09 1.168-.317.477.305.891.531.914.504.028-.027-.097-.742-.273-1.594-.176-.847-.277-1.593-.219-1.648.129-.129.84.113 2.153.734.554.262 1.042.477 1.089.477.196 0 3.243 1.324 3.422 1.488.266.238.18.324-1.515 1.594-.774.578-1.407 1.082-1.403 1.121 0 .039.723.531 1.606 1.098.883.566 1.605 1.105 1.605 1.203 0 .094-.801.574-1.785 1.062-.98.489-1.879.938-1.996 1.004-1.266.692-2.707 1.379-2.766 1.317-.043-.039-.144.015-.23.121-.156.207-1.985 1.195-2.203 1.195-.063-.004-.117-.113-.117-.246l.011-.008zm5.41-7.91c-.05-.481-.164-1.32-.254-1.867l-.164-.992-.898 1.027c-.492.566-.984 1.027-1.094 1.027-.113 0-.199.063-.199.141 0 .078.109.141.246.144.137 0 .719.313 1.293.696.578.379 1.074.695 1.106.695.031.004.015-.387-.036-.867v-.004zm-48.882 6.82c-.231-.105-.954-.41-1.61-.679-.859-.36-1.191-.563-1.191-.743 0-.289 2.82-2.472 3.066-2.379.094.036.239.715.34 1.586.098.836.215 1.727.254 1.977.062.379.035.453-.184.445-.144-.008-.449-.097-.679-.203l.004-.004zm-5.914-2.496c-1.571-.691-2.266-1.062-2.243-1.203.039-.207 4.649-2.652 4.762-2.527.035.039.106 1.125.156 2.414.086 2.187.075 2.344-.156 2.328-.137-.008-1.273-.465-2.523-1.016l.004.004zm58.585-3.199c-.05-1.316-.035-2.324.04-2.398.203-.204 4.906 1.839 4.906 2.132 0 .16-.715.586-2.313 1.383-1.269.637-2.363 1.153-2.429 1.153-.063 0-.157-1.02-.207-2.27h.003zm-56.8-1.008c-.27-.187-1.231-.82-2.137-1.402-.902-.582-1.645-1.153-1.645-1.27 0-.117.02-.211.047-.211.028 0 1.082-.316 2.344-.699 2.664-.812 3-.855 2.875-.371-.125.5-.5 3.023-.539 3.656-.047.688-.281.762-.949.293l.004.004zm2.976-2.855c-.715-.676-1.297-1.336-1.297-1.469s.024-.242.055-.242.844-.242 1.809-.539c.964-.297 1.828-.496 1.922-.438.128.078.082.477-.188 1.625-.195.836-.379 1.68-.402 1.871-.082.672-.535.477-1.899-.812v.004zm53.668 1.074c-.035-.106-.137-.598-.222-1.102-.086-.5-.278-1.394-.426-1.984-.149-.59-.27-1.141-.27-1.227 0-.242.489-.175 2.942.395 1.695.394 2.32.594 2.351.758.028.144-.64.738-1.926 1.707-2.14 1.613-2.351 1.738-2.449 1.453zm-8.679-.719c-.028-.098-.215-.68-.418-1.297-.586-1.797-.485-2.027.628-1.461.305.157.708.34.887.41.293.114.324.094.254-.179-.043-.168-.262-.746-.488-1.285-.5-1.188-.59-1.551-.422-1.657.07-.043.629.043 1.238.192l1.344.328c.195.047.215 0 .105-.281-.16-.43-1.152-2.418-1.406-2.821-.332-.531-.058-.601 1.977-.488 1.621.09 1.886.137 1.926.344.05.254-1.508 2.808-1.954 3.211-.14.129-.257.297-.257.375 0 .277-1.442 2.402-1.629 2.402-.106 0-.192.121-.192.27 0 .148-.261.687-.586 1.191-.558.875-.902 1.129-1.015.746h.008zm-2.883-6.492c0-.059-.352-.566-.782-1.125-.429-.563-.738-1.086-.691-1.164.094-.156 1.758-.195 2.277-.055.379.102.387.25.082 1.555-.183.801-.293 1.016-.492 1.016l-.394-.227zm7.433 5.383c-.25-.629-.992-3.164-.992-3.391 0-.308.336-.285 2.238.172 1.192.285 1.622.445 1.653.617.047.246-2.239 2.805-2.578 2.883-.106.023-.25-.102-.321-.281zm-53.144-2.656c-1-.938-1.84-1.786-1.867-1.891-.063-.266.027-.285 2.757-.613 1.649-.2 2.481-.25 2.575-.153.097.094.047.379-.157.883-.164.41-.472 1.344-.687 2.074-.246.844-.461 1.34-.594 1.364-.113.019-1.027-.731-2.027-1.664zm46.918-.711c-.356-.719-.645-1.383-.645-1.477 0-.223.321-.211 1.262.039.902.242.98.25.98.09 0-.066-.343-.668-.769-1.344-.422-.676-.77-1.312-.77-1.422 0-.148.239-.195 1.016-.191 1.43.004 2.066.125 2.066.402.004.403-1.015 2.676-1.195 2.676-.101 0-.152.105-.117.246.09.352-.699 2.195-.961 2.246-.152.028-.41-.347-.863-1.265h-.004zm-42.008-.282c-1.016-1.379-1.266-1.925-.883-1.925.098 0 .934-.094 1.856-.211.921-.114 1.722-.207 1.781-.211.222 0 .086.535-.465 1.82-.313.73-.629 1.473-.695 1.645-.071.171-.219.316-.332.316-.11 0-.68-.648-1.262-1.438v.004zm51.207.489c-.32-.903-1.105-2.856-1.336-3.305-.176-.348-.223-.59-.137-.676.086-.086 1.118-.098 2.739-.035 2.222.086 2.605.133 2.648.324.055.262-3.34 3.938-3.633 3.938-.105 0-.23-.11-.277-.246h-.004zm-54.277-4.59c-1.61-2.156-1.754-2.547-.895-2.395.25.043 1.418.121 2.602.176 1.578.07 2.164.145 2.218.281.039.102-.152.555-.425 1.004-.274.453-.727 1.305-1.008 1.895-.336.699-.594 1.074-.742 1.07-.133 0-.883-.875-1.75-2.031zm5.05.004c-.441-.887-.8-1.715-.8-1.84 0-.203.203-.219 1.855-.153 1.02.043 1.981.126 2.137.188.246.098.258.082.094-.121-.204-.25-1.141-3.238-1.141-3.637 0-.324.172-.312 2.199.133 1.203.262 1.719.437 1.719.574 0 .11-.57.805-1.27 1.551-1.125 1.195-1.234 1.355-.945 1.387.18.019.867.086 1.527.144l1.204.11-.106-.496c-.059-.274-.152-.985-.203-1.583-.117-1.277-.195-1.238 1.734-.851.93.184 1.192.293 1.285.523.067.161.122.215.129.118.012-.231.383-.223 1.555.046.738.168.969.278.961.454-.012.23-2.23 1.984-2.508 1.984-.082 0-.14-.461-.14-1.121 0-.617-.051-1.121-.114-1.121-.058 0-.57.422-1.136.937-1.161 1.059-1.141 1.137.308 1.153.586.007.832.07.891.222.097.25-1.86 2.379-2.188 2.379-.16 0-.246-.273-.351-1.117l-.141-1.117-.328.347c-.18.192-.605.735-.945 1.211-.618.856-.957 1.133-1.102.891-.043-.07-.254-.703-.473-1.41l-.394-1.285-.422.511c-.23.282-.699.981-1.035 1.555-.34.574-.711 1.043-.828 1.043-.133 0-.516-.613-1.016-1.613l-.012.004zm47.481.175c-.121-.097-.457-.585-.754-1.085-.293-.5-.777-1.27-1.07-1.707-.293-.438-.535-.864-.535-.942 0-.195.3-.254 2.519-.504 1.039-.117 2.094-.25 2.344-.293.328-.058.476-.023.531.125.063.164-2.242 3.949-2.727 4.477-.054.058-.195.027-.312-.071h.004zm-4.789-.527c-.137-.234-.629-.898-1.086-1.48-.461-.582-.813-1.129-.785-1.223.07-.211 3.758-.68 3.945-.504.121.113-.25 1.168-1.074 3.031-.317.711-.645.77-1 .172v.004zm-6.723-.652c-.949-.871-1.242-1.324-.961-1.492.059-.036.629-.106 1.266-.164l1.16-.102-.043 1.297c-.027.871-.094 1.316-.211 1.355-.094.032-.641-.375-1.211-.898v.004zm3.551.828c0-.059-.445-.594-.992-1.191-.547-.598-.961-1.172-.926-1.27.059-.148 2.105-.512 2.891-.512.203 0 .187.578-.047 1.52-.11.433-.235.961-.285 1.176-.059.261-.176.386-.364.386-.152 0-.277-.047-.277-.105v-.004zm-40.711-2.176c-.07-.094-.625-1.16-1.23-2.371-.711-1.418-1.055-2.246-.969-2.332.187-.18 5.136.973 5.215 1.219.035.101-.309.636-.762 1.191s-1.035 1.305-1.293 1.664c-.512.723-.762.887-.961.629zm34.344-.887c-.625-.425-1.117-.867-1.117-.992 0-.164.285-.304 1.015-.504.738-.199.977-.32.879-.437-.199-.238-2.488-1.418-2.578-1.328-.043.043.047.484.199.98.449 1.481.453 1.481-1.195.774-.617-.262-1.231-.516-1.363-.555-.133-.043-.247-.164-.247-.274 0-.257 1.93-1.253 2.262-1.164.16.043.258-.007.258-.132 0-.11.59-.493 1.336-.86 1.047-.519 1.359-.621 1.453-.476.203.328.438 2.855.281 3.043-.093.117-.09.187.02.222.187.063.394 1.051.406 1.899.008.793-.191.769-1.601-.196h-.008zm3.363-.046c-.227-.235-.746-.661-1.152-.942-.41-.281-.739-.613-.739-.738 0-.16.336-.336 1.164-.606 1.868-.605 1.793-.652 1.747 1.125-.04 1.391-.063 1.508-.325 1.547-.172.024-.445-.129-.695-.386zm3.578-.266c-.082-.152-.637-.703-1.234-1.223-.598-.519-1.106-1.027-1.129-1.129-.027-.101.133-.254.348-.34.675-.261 3.105-.968 3.332-.968.296 0 .265.367-.184 2.238-.336 1.387-.43 1.617-.688 1.652-.187.028-.355-.062-.445-.234v.004zm-28.012-.332c0-.172.059-.535.125-.805.071-.269.165-.664.211-.871l.086-.383-.734.434c-.402.238-1 .613-1.324.836-.606.418-.969.508-1.051.269-.027-.074-.008-.785.039-1.574.137-2.301.234-4.187.25-4.902.012-.578.051-.664.312-.664.411 0 3.2 1.84 3.2 2.113 0 .133-.293.355-.735.555-1.007.457-2.484 1.293-2.484 1.41 0 .051.109.129.246.172.77.238 2.09.855 2.242 1.047.153.195.176.179.18-.118.008-.722.641-2.859.859-2.902.121-.023.586.203 1.043.504.453.301.965.621 1.141.711.172.09.312.258.312.371 0 .113.122.207.27.207.148 0 .684.262 1.184.582.703.449.886.633.792.797-.109.195-1.812.801-2.707.965-.488.09-.496-.098-.035-1.137.43-.973.434-1.059.035-.957-.55.145-2.843 1.145-2.625 1.148.45.008 2.102.782 2.102.985 0 .199-2.418 1.539-2.777 1.539-.086 0-.16-.141-.16-.316l.003-.016zm32.067-.727c-.305-.39-.934-1.086-1.399-1.547-.464-.46-.847-.937-.847-1.062 0-.168.398-.348 1.504-.68.828-.25 1.922-.594 2.429-.765.942-.321 1.25-.329 1.25-.039 0 .089-.445 1.207-.984 2.484-.641 1.508-1.059 2.324-1.191 2.324-.118 0-.457-.32-.762-.711v-.004zm-38.004-.476c-.152-.246-.52-3.844-.406-3.961.191-.192 3.679 1.289 3.679 1.562 0 .125-.296.442-.664.7-.367.261-1.031.773-1.476 1.144-.821.676-1.004.766-1.133.555zm21.055-.735c-.5-.136-1.078-.254-1.282-.261-.375-.012-.593-.278-.422-.516.051-.07.422-.379.829-.68.402-.304.687-.601.625-.66-.059-.058-.77-.191-1.575-.293-1.086-.136-1.476-.238-1.503-.394-.063-.321 1.824-2.301 2.093-2.196.309.118 1.414 2.321 1.332 2.645-.043.164.004.262.129.262.242 0 1.227 1.918 1.121 2.183-.09.235-.172.227-1.343-.094l-.004.004zm-25.532-1.074c-.125-.441-.449-1.492-.718-2.336-.727-2.258-.68-2.375.699-1.754.461.207 1.496.653 2.293.992.797.336 1.484.7 1.527.809.047.117-.172.395-.543.695-.34.278-1.062.93-1.609 1.454-.543.523-1.086.949-1.207.949-.145 0-.293-.27-.442-.805v-.004zm16.852.617c0-.269 1.109-1.918 1.352-2.011.093-.036.144-.137.113-.231-.063-.187 1.465-2.504 1.699-2.578.184-.055 1.875 2.133 1.875 2.426 0 .109.055.195.125.195s.453.414.852.922c.843 1.074.851 1.402.035 1.27-.289-.047-.981-.086-1.539-.086-1.262 0-1.301-.161-.313-1.262.824-.914.809-.926-1.258-.77l-1.328.098.801.738c1.227 1.133 1.207 1.153-1.473 1.414-.812.082-.945.063-.945-.132l.004.007zm17.359-.789c-.808-.535-1.566-1.066-1.691-1.187-.121-.121-.309-.215-.414-.215-.11 0-.828-.277-1.598-.613-.769-.34-1.512-.653-1.648-.696-.133-.043-.242-.175-.242-.289 0-.269 2.906-2.465 3.144-2.375.125.047.27.719.43 2.008l.25 1.938 1.691-.891c1.129-.594 1.754-.852 1.887-.773.156.097.172.464.07 2.05-.066 1.063-.187 1.95-.262 1.973-.074.023-.8-.395-1.609-.926l-.008-.004zm-6.859-.351c-.918-.309-1.328-.512-1.328-.664 0-.285 1.988-1.817 2.285-1.762.238.043.977 1.969.992 2.598.012.414-.265.39-1.949-.172zm11.832-.571c-.309-.269-1.082-.878-1.719-1.347s-1.14-.926-1.113-1.008c.062-.203 4.289-2.438 4.637-2.453.234-.012.254.058.172.652-.223 1.594-1.004 4.582-1.207 4.613-.114.02-.458-.187-.77-.457zm-24.57.102c0-.418 1.066-2.68 1.265-2.68.258 0 2.164 1.828 2.164 2.074 0 .168-.3.286-1.191.465-2.328.477-2.242.473-2.242.141h.004zm-10.711-1.598c-.071-.191-.633-4.722-.633-5.07 0-.266.391-.281.687-.023.121.105 1.086.738 2.137 1.406 1.313.832 1.895 1.277 1.844 1.414-.043.109-.43.398-.867.644-.438.247-1.246.754-1.801 1.125-1.059.715-1.27.793-1.371.504h.004zm7.855-.078c-.047-.078.07-.793.262-1.59.191-.797.351-1.547.351-1.664 0-.121.086-.336.192-.48.187-.254.203-.25.594.054.867.676 2.554 2.426 2.492 2.586-.035.09-.41.247-.832.344-.422.098-1.129.305-1.574.461-1.137.399-1.391.449-1.489.289h.004zm15.246-.738c-.465-.145-1.125-.301-1.472-.348-1.45-.195-1.454-.316-.036-1.769.598-.61 1.137-1.199 1.2-1.313.058-.109.226-.199.363-.199.203 0 .355.344.766 1.715.281.941.511 1.824.511 1.961 0 .304-.246.297-1.332-.043v-.004zm8.188-.57c-.348-.215-1.18-.657-1.852-.985-.828-.398-1.226-.668-1.226-.828 0-.133.3-.461.664-.726.363-.27 1.254-.938 1.972-1.485.719-.547 1.407-.992 1.528-.992.191 0 .207.297.117 2.543-.055 1.398-.133 2.617-.164 2.707-.098.254-.356.199-1.035-.227l-.004-.007zm-19.321-.012c0-.363 1.446-3.606 1.61-3.606.191 0 2.453 2.95 2.453 3.2 0 .089-.078.164-.176.164-.097 0-.867.093-1.715.207-1.882.254-2.172.258-2.172.035zm7.211-.113c-.386-.059-1.183-.118-1.777-.121-.594-.008-1.117-.079-1.168-.161-.125-.199 1.914-3.336 2.176-3.343.133-.004.535.625 1.074 1.671.766 1.493.84 1.704.656 1.891-.117.113-.222.199-.234.188-.016-.008-.34-.067-.727-.129v.004zm-14.738-.942c-.308-.101-.109-5.351.207-5.457.094-.031.66.41 1.262.977.601.566 1.457 1.371 1.902 1.785.446.414.793.84.77.949-.024.106-.418.32-.883.477-.461.156-1.344.515-1.961.804-.617.289-1.203.5-1.297.465zm22.582-1c-.445-.195-2-.687-3.387-1.07-.089-.024-.152-.141-.132-.258.05-.324 3.347-3.863 3.605-3.863.184 0 .27.324.461 1.781.281 2.141.344 3.563.148 3.613-.078.024-.39-.07-.699-.207l.004.004zm-18.191-.832c-.047-.078.164-1.234.472-2.566.309-1.332.563-2.473.563-2.531 0-.059.113-.106.254-.106.308 0 3.156 3.699 3.168 4.117.008.239-.137.305-.973.449-.894.153-2.344.477-3.098.696-.164.047-.339.023-.386-.059zm13.621-.508c-.059-.058-3.328-.496-3.723-.496-.097 0-.179-.07-.179-.16 0-.332 2.73-4.445 2.957-4.453.167-.004.328.32.601 1.219.207.675.527 1.718.719 2.32.437 1.391.441 1.637.015 1.637-.179 0-.355-.028-.39-.067zm-8.738-.523c-.11-.285 1.765-4.723 2.062-4.883.203-.109.402.195 1.367 2.109.617 1.231 1.125 2.368 1.125 2.52 0 .27-.086.285-1.504.285-.828 0-1.836.043-2.238.09-.578.07-.75.043-.812-.121z" sketch:type="MSShapeGroup"/><path d="M33.129 51.273c-.379-.765-.676-1.402-.656-1.421.019-.02.656-.055 1.41-.082.996-.04 1.371-.024 1.371.042 0 .051-.266.711-.59 1.473-.398.93-.633 1.379-.715 1.379-.078 0-.379-.504-.82-1.387v-.004zm-2.652 1.161c-.09-.149-.817-2.622-.825-2.805-.011-.238-.027-.238 1.137-.051.449.07.992.152 1.207.18.215.023.391.082.391.125 0 .047-.235.437-.52.875l-.82 1.265c-.27.43-.477.575-.574.411h.004zm5.761-1.348c-.472-.637-.871-1.207-.883-1.262-.039-.144.028-.168.883-.316.43-.074.977-.192 1.219-.262.301-.086.465-.101.523-.043.059.055.004.449-.179 1.254-.399 1.766-.403 1.785-.563 1.785-.086 0-.48-.461-1-1.16v.004zm-9.043.488c-.133-.664-.347-2.898-.285-2.965.047-.047.219-.023.465.075.211.086.773.269 1.242.41.469.144.871.308.891.363.019.059-.258.406-.61.773-.355.368-.816.864-1.023 1.102-.41.465-.617.539-.676.246l-.004-.004zm12.465-.859c-.375-.356-.871-.824-1.109-1.043-.235-.219-.43-.442-.43-.496 0-.059.285-.207.633-.328.348-.129.871-.336 1.156-.465.781-.356.797-.344.758.672-.051 1.496-.129 2.238-.234 2.273-.055.02-.407-.258-.778-.613h.004zm-15.484-.328c-.016-.035.004-.75.047-1.598.066-1.219.105-1.535.199-1.535.062 0 .398.164.746.363.348.199.844.461 1.102.578.304.137.472.266.472.356 0 .086-.465.488-1.176 1.015-1.132.844-1.312.954-1.386.821h-.004zm18.996-.66c-.024-.036-.559-.395-1.192-.801-.636-.403-1.148-.785-1.148-.852 0-.07.191-.23.43-.359.234-.129.726-.43 1.093-.676.368-.242.704-.437.75-.437.047 0 .114.234.145.519.031.289.121.981.199 1.535.078.559.129 1.043.11 1.074-.043.082-.332.079-.383-.003h-.004zm.305-11.184c.035.031.5-.969.585-1.262.102-.351.325-.215.602.371.145.305.27.606.281.676.012.067.063.16.114.207.152.133.769 1.36.769 1.527 0 .086.031.153.074.153.129 0 1.121 2.031 1.032 2.121-.051.051-.5.059-1.196.023l-1.113-.054.098.367c.054.203.199.695.324 1.094.133.433.191.754.148.8-.043.047-.453-.011-1.011-.144-1.473-.34-1.34-.328-1.282-.11.125.473.25 2.051.172 2.126-.054.058-.398-.051-1.058-.336-.539-.227-1.024-.457-1.082-.504-.079-.067-.102.078-.11.683-.012 1.063-.09 1.668-.222 1.668-.168 0-1.891-1.133-1.93-1.265-.016-.071-.039-.032-.043.082-.008.113-.102.589-.215 1.062l-.246 1.047c-.023.102-.094.184-.156.184-.063 0-.469-.332-.903-.739-.433-.41-.816-.722-.851-.703-.035.02-.246.485-.469 1.028-.262.64-.449.988-.527.988-.071 0-.41-.387-.762-.86-.352-.472-.668-.859-.707-.859-.039 0-.332.406-.656.902-.325.496-.637.899-.696.899-.058 0-.339-.469-.621-1.043-.281-.574-.543-1.102-.582-1.168-.531-.969-.8-1.535-.769-1.617.019-.055.004-.102-.039-.102-.121 0-.723-1.148-.68-1.308.035-.133.09-.129.828.054.438.106 1.301.239 1.918.289 1.281.102 1.344.149.836.641-.574.555-.562.57.434.566l.882-.004-.472-.449c-.578-.543-.59-.715-.055-.75.203-.015.602-.058.895-.101.289-.039.554-.059.593-.035.129.078.067.281-.203.667-.449.645-.445.622-.09.555.727-.129 1.426-.308 1.422-.359-.004-.031-.207-.184-.457-.34-.484-.305-.687-.555-.504-.609l.844-.262.828-.258c.188-.055.18.234-.023.734-.114.286-.246.559-.289.61-.071.086.929-.278 1.508-.551l.226-.105-.594-.262c-.328-.145-.605-.317-.617-.379-.015-.078.246-.25.75-.5.426-.211.809-.387.86-.387.164 0 .175.156.05.699-.07.305-.109.571-.086.59.063.063 1.442-.781 1.442-.883 0-.031-.137-.082-.309-.109-.969-.16-1.168-.348-.691-.641.164-.101.5-.347.738-.543.606-.492.688-.437.617.403-.066.793-.074.793.828-.039l.575-.524-.676-.058c-.371-.035-.699-.094-.723-.133-.062-.102 1.211-1.449 1.328-1.406.055.019.121.265.153.543.086.742.129.785.457.398.152-.18.402-.5.554-.711l.278-.387-.34.051-.668.098c-.246.039-.34.019-.375-.074-.059-.153.867-1.575 1.027-1.575.125 0 .516 1.121.473 1.348-.016.07.016.164.066.211.051.047.176.359.274.695l.218.727c.02.07.133-.02.309-.25.367-.481.965-1.461.891-1.461l-.797.113c-.406.063-.766.094-.801.074-.121-.074-.051-.285.348-1.035.222-.422.41-.789.41-.812 0-.024-.285.043-.629.148-.438.133-.66.168-.731.113-.05-.042-.109-.046-.125-.011l.122-.258zm-9.938 8.996c0-.023-.203-.312-.449-.641-.246-.328-.449-.636-.449-.691 0-.051-.036-.113-.082-.141-.047-.027-.059.004-.032.079.035.085-.136.328-.511.722l-.559.594.367.047c.481.062 1.719.086 1.719.027l-.004.004zm1.41-.047c.465-.051.891-.117.953-.148.075-.043-.058-.211-.449-.574-.308-.282-.586-.575-.613-.649-.047-.113-.059-.105-.063.031-.004.09-.129.348-.277.575-.516.773-.566.859-.477.859l.93-.09-.004-.004zm2.629-.578c.395-.129.781-.23.856-.23.074 0-.192-.207-.594-.461-.399-.254-.778-.52-.828-.594-.055-.074-.125-.109-.16-.074l.035.062c.156 0 .113.199-.192.891-.156.359-.289.672-.289.699 0 .066.282-.004 1.172-.293zm2.453-1.035c.305-.164.551-.32.551-.348 0-.027-.324-.179-.715-.343-.5-.204-.715-.336-.707-.426.008-.071-.019-.11-.062-.086-.039.023-.075.144-.075.265 0 .121-.07.524-.152.891l-.152.668.379-.164c.207-.09.629-.297.933-.461v.004zm-7.691.043c-.215-.356-.719-.961-.762-.902-.066.089-.652.531-.863.652-.164.094-.164.098.035.144.273.067 1.133.188 1.418.2.164.007.211-.02.168-.094h.004zm9.273-1.055c.313-.23.664-.504.785-.605l.223-.188-.754-.179c-.414-.098-.793-.211-.836-.247-.051-.043-.09.231-.109.786-.016.484.008.855.051.855s.328-.187.64-.418v-.004zm1.903-2.637c-.481-.039-.871-.113-.907-.164-.047-.07-.058-.07-.062.004 0 .055.031.118.074.145.043.023.102.371.133.762.031.394.078.75.101.796.028.039.375-.273.774-.699l.73-.773-.843-.071zm-14.02 7.012c-.039-.07-.539-1.758-.605-2.047-.055-.242.078-.238 1.328.055.75.176.984.258.984.359 0 .164-1.406 1.696-1.558 1.696-.063 0-.129-.028-.149-.063zm-8.129-.707c-.023-.062.012-.312.078-.555.067-.242.223-.886.344-1.437.125-.551.273-1.016.328-1.039.059-.024.227.07.375.203.149.133.613.508 1.031.828.418.32.75.617.735.664-.031.09-2.586 1.438-2.746 1.446-.059 0-.125-.047-.149-.106l.004-.004zm5.418-.32c-.086-.403-.226-2.027-.183-2.137.023-.062.011-.148-.028-.191-.078-.078-.238-1.051-.238-1.485 0-.179.039-.265.117-.265.067 0 .465.183.887.41.422.223.789.41.812.41.039 0-.152-.687-.297-1.066-.027-.067-.015-.176.028-.235.058-.094.215-.054.847.223.426.187.821.34.875.34.055 0 .086.062.075.14-.016.082-.278.278-.602.446l-.574.3.246.098c.137.055.523.184.859.285.688.203.875.379.618.563-.09.062-.383.285-.649.492-.266.207-.555.379-.637.379-.082 0-.148.051-.148.113 0 .149-1.621 1.36-1.816 1.36-.086 0-.165-.079-.188-.188l-.004.008zm1.777-2.047c-.117-.371-.218-.758-.222-.859-.016-.207-.121-.36-.121-.168 0 .066-.207.222-.461.347-.254.125-.574.293-.711.379l-.25.153.652.3c.637.293 1.168.508 1.281.52.032.004-.042-.301-.16-.672h-.008zm16.055 1.062c-.976-.425-1.332-.617-1.332-.718 0-.078.176-.282.391-.453.215-.172.636-.551.937-.836.301-.289.594-.512.649-.493.054.02.183.309.281.645l.406 1.348c.27.871.289 1.054.125 1.074-.066.008-.722-.246-1.453-.563l-.004-.004zm-20.262-.199c-.011-.09.028-1.828.047-2.07.012-.113.075-.219.145-.231.176-.035 1.949 1.141 1.949 1.297 0 .078-.355.301-.941.594-.903.449-1.176.543-1.196.41h-.004zm-5.398-.82c0-.223 1.109-2.754 1.223-2.789.054-.02.273.16.48.402.207.246.59.664.852.938.261.273.472.55.472.617 0 .086-.425.246-1.414.547-.777.234-1.457.429-1.515.426-.059 0-.102-.067-.102-.149l.004.008zm4.688-6.758c-.071-.058-.102-.055-.102.008 0 .051.027.094.066.094.036 0 .129.109.207.238.079.133.309.441.508.691.203.25.367.512.367.586 0 .071.028.118.063.09.035-.019.391.274.793.652.402.379.742.692.762.692.015 0 .296.176.621.394.324.219.656.422.734.45.078.027.145.125.145.218 0 .133-.114.2-.579.34-.316.094-.664.16-.777.137-.109-.023-.18-.008-.156.031.023.039-.043.106-.145.149-.402.164-1.297.414-1.48.414-.106 0-.227.035-.27.074-.179.172-2.332.766-2.332.641 0-.192.524-2.254.594-2.348.086-.113.082-.113-.035-.024-.106.086-1.801.34-2.262.344-.179 0-.113-.277.301-1.277l.402-.973-.547-.051c-.3-.027-.812-.054-1.14-.062-.528-.008-.594-.027-.594-.168 0-.258 1.082-1.887 1.254-1.887.102 0 .219.149.363.469.117.258.344.687.496.953l.282.484.308-.726c.172-.402.367-.738.438-.754.074-.016.105-.074.078-.148-.039-.098-.063-.102-.113-.02-.051.086-.2.074-.739-.039-.933-.199-1.086-.266-1.039-.445.071-.274.899-1.492.992-1.461.051.015.246.41.434.871.187.461.359.859.379.879.019.019.14-.215.269-.52.215-.511.325-.676.454-.676.027 0 .218.348.425.778.207.429.399.777.43.777l.145.125zm.91 3.43c.027-.067-.047-.074-.266-.028-.164.036-.562.09-.887.122l-.582.054 1.578 1.485.059-.77c.031-.422.074-.808.094-.863h.004zm1.64.523c-.035-.281-.066-.57-.066-.64-.004-.106-.067-.118-.375-.067-.207.031-.539.067-.738.074-.204.004-.313.032-.246.059.066.027.308.199.531.387.414.343.879.691.929.695.016 0 0-.23-.035-.508zm-3.394-1.269c.054-.27.148-.657.211-.86.062-.203.156-.625.211-.941.054-.313.14-.629.191-.691l.008-.071c-.047.028-.317-.004-.602-.07-.285-.063-.55-.109-.59-.094-.039.016.133.348.383.738.606.954.59 1.008-.289.977-.379-.016-.758-.039-.836-.055-.14-.027-.14-.015-.004.192.157.246.508.718.879 1.179.133.164.266.278.293.243.028-.032.098-.282.153-.551l-.008.004zm1.801-.473l.007-.469h-.617c-.715 0-.715-.039 0 .766.465.523.5.547.551.367.031-.105.059-.402.062-.664h-.003zm22.207 3.367c-.743-.179-1.387-.359-1.43-.402-.047-.047.019-.191.183-.387.145-.168.508-.629.809-1.023.301-.395.594-.715.649-.715.128 0 1.425 2.449 1.425 2.691 0 .223-.015.223-1.636-.164zm-29.86-1.386c-.027-.047.313-.645.758-1.329.867-1.332 1.043-1.484 1.234-1.05.059.129.344.601.637 1.046.293.442.52.86.508.926-.016.094-.281.157-1.047.254-1.668.215-2.035.242-2.09.153zm31.824-1.145c-.519-.031-1.101-.062-1.293-.07-.457-.012-.449-.098.063-.992.223-.395.484-.887.578-1.094.106-.242.219-.379.309-.379.078.004.285.211.465.473.179.253.578.792.886 1.191.324.414.543.773.52.84-.028.074-.149.113-.313.101l-1.211-.07h-.004zm-31.781-1.648c-1.469-.079-1.558-.094-1.554-.25 0-.153 1.96-2.235 2.101-2.235.074 0 .234.289.43.778.172.429.386.941.484 1.14.211.434.219.543.047.613l-.145.04c-.007-.008-.621-.047-1.363-.086zm28.938-.782c-.024-.058.125-.504.328-.988.539-1.281.558-1.18-.172-.953-.961.301-.992.305-1.035.183-.039-.105.422-1.632.558-1.851.11-.176.188-.117.672.516.262.339.504.589.539.55.039-.039.129-.324.203-.636l.231-.977c.055-.223.137-.418.187-.434.114-.039 1.743 1.442 1.743 1.586 0 .059-.442.243-1.059.438-1.172.371-1.207.375-1.262.23-.023-.058-.043-.043-.047.043-.004.078.039.145.094.149.152.008 1.387 1.707 1.356 1.863-.036.188-2.266.461-2.336.281zm2.55-.3c-.027-.067.063-.43.2-.805.254-.703.371-1.086.461-1.477.082-.367.3-.273 1.082.453.398.375.882.821 1.078.997.594.542.586.546-1.168.742-.633.07-1.246.148-1.371.172-.157.031-.242.007-.274-.079l-.008-.003zm-29.562-1.149l-.969-.242c-.168-.043-.222-.102-.207-.219.031-.191 1.375-1.703 1.524-1.711.058-.004.136.074.175.176.168.426.579 1.859.579 2.02 0 .218-.129.214-1.106-.024h.004zm-3.016-.703c-.757-.172-1.398-.336-1.422-.359-.027-.024-.023-.098 0-.164.059-.157 2.309-1.852 2.454-1.852.097 0 .429 1.324.605 2.437.055.336.106.34-1.641-.058l.004-.004zm5.93-.406c-.289-.129-.566-.285-.613-.348-.051-.062-.149-.102-.219-.086-.074.012-.461-.117-.859-.297-.582-.258-.723-.351-.7-.472.032-.168.977-1.204 1.133-1.243.137-.035.242.2.305.68.031.223.113.59.183.805l.129.394.321-.519c.176-.285.32-.539.32-.563 0-.035-.719-.543-1.219-.859l-.808-.512c-.375-.238-.68-.484-.68-.551 0-.07-.047-.101-.121-.074-.145.059-2.008-1.152-2.008-1.305 0-.058.461-.343 1.027-.632.797-.41 1.043-.504 1.094-.422.051.082.078.07.113-.055.047-.183 1.485-.953 1.622-.871.043.027.078.012.078-.039 0-.047-.047-.09-.102-.09-.148-.008-.992-1.141-1-1.34-.004-.14.121-.211.774-.433.429-.145.824-.246.878-.231.055.02.122 0 .149-.043.027-.043-.008-.078-.078-.078-.18 0-.875-1.398-.778-1.57.047-.086.247-.149.586-.184l.856-.101c.285-.039.347-.024.379.105.031.125.043.129.051.016.011-.168.128-.203.89-.274.508-.047.594-.035.594.075 0 .199-.899 1.527-1.031 1.527-.133 0-.129.012-.317-.676-.07-.258-.164-.473-.203-.473-.082 0-.859 1.469-.805 1.524.02.019.25-.039.512-.129.633-.215.777-.211.777.023 0 .102-.031.223-.07.266-.039.043-.176.348-.304.68-.129.332-.278.621-.329.64-.054.02-.078.106-.058.188.023.082-.016.347-.086.59-.07.242-.149.613-.18.824-.078.531-.238.504-.683-.113-.25-.344-.379-.465-.422-.387-.067.129-.266 1.633-.219 1.676.016.015.25-.133.516-.336.265-.203.535-.367.593-.367.09-.004.102.187.071.96-.051 1.168-.102 1.208-.774.567l-.472-.449.043.847c.023.465.062.871.089.899.028.027.223-.137.43-.371.457-.508.656-.52.691-.035.012.179.059.582.106.894.066.445.062.582-.02.633-.082.051-.078.066.02.07.082 0 .195.246.351.758.375 1.227.356 1.262-.511.883l-.012.004zm-2.129-4.145c.266-.207.586-.426.711-.492s.18-.117.121-.117c-.055 0-.344-.231-.64-.512-.297-.281-.571-.523-.602-.535-.035-.012-.086.094-.117.234-.067.325-.071 1.797-.004 1.797.027 0 .266-.168.531-.375zm1.859-3.242c.258-.141.497-.281.528-.309.074-.066-.406-1.07-.512-1.07-.043 0-.172.324-.289.719l-.246.82c-.047.145-.004.133.519-.152v-.008zm27.766 6.828c-.016-.078 0-.273.039-.43.035-.156.113-.711.168-1.23.078-.734.129-.941.223-.941.187 0 2.617 1.601 2.617 1.722 0 .063-.43.242-1.086.449l-1.449.457c-.461.149-.481.149-.516-.027h.004zm-5.062-.082c0-.078.078-.5.179-.941.133-.602.211-.797.309-.797.07 0 .301.226.512.5l.382.504.059-.317c.031-.172.102-.605.152-.968.051-.364.137-.668.192-.684.054-.02.332.191.617.465.285.273.559.5.609.5.098 0 .164-.492.207-1.59.016-.402.004-.656-.031-.566-.051.136-.594.574-1.355 1.093-.094.067-.391.293-.657.508-.265.215-.55.391-.636.391-.145 0-.153-.047-.102-.629.027-.344.055-.77.055-.942 0-.445.183-.414.734.133l.453.449-.027-1-.023-1-.473.524c-.582.648-.695.633-.731-.086-.015-.285-.058-.68-.105-.875-.137-.605-.027-.637.684-.184.281.176.519.309.535.293.015-.015-.059-.433-.16-.933-.106-.496-.161-.93-.129-.965.074-.074.492.066 1.257.43.325.152.61.277.637.277.113 0 1.895.773 2.004.871.152.141.106.191-.887.934-.453.336-.82.632-.82.652 0 .023.426.312.941.644.516.329.938.649.938.704 0 .058-.469.336-1.043.621l-1.168.586c-.738.406-1.578.808-1.617.769-.024-.023-.086.008-.137.074-.09.118-1.16.7-1.289.7-.039 0-.074-.063-.074-.145h.008zm3.168-4.625c-.028-.281-.094-.773-.149-1.094l-.097-.582-.528.602c-.289.332-.574.601-.64.601-.067 0-.118.036-.118.082 0 .043.063.083.145.083.078 0 .418.183.758.406.336.222.629.406.644.406.02.004.012-.227-.019-.508l.004.004zm-28.598 3.992l-.941-.398c-.504-.207-.696-.328-.696-.434 0-.168 1.649-1.445 1.797-1.39.055.019.141.418.199.925.059.489.125 1.012.149 1.157.039.222.019.265-.106.257-.086-.003-.261-.054-.398-.117h-.004zm-3.461-1.461c-.918-.406-1.324-.621-1.309-.703.02-.121 2.719-1.551 2.786-1.476.019.023.062.66.089 1.414.051 1.281.043 1.371-.089 1.363-.079-.004-.747-.27-1.477-.594v-.004zm34.273-1.871c-.031-.769-.019-1.359.02-1.402.121-.117 2.871 1.078 2.871 1.246 0 .094-.418.344-1.351.812-.747.372-1.383.676-1.422.676-.039 0-.09-.597-.121-1.328l.003-.004zm-33.23-.594c-.156-.109-.719-.48-1.25-.82-.531-.34-.961-.676-.961-.742l.027-.121c.016 0 .633-.184 1.371-.41 1.559-.473 1.754-.5 1.684-.215-.074.293-.293 1.769-.316 2.141-.028.402-.164.445-.555.171v-.004zm1.742-1.671c-.418-.395-.758-.782-.758-.86l.032-.14 1.058-.317c.563-.176 1.07-.289 1.125-.254.074.047.047.278-.109.953-.117.489-.223.985-.235 1.094-.046.395-.312.281-1.109-.476h-.004zm31.395.629c-.02-.063-.078-.352-.129-.645-.051-.293-.164-.816-.25-1.16s-.16-.668-.16-.719c0-.141.285-.105 1.718.231.993.23 1.36.347 1.375.441.016.086-.375.43-1.125.996-1.254.945-1.375 1.016-1.433.852l.004.004zm-5.078-.418l-.243-.758c-.339-1.051-.285-1.188.368-.856.179.094.414.2.519.242.172.067.188.055.149-.105-.024-.098-.153-.437-.286-.75-.293-.695-.343-.91-.246-.969.043-.023.367.024.727.114l.785.191c.117.027.125 0 .062-.164-.093-.25-.675-1.414-.824-1.649-.195-.312-.035-.351 1.157-.285.949.055 1.105.082 1.128.203.028.149-.882 1.645-1.144 1.879-.086.075-.152.172-.152.219 0 .16-.844 1.406-.954 1.406-.062 0-.113.071-.113.16 0 .086-.152.403-.344.696-.324.512-.527.66-.589.433v-.007zm-1.684-3.797c0-.035-.207-.332-.457-.66-.25-.329-.434-.637-.402-.68.054-.09 1.027-.113 1.332-.035.222.058.226.144.046.91-.109.469-.171.594-.285.594l-.234-.129zm4.352 3.144c-.149-.367-.583-1.851-.583-1.984 0-.18.196-.164 1.309.101.695.168.949.262.969.364.027.144-1.309 1.64-1.508 1.687-.062.016-.148-.058-.187-.164v-.004zm-31.094-1.551c-.586-.546-1.078-1.046-1.09-1.105-.035-.152.016-.168 1.613-.359.961-.118 1.449-.145 1.508-.09.059.054.027.222-.09.519-.097.239-.277.785-.402 1.211-.145.496-.27.785-.348.797-.066.012-.601-.426-1.187-.973h-.004zm27.449-.418c-.207-.421-.375-.808-.375-.863 0-.129.187-.125.738.024.528.14.575.148.575.054 0-.039-.204-.394-.45-.785-.25-.394-.453-.769-.453-.832 0-.086.141-.113.594-.113.836 0 1.207.074 1.207.234.004.235-.594 1.567-.699 1.567-.059 0-.086.062-.067.144.051.207-.41 1.285-.562 1.317-.09.019-.238-.204-.504-.739l-.004-.008zm-24.574-.164c-.594-.808-.742-1.125-.516-1.125.059 0 .547-.054 1.086-.121.539-.066 1.008-.121 1.043-.121.129 0 .051.313-.269 1.067l-.411.961c-.043.101-.129.183-.195.183s-.398-.379-.738-.84v-.004zm29.957.286c-.188-.528-.649-1.668-.781-1.934-.102-.203-.129-.344-.079-.395.047-.046.653-.054 1.598-.019 1.301.051 1.527.078 1.547.191.031.153-1.953 2.301-2.125 2.301-.063 0-.133-.066-.16-.144zm-31.754-2.684c-.941-1.262-1.027-1.488-.524-1.402.145.027.833.07 1.524.101.926.043 1.266.086 1.297.164.023.059-.09.324-.25.59-.16.262-.426.762-.59 1.109-.195.411-.344.629-.434.629-.078 0-.519-.511-1.023-1.187v-.004zm2.957.004c-.258-.52-.469-1.004-.469-1.078 0-.117.117-.129 1.086-.09.598.023 1.16.074 1.25.109.145.059.152.047.055-.07-.117-.145-.668-1.895-.668-2.129 0-.187.101-.184 1.289.078.703.153 1.004.254 1.004.336 0 .063-.336.473-.746.906-.657.7-.723.793-.551.813l.894.086.704.062-.063-.289c-.035-.16-.09-.574-.121-.926-.066-.746-.113-.722 1.016-.5.543.11.695.172.754.309.039.094.07.125.074.07.008-.136.222-.129.91.028.43.097.566.16.562.265-.007.133-1.304 1.16-1.468 1.16-.047 0-.082-.269-.082-.656 0-.359-.032-.656-.067-.656s-.336.246-.664.547c-.68.621-.668.664.18.676.344.004.488.039.519.129.055.148-1.089 1.39-1.281 1.39-.094 0-.144-.16-.207-.652l-.082-.652-.191.203c-.106.113-.356.429-.555.707-.359.5-.559.66-.645.519-.027-.039-.148-.41-.277-.824l-.23-.75-.246.297c-.137.164-.411.574-.606.91-.199.336-.414.609-.484.609-.078-.004-.305-.359-.594-.945v.008zm27.777.105c-.07-.058-.265-.343-.437-.636s-.457-.743-.629-1c-.172-.258-.313-.504-.313-.551 0-.113.176-.149 1.473-.293.609-.07 1.227-.149 1.371-.172.192-.035.277-.016.313.074.039.094-1.309 2.309-1.594 2.621-.031.032-.113.016-.184-.043zm-2.801-.308c-.082-.137-.367-.528-.636-.867-.27-.34-.477-.661-.461-.715.043-.121 2.199-.399 2.308-.297.071.066-.148.683-.628 1.773-.184.418-.379.449-.583.102v.004zm-3.933-.383c-.555-.512-.727-.777-.563-.871.036-.02.368-.063.739-.094l.679-.059-.023.762c-.016.508-.055.77-.121.793-.055.02-.375-.219-.707-.527l-.004-.004zm2.078.484c0-.035-.262-.347-.582-.695-.32-.352-.563-.684-.539-.742.031-.086 1.23-.301 1.691-.301.121 0 .11.34-.027.891l-.168.687c-.035.152-.102.227-.215.227-.09 0-.16-.028-.16-.063v-.004zm-23.82-1.277c-.043-.051-.367-.676-.723-1.383-.414-.832-.617-1.316-.566-1.367.109-.105 3.004.57 3.05.711.02.058-.183.371-.445.695-.265.324-.605.762-.754.973-.301.422-.445.519-.562.367v.004zm20.09-.52c-.368-.25-.657-.507-.657-.582 0-.093.164-.179.594-.293.43-.117.57-.187.516-.257-.118-.137-1.457-.829-1.508-.778-.024.024.027.282.117.575.262.867.266.867-.699.453-.36-.157-.719-.301-.797-.325-.078-.023-.145-.097-.145-.16 0-.152 1.129-.734 1.325-.683.093.023.148-.004.148-.075 0-.066.348-.289.781-.503.614-.305.797-.364.848-.278.121.192.254 1.672.164 1.781-.055.067-.051.11.012.129.109.035.234.614.238 1.11.004.465-.113.449-.937-.114zm1.968-.027c-.133-.137-.433-.387-.672-.551-.238-.164-.437-.359-.437-.433 0-.094.199-.196.68-.356 1.089-.355 1.046-.383 1.023.66-.023.813-.039.883-.191.903-.098.015-.262-.074-.407-.227l.004.004zm2.094-.152c-.047-.09-.371-.41-.723-.715-.347-.305-.644-.602-.664-.66-.011-.059.078-.149.207-.199.395-.153 1.817-.567 1.95-.567.175 0 .156.215-.106 1.313-.195.812-.25.945-.402.968-.11.016-.207-.035-.262-.136v-.004zm-16.391-.196c0-.101.036-.312.075-.468l.121-.512.051-.223-.43.254c-.235.137-.586.36-.774.489-.355.242-.566.296-.617.156-.015-.043-.004-.461.024-.922.082-1.344.136-2.449.144-2.867.008-.34.031-.391.18-.391.242 0 1.871 1.074 1.875 1.234 0 .079-.172.207-.43.325-.59.265-1.453.757-1.453.824 0 .031.063.074.145.101.449.137 1.222.5 1.312.614.09.113.102.105.106-.071.003-.421.375-1.675.503-1.699.071-.015.344.117.61.293.265.176.566.363.668.418.101.055.183.152.183.219 0 .066.071.121.161.121.086 0 .398.152.691.34.414.262.519.367.465.465-.063.113-1.059.468-1.582.566-.285.051-.289-.059-.02-.668.25-.566.254-.621.02-.558-.324.082-1.664.667-1.535.671.261.004 1.226.457 1.226.575 0 .117-1.414.902-1.625.902-.051 0-.094-.086-.094-.188zm18.762-.421c-.176-.231-.547-.637-.82-.907-.274-.269-.496-.547-.496-.621 0-.097.23-.203.879-.398.484-.145 1.125-.348 1.418-.449.55-.188.73-.192.73-.024 0 .051-.258.707-.574 1.453-.375.883-.617 1.36-.695 1.36-.067 0-.266-.188-.446-.414h.004zm-22.234-.282c-.09-.144-.305-2.25-.238-2.316.113-.113 2.152.754 2.152.914 0 .074-.176.258-.387.41-.215.152-.601.453-.863.668-.481.395-.586.449-.664.324zm12.316-.429c-.293-.082-.629-.149-.75-.153-.219-.004-.347-.16-.246-.301.027-.042.246-.222.484-.398.239-.18.403-.352.368-.387-.036-.035-.45-.113-.922-.172-.637-.078-.864-.14-.883-.23-.035-.187 1.066-1.344 1.227-1.285.179.07.828 1.355.777 1.547-.027.097 0 .152.074.152.141 0 .719 1.121.656 1.277-.054.137-.101.133-.785-.058v.008zm-14.933-.629c-.075-.258-.262-.875-.422-1.367-.426-1.321-.399-1.387.41-1.028.269.121.875.383 1.34.578.468.196.867.41.894.473.028.066-.101.23-.316.406-.199.16-.621.543-.942.852-.32.304-.636.554-.707.554-.086 0-.171-.16-.261-.468h.004zm9.859.363c0-.156.648-1.121.793-1.176.055-.019.086-.082.066-.133-.039-.109.856-1.464.993-1.507.105-.032 1.097 1.25 1.097 1.418 0 .062.035.117.074.117.039 0 .266.242.5.539.493.629.5.82.02.742-.168-.027-.574-.051-.899-.051-.738 0-.761-.094-.179-.738.48-.535.472-.539-.738-.449l-.778.058.469.434c.719.664.707.672-.863.828-.477.047-.555.039-.555-.074v-.008zm10.156-.461c-.472-.312-.918-.625-.988-.695-.07-.071-.18-.129-.246-.129-.063 0-.485-.16-.934-.36-.449-.195-.883-.378-.965-.406-.078-.027-.144-.101-.144-.168 0-.16 1.699-1.441 1.84-1.39.07.027.156.421.254 1.175l.144 1.133.988-.519c.661-.348 1.028-.496 1.102-.453.094.058.102.269.043 1.199-.039.621-.109 1.14-.156 1.152-.043.012-.469-.23-.942-.543l.004.004zm-4.012-.207c-.535-.18-.777-.301-.777-.387 0-.168 1.16-1.062 1.336-1.031.141.027.57 1.152.582 1.52.008.242-.152.23-1.141-.102zm6.922-.336c-.183-.156-.636-.512-1.011-.789-.371-.273-.664-.539-.649-.59.039-.117 2.508-1.426 2.715-1.433.137-.008.149.035.102.382-.129.934-.586 2.68-.707 2.7-.071.011-.27-.11-.45-.27zm-14.375.059c0-.246.625-1.567.739-1.567.152 0 1.265 1.071 1.265 1.215 0 .098-.175.164-.695.274-1.363.277-1.313.273-1.313.082l.004-.004zm-6.265-.934c-.039-.113-.367-2.762-.367-2.965 0-.156.23-.164.402-.015.07.062.637.429 1.25.824.769.488 1.109.75 1.078.828-.023.062-.254.234-.508.375-.254.144-.726.441-1.054.66-.622.418-.743.465-.801.297v-.004zm4.597-.047c-.027-.047.043-.465.153-.929.113-.465.207-.903.207-.977 0-.07.051-.195.113-.281.109-.149.121-.149.348.031.508.394 1.492 1.418 1.457 1.512-.02.054-.239.144-.489.203-.246.058-.66.179-.918.269-.664.235-.812.262-.871.168v.004zm8.918-.429c-.269-.086-.656-.176-.859-.204-.848-.117-.852-.183-.02-1.035.348-.355.665-.703.7-.769.035-.067.132-.117.215-.117.121 0 .207.203.449 1.003.164.551.297 1.067.297 1.149-.004.176-.145.172-.782-.027zm4.789-.333c-.207-.124-.695-.386-1.086-.574-.484-.234-.718-.394-.718-.488 0-.078.176-.27.39-.426.215-.156.735-.547 1.153-.867.422-.32.82-.582.89-.582.114 0 .121.172.067 1.488-.035.817-.078 1.532-.098 1.586-.058.149-.207.117-.605-.133l.007-.004zm-11.304-.007c0-.211.844-2.11.941-2.11.113 0 1.434 1.727 1.434 1.871 0 .051-.047.094-.102.094-.055 0-.508.055-1.004.121-1.101.149-1.269.149-1.269.02v.004zm4.215-.067c-.223-.035-.692-.066-1.039-.07-.344-.004-.653-.047-.68-.094-.074-.117 1.117-1.953 1.273-1.957.075-.004.313.367.629.981.446.871.492.996.383 1.105l-.137.113-.426-.074-.003-.004zm-8.621-.55c-.18-.059-.063-3.133.121-3.192.054-.019.386.238.738.57.351.332.851.801 1.113 1.043.262.243.465.493.449.555-.011.063-.246.188-.515.277-.27.09-.785.301-1.149.469-.363.168-.703.293-.757.274v.004zm13.21-.586c-.261-.114-1.168-.403-1.98-.625-.051-.016-.086-.082-.078-.149.027-.187 1.957-2.258 2.109-2.262.11 0 .156.192.27 1.043.164 1.25.203 2.082.086 2.118-.043.011-.231-.043-.41-.122l.003-.003zm-10.64-.485c-.028-.047.097-.722.277-1.5.18-.781.328-1.445.328-1.48 0-.035.067-.063.149-.063.179 0 1.847 2.164 1.855 2.406.004.141-.078.18-.57.262-.524.09-1.371.278-1.813.406-.097.028-.199.012-.226-.031zm7.969-.297c-.039-.035-1.95-.289-2.18-.289-.059 0-.106-.043-.106-.093 0-.196 1.602-2.602 1.731-2.606.098-.004.191.188.351.711l.418 1.355c.258.813.258.957.012.957-.105 0-.207-.015-.23-.039l.004.004zm-5.114-.308c-.062-.168 1.032-2.762 1.207-2.856.121-.066.235.114.797 1.235.363.718.66 1.382.66 1.472 0 .157-.05.168-.879.168-.484 0-1.074.024-1.308.051-.336.039-.438.023-.473-.07h-.004z" sketch:type="MSShapeGroup"/><path d="M33.211 43.641c-.219-.438-.387-.805-.375-.817.012-.012.375-.035.809-.051.57-.019.789-.015.789.024 0 .027-.153.41-.34.844-.227.535-.364.789-.41.789-.047 0-.215-.285-.469-.793l-.004.004zm-1.52.668c-.05-.086-.468-1.504-.472-1.61-.008-.137-.016-.137.652-.031l.691.105c.122.016.223.047.223.075 0 .023-.133.254-.297.504l-.468.726c-.157.246-.274.328-.329.234v-.003zm3.309-.774c-.273-.367-.5-.691-.508-.723-.019-.082.016-.093.508-.179.246-.043.559-.11.695-.153.172-.05.266-.058.301-.023.035.035 0 .258-.101.723-.231 1.015-.235 1.027-.325 1.027-.047 0-.277-.266-.574-.668l.004-.004zm-5.191.281c-.079-.378-.2-1.664-.164-1.699.027-.027.125-.015.265.043.121.047.445.152.715.235.27.082.5.175.512.207.011.035-.149.234-.352.445-.203.211-.469.496-.586.633-.234.265-.355.308-.387.14l-.003-.004zm7.156-.492l-.637-.597c-.133-.125-.246-.254-.246-.286 0-.031.164-.117.363-.191.203-.074.5-.191.668-.266.449-.203.457-.195.434.387-.031.856-.074 1.285-.133 1.305-.031.012-.234-.149-.445-.352h-.004zm-8.891-.191c-.012-.02 0-.434.028-.918.039-.703.062-.883.113-.883.035 0 .23.094.43.207.199.113.484.266.632.332.176.078.27.152.27.203 0 .047-.27.278-.676.586-.652.485-.754.547-.797.469v.004zm10.903-.379c-.016-.02-.321-.227-.684-.457-.367-.235-.66-.449-.66-.492 0-.039.109-.133.246-.207.133-.075.418-.25.629-.387.211-.141.402-.254.43-.254.027 0 .062.133.082.301l.117.883c.043.32.074.597.062.617-.027.051-.191.047-.219 0l-.003-.004zm.171-6.418c.02.019.29-.555.336-.727.059-.199.188-.121.344.211l.164.387.063.117c.086.078.441.781.441.875l.043.09c.074 0 .645 1.168.594 1.219-.031.027-.285.035-.688.012l-.636-.032.058.211.188.629c.074.25.109.434.086.461-.024.027-.258-.008-.582-.082-.844-.191-.77-.187-.735-.062.071.273.145 1.175.098 1.218-.031.035-.227-.027-.61-.191-.308-.133-.589-.262-.621-.289-.046-.039-.058.043-.062.39-.004.614-.051.961-.125.961-.098 0-1.086-.652-1.109-.73l-.024.047c-.004.062-.059.34-.125.609l-.141.602c-.015.058-.054.105-.089.105-.039 0-.27-.191-.52-.426-.25-.234-.469-.414-.488-.402-.02.012-.141.277-.27.59-.152.367-.258.566-.304.566-.039 0-.235-.222-.438-.496-.199-.269-.383-.492-.406-.492-.02 0-.192.231-.379.52-.188.285-.367.515-.399.515-.031 0-.195-.269-.355-.601l-.332-.668c-.309-.559-.461-.879-.441-.93l-.02-.059c-.07 0-.414-.66-.391-.75.02-.074.051-.074.477.032.25.062.746.136 1.102.168.734.058.773.086.476.367-.332.316-.324.328.25.324h.508l-.274-.258c-.328-.308-.335-.41-.031-.429l.512-.059c.164-.024.32-.031.34-.02.074.047.039.161-.117.383-.258.371-.258.36-.051.32.418-.074.816-.175.816-.207 0-.019-.117-.105-.261-.195-.278-.176-.395-.316-.29-.351l.485-.153.476-.148c.11-.031.106.133-.011.422l-.164.351c-.043.047.531-.156.867-.312l.129-.063-.34-.152c-.188-.086-.348-.184-.356-.219-.011-.043.141-.144.43-.289.246-.121.465-.223.492-.223.094 0 .102.09.028.403-.039.172-.063.328-.051.336.035.039.828-.45.828-.504l-.176-.063c-.555-.09-.672-.199-.394-.367.093-.058.285-.199.425-.312.348-.282.395-.25.356.23-.039.457-.043.457.476-.019l.329-.301-.391-.035c-.215-.02-.398-.055-.414-.075-.035-.058.695-.836.766-.808.031.012.07.152.085.312.047.426.075.45.262.231l.321-.41.16-.223-.196.027-.382.059c-.141.019-.196.012-.215-.043-.035-.086.5-.902.59-.902.074 0 .296.644.269.773l.039.121c.031.027.102.207.156.399l.125.418c.012.042.078-.008.18-.141.211-.277.555-.84.508-.84l-.457.066c-.231.036-.438.055-.461.043-.07-.043-.031-.164.199-.593l.235-.465c0-.016-.165.023-.364.086-.254.078-.379.097-.418.062l-.074-.008.066-.144zm-5.699 5.16l-.258-.367c-.14-.188-.257-.367-.257-.395l-.047-.082-.02.047c.02.051-.078.188-.293.414l-.32.34.211.027c.277.04.984.047.984.016zm.809-.027c.265-.028.512-.067.547-.086.043-.024-.032-.121-.258-.328-.176-.16-.336-.328-.356-.371l-.035.015c-.004.051-.074.199-.16.328-.297.446-.324.493-.273.493l.535-.055v.004zm1.508-.332c.226-.075.449-.133.492-.133.043 0-.11-.121-.34-.262-.23-.144-.445-.301-.477-.34l-.089-.043.019.036c.09 0 .063.113-.109.511l-.164.403c0 .035.16-.004.672-.172h-.004zm1.41-.594c.176-.094.32-.184.32-.199 0-.016-.187-.106-.41-.196-.285-.117-.41-.191-.406-.246l-.035-.047-.043.153c0 .07-.04.297-.086.512l-.086.382.218-.093c.122-.051.36-.172.532-.266h-.004zm-4.414.027c-.121-.207-.414-.55-.438-.519-.039.051-.375.304-.496.371-.094.055-.094.058.02.086.156.039.648.109.812.117.094.004.121-.012.098-.055h.004zm5.324-.605l.453-.348.129-.105-.434-.106c-.238-.058-.453-.121-.48-.144-.031-.024-.051.133-.063.453-.007.281.004.492.028.492.023 0 .187-.113.367-.242zm1.094-1.516c-.278-.019-.5-.062-.52-.094h-.035l.043.083c.023.015.059.214.078.437.016.227.047.43.059.457.015.023.215-.156.445-.398l.418-.446-.484-.043-.004.004zm-8.047 4.024c-.024-.039-.313-1.008-.348-1.176-.031-.137.043-.137.762.031.43.098.562.149.562.207 0 .094-.808.973-.894.973l-.086-.035h.004zm-4.672-.403c-.016-.035.004-.179.043-.316l.199-.828c.07-.317.156-.582.188-.598.031-.012.129.039.214.117.086.078.352.293.59.477.243.183.43.355.422.383-.015.05-1.484.824-1.574.828l-.086-.063h.004zm3.109-.179c-.05-.231-.129-1.164-.105-1.227l-.016-.109c-.047-.047-.137-.606-.137-.852 0-.105.02-.152.071-.152.039 0 .265.105.508.234l.464.235c.024 0-.085-.395-.171-.61l.015-.137c.035-.054.121-.031.489.129.246.11.472.192.5.192l.042.082c-.007.051-.156.156-.343.258l-.328.171.14.055c.078.035.297.106.492.164.395.117.504.219.352.324l-.371.282c-.152.117-.317.218-.363.218l-.086.067c0 .082-.93.781-1.043.781-.051 0-.094-.043-.11-.105zm1.02-1.176c-.067-.215-.125-.438-.129-.492-.008-.121-.07-.207-.07-.098 0 .039-.118.129-.266.199l-.41.219-.145.086.375.172c.364.168.672.293.735.301.019.003-.024-.172-.09-.383v-.004zm9.219.609c-.563-.246-.766-.355-.766-.414 0-.047.102-.164.223-.262.121-.101.367-.316.539-.48.172-.164.34-.293.371-.281.031.011.105.175.16.367l.234.773c.153.5.164.606.071.618-.039.003-.414-.141-.832-.325v.004zm-11.633-.117c-.008-.051.015-1.051.027-1.187.004-.067.043-.125.082-.133.102-.02 1.117.656 1.117.742 0 .047-.203.176-.543.34-.515.258-.675.312-.687.234l.004.004zm-3.098-.473c0-.129.637-1.582.703-1.601.031-.012.157.094.278.234l.488.539c.148.156.273.321.273.356 0 .047-.246.144-.812.312-.446.137-.836.246-.871.246l-.059-.086zm2.692-3.879l-.059.008.039.051.117.137c.043.074.176.254.293.394.117.145.211.297.211.336l.035.055c.02-.012.223.156.453.375.231.215.426.394.438.394l.355.231c.188.125.375.238.422.258.047.015.082.074.082.125 0 .074-.066.113-.332.191-.179.055-.383.09-.445.078l-.09.02-.086.082c-.23.094-.746.238-.848.238l-.156.043c-.101.102-1.336.438-1.336.367 0-.113.301-1.293.344-1.347l-.019-.016c-.063.047-1.032.195-1.297.199-.102 0-.063-.16.171-.734l.231-.559-.313-.027c-.171-.016-.464-.031-.652-.035-.305-.008-.34-.016-.34-.098 0-.148.621-1.086.719-1.086.059 0 .125.086.207.27.066.144.195.394.285.547l.164.277.18-.418c.098-.231.211-.426.25-.434l.047-.086-.067-.011c-.031.047-.117.043-.421-.024-.536-.113-.625-.152-.594-.258.043-.16.515-.855.57-.839.027.007.141.234.25.5l.219.503c.012.012.082-.121.152-.296.121-.293.188-.387.262-.391.016 0 .125.199.246.445.117.246.227.446.246.446l.067.089zm.535 1.957c.015-.039-.028-.042-.153-.019l-.507.07-.336.032.906.851.035-.441c.02-.246.043-.469.055-.496v.003zm.941.297l-.039-.367c0-.058-.039-.066-.215-.039l-.426.039c-.117.004-.179.02-.14.035.039.016.176.118.304.223.239.195.504.395.532.398l-.02-.293.004.004zm-1.961-.711l.121-.496c.035-.117.09-.359.121-.543.032-.179.078-.359.11-.394l.004-.039c-.028.015-.18 0-.344-.039-.164-.039-.317-.063-.34-.055-.023.008.078.199.219.426.347.547.34.578-.164.558-.219-.007-.434-.019-.481-.031-.078-.015-.078-.008-.004.113.09.141.293.411.504.676.078.094.153.16.168.141.016-.016.055-.16.086-.313v-.004zm1.035-.269l.004-.27h-.355c-.41 0-.41-.019 0 .442.265.301.285.312.316.211.02-.063.035-.235.039-.383h-.004zm12.746 1.933c-.429-.105-.796-.207-.82-.23-.027-.027.012-.113.106-.223.082-.097.293-.363.46-.589.172-.227.34-.411.376-.411.074 0 .816 1.411.816 1.547 0 .129-.008.129-.942-.094h.004zm-17.14-.8c-.016-.024.179-.367.433-.762.5-.766.598-.852.707-.605.036.078.2.347.368.601.168.254.296.496.293.531-.012.051-.165.09-.602.145-.957.125-1.168.14-1.199.086v.004zm18.269-.657l-.738-.039c-.262-.011-.262-.058.035-.57.129-.223.278-.508.332-.629.059-.14.125-.219.176-.219.043 0 .164.125.266.27.101.148.332.457.507.684.188.238.313.445.297.484-.015.043-.082.062-.179.059l-.696-.043v.003zm-18.246-.945c-.844-.043-.894-.051-.894-.14 0-.09 1.125-1.282 1.207-1.282.043 0 .133.164.246.446.097.246.222.543.277.656.121.25.125.312.027.351l-.082.02-.781-.051zm16.61-.449c-.016-.035.07-.289.187-.566.309-.739.32-.68-.098-.547-.554.172-.57.175-.593.105-.024-.058.242-.937.32-1.062.063-.102.109-.067.387.297.148.195.289.335.308.316.024-.02.075-.184.118-.367l.132-.559c.032-.129.078-.238.11-.25.062-.019 1 .828 1 .91 0 .035-.254.141-.606.25-.672.211-.691.219-.722.133l-.028.024.055.085c.086.004.797.977.777 1.071-.019.109-1.301.261-1.34.164l-.007-.004zm1.461-.172c-.016-.039.039-.246.113-.461.144-.402.215-.625.262-.848.046-.21.175-.156.621.262l.617.57c.34.309.336.313-.668.426-.363.039-.719.086-.789.098-.09.019-.137.004-.156-.043v-.004zm-16.965-.664l-.555-.137c-.098-.023-.129-.058-.117-.121.015-.109.789-.98.875-.984l.101.101c.094.243.332 1.067.332 1.157 0 .125-.074.121-.632-.016h-.004zm-1.731-.398c-.433-.098-.801-.192-.816-.207v-.094c.035-.09 1.324-1.063 1.41-1.063.055 0 .246.762.348 1.399.031.191.058.191-.942-.035zm3.403-.235c-.165-.074-.325-.164-.352-.199l-.125-.051c-.043.008-.266-.066-.496-.168-.336-.148-.414-.203-.402-.273.015-.094.558-.692.648-.715.078-.02.137.117.176.391.015.128.066.335.105.461l.074.226.184-.297.184-.324c0-.02-.414-.309-.7-.492l-.461-.293c-.214-.137-.39-.278-.39-.317l-.07-.043c-.082.032-1.153-.664-1.153-.75 0-.031.266-.195.59-.363.457-.234.598-.289.629-.242l.062-.031c.028-.106.852-.547.93-.5l.043-.024-.058-.05c-.086-.004-.571-.657-.575-.77-.004-.082.071-.121.446-.25.246-.082.472-.141.504-.133l.085-.023-.046-.047c-.106 0-.5-.801-.446-.899.028-.046.141-.086.336-.105l.489-.059c.164-.023.199-.011.218.059l.028.008c.007-.098.074-.117.511-.157.293-.027.34-.019.34.043 0 .114-.515.875-.594.875-.074 0-.074.004-.179-.386-.043-.149-.094-.27-.117-.27-.047 0-.493.844-.461.875.011.012.144-.023.293-.074.363-.125.445-.121.445.016l-.039.152c-.024.023-.102.199-.176.391-.074.191-.16.355-.187.367l-.032.109c.012.047-.008.199-.047.336s-.086.352-.105.473c-.043.304-.137.289-.395-.063-.144-.199-.218-.265-.242-.222-.039.074-.152.937-.125.961.008.007.145-.079.297-.192.152-.117.309-.211.344-.211.051 0 .058.106.039.551-.027.672-.059.691-.445.324l-.27-.258.023.485c.012.265.036.5.055.515.016.016.125-.078.246-.211.266-.293.379-.296.399-.023l.058.512c.039.254.035.336-.011.363l.011.039c.047 0 .114.141.203.438.215.703.204.722-.293.507l-.003.008zm-1.223-2.379c.152-.117.336-.246.41-.281l.07-.07c-.031 0-.199-.133-.367-.293l-.347-.309-.067.137c-.039.187-.039 1.031-.004 1.031l.305-.215zm1.07-1.859l.305-.18c.043-.039-.234-.617-.293-.617-.024 0-.098.188-.164.41l-.141.469c-.027.082 0 .074.297-.09l-.004.008zm15.938 3.922l.019-.25c.024-.09.067-.406.098-.703.047-.422.074-.539.129-.539.105 0 1.504.918 1.504.988 0 .035-.246.137-.621.258l-.832.261c-.262.086-.274.082-.293-.015h-.004zm-2.903-.047c0-.047.047-.289.102-.543.078-.344.121-.457.176-.457.043 0 .175.129.293.289l.222.289.032-.18.089-.554c.028-.207.079-.383.11-.395.031-.012.191.11.355.266.164.156.321.285.352.285.055 0 .094-.281.117-.914.012-.231 0-.379-.019-.324-.028.078-.34.328-.778.629l-.379.292c-.152.122-.316.223-.367.223-.082 0-.086-.027-.059-.359l.032-.539c0-.258.105-.239.422.074l.257.258-.011-.574-.016-.575-.269.301c-.332.371-.399.363-.422-.051-.008-.164-.036-.39-.059-.504-.078-.347-.016-.363.395-.105.16.101.296.18.308.172.012-.012-.031-.25-.09-.535-.058-.286-.093-.536-.074-.555.043-.043.281.039.723.246l.367.16c.066 0 1.09.446 1.148.5.09.078.063.11-.507.535-.258.192-.473.364-.473.375 0 .012.242.18.539.368.297.187.539.371.539.402 0 .031-.269.191-.598.355l-.668.336c-.425.235-.91.465-.929.442l-.078.043c-.055.07-.668.402-.739.402l-.039-.082-.004.004zm1.817-2.656l-.086-.629-.055-.336-.301.347c-.164.192-.328.344-.367.344l-.066.047.082.047c.047 0 .242.105.433.234l.372.235-.012-.293v.004zm-16.418 2.289l-.539-.231c-.289-.117-.399-.187-.399-.246 0-.097.946-.832 1.032-.801.031.012.082.243.117.532l.086.664c.019.125.011.152-.063.148l-.23-.07-.004.004zm-1.988-.84c-.528-.231-.762-.356-.75-.402.011-.071 1.562-.891 1.601-.848.012.012.035.379.051.812.027.735.027.789-.051.782-.047-.004-.426-.157-.848-.34l-.003-.004zm19.675-1.074c-.019-.442-.015-.782.012-.805.07-.066 1.648.617 1.648.715 0 .054-.238.195-.777.465-.426.215-.793.386-.812.386-.024 0-.055-.343-.071-.761zm-19.074-.34l-.719-.469c-.304-.195-.554-.387-.554-.426l.015-.07.789-.234c.895-.274 1.008-.286.965-.125-.043.168-.168 1.015-.179 1.226-.016.231-.094.254-.317.098zm1-.957c-.238-.227-.433-.449-.433-.492l.019-.082.605-.18c.325-.102.614-.164.645-.149.043.028.027.161-.062.547-.067.282-.129.563-.137.629-.028.227-.18.16-.637-.273zm18.024.359l-.075-.371c-.027-.168-.093-.469-.144-.668l-.09-.41c0-.082.164-.059.988.133.571.133.778.199.789.254.012.047-.215.246-.644.574-.719.543-.789.586-.824.488zm-2.915-.238l-.14-.438c-.195-.605-.164-.683.207-.492l.297.137c.097.039.109.031.086-.063-.012-.054-.086-.25-.164-.429-.168-.399-.196-.52-.141-.559.023-.016.211.016.418.067l.453.109c.066.016.074 0 .035-.094-.054-.144-.386-.812-.472-.945-.114-.18-.02-.203.664-.164.547.031.632.047.648.117.016.086-.508.945-.656 1.078l-.086.129c0 .094-.484.809-.547.809l-.062.089c0 .051-.09.231-.196.399-.187.293-.304.379-.34.25h-.004zm-.968-2.18c0-.019-.121-.191-.262-.379-.145-.187-.25-.363-.23-.39.031-.051.589-.067.765-.02.129.035.129.086.027.524-.062.269-.097.339-.164.339l-.136-.074zm2.5 1.805c-.082-.211-.332-1.063-.332-1.137 0-.101.113-.094.754.059.398.093.543.148.554.207.016.082-.75.941-.867.969-.035.007-.086-.032-.109-.094v-.004zm-17.852-.895c-.336-.312-.617-.601-.625-.632-.019-.09.008-.098.926-.208.555-.066.832-.085.863-.05.031.031.016.129-.054.297-.055.136-.161.449-.231.695-.082.285-.156.449-.199.457-.039.008-.344-.246-.684-.559h.004zm15.758-.238c-.121-.242-.219-.465-.219-.496 0-.074.106-.07.422.012.305.082.328.086.328.031 0-.02-.117-.223-.258-.453-.14-.227-.257-.442-.257-.477 0-.051.082-.066.339-.066.481 0 .692.043.696.137 0 .136-.34.898-.403.898l-.039.082c.032.117-.234.738-.324.754-.051.012-.141-.117-.289-.426l.004.004zm-14.109-.094c-.34-.461-.426-.644-.297-.644l.621-.071.597-.07c.075 0 .028.18-.156.61l-.234.55c-.024.059-.074.106-.11.106-.039 0-.226-.219-.425-.481h.004zm17.199.164c-.11-.3-.375-.957-.449-1.109-.059-.117-.075-.199-.047-.227.027-.027.375-.035.918-.011.746.027.875.043.89.109.02.086-1.121 1.32-1.218 1.32l-.09-.082h-.004zm-18.231-1.539c-.539-.722-.589-.855-.3-.804.085.015.476.039.875.058.531.024.726.051.746.094.011.035-.051.187-.145.336-.094.152-.242.437-.34.637-.109.234-.199.359-.25.359-.043 0-.297-.293-.586-.684v.004zm1.696 0c-.149-.297-.27-.574-.27-.617 0-.07.067-.074.621-.051.344.016.664.043.719.063l.031-.039c-.066-.082-.383-1.086-.383-1.223 0-.109.059-.105.739.043.402.09.578.149.578.191 0 .036-.192.27-.426.52-.379.402-.414.457-.316.465l.515.047.403.035-.036-.168c-.019-.09-.05-.328-.07-.531-.039-.43-.066-.414.582-.285.313.062.399.097.43.175l.043.039c.004-.078.129-.074.523.016.246.055.324.094.324.152-.003.078-.75.668-.843.668-.028 0-.047-.156-.047-.375 0-.207-.016-.375-.039-.375-.02 0-.192.141-.383.313-.391.355-.383.383.102.387.199.003.281.023.3.074.032.086-.625.801-.734.801-.055 0-.082-.094-.117-.375l-.047-.375-.11.117c-.062.062-.203.246-.32.406-.207.289-.32.379-.371.301l-.16-.473-.133-.43-.14.172c-.079.094-.235.328-.348.524-.113.191-.238.351-.278.351-.046 0-.175-.207-.343-.539l.004-.004zm15.945.059c-.039-.031-.152-.195-.254-.363l-.359-.575c-.098-.148-.18-.289-.18-.316 0-.066.102-.086.848-.168l.785-.098c.109-.019.16-.007.18.043.019.055-.754 1.325-.915 1.504l-.105-.023v-.004zm-1.609-.176c-.047-.078-.211-.301-.364-.496-.156-.195-.273-.379-.265-.41.023-.07 1.261-.231 1.324-.168.043.039-.086.394-.363 1.019-.106.239-.215.258-.336.059l.004-.004zm-2.258-.219c-.321-.293-.418-.445-.324-.5.019-.011.211-.035.425-.054l.391-.035-.016.437c-.011.293-.031.441-.07.457-.031.008-.215-.125-.406-.305zm1.191.278c0-.02-.148-.199-.332-.403-.183-.203-.324-.394-.308-.425.015-.051.707-.172.968-.172.071 0 .063.195-.015.511l-.094.395c-.02.086-.059.129-.121.129l-.094-.035h-.004zm-13.668-.731c-.023-.031-.211-.39-.414-.797-.238-.476-.355-.754-.324-.785.062-.062 1.723.328 1.75.41.012.036-.106.211-.258.399-.152.187-.348.437-.433.558-.172.243-.258.297-.325.211l.004.004zm11.531-.297c-.21-.144-.375-.293-.375-.336 0-.054.094-.101.34-.168.25-.066.328-.105.297-.148-.066-.078-.836-.477-.867-.445-.016.015.016.164.066.328.153.496.153.496-.398.262l-.457-.188-.082-.094c0-.086.648-.422.758-.39l.086-.043c0-.035.199-.164.449-.289.351-.176.457-.207.488-.16.07.109.149.96.094 1.023l.008.074c.062.02.133.352.136.637.004.266-.062.258-.535-.067l-.008.004zm1.129-.015c-.074-.078-.25-.223-.386-.317-.137-.093-.25-.207-.25-.246 0-.054.113-.113.39-.203.625-.203.602-.219.586.379-.012.469-.019.508-.109.52-.055.007-.149-.043-.231-.129v-.004zm1.204-.09c-.028-.051-.215-.238-.415-.414-.199-.176-.371-.344-.378-.379-.012-.035.043-.086.117-.113.226-.086 1.043-.325 1.117-.325.101 0 .09.122-.063.754-.113.465-.144.543-.23.555-.063.008-.121-.02-.148-.078zm-9.407-.113l.043-.27.071-.293.027-.129-.246.145-.446.281c-.203.141-.328.172-.355.09-.008-.024-.004-.262.012-.527.047-.774.078-1.407.086-1.649.004-.195.015-.223.105-.223.137 0 1.074.618 1.074.707 0 .043-.097.118-.246.188-.336.152-.836.434-.836.473l.082.058c.258.078.703.285.754.352.051.066.059.062.059-.039.004-.243.215-.961.289-.977.039-.008.199.07.351.168l.383.238c.059.032.106.086.106.125 0 .039.043.071.09.071.05 0 .23.09.398.195.238.152.297.211.266.266-.036.066-.606.269-.91.324-.165.031-.168-.031-.012-.383.144-.324.144-.355.012-.32-.188.047-.958.383-.883.386.152.004.703.262.703.332 0 .067-.813.516-.934.516l-.054-.101.011-.004zm10.77-.243c-.102-.132-.313-.367-.469-.519-.156-.156-.285-.313-.285-.356 0-.054.133-.117.504-.23.277-.082.644-.199.816-.258.317-.105.418-.109.418-.015 0 .031-.148.406-.332.835-.215.508-.355.782-.398.782-.039 0-.153-.106-.254-.239zm-12.762-.16c-.051-.086-.176-1.293-.137-1.328.063-.066 1.239.434 1.239.524 0 .043-.102.148-.223.234l-.496.383c-.277.226-.336.258-.379.187h-.004zm7.07-.246c-.168-.047-.363-.086-.429-.086-.125-.004-.2-.094-.141-.172l.277-.23c.137-.102.231-.203.211-.223-.019-.019-.257-.062-.531-.097-.363-.047-.496-.079-.504-.133-.019-.106.613-.774.703-.739.102.04.473.778.446.887-.016.055 0 .09.043.09.082 0 .41.645.375.734-.032.079-.059.079-.454-.031h.004zm-8.574-.363l-.242-.785c-.242-.758-.231-.797.234-.59l.77.332c.269.113.5.234.512.269.015.04-.059.133-.18.235-.113.094-.356.312-.539.488-.184.176-.367.32-.406.32-.051 0-.102-.089-.149-.269zm5.66.207c0-.09.371-.645.453-.676l.04-.078c-.024-.062.492-.84.57-.867.062-.02.629.719.629.816l.043.067c.023 0 .152.136.285.308.281.36.285.473.012.426-.094-.016-.329-.031-.516-.031-.426 0-.438-.055-.106-.426.278-.309.27-.309-.421-.258l-.446.031.27.25c.414.379.406.387-.496.477-.274.023-.321.02-.321-.047l.004.008zm5.832-.266c-.269-.179-.527-.359-.566-.398l-.141-.074c-.035 0-.277-.094-.535-.207l-.555-.235-.082-.097c0-.09.977-.829 1.059-.797.039.015.09.242.145.676l.086.652.57-.297c.383-.199.59-.285.633-.262.054.031.054.157.023.688-.023.355-.062.652-.09.664-.027.008-.269-.133-.543-.313h-.004zm-2.304-.117c-.309-.101-.446-.172-.446-.223 0-.093.668-.609.77-.589.078.015.328.66.336.871.004.14-.09.133-.656-.059h-.004zm3.972-.191c-.101-.09-.363-.293-.578-.453-.215-.161-.383-.313-.371-.34.02-.067 1.438-.821 1.559-.824.078-.004.086.019.058.218-.074.535-.336 1.539-.402 1.551-.039.008-.156-.062-.262-.152h-.004zm-8.25.035c0-.141.36-.899.426-.899.086 0 .727.614.727.696 0 .054-.102.094-.399.156-.781.16-.754.156-.754.047zm-3.597-.535c-.024-.063-.211-1.586-.211-1.703 0-.09.133-.094.23-.008.043.035.363.25.719.472.441.282.637.43.617.477-.015.035-.144.133-.293.215-.148.082-.418.254-.605.379-.356.238-.43.265-.461.168h.004zm2.636-.028c-.015-.027.024-.265.09-.535.067-.265.117-.519.117-.558l.063-.161c.062-.085.07-.085.199.02.293.227.859.812.836.867-.012.031-.137.082-.277.117-.141.036-.379.102-.528.157-.382.132-.468.152-.5.097v-.004zm5.121-.246c-.156-.047-.378-.101-.496-.117-.488-.066-.488-.105-.011-.594.199-.207.379-.402.402-.441l.121-.066c.067 0 .121.117.258.574.094.316.172.613.172.656 0 .102-.078.102-.446-.016v.004zm2.75-.191c-.117-.07-.394-.223-.621-.328-.277-.133-.41-.227-.41-.281 0-.043.102-.153.223-.247l.664-.5c.242-.183.473-.332.512-.332.062 0 .07.102.039.856-.02.469-.043.879-.055.91-.031.086-.117.066-.348-.078h-.004zm-6.488-.004c0-.121.485-1.211.539-1.211.063 0 .824.992.824 1.074l-.058.055-.574.07c-.633.086-.727.086-.727.012h-.004zm2.422-.039c-.129-.02-.398-.039-.598-.043-.199-.004-.375-.027-.39-.055-.043-.066.644-1.121.73-1.125.043 0 .18.207.364.563.257.5.281.574.218.636l-.078.063-.246-.043v.004zm-4.949-.316c-.102-.036-.035-1.797.07-1.833.031-.011.223.137.422.329l.637.597c.148.137.265.281.258.321-.008.035-.141.105-.297.16-.157.05-.453.176-.66.269-.208.098-.403.168-.438.157h.008zm7.586-.336c-.149-.067-.672-.231-1.137-.36l-.047-.086c.016-.109 1.125-1.297 1.211-1.297.063 0 .09.11.152.598.098.719.118 1.195.051 1.215-.027.008-.133-.024-.234-.07h.004zm-6.11-.278c-.015-.027.055-.414.161-.859.105-.449.191-.828.191-.852l.086-.035c.105 0 1.058 1.242 1.062 1.383.004.082-.046.101-.328.152-.3.051-.785.16-1.043.235l-.129-.02v-.004zm4.575-.172c-.02-.019-1.118-.168-1.25-.168l-.063-.054c0-.11.918-1.492.992-1.496.055-.004.114.105.203.41l.239.777c.148.469.148.551.004.551l-.133-.024.008.004zm-2.942-.179c-.039-.094.594-1.586.692-1.641.066-.039.132.066.457.707.207.414.379.793.379.848 0 .09-.032.093-.504.093-.278 0-.618.016-.75.032-.196.023-.25.015-.274-.043v.004z" sketch:type="MSShapeGroup"/></g></svg>