<svg width="74" height="74" xmlns="http://www.w3.org/2000/svg" xmlns:sketch="http://www.bohemiancoding.com/sketch/ns"><title>Imported Layers</title><desc>Created with Sketch.</desc><path d="M39.5 73.5h-.015l-1.235-.082-1.359-.254-.711.156-1.258.157-.625.023h-.023l-1.227-.059-1.234-.199-1.211-.344-1.277-.714-.094-.184h-.02l-1.254.148-1.246-.082-1.211-.273-1.445-.543h-.117c-.09 0-.18-.031-.246-.094l-.301-.261-.703-.438-.606-.441-.089-.016-1.239-.301-1.179-.433-1.118-.563-1.046-.683-.969-.805-1.035-1.035-1.149-.555-1.066-.668-.5-.375-.93-.836-.832-.941-.727-1.039-.371-.653-.589-.425-.957-.829-.848-.921-.735-1.012-.617-1.094-.496-1.164-.23-.715-.492-.535-.766-1.008-.641-1.078-.515-1.141-.403-1.187-.554-1.809-.305-.574-.043-.176-.035-.64-.469-1.168-.332-1.207-.191-1.235-.047-1.257.109-1.379-.226-.696-.286-1.234-.144-1.246-.02-.621.071-1.25.215-1.242.394-1.325-.078-.726-.031-.633.047-1.258.187-1.238.328-1.207.508-1.258v-.574l.043-.176.664-1.195.227-1.153.375-1.195.507-1.141.637-1.082.762-1.011.504-.555.222-.695.493-1.164.617-1.094.734-1.012.848-.926.957-.832.605-.437.364-.633.722-1.039.828-.941.93-.836 1.023-.727 1.11-.613.683-.301.485-.543.926-.863 1.004-.75 1.082-.629 1.148-.504 1.207-.383.813-.195 1.046-.715 1.114-.59 1.168-.457 1.211-.32 1.246-.18 1.273-.039.11.004.664-.301 1.195-.414 1.223-.273 1.242-.133.621-.008 1.258.082 1.359.254.711-.156 1.258-.157.629-.023 1.25.059 1.234.199 1.211.344 1.277.531.09-.004 1.274.039 1.246.18 1.211.316 1.168.453 1.113.586 1.226.797 1.239.301 1.183.433 1.118.563 1.046.687.969.805 1.035 1.035 1.149.551 1.066.672.977.781.882.891.778.988.797 1.231 1.008.777.902.875.793.965.676 1.054.558 1.129.524 1.367.824.973.703 1.043.574 1.113.239.578.371 1.2.125.621.086.633.027.597.453.766.535 1.144.399 1.188.261 1.223.121 1.25.008.628-.109 1.379.226.692.289 1.234.145 1.246.02.625-.071 1.25-.215 1.242-.394 1.329.078.726.031.633-.047 1.258-.187 1.238-.328 1.207-.469 1.172-.746 1.348.015.543-.105.675-.309 1.223-.203.59-.507 1.144-.637 1.079-.762 1.011-.5.555-.227.699-.492 1.164-.617 1.094-.351.516-.793.968-.903.879-1.14.922-.668 1.082-.778.988-.879.891-.476.406-1.024.727-1.105.613-.684.301-.484.543-.922.863-1.008.75-1.082.629-1.144.512-2.375.824-1.184.828c-.07.059-.156.09-.25.09h-.117l-.836.371-1.188.387-1.23.25-1.262.109-.64.004h-.02l-.086-.004-.664.301-1.195.414-1.223.273-1.242.133-.633.012h-.008zm-8.593-1.289l1.066.301 1.152.187 1.153.051 1.093-.07-.847-.36-1.297-.703-.746.242-1.574.352zm7.504.469l1.093.07 1.176-.055 1.152-.187 1.043-.293-.902-.176-1.418-.422-.676.391-1.468.672zm-4.29-1.414l.727.375 1.156.476.887.27.906-.278 1.156-.476.711-.367-.949-.438-1.281-.719-.543-.351-1.164.719-1.606.789zm7.235-.18l.789.219 1.23.226.926.078.828-.461 1.032-.707.617-.507-1.02-.231-1.402-.437-.602-.231-.988.945-1.41 1.106zm-14.27-1.078l.551.445 1.031.707.813.449.945-.082 1.227-.226.769-.215-.836-.625-1.105-.969-.453-.449-1.289.473-1.653.492zm20.633.09l-.578.515-1.297.965 1.098-.16 1.125-.297.586-.211-.934-.812zm-22.594.812l.606.219 1.129.297 1.074.156-.754-.527-.93-.778-.222.075-.578.289-.325.269zm5.653-2.183l.75.703 1.078.867.715.488.812-.336 1.231-.625.867-.527-.672-.512-1.211-1.039-.645-.621-.75.469-1.398.765-.777.368zm6.777.57l.883.535 1.23.621.797.328.727-.496 1.074-.867.738-.695-.058-.024-1.407-.703-1.457-.875-.636.613-1.211 1.039-.68.524zm11.777 1.203h.219l.402-.219.282-.246.074-.051.574-.3.762-.59.891-.848.921-.922-.324.176h-.015l-1.426-.242-1.371-.27-.774 1.086-.91 1.098-.383.398 1.078.93zm-25.105 0h.219l.554-.465.075-.047.582-.285-.496-.531-.915-1.121-.781-1.141-1.355.352-1.446.238h-.015l-.328-.176.511.555.864.863.703.586.332.043c.074.012.14.039.195.09l.903.82.398.219zm.035-3.746l.59.848.871 1.07.719.746.015-.008 3.024-.961-.555-.644-.969-1.27-.5-.742-.832.301-1.527.457-.836.203zm20.047 1.691l.973.34 1.336.356.851.156.61-.637.871-1.07.578-.836-.825-.195-1.527-.457-.844-.305-.492.734-.965 1.27-.566.644zm10.109-1.336l-.461.633-1.109 1.258 1.078-.422 1.043-.531.977-.645.836-.695-.895.207-1.469.195zm-37.418-.398l.852.707.973.637 1.043.523 1.015.375-.625-.672-.898-1.172-.781-.082-1.579-.316zm17.332-.016l1.098 1.016 1.461 1.137.883-.657 1.168-1.003.508-.489-1.352-1.011-1.207-1.024-1.195 1.016-1.364 1.015zm-6.168-1.183l.864 1.222 1.191 1.414.996-.46 1.352-.743.597-.371-1.113-1.269-.965-1.25-1.379.746-1.543.711zm12.454 1.062l1.285.766 1.66.805.726-.829.934-1.226.395-.586-1.536-.707-1.39-.75-.957 1.242-1.117 1.285zm-20.836-.191l.871.023 1.386-.07 1.008-.129-.406-.738-.684-1.446-.336-.832-.875.121-1.589.133-.778.02h-.082l.399.949.629 1.227.457.742zm30.953-.172l1.023.129 1.371.066.871-.023.461-.75.629-1.09.395-.793h-.067l-1.566-.207-1.688-.273-.328.781-.683 1.426-.418.734zm-34.793-.629l.898.309 1.215.293.793.117-.512-.91-.613-1.336-.234-.602-1.364-.101-1.765-.309.367.734.656 1.067.559.738zm40.351-2.129l-.519 1.266-.836 1.582.812-.121 1.215-.293.879-.305.57-.758.653-1.066.359-.715-1.027.203-1.461.172-.645.035zm-24.558.215l.898 1.16 1.168 1.324.77-.55 1.312-1.047.457-.403-.875-.859-1.222-1.328-1.461 1.039-1.047.664zm5.711.484l1.117.95 1.418 1.05.64-.699 1.063-1.297.363-.488-1.035-.656-1.473-1.047-1.21 1.32-.883.867zm9.289.996l1.418.481 1.793.441.535-.957.66-1.394.266-.653-1.645-.371-1.519-.445-.68 1.414-.828 1.484zm-24.36-2.082l.59 1.375.871 1.629 1.075-.242 1.472-.441.664-.239-.824-1.472-.684-1.426-1.503.441-1.661.375zm37.973-.265l-.32.715-.789 1.406.933-.59.91-.73.821-.829.672-.851-.836.387-1.391.492zm-49.141-.879l.688.867.82.828.91.727.918.578-.472-.789-.637-1.336-.746-.242-1.481-.633zm31.922 1.516l1.289.695 1.606.734.48-.816.774-1.492.254-.551-1.149-.43-1.656-.715-.914 1.543-.684 1.032zm-16.879-1.43l.637 1.32.867 1.535.867-.379 1.5-.754.532-.296-.676-1.02-.918-1.555-1.645.711-1.164.438zm8.586-.5l1.164 1.265.891.872.898-.879 1.157-1.258-.93-.758-1.125-1-1.117.988-.938.77zm-5.105-.969l.875 1.481.691 1.039 1.063-.672 1.39-.989-.754-.933-.89-1.211-1.297.738-1.078.547zm10.297.852l1.402.996 1.055.668.695-1.047.871-1.469-1.07-.547-1.309-.742-.886 1.203-.758.938zm12.398 1.089l1.485.176 1.511.067.336-.004.328-1.051.356-1.5.125-.809-.836-.109h-.012l-1.715.035-.707-.008-.371 1.551-.5 1.652zm-34.402.239l.347.004 1.512-.067 1.473-.176-.5-1.613-.371-1.535-1.563.008-.859-.09h-.012l-.832.109.293 1.524.512 1.836zm39.301-3.274l-.153.867-.367 1.555-.246.821 1.027-.086 1.364-.223.839-.203.297-.828.36-1.332.187-.996-.828.156-1.582.203-.898.066zm-43.332 2.735l.855.207 1.363.218 1.012.083-.242-.809-.367-1.555-.157-.883-.882-.062-1.582-.203-.844-.16.191 1.011.363 1.332.29.821zm34.55-.621l1.407.41 1.722.383.301-.895.578-2.211-1.211-.18-1.769-.355-.571 1.699-.457 1.149zm-27.312-2.317l.348 1.422.531 1.684.926-.192 1.625-.422.582-.179-.45-1.141-.574-1.711-1.758.356-1.23.183zm-10.824 1.352l.812.492 1.129.535.75.281-.309-1-.324-1.433-.101-.637-1.313-.383-1.66-.668.207.793.418 1.176.391.844zm51.015-1.754l-.246 1.344-.488 1.722.765-.289 1.129-.539.797-.48.403-.86.418-1.176.203-.777-.961.414-1.391.473-.629.168zm-36.48-.313l.551 1.629.46 1.16 1.18-.437 1.567-.676-.543-1.074-.621-1.367-1.422.453-1.172.312zm20.14 1.676l1.579.68 1.168.433.464-1.171.547-1.618-1.16-.312-1.434-.457-.617 1.359-.547 1.086zm-7.644-.969l1.058.942.934.758.762-.946.836-1.133-1.953-1.296-1.637 1.675zm-4.684-.375l.844 1.141.754.938.941-.766 1.055-.934-1.641-1.672-1.953 1.293zm9.348-.23l1.234.699 1.071.547.546-1.082.583-1.281-2.176-.86-1.258 1.977zm-13.856-1.113l.586 1.289.543 1.074 1.078-.551 1.223-.695-1.258-1.977-2.172.86zm37.004-.161l-.164.766-.48 1.543.793-.773.738-.903.629-.98.48-.973-.734.551-1.262.769zm-58.714-1.324l.492.992.629.981.738.902.777.758-.297-.871-.343-1.438-.68-.39-1.316-.934zm10.574 2.688l.937.008 1.684-.079.605-.058-.203-1.207-.207-1.793-.871.004-2.156-.102.043 1.465.168 1.762zm36.336-.125l1.461.109.824.024.941-.008.106-.938.097-1.676.008-.609-1.222.078-.922.024-.883-.004-.207 1.781-.203 1.219zm-18.129-1.473l1.066 1.109.508.493 1.574-1.602-1.574-1.223-1.574 1.223zm22.316-1.695l-.043 1.566-.156 1.696 1.488-.137 1.821-.324.101-1.094.035-1.539-.023-.707-1.656.328-1.567.211zm-44.594 2.801l1.079.214 1.527.196.703.051-.156-1.68-.047-1.578-1.555-.207-1.668-.332-.023.718.035 1.539.105 1.079zm36.739-.243l1.683.34 1.235.18.211-1.242.199-1.696-1.199-.066-1.496-.145-.321 1.457-.312 1.172zm-29.102-2.414l.199 1.707.207 1.231 1.247-.184 1.675-.336-.308-1.16-.325-1.469-1.484.145-1.211.066zm18.91 1.43l1.875 1.238 1.207-1.894-1.793-.867-1.289 1.523zm-8.472-.652l1.207 1.894 1.875-1.238-1.289-1.52-1.793.864zm30.484-1.645l.031.883-.035 1.594-.074.855.988-.297 1.285-.5.778-.375.117-.871.074-1.379-.023-1.015-.774.328-1.508.527-.859.25zm-52.391 2.16l.793.383 1.286.5.972.289-.07-.84-.035-1.593.031-.895-.848-.242-1.507-.527-.793-.333-.024 1.032.078 1.379.117.847zm37.332.203l1.352.43 1.16.313.313-1.172.304-1.375-2.308-.391-.821 2.195zm-22.421-1.804l.304 1.383.309 1.16 1.172-.317 1.34-.426-.817-2.195-2.308.395zm3.05-.543l.785 2.105 2.09-.824-.941-1.754-1.934.473zm16.571 1.281l2.09.824.785-2.105-1.934-.473-.941 1.754zm-6.258-.586l1.492 1.148 1.223-1.433-1.457-.82-1.258 1.105zm-3.895-.285l1.223 1.433 1.492-1.148-1.254-1.105-1.461.82zm-27.558-.559l.691.649.992.758.676.429-.098-1.043-.023-.73.039-1.383-1.203-.648-1.484-.997.039.821.164 1.238.207.906zm59.449-1.316l.039 1.367-.121 1.785.687-.441.993-.762.679-.637.215-.921.164-1.239.035-.801-.851.606-1.266.75-.574.293zm-24.129 1.629l1.699.816.895-1.66-1.598-.5-.996 1.344zm-11.508-.844l.895 1.66 1.699-.816-1-1.344-1.594.5zm5.879-.137l1.172 1.028 1.172-1.024-1.172-.742-1.172.738zm-18.812.844l1.257.078.899.024.808-.004-.058-1.199-.016-.969.004-.535-1.484-.168-1.199-.188-.161 1.711-.05 1.25zm37.004.098l.82.004 2.144-.102-.05-1.258-.161-1.703-1.187.184-1.492.172.004.523-.078 2.18zm-3.36-.227l1.41.137 1.203.066.063-1.211.016-.945-.004-.461-2.34.098-.348 2.316zm-30.004-2.414l-.004.469.075 2.148 1.211-.066 1.402-.137-.344-2.316-2.34-.098zm36.856-.551l.168 1.786.05 1.234 1.454-.195 1.73-.352-.09-.941-.254-1.661-.121-.597-1.179.328-1.758.398zm-44.43 2.473l.922.203 1.656.274.606.07.05-1.223.168-1.797-1.75-.39-1.191-.332-.262 1.441-.199 1.754zm26.336-.352l1.359.758.934-1.246-1.301-.48-.992.968zm-7.133-.488l.934 1.246 1.359-.758-.992-.968-1.301.48zm15.414.871l2.219.371.332-2.222-1.992-.063-.559 1.914zm-23.945-1.851l.332 2.222 2.215-.371-.555-1.914-1.992.063zm2.754-.11l.531 1.809 1.832-.442-.699-1.523-1.664.156zm18.621 1.364l1.832.441.531-1.809-1.668-.156-.695 1.524zm16.043-2.852l.281 1.543.199 1.691 1.43-.445 1.711-.695-.129-1.09-.285-1.512-.168-.687-1.551.664-1.488.531zm-51.969 2.09l1.012.433 1.453.508.68.196.199-1.68.285-1.551-1.477-.527-1.562-.672-.328 1.461-.262 1.832zm59.82-1.789l.004.097-.043 1.36-.113.93.613-.922.532-1.039.41-1.09.269-1.051-.605.691-1.067 1.024zm-65.828-1.836l.356 1.191.429 1.098.54 1.039.605.902-.109-.91-.043-1.359.004-.125-.582-.524-.922-.976-.278-.336zm31.153 3.328l.906.875 1.07-.668-.929-.648-1.047.441zm3.332.207l1.066.668.906-.875-1.043-.441-.929.648zm5.226.191l1.489.461.652-1.414-1.371-.203-.77 1.156zm-13.953-.953l.652 1.414 1.489-.457-.77-1.16-1.371.203zm12.031.274l1.184.429.703-1.046-1.113-.215-.774.832zm-9.855-.614l.703 1.043 1.184-.429-.778-.828-1.109.214zm-25.391-.937l.7.535 1.156.754.89.488.106-.836.297-1.566.218-.871-.781-.414-1.363-.828-.703-.489-.235 1.004-.218 1.364-.067.859zm59.16-1.496l.211.859.297 1.567.11.851.902-.496 1.156-.754.684-.527-.067-.879-.214-1.363-.235-.989-.695.481-1.356.828-.793.422zm-28.714 2.531l.816.559.816-.559-.816-.383-.816.383zm3.128-.156l.915.379.683-.719-.879-.207-.719.547zm-6.218-.34l.683.715.914-.379-.718-.547-.879.211zm15.351.293l1.883.051.145-1.879-1.664.195-.364 1.633zm-24.918-1.824l.145 1.879 1.883-.051-.367-1.633-1.661-.195zm-2.855 1.777l2.246.098-.148-1.989-1.961-.355-.137 2.246zm30.558-1.891l-.148 1.989 2.246-.098-.137-2.242-1.961.351zm-5.097 1.754l1.551.141.347-1.519-1.383.089-.515 1.289zm-20.164-1.378l.347 1.519 1.551-.141-.515-1.289-1.383-.089zm-8.641 1.105l1.199.187 1.399.157.144-2.336-2.269-.582-.285 1.39-.188 1.184zm36.602-1.992l.144 2.336 1.41-.16 1.188-.188-.192-1.199-.281-1.379-2.269.59zm-25.762 1.008l.473 1.168 1.25-.176-.586-.973-1.137-.019zm15.941.992l1.246.176.473-1.172-1.133.023-.586.973zm-6.254-.156l.665.304.582-.437-.649-.18-.598.313zm-2.957-.129l.582.437.665-.305-.598-.312-.649.18zm7.438-.024l.973.18.519-.844-.902-.019-.59.683zm-12.164-.664l.519.844.977-.18-.59-.683-.906.019zm26.746-1.828l.301 1.461.191 1.195 1.68-.375 1.199-.336-.312-1.218-.508-1.629-1.125.425-1.426.477zm-43.207 1.945l1.211.34 1.668.371.191-1.187.301-1.473-1.418-.473-1.133-.433-.511 1.64-.309 1.215zm27.066.215l.711.16.481-.55-.672-.043-.52.433zm-8.746-.39l.481.546.711-.16-.52-.429-.672.043zm4.555.257l.414.207.414-.203-.414-.133-.414.129zm2.82-.207l.449.114.364-.289-.434-.04-.379.215zm-5.625-.175l.364.289.449-.114-.383-.211-.43.036zm-31.226-3.094l.406.734.687 1.004.813.949.57.563.121-1.039.289-1.442.164-.621-1.043-.887-1.246-1.285-.132.809-.043.125-.586 1.09zm65.84.148l.324 1.328.254 1.77.582-.574.808-.953.422-.594-.035-.453v-.657l.047-.668-.027-.605-.106-.75-.695.75-1.078.996-.496.41zm-8.231.113l.535 1.711.309 1.2 1.379-.496 1.621-.704-.285-.902-.59-1.57-.242-.559-1.086.567-1.641.753zm-50.172 1.711l.86.391 1.562.613.574.196.305-1.188.539-1.723-1.629-.746-1.094-.57-.558 1.356-.559 1.671zm33.543.551l.653.012h.074l.355-.637-.664.098-.418.527zm-13.801.008h.075l.652-.012-.418-.527-.664-.098.355.637zm-1.855-.031l.992.027-.433-.793-.887-.168.328.934zm17.683-.766l-.433.793.988-.027.332-.934-.887.168zm-3.441.742l.465.02.297-.356-.465.082-.297.254zm-11.004-.339l.297.355.465-.02-.371-.289-.391-.046zm-5.305.234l1.258.086-.371-1.07-1.105-.258.218 1.242zm21.489-.981l-.371 1.071 1.258-.086.218-1.242-1.105.257zm-23.809.723l1.547.188-.234-1.368-1.336-.375v.465l.023 1.09zm25.703-1.184l-.234 1.368 1.547-.188.023-1.098v-.457l-1.336.375zm-28.312.731l1.855.34-.019-.969v-.703l-1.586-.535-.25 1.867zm30.398-1.336l.004.695-.019.981 1.851-.34-.25-1.867-1.586.531zm-14.285-22.172l-1.387.043-2.414.547-2.246 1.035-1.984 1.481-1.633 1.859-1.211 2.16-.734 2.363-.239 2.336.305 2.586.797 2.344 1.266 2.125 1.679 1.816 2.02 1.43 2.273.977 2.426.484 1.086.008 1.391-.047 2.414-.547 2.246-1.035 1.984-1.48 1.633-1.86 1.211-2.16.734-2.363.239-2.336-.305-2.586-.797-2.344-1.266-2.125-1.679-1.816-2.02-1.43-2.273-.977-2.426-.48-1.09-.008zm26.551 20.422l.598 1.449.546 1.61 1.305-.731 1.531-1.035-.355-1.039-.594-1.422-.308-.637-1.379.977-1.344.828zm-57.074 1.293l.898.633 1.317.801.621.332.543-1.598.601-1.461-1.336-.82-1.39-.981-.625 1.36-.629 1.734zm47.109-.344l.27 1.977 2.175-.563-.601-2.164-1.844.75zm-35.609 1.41l2.175.563.27-1.977-1.844-.754-.601 2.168zm26.902-.144l-.262.348.457-.079.215-.41-.41.141zm-15.945.269l.457.079-.301-.36-.371-.129.215.41zm17.379-.769l-.297.601.715-.14.214-.696-.632.235zm-19.032.457l.715.141-.301-.602-.629-.234.215.695zm-12.492-.906l1.133.433 1.336.446.629-2.258-2.098-1.043-.566 1.301-.434 1.121zm41.332-1.379l.629 2.258 1.344-.45 1.125-.429-.438-1.133-.562-1.289-2.098 1.043zm-30.644 1.867l.965.234-.262-.863-.832-.352.129.981zm22.355-.629l-.262.863.965-.234.129-.981-.832.352zm-24.355.078l1.211.348-.141-1.125-1.027-.481-.043 1.258zm25.98-.781l-.141 1.125 1.211-.348-.046-1.262-1.024.485zm21.832-1.75l.024.09.125.675.086.672.027.676-.035.516.336-.746.371-1.11.242-1.14.109-1.164.004-.5-.445.804-.844 1.227zm-12.41-.192l.598 1.368.437 1.129 1.563-.715 1.105-.578-.558-1.129-.836-1.489-1.008.653-1.301.761zm-47.453 1.204l1.113.582 1.551.711.434-1.122.601-1.378-1.285-.754-1.02-.657-.843 1.497-.551 1.121zm9.836.781l1.472.504.055-1.387-1.226-.645-.301 1.528zm29.953-.883l.055 1.387 1.472-.504-.3-1.528-1.227.645zm-47.684-1.094l.571.672.972.981.77.664.277-.797.617-1.473.391-.805-.676-.566-1.16-1.094-.59-.625-.441.934-.492 1.289-.239.82zm63.344-.765l.387.793.613 1.472.285.813.782-.672.972-.981.555-.652-.246-.851-.489-1.29-.433-.918-.578.614-1.16 1.094-.688.578zm-19.914 2.621l-.184.394.43-.172.125-.445-.371.223zm-20.164.222l.43.172-.223-.414-.336-.203.129.445zm-25.367-3.925l.047 1.105.179 1.152.309 1.125.199.54.297-.532.258-1.367-.461-.637-.828-1.386zm23.82 3.273l.668.289-.168-.652-.566-.36.066.723zm23.008-.363l-.168.652.668-.289.066-.727-.566.364zm-29.453-.074l1.742.718.328-1.64-1.441-.852-.629 1.774zm34.324-.922l.328 1.64 1.742-.718-.633-1.774-1.437.852zm-3.508.105l-.074.899.891-.426-.075-.988-.742.515zm-26.051.469l.895.43-.074-.899-.742-.515-.079.984zm38.235-2.481l.879 1.563.55 1.109 1.25-.769 1.438-1.024-.465-.824-.906-1.414-.352-.496-.945.781-1.449 1.074zm-53.719.872l.762.562 1.402.922.524.309.542-1.098.887-1.57-1.437-1.071-.953-.789-.825 1.211-.902 1.524zm8.02.644l2.011 1.004.672-1.875-1.648-1.121-1.035 1.992zm39.109-.871l.672 1.875 2.012-1.004-1.04-1.992-1.644 1.121zm-4.149.344l.098 1.129 1.113-.59-.304-1.223-.907.684zm-29.335.539l1.113.59.098-1.129-.907-.684-.304 1.223zm26.878-.098l-.097.422.387-.258.031-.461-.321.297zm-23.5.164l.387.258-.129-.453-.285-.27.027.465zm-11.89-1.812l1.019.66 1.215.711 1.086-2.078-1.836-1.453-.824 1.152-.66 1.008zm44.254-.703l1.086 2.078 1.222-.719 1.008-.652-.664-1.016-.816-1.145-1.836 1.454zm-37.758 1.265l1.336.797.344-1.344-1.067-.886-.613 1.433zm32.898-.547l.344 1.344 1.336-.797-.613-1.433-1.067.886zm17.219-1.621l.59 1.235.613 1.683.453-.687.594-1.098.36-.855-.18-.93-.356-1.199-.293-.746-.535.898-.847 1.199-.399.5zm-68.269.274l.371.875.597 1.097.442.668.336-.988.582-1.352.289-.574-.836-1.082-.953-1.515-.297.761-.356 1.199-.175.911zm22.168 2.187l.593.422-.027-.672-.481-.472-.085.722zm25.98-.254l-.027.672.593-.422-.085-.722-.481.472zm-44.629-2.301l.746.809 1.121 1.055.539.457.864-1.453.89-1.305-1.133-1.082-1.156-1.25-.894 1.199-.977 1.57zm59.684-.437l.886 1.293.872 1.461 1.125-.988 1.281-1.329-.563-.945-.875-1.265-.433-.559-1.145 1.238-1.148 1.094zm-42.516 1.875l.785.605.114-.894-.618-.656-.281.945zm28.609-.289l.114.894.785-.605-.277-.949-.622.66zm-33.339-.363l1.554 1.066.664-1.535-1.23-1.133-.988 1.602zm36.75-.469l.664 1.535 1.554-1.066-.984-1.606-1.234 1.137zm5.609-1.27l.867 1.215.664 1.016 1.379-1.028.961-.796-.781-.985-1.129-1.281-.852.848-1.109 1.011zm-49.621.41l.969.801 1.371 1.02.656-1.004.875-1.223-1.102-1.008-.859-.855-1.137 1.289-.773.98zm39.492 1.329l-.008.433.324-.332-.066-.457-.25.356zm-25.808.101l.324.332-.008-.383v-.05l-.25-.356-.066.457zm-3.29-.765l.965.808.328-1.086-.742-.855-.551 1.133zm31.411-.278l.328 1.082.965-.808-.551-1.133-.742.859zm-36.911-.902l1.758 1.398 1.047-1.695-1.375-1.438-1.43 1.735zm40.895-.297l1.047 1.695 1.215-.945.543-.453-1.43-1.735-1.375 1.438zm-5.438.891l.114.664.496-.535-.235-.692-.375.563zm-27.82.129l.496.535.114-.664-.372-.559-.238.688zm30.535-1.305l.614 1.246 1.14-1.059-.898-1.273-.856 1.086zm-34.398.187l1.14 1.059.614-1.246-.86-1.09-.894 1.277zm48.617-1.902l.543.695.91 1.313.446.734.624-.82.75-1.16.407-.762-.418-.773-.75-1.161-.613-.808-.438.722-.906 1.313-.555.707zm-64.758 0l.418.777.75 1.161.613.808.438-.723.906-1.312.555-.711-.543-.695-.91-1.313-.446-.734-.624.82-.747 1.164-.41.758zm48.707 1.523l.297.852.641-.754-.469-.871-.469.773zm-29.918.098l.641.754.297-.852-.469-.773-.469.871zm40.785-1.621l1.188 1.344.769.968 1.059-1.015 1.191-1.297-.628-.707-1.18-1.195-.449-.41-.762.96-1.188 1.352zm-54.917 0l.628.707 1.18 1.191.445.414.762-.96 1.192-1.352-1.188-1.344-.769-.968-1.059 1.011-1.191 1.301zm64.617 0l.32.719.516 1.527.183-1.09.067-1.164-.067-1.164-.183-1.07-.27.879-.566 1.363zm-70.946-2.246l-.187 1.094-.063 1.164.067 1.164.183 1.07.27-.879.566-1.367-.32-.719-.516-1.527zm22.231 3.68l.25.394.082-.426-.172-.402-.16.434zm26.988-.032l.082.426.25-.39-.16-.438-.172.402zm-37.644-1.402l.859.855 1.039.95 1.492-1.805-1.492-1.805-1.047.957-.851.848zm45.242 0l1.492 1.805 1.047-.957.851-.848-.859-.855-1.039-.95-1.492 1.805zm-40.848 0l1.301 1.363.969-1.363-.969-1.363-1.301 1.363zm37.574 0l.969 1.363 1.301-1.363-1.301-1.363-.969 1.363zm-34.371 0l.778.992.546-.992-.546-.992-.778.992zm32.114 0l.546.992.778-.992-.778-.992-.546.992zm-29.926 0l.375.625.246-.625-.246-.625-.375.625zm28.441 0l.246.625.375-.625-.371-.625-.25.625zm-40.656-2.812l.781.984 1.129 1.281.852-.848 1.109-1.015-.867-1.215-.664-1.016-1.379 1.028-.961.801zm49.621.406l1.102 1.008.859.855 1.137-1.289.773-.977-.969-.8-1.371-1.02-.656 1.008-.875 1.215zm-44.727.109l1.43 1.735 1.379-1.438-1.051-1.695-1.758 1.398zm40.895.297l1.379 1.438 1.43-1.735-1.758-1.398-1.051 1.695zm8.719-.918l1.133 1.082 1.156 1.25.894-1.199.977-1.57-.746-.809-1.121-1.055-.539-.457-.864 1.453-.89 1.305zm-59.684-.437l.563.945.875 1.265.433.559 1.145-1.238 1.144-1.09-.886-1.293-.872-1.461-1.125.988-1.277 1.325zm13.844 1.453l.894 1.273.86-1.09-.614-1.246-1.14 1.063zm34.398.187l.86 1.09.898-1.273-1.14-1.059-.618 1.242zm-1.832.192l.469.773.473-.871-.641-.754-.301.852zm-29.914-.098l.469.871.469-.773-.297-.852-.641.754zm-20.015-2.106l.179.93.356 1.199.293.746.535-.898.848-1.199.402-.5-.594-1.235-.625-1.668-.441.672-.594 1.098-.359.855zm68.269.278l.836 1.082.953 1.515.297-.761.352-1.199.175-.911-.367-.871-.597-1.097-.442-.668-.336.988-.582 1.351-.289.571zm-19.5 2.047l.172.402.16-.434-.246-.39-.086.422zm-26.984-.032l.16.438.172-.402-.082-.426-.25.39zm27.261-1.457l.372.563.234-.692-.496-.535-.11.664zm-27.82-.129l.235.688.371-.563-.114-.664-.492.539zm-2.137-.457l.555 1.133.742-.855-.328-1.086-.969.808zm31.411.278l.742.855.554-1.133-.964-.808-.332 1.086zm2.207-.473l1.23 1.133.984-1.606-1.554-1.066-.66 1.539zm-36.75-.469l.988 1.606 1.23-1.133-.664-1.535-1.554 1.062zm-4.301-.914l.664 1.016.816 1.144 1.836-1.453-1.086-2.078-1.222.719-1.008.652zm44.254.703l1.836 1.454.824-1.153.656-1.008-1.019-.66-1.215-.711-1.082 2.078zm-49.387-1.796l.465.824.906 1.414.352.496.945-.781 1.449-1.078-.879-1.563-.55-1.105-1.247.769-1.441 1.024zm53.719.875l1.437 1.07.953.789.829-1.211.898-1.52-.762-.562-1.402-.922-.524-.309-.542 1.098-.887 1.567zm-37.863 1.031l.066.461.25-.399.008-.39-.324.328zm25.808.101l.25.356.066-.461-.324-.332.008.437zm1.109-.363l.618.66.281-.949-.785-.605-.114.894zm-28.609-.289l.277.949.618-.656-.114-.895-.781.602zm-18.734-2.301l.254.817.5 1.293.433.922.578-.618 1.161-1.093.687-.579-.387-.793-.617-1.472-.281-.813-.781.676-.973.981-.574.679zm63.359.746l.676.567 1.16 1.093.59.626.437-.934.493-1.289.242-.828-.571-.668-.972-.981-.77-.66-.277.797-.613 1.473-.395.804zm-14.262 1.278l1.067.886.613-1.433-1.336-.797-.344 1.344zm-32.898-.547l.613 1.433 1.067-.886-.344-1.344-1.336.797zm-3.609-1.172l1.039 1.996 1.648-1.121-.672-1.875-2.015 1zm39.109.871l1.648 1.121 1.039-1.992-2.011-1.004-.676 1.875zm-31.484.008l.085.722.481-.472.027-.672-.593.422zm25.98.254l.481.472.085-.722-.593-.422.027.672zm21.582-1.633l.461.637.824 1.39-.047-1.109-.179-1.152-.309-1.125-.531-1.278.051 1.137-.106.715-.164.785zm-69.144-1.871l-.364 1.09-.242 1.14-.109 1.164-.004.5.445-.8.813-1.188-.539-1.906zm48.917 2.898l.907.684.304-1.223-1.113-.59-.098 1.129zm-29.335-.539l.304 1.223.907-.684-.098-1.129-1.113.59zm37.148-.308l1.289.754 1.02.656.843-1.5.555-1.117-1.113-.582-1.551-.711-.434 1.121-.609 1.379zm-47.453-1.203l.558 1.128.836 1.489 1.008-.653 1.297-.761-.594-1.368-.437-1.128-1.563.718-1.105.575zm7.379.21l.633 1.774 1.441-.852-.328-1.64-1.746.718zm34.324.922l1.441.852.633-1.774-1.742-.718-.332 1.64zm-28.02.313l-.031.461.328-.34.09-.383-.387.262zm23.5.164l.321.297-.031-.461-.387-.258.097.422zm1.012-.582l.742.515.075-.988-.891-.426.074.899zm-26.051-.473l.075.988.742-.515.074-.899-.891.426zm39.981-.867l1.336.82 1.39.981.625-1.36.629-1.738-.898-.633-1.317-.8-.624-.333-.543 1.598-.598 1.465zm-57.074-1.293l.351 1.039.594 1.422.309.637 1.378-.977 1.344-.828-.597-1.449-.547-1.61-1.305.731-1.527 1.035zm8.312.027l.438 1.133.562 1.289 2.098-1.043-.629-2.258-1.344.45-1.125.429zm41.332 1.379l2.098 1.043.566-1.301.434-1.121-1.133-.433-1.336-.446-.629 2.258zm-34.859-.578l.301 1.528 1.226-.645-.055-1.387-1.472.504zm29.953.883l1.23.645.301-1.528-1.472-.504-.059 1.387zm-25.965-.332l-.066.727.566-.36.168-.652-.668.285zm23.008.363l.57.36-.066-.727-.672-.289.168.656zm-45.703-1.875l.234.457.235.699.246.926.757-.824 1.079-.996.5-.406-.325-1.328-.254-1.77-.582.574-.812.953-.68.996-.398.719zm65.844-.148l1.043.887 1.246 1.285.132-.809-.066-1.859.035-.485-.433-.609-.813-.949-.57-.563-.121 1.039-.289 1.442-.164.621zm-44.922.371l.047 1.258 1.027-.481.141-1.125-1.215.348zm25.98.781l1.027.481.047-1.258-1.211-.348.137 1.125zm-2.496.078l.371.223-.125-.445-.43-.172.184.394zm-20.164-.222l-.125.445.391-.262.168-.355-.434.172zm-8.82-1.793l.601 2.164 1.844-.754-.27-1.973-2.175.563zm35.609 1.41l1.844.754.601-2.164-2.175-.563-.27 1.973zm6.582-.738l1.629.746 1.098.57.554-1.356.563-1.671-.86-.391-1.562-.609-.578-.196-.305 1.188-.539 1.719zm-50.172-1.711l.285.902.59 1.57.242.559 1.086-.567 1.641-.75-.535-1.711-.309-1.195-1.379.496-1.621.696zm37.836 2.273l.832.352-.129-.981-.965-.234.262.863zm-22.355-.629l-.133.984.832-.351.262-.863-.961.23zm-4.59-1.332l.25 1.867 1.586-.535v-.695l.019-.981-1.855.344zm30.398 1.336l1.586.535.25-1.867-1.851-.34.019.969-.004.703zm-24.004-.422l-.215.695.629-.234.301-.602-.715.141zm19.032.461l.629.234-.215-.695-.715-.141.301.602zm10.609-1.164l1.414.473 1.133.429.512-1.64.308-1.207-1.211-.34-1.668-.371-.191 1.187-.297 1.469zm-43.207-1.945l.312 1.218.508 1.629 1.125-.425 1.426-.477-.301-1.461-.191-1.195-1.68.375-1.199.336zm35.484 2.465l1.336.375v-.465l-.023-1.09-1.547-.188.234 1.368zm-25.703-1.184l-.023 1.102v.457l1.336-.375.234-1.368-1.547.184zm41.406-.258l.782.414 1.363.828.707.489.234-1.004.211-1.364.067-.859-.7-.539-1.156-.754-.89-.488-.106.836-.297 1.566-.215.875zm-59.16-1.496l.067.879.215 1.363.234.988.695-.48 1.36-.832.793-.422-.215-.855-.297-1.567-.11-.851-.906.496-1.152.754-.684.527zm39.141 3.078l.41.141-.215-.41-.457-.079.262.348zm-15.949-.269l-.215.41.437-.176.235-.313-.457.079zm18.371-.329l1.105.258-.218-1.242-1.258-.086.371 1.07zm-21.489-.984l-.218 1.242 1.105-.258.371-1.07-1.258.086zm19.75.637l.887.168-.332-.934-.988-.027.433.793zm-17.679-.766l-.332.934.887-.168.437-.793-.992.027zm26.047.25l2.269.582.285-1.39.192-1.188-1.199-.187-1.399-.157-.148 2.34zm-36.602-1.992l.192 1.195.281 1.379 2.269-.582-.148-2.336-1.406.16-1.188.184zm12.406 1.711l-.355.637.664-.098.418-.527-.656-.012h-.071zm14.219.535l.664.098-.355-.637h-.082l-.649.012.422.527zm-12.539-.5l-.297.356.465-.082.297-.258-.465-.016zm11.035.305l.434.054-.297-.355-.465.02.328.281zm-21.777-2.461l.137 2.242 1.961-.355.148-1.989-2.246.102zm30.558 1.891l1.961.351.137-2.242-2.246-.098.148 1.989zm-46.105-3.836l-.613.921-.532 1.036-.41 1.089-.265 1.051.605-.691 1.07-1.016-.003-.097.043-1.36.105-.933zm63.898 2.39l.582.524 1.071 1.156-.102-.484-.344-1.11-.472-1.062-.594-1.004-.289-.407.109.911.043 1.363-.004.113zm-59.82-1.789l.129 1.094.285 1.512.168.683 1.551-.668 1.488-.531-.281-1.543-.199-1.688-1.43.446-1.711.695zm51.969 2.09l1.476.527 1.563.672.328-1.461.254-1.828-1.012-.433-1.453-.508-.676-.196-.199 1.676-.281 1.551zm-37.5-.848l-.145 1.879 1.664-.195.368-1.633-1.887-.051zm25.14 1.688l1.665.191-.145-1.879-1.883.051.363 1.637zm-15.031-.028l.434.04.383-.211-.45-.114-.367.285zm5.625-.175l.383.211.434-.039-.364-.29-.453.118zm-13.09-1.387l-.347 1.519 1.383-.089.515-1.289-1.551-.141zm20.332 1.43l1.383.089-.347-1.519-1.551.141.515 1.289zm-14.617.007l.672.043.52-.429-.711-.16-.481.546zm8.746-.39l.52.43.672-.043-.481-.547-.711.16zm-12.136-.817l-.473 1.168 1.133-.019.586-.973-1.246-.176zm16.054 1.145l1.133.02-.473-1.168-1.246.179.586.969zm-14.523.004l.902.019.59-.683-.973-.18-.519.844zm12.164-.664l.59.683.902-.019-.519-.844-.973.18zm-5.754.465l.418.129.418-.129-.418-.207-.418.207zm1.277-.618l.598.313.648-.18-.582-.437-.664.304zm-2.961.129l.649.18.598-.312-.661-.305-.586.437zm-21.816-3.359l.09.941.254 1.661.121.597 1.18-.328 1.761-.394-.168-1.786-.05-1.234-1.454.195-1.734.348zm44.43 2.473l1.75.39 1.191.332.262-1.441.203-1.754-.922-.203-1.656-.274-.606-.07-.05 1.223-.172 1.797zm-24.418.445l.879.207.718-.547-.914-.379-.683.719zm6.218-.34l.719.547.879-.207-.68-.719-.918.379zm-3.128-.156l.816.383.816-.383-.816-.559-.816.559zm4.796-.516l.778.828 1.113-.214-.703-1.043-1.188.429zm-9.851.614l1.113.214.774-.828-1.184-.429-.703 1.043zm-24.992-2.965l-.215.925-.164 1.239-.035.801.851-.606 1.266-.75.57-.293-.039-1.367.121-1.785-.687.441-.993.762-.675.633zm59.449 1.316l1.203.649 1.484.996-.039-.817-.164-1.238-.211-.902-.695-.649-.992-.762-.676-.429.094 1.039.023.73-.027 1.383zm-36.633 1.309l1.375.199.77-1.152-1.489-.461-.656 1.414zm13.953-.953l.77 1.152 1.375-.199-.653-1.414-1.492.461zm11.188.757l1.484.168 1.199.188.161-1.711.05-1.246-1.258-.078-.898-.024-.809.004.059 1.199.016.969-.004.531zm-37.078-2.605l.05 1.258.161 1.699 1.187-.184 1.492-.168-.004-.523.075-2.18-.821-.004-2.14.102zm9.492 2.551l1.664.156.699-1.52-1.832-.441-.531 1.805zm18.621-1.364l.699 1.52 1.664-.156-.531-1.809-1.832.445zm-10.781 1.059l1.043.441.929-.648-1.066-.668-.906.875zm3.332-.207l.929.648 1.043-.441-.906-.875-1.066.668zm-16.95-2.113l-.062 1.211-.016.949.004.461 2.34-.098.344-2.316-1.41-.137-1.2-.07zm30.274 2.519l2.34.098.004-.469-.078-2.148-1.211.066-1.399.137.344 2.316zm-27.25-.004l1.992.063.555-1.914-2.215-.371-.332 2.222zm23.945-1.851l.555 1.914 1.992-.063-.332-2.222-2.215.371zm-15.414.871l1.301.48.992-.968-1.359-.758-.934 1.246zm7.133-.488l.992.968 1.301-.48-.934-1.246-1.359.758zm-3.59-.129l1.172.738 1.172-.742-1.172-1.024-1.172 1.028zm-5.879-.137l1.598.5 1-1.344-1.699-.812-.899 1.656zm11.508-.844l1 1.344 1.598-.5-.895-1.656-1.703.812zm20.25.184l.848.242 1.507.527.793.332.024-1.031-.078-1.379-.113-.855-.797-.379-1.286-.496-.972-.293.07.843.035 1.594-.031.895zm-52.391-2.164l-.117.875-.074 1.379.023 1.015.778-.328 1.508-.527.859-.246-.031-.883.035-1.594.07-.855-.988.297-1.285.5-.778.367zm17.961 2.144l1.934.473.941-1.754-2.09-.824-.785 2.105zm16.571-1.281l.941 1.754 1.934-.473-.52-1.445-.265-.66-2.09.824zm-6.258.586l1.254 1.105 1.457-.82-1.223-1.433-1.488 1.148zm-3.895.285l1.457.82 1.254-1.105-1.492-1.148-1.219 1.433zm12.95-1.937l.816 2.195 2.309-.391-.305-1.383-.309-1.16-1.172.317-1.339.422zm-22.418 1.804l2.308.391.817-2.195-1.352-.426-1.16-.313-.313 1.172-.3 1.371zm-11.079-2.965l-.101 1.094-.035 1.539.023.707 1.656-.328 1.567-.211.043-1.566.156-1.696-1.492.137-1.817.324zm44.594 2.801l1.555.207 1.668.332.023-.718-.035-1.54-.101-1.082-1.079-.214-1.527-.196-.703-.051.156 1.684.043 1.578zm-36.957-.144l1.199.066 1.496.145.321-1.457.312-1.172-1.683-.34-1.235-.184-.211 1.242-.199 1.7zm29.102-2.414l.308 1.16.325 1.469 1.484-.145 1.211-.066-.199-1.707-.207-1.231-1.247.184-1.675.336zm-18.664 1.636l1.793.868 1.285-1.52-1.875-1.238-1.203 1.89zm8.472-.652l1.289 1.52 1.793-.868-1.207-1.894-1.875 1.242zm15.145 1.402l2.152.102-.043-1.465-.168-1.758-.945-.008-1.676.079-.605.058.203 1.207.207 1.793.875-.008zm-37.621-3.121l-.106.942-.097 1.675-.008.61 1.222-.078.922-.024.883.004.207-1.781.203-1.219-1.461-.109-.832-.024-.933.004zm18.207 1.598l1.574 1.223 1.574-1.219-1.574-1.606-1.574 1.602zm29.933-.234l.68.39 1.316.934-.492-.992-.629-.981-.738-.902-.777-.758.297.871.343 1.438zm-56.078-2.309l-.793.777-.738.903-.629.98-.48.973.734-.551 1.258-.773.164-.766.484-1.543zm19.074 2.148l2.176.86 1.258-1.977-1.234-.699-1.071-.547-.546 1.082-.583 1.281zm13.856-1.113l1.258 1.977 2.179-.86-.586-1.289-.542-1.074-1.079.555-1.23.691zm-9.348-.23l1.953 1.297 1.641-1.672-1.059-.942-.933-.758-.762.946-.84 1.129zm4.684-.375l1.641 1.672 1.949-1.297-.84-1.141-.754-.938-.941.766-1.055.938zm7.644-.969l.543 1.07.621 1.367 1.422-.453 1.168-.316-.547-1.629-.46-1.16-1.18.437-1.567.684zm-20.14 1.672l1.16.312 1.434.453.617-1.359.547-1.082-1.579-.684-1.168-.433-.464 1.172-.547 1.621zm-14.535-2.067l-.403.86-.418 1.179-.203.774.961-.414 1.395-.473.621-.168.246-1.344.488-1.722-.765.289-1.129.539-.793.48zm51.015 1.762l1.313.387 1.66.668-.207-.793-.418-1.176-.395-.84-.812-.488-1.129-.535-.75-.282.309 1 .324 1.434.105.625zm-12.879-2.723l.453 1.141.575 1.711 1.758-.355 1.222-.18-.348-1.426-.527-1.684-.926.188-1.625.426-.582.179zm-27.308 2.317l1.211.18 1.769.355.571-1.699.453-1.149-1.407-.41-1.722-.383-.301.899-.441 1.613-.133.594zm36.09-.203l.882.062 1.582.203.844.16-.191-1.011-.36-1.332-.289-.813-.855-.207-1.363-.219-1.012-.082.242.809.367 1.555.153.875zm-43.332-2.735l-.297.828-.36 1.332-.187.997.828-.157 1.582-.203.894-.062.153-.871.367-1.551.246-.824-1.027.086-1.363.218-.836.207zm26.035.789l.754.938.89 1.211 1.301-.738 1.078-.555-.875-1.481-.691-1.039-1.063.672-1.394.992zm-10.293.852l1.07.547 1.309.742.886-1.203.762-.945-1.402-.997-1.055-.667-.695 1.046-.875 1.477zm22.691-1.941l.5 1.613.371 1.535 1.563-.121.855-.027.844.003-.293-1.468-.512-1.778-.351-.004-1.512.067-1.465.18zm-34.375 3.003l1.727.079.707.066.367-1.523.504-1.625-1.488-.176-1.512-.067-.336.004-.324 1.051-.356 1.5-.125.695.836-.004zm16.785-2.031l.93.758 1.125 1 1.117-.992.942-.766-1.164-1.265-.895-.872-.898.879-1.157 1.258zm8.293-1.93l.676 1.024.918 1.551 1.645-.711 1.156-.43-.637-1.32-.867-1.535-.867.379-1.5.753-.524.289zm-16.879 1.43l1.149.426 1.656.715.914-1.543.684-1.031-1.289-.696-1.606-.734-.48.816-.774 1.493-.254.554zm34.098-.793l.746.242 1.481.641-.688-.867-.82-.828-.91-.727-.918-.582.472.789.637 1.332zm-45.805-2.125l-.937.594-.91.73-.821.829-.672.851.833-.387 1.39-.492.32-.719.797-1.406zm22.903.774l.875.855 1.222 1.328 1.461-1.039 1.043-.664-.894-1.16-1.168-1.324-.77.551-1.312 1.046-.457.407zm-5.711.484l1.035.656 1.473 1.047 1.214-1.32.883-.863-1.121-.954-1.418-1.05-.637.699-1.062 1.297-.367.488zm15-1.48l.828 1.472.68 1.426 1.503-.441 1.661-.375-.59-1.375-.867-1.629-1.075.242-1.472.441-.668.239zm-24.36 2.082l1.645.371 1.519.445.676-1.414.832-1.484-1.418-.481-1.793-.445-.539.961-.656 1.39-.266.657zm-6.429-2.516l-.575.758-.652 1.066-.359.715 1.023-.203 1.461-.172.641-.035.519-1.266.836-1.582-.812.121-1.215.293-.867.305zm40.347 2.125l1.364.105 1.761.309-.367-.73-.652-1.067-.563-.742-.894-.309-1.215-.289-.793-.121.512.91.613 1.336.234.598zm-37.929-.293l1.566.207 1.688.273.332-.781.679-1.426.414-.746-1.023-.125-1.379-.066-.863.027-.461.75-.629 1.09-.391.797h.067zm32.371-2.461l.406.742.684 1.442.336.832.875-.121 1.589-.133.778-.02h.082l-.399-.949-.629-1.227-.453-.734-.879-.023-1.379.07-1.011.121zm-10.117-.363l1.113 1.269.965 1.25 1.379-.746 1.546-.711-.863-1.222-1.191-1.414-.996.46-1.352.739-.601.375zm-12.454 1.062l1.536.707 1.39.75.957-1.242 1.121-1.277-1.285-.766-1.66-.808-.727.828-.933 1.226-.399.582zm6.168-1.183l1.352 1.011 1.207 1.02 1.195-1.016 1.36-1.019-1.098-1.016-1.457-1.133-.879.657-1.168 1.007-.512.489zm-10.07-.059l.82.195 1.528.457.843.305.497-.73.964-1.27.563-.648-.973-.34-1.336-.352-.847-.156-.61.637-.871 1.07-.578.832zm20.043-1.695l.555.64.969 1.27.5.742.828-.301 1.527-.461.836-.195-.59-.848-.867-1.07-.637-.664-1.484.348-1.637.539zm10.113 1.34l.782.082 1.582.316-.852-.707-.977-.641-1.042-.523-1.02-.375.625.672.902 1.176zm-33.515-1.86l-1.051.395-1.043.527-.973.641-.836.695.895-.203 1.465-.191.461-.633 1.082-1.231zm27.398-.543l.789.891.879 1.18.352.539 1.355-.18 1.442-.074.343.008-.511-.641-.864-.906-.699-.614-.332-.05-1.262-.391h-.547l-.945.238zm-27.652 2.352l1.445.07 1.371.184.774-1.129.91-1.121.308-.328-.921-.266h-.547l-.59.168-.914.203-.809.695-.859.907-.5.625.332-.008zm10.125-1.563l.762.36 1.398.765.762.477.636-.613 1.211-1.039.684-.52-.883-.535-1.23-.625-.797-.328-.727.496-1.078.867-.738.695zm6.781-.574l.672.512 1.211 1.039.644.621.75-.469 1.399-.765.777-.368-.75-.707-1.078-.859-.715-.488-.812.336-1.231.625-.867.523zm-10.551-.637l1.02.231 1.402.437.602.227.988-.945 1.406-1.106-.789-.219-1.23-.226-.926-.078-.828.461-1.031.707-.614.511zm14.352-1.152l.836.625 1.105.969.453.453 1.289-.461 1.711-.453-.609-.496-1.027-.711-.813-.449-.945.082-1.231.226-.769.215zm-7.235-.18l.95.438 1.281.719.539.351 1.164-.719 1.606-.789-.727-.375-1.156-.476-.887-.27-.906.278-1.156.476-.708.367zm-9.894.766h.355l.098.012 1.371.402.586-.527 1.297-.965-1.098.16-1.125.297-1.086.422-.398.199zm21.621-1.078l.754.527 1.066.903.797-.164.637-.176.094-.012h.359l-.957-.434-1.109-.359-1.145-.23-.496-.055zm-14.941-.633l.902.176 1.418.422.68-.391 1.468-.672-1.109-.074-1.164.059-1.152.187-1.043.293zm7.504-.469l.847.36 1.297.703.746-.242 1.574-.356-1.066-.301-1.152-.187-1.164-.047-1.082.07z" sketch:type="MSShapeGroup" fill="none"/></svg>