<svg width="72" height="72" xmlns="http://www.w3.org/2000/svg" xmlns:sketch="http://www.bohemiancoding.com/sketch/ns"><title>squig</title><desc>Created with Sketch.</desc><g sketch:type="MSLayerGroup" fill=""><path d="M59.667 7.145c-3.348 0-5.093-1.25-6.627-2.356-1.417-1.019-2.638-1.898-5.209-1.898-2.569 0-3.791.879-5.209 1.898-1.538 1.106-3.278 2.356-6.627 2.356-3.348 0-5.089-1.25-6.627-2.356-1.417-1.019-2.638-1.898-5.209-1.898-2.565 0-3.791.879-5.205 1.898-1.538 1.106-3.276 2.356-6.627 2.356-3.348 0-5.089-1.25-6.627-2.356-1.417-1.019-2.639-1.898-5.209-1.898v-2.489c3.348 0 5.089 1.25 6.627 2.356 1.417 1.019 2.639 1.898 5.209 1.898 2.566 0 3.791-.879 5.205-1.898 1.538-1.106 3.276-2.356 6.627-2.356 3.348 0 5.089 1.25 6.627 2.356 1.417 1.019 2.639 1.898 5.209 1.898s3.791-.879 5.209-1.898c1.538-1.106 3.279-2.356 6.627-2.356 3.352 0 5.093 1.25 6.631 2.356 1.417 1.019 2.639 1.898 5.209 1.898 2.569 0 3.791-.879 5.209-1.898 1.538-1.106 3.278-2.356 6.631-2.356v2.489c-2.57 0-3.795.879-5.209 1.898-1.542 1.102-3.282 2.356-6.635 2.356z" sketch:type="MSShapeGroup"/><path d="M59.667 12.98c-3.348 0-5.093-1.25-6.627-2.355-1.417-1.02-2.638-1.898-5.209-1.898-2.569 0-3.791.878-5.209 1.898-1.538 1.105-3.278 2.355-6.627 2.355-3.348 0-5.089-1.25-6.627-2.355-1.417-1.02-2.638-1.898-5.209-1.898-2.565 0-3.791.878-5.205 1.898-1.538 1.105-3.276 2.355-6.627 2.355-3.348 0-5.089-1.25-6.627-2.355-1.417-1.016-2.639-1.895-5.209-1.895v-2.488c3.348 0 5.089 1.25 6.627 2.356 1.417 1.019 2.639 1.898 5.209 1.898 2.566 0 3.791-.879 5.205-1.898 1.538-1.106 3.276-2.356 6.627-2.356 3.348 0 5.089 1.25 6.627 2.356 1.417 1.019 2.639 1.898 5.209 1.898s3.791-.879 5.209-1.898c1.538-1.106 3.279-2.356 6.627-2.356 3.352 0 5.093 1.25 6.631 2.356 1.417 1.019 2.639 1.898 5.209 1.898 2.569 0 3.791-.879 5.209-1.898 1.538-1.106 3.278-2.356 6.631-2.356v2.488c-2.57 0-3.795.879-5.209 1.899-1.542 1.101-3.282 2.351-6.635 2.351z" sketch:type="MSShapeGroup"/><path d="M59.667 18.82c-3.348 0-5.093-1.25-6.627-2.355-1.417-1.02-2.638-1.899-5.209-1.899-2.569 0-3.791.879-5.209 1.899-1.538 1.105-3.278 2.355-6.627 2.355-3.348 0-5.089-1.25-6.627-2.355-1.417-1.02-2.638-1.899-5.209-1.899-2.565 0-3.791.879-5.205 1.899-1.538 1.105-3.276 2.355-6.627 2.355-3.348 0-5.089-1.25-6.627-2.355-1.417-1.016-2.639-1.895-5.209-1.895v-2.488c3.348 0 5.089 1.25 6.627 2.356 1.417 1.019 2.639 1.898 5.209 1.898 2.566 0 3.791-.879 5.205-1.898 1.538-1.106 3.276-2.356 6.627-2.356 3.348 0 5.089 1.25 6.627 2.356 1.417 1.019 2.639 1.898 5.209 1.898s3.791-.879 5.209-1.898c1.538-1.106 3.279-2.356 6.627-2.356 3.352 0 5.093 1.25 6.631 2.356 1.417 1.019 2.639 1.898 5.209 1.898 2.569 0 3.791-.879 5.209-1.898 1.538-1.106 3.278-2.356 6.631-2.356v2.488c-2.57 0-3.795.879-5.209 1.899-1.542 1.101-3.282 2.351-6.635 2.351z" sketch:type="MSShapeGroup"/><path d="M59.667 24.66c-3.348 0-5.093-1.25-6.627-2.355-1.417-1.02-2.638-1.899-5.209-1.899-2.569 0-3.791.879-5.209 1.899-1.538 1.105-3.278 2.355-6.627 2.355-3.348 0-5.089-1.25-6.627-2.355-1.417-1.02-2.638-1.899-5.209-1.899-2.565 0-3.791.879-5.205 1.899-1.538 1.105-3.276 2.355-6.627 2.355-3.348 0-5.089-1.25-6.627-2.355-1.417-1.02-2.639-1.899-5.209-1.899v-2.488c3.348 0 5.089 1.25 6.627 2.355 1.417 1.02 2.639 1.899 5.209 1.899 2.566 0 3.791-.879 5.205-1.899 1.538-1.105 3.276-2.355 6.627-2.355 3.348 0 5.089 1.25 6.627 2.355 1.417 1.02 2.639 1.899 5.209 1.899s3.791-.879 5.209-1.899c1.538-1.105 3.279-2.355 6.627-2.355 3.352 0 5.093 1.25 6.631 2.355 1.417 1.02 2.639 1.899 5.209 1.899 2.569 0 3.791-.879 5.209-1.899 1.538-1.105 3.278-2.355 6.631-2.355v2.488c-2.57 0-3.795.879-5.209 1.899-1.542 1.101-3.282 2.355-6.635 2.355z" sketch:type="MSShapeGroup"/><path d="M59.667 30.496c-3.348 0-5.093-1.25-6.627-2.355-1.417-1.02-2.638-1.899-5.209-1.899-2.569 0-3.791.879-5.209 1.899-1.538 1.105-3.278 2.355-6.627 2.355-3.348 0-5.089-1.25-6.627-2.355-1.417-1.02-2.638-1.899-5.209-1.899-2.565 0-3.791.879-5.205 1.899-1.538 1.105-3.276 2.355-6.627 2.355-3.348 0-5.089-1.25-6.627-2.355-1.417-1.016-2.639-1.895-5.209-1.895v-2.488c3.348 0 5.089 1.25 6.627 2.355 1.417 1.02 2.639 1.899 5.209 1.899 2.566 0 3.791-.879 5.205-1.899 1.538-1.105 3.276-2.355 6.627-2.355 3.348 0 5.089 1.25 6.627 2.355 1.417 1.02 2.639 1.899 5.209 1.899s3.791-.879 5.209-1.899c1.538-1.105 3.279-2.355 6.627-2.355 3.352 0 5.093 1.25 6.631 2.355 1.417 1.02 2.639 1.899 5.209 1.899 2.569 0 3.791-.879 5.209-1.899 1.538-1.105 3.278-2.355 6.631-2.355v2.488c-2.57 0-3.795.879-5.209 1.899-1.542 1.101-3.282 2.351-6.635 2.351z" sketch:type="MSShapeGroup"/><path d="M59.667 36.336c-3.348 0-5.093-1.25-6.627-2.356-1.417-1.019-2.638-1.898-5.209-1.898-2.569 0-3.791.879-5.209 1.898-1.538 1.106-3.278 2.356-6.627 2.356-3.348 0-5.089-1.25-6.627-2.356-1.417-1.019-2.638-1.898-5.209-1.898-2.565 0-3.791.879-5.205 1.898-1.538 1.106-3.276 2.356-6.627 2.356-3.348 0-5.089-1.25-6.627-2.356-1.417-1.015-2.639-1.894-5.209-1.894v-2.488c3.348 0 5.089 1.25 6.627 2.355 1.417 1.02 2.639 1.899 5.209 1.899 2.566 0 3.791-.879 5.205-1.899 1.538-1.105 3.276-2.355 6.627-2.355 3.348 0 5.089 1.25 6.627 2.355 1.417 1.02 2.639 1.899 5.209 1.899s3.791-.879 5.209-1.899c1.538-1.105 3.279-2.355 6.627-2.355 3.352 0 5.093 1.25 6.631 2.355 1.417 1.02 2.639 1.899 5.209 1.899 2.569 0 3.791-.879 5.209-1.899 1.538-1.105 3.278-2.355 6.631-2.355v2.488c-2.57 0-3.795.879-5.209 1.898-1.542 1.102-3.282 2.352-6.635 2.352z" sketch:type="MSShapeGroup"/><path d="M59.667 42.176c-3.348 0-5.093-1.25-6.627-2.356-1.417-1.019-2.638-1.898-5.209-1.898-2.569 0-3.791.879-5.209 1.898-1.538 1.106-3.278 2.356-6.627 2.356-3.348 0-5.089-1.25-6.627-2.356-1.417-1.019-2.638-1.898-5.209-1.898-2.565 0-3.791.879-5.205 1.894-1.538 1.106-3.276 2.356-6.627 2.356-3.348 0-5.089-1.25-6.627-2.356-1.417-1.015-2.639-1.894-5.209-1.894v-2.488c3.348 0 5.089 1.25 6.627 2.355 1.417 1.02 2.639 1.899 5.209 1.899 2.566 0 3.791-.879 5.205-1.899 1.538-1.105 3.276-2.355 6.627-2.355 3.348 0 5.089 1.25 6.627 2.355 1.417 1.02 2.639 1.899 5.209 1.899s3.791-.879 5.209-1.899c1.538-1.105 3.279-2.355 6.627-2.355 3.352 0 5.093 1.25 6.631 2.355 1.417 1.02 2.639 1.899 5.209 1.899 2.569 0 3.791-.879 5.209-1.899 1.538-1.105 3.278-2.355 6.631-2.355v2.488c-2.57 0-3.795.879-5.209 1.898-1.542 1.106-3.282 2.356-6.635 2.356z" sketch:type="MSShapeGroup"/><path d="M59.667 48.016c-3.348 0-5.093-1.25-6.627-2.356-1.417-1.019-2.638-1.898-5.209-1.898-2.569 0-3.791.879-5.209 1.898-1.538 1.106-3.278 2.356-6.627 2.356-3.348 0-5.089-1.25-6.627-2.356-1.417-1.019-2.638-1.898-5.209-1.898-2.565 0-3.791.879-5.205 1.898-1.538 1.106-3.276 2.356-6.627 2.356-3.348 0-5.089-1.25-6.627-2.356-1.417-1.019-2.639-1.898-5.209-1.898v-2.489c3.348 0 5.089 1.25 6.627 2.356 1.417 1.019 2.639 1.898 5.209 1.898 2.566 0 3.791-.879 5.205-1.898 1.538-1.106 3.276-2.356 6.627-2.356 3.348 0 5.089 1.25 6.627 2.356 1.417 1.019 2.639 1.898 5.209 1.898s3.791-.879 5.209-1.898c1.538-1.106 3.279-2.356 6.627-2.356 3.352 0 5.093 1.25 6.631 2.356 1.417 1.019 2.639 1.898 5.209 1.898 2.569 0 3.791-.879 5.209-1.898 1.538-1.106 3.278-2.356 6.631-2.356v2.489c-2.57 0-3.795.879-5.209 1.898-1.542 1.106-3.282 2.356-6.635 2.356z" sketch:type="MSShapeGroup"/><path d="M59.667 53.852c-3.348 0-5.093-1.25-6.627-2.356-1.417-1.019-2.638-1.898-5.209-1.898-2.569 0-3.791.879-5.209 1.898-1.538 1.106-3.278 2.356-6.627 2.356-3.348 0-5.089-1.25-6.627-2.356-1.417-1.019-2.638-1.898-5.209-1.898-2.565 0-3.791.879-5.205 1.898-1.538 1.106-3.276 2.356-6.627 2.356-3.348 0-5.089-1.25-6.627-2.356-1.417-1.016-2.639-1.894-5.209-1.894v-2.489c3.348 0 5.089 1.25 6.627 2.356 1.417 1.019 2.639 1.898 5.209 1.898 2.566 0 3.791-.879 5.205-1.898 1.538-1.106 3.276-2.356 6.627-2.356 3.348 0 5.089 1.25 6.627 2.356 1.417 1.019 2.639 1.898 5.209 1.898s3.791-.879 5.209-1.898c1.538-1.106 3.279-2.356 6.627-2.356 3.352 0 5.093 1.25 6.631 2.356 1.417 1.019 2.639 1.898 5.209 1.898 2.569 0 3.791-.879 5.209-1.898 1.538-1.106 3.278-2.356 6.631-2.356v2.489c-2.57 0-3.795.878-5.209 1.898-1.542 1.102-3.282 2.352-6.635 2.352z" sketch:type="MSShapeGroup"/><path d="M59.667 59.691c-3.348 0-5.093-1.25-6.627-2.355-1.417-1.02-2.638-1.898-5.209-1.898-2.569 0-3.791.878-5.209 1.898-1.538 1.105-3.278 2.355-6.627 2.355-3.348 0-5.089-1.25-6.627-2.355-1.417-1.02-2.638-1.898-5.209-1.898-2.565 0-3.791.878-5.205 1.898-1.538 1.105-3.276 2.355-6.627 2.355-3.348 0-5.089-1.25-6.627-2.355-1.417-1.016-2.639-1.895-5.209-1.895v-2.488c3.348 0 5.089 1.25 6.627 2.356 1.417 1.019 2.639 1.898 5.209 1.898 2.566 0 3.791-.879 5.205-1.898 1.538-1.106 3.276-2.356 6.627-2.356 3.348 0 5.089 1.25 6.627 2.356 1.417 1.019 2.639 1.898 5.209 1.898s3.791-.879 5.209-1.898c1.538-1.106 3.279-2.356 6.627-2.356 3.352 0 5.093 1.25 6.631 2.356 1.417 1.019 2.639 1.898 5.209 1.898 2.569 0 3.791-.879 5.209-1.898 1.538-1.106 3.278-2.356 6.631-2.356v2.488c-2.57 0-3.795.879-5.209 1.899-1.542 1.101-3.282 2.351-6.635 2.351z" sketch:type="MSShapeGroup"/><path d="M59.667 65.531c-3.348 0-5.093-1.25-6.627-2.355-1.417-1.02-2.638-1.899-5.209-1.899-2.569 0-3.791.879-5.209 1.899-1.538 1.105-3.278 2.355-6.627 2.355-3.348 0-5.089-1.25-6.627-2.355-1.417-1.02-2.638-1.899-5.209-1.899-2.565 0-3.791.879-5.205 1.899-1.538 1.105-3.276 2.355-6.627 2.355-3.348 0-5.089-1.25-6.627-2.355-1.417-1.016-2.639-1.899-5.209-1.899v-2.488c3.348 0 5.089 1.25 6.627 2.356 1.417 1.019 2.639 1.898 5.209 1.898 2.566 0 3.791-.879 5.205-1.898 1.538-1.106 3.276-2.356 6.627-2.356 3.348 0 5.089 1.25 6.627 2.356 1.417 1.019 2.639 1.898 5.209 1.898s3.791-.879 5.209-1.898c1.538-1.106 3.279-2.356 6.627-2.356 3.352 0 5.093 1.25 6.631 2.356 1.417 1.019 2.639 1.898 5.209 1.898 2.569 0 3.791-.879 5.209-1.898 1.538-1.106 3.278-2.356 6.631-2.356v2.488c-2.57 0-3.795.879-5.209 1.899-1.542 1.105-3.282 2.355-6.635 2.355z" sketch:type="MSShapeGroup"/><path d="M59.667 71.371c-3.348 0-5.093-1.25-6.627-2.355-1.417-1.02-2.638-1.899-5.209-1.899-2.569 0-3.791.879-5.209 1.899-1.538 1.105-3.278 2.355-6.627 2.355-3.348 0-5.089-1.25-6.627-2.355-1.417-1.02-2.638-1.899-5.209-1.899-2.565 0-3.791.879-5.205 1.899-1.538 1.105-3.276 2.355-6.627 2.355-3.348 0-5.089-1.25-6.627-2.355-1.417-1.02-2.639-1.899-5.209-1.899v-2.488c3.348 0 5.089 1.25 6.627 2.355 1.417 1.02 2.639 1.899 5.209 1.899 2.566 0 3.791-.879 5.205-1.899 1.538-1.105 3.276-2.355 6.627-2.355 3.348 0 5.089 1.25 6.627 2.355 1.417 1.02 2.639 1.899 5.209 1.899s3.791-.879 5.209-1.899c1.538-1.105 3.279-2.355 6.627-2.355 3.352 0 5.093 1.25 6.631 2.355 1.417 1.02 2.639 1.899 5.209 1.899 2.569 0 3.791-.879 5.209-1.899 1.538-1.105 3.278-2.355 6.631-2.355v2.488c-2.57 0-3.795.879-5.209 1.899-1.542 1.101-3.282 2.355-6.635 2.355z" sketch:type="MSShapeGroup"/></g></svg>
