<svg width="80" height="80" xmlns="http://www.w3.org/2000/svg" xmlns:sketch="http://www.bohemiancoding.com/sketch/ns"><title>tri</title><desc>Created with Sketch.</desc><path d="M74.772 52.5l-29.847-51.676c-.301-.523-.899-.824-1.5-.824h-11.926c-.602 0-1.199.301-1.5.824l-29.773 51.676c-.301.523-.301 1.199 0 1.726l6 10.352c.3.523.898.824 1.5.824h59.625c.601 0 1.199-.301 1.5-.824l6-10.352c.222-.527.222-1.203-.079-1.726zm-42.222-49.051h7.949l-22.352 38.699c-.3.524-.3 1.199 0 1.727.301.523.899.824 1.5.824h22.875l3.977 6.898h-41.773l27.824-48.148zm4.949 32.699l3 5.176h-6l3-5.176zm-32.773 18.903h44.699c.601 0 1.199-.301 1.5-.825.301-.523.301-1.199 0-1.726l-11.403-19.801 3.977-6.898 20.852 36.148h-55.653l-3.972-6.898zm62.625 5.171l-22.426-38.699c-.301-.523-.899-.824-1.5-.824-.602 0-1.199.301-1.5.824l-11.403 19.801h-7.949l20.926-36.148 27.824 48.226-3.972 6.82z" sketch:type="MSShapeGroup" fill=""/></svg>
