<svg width="65" height="57" xmlns="http://www.w3.org/2000/svg" xmlns:sketch="http://www.bohemiancoding.com/sketch/ns"><title>triangles</title><desc>Created with Sketch.</desc><path d="M0 55.777c0-.129.652-1.363 1.445-2.738.797-1.375 1.547-2.68 1.668-2.895.762-1.355 3.215-5.594 3.446-5.961.152-.238.562-.941.91-1.562.531-.942 2.222-3.875 3.027-5.25.121-.203 1.109-1.922 2.191-3.813 1.086-1.89 2.192-3.793 2.454-4.23.265-.438.48-.817.48-.84 0-.028.219-.41.492-.852.27-.441 1.321-2.254 2.332-4.031 1.723-3.019 2.16-3.773 3.68-6.355.324-.551.703-1.2.84-1.446s.672-1.172 1.183-2.062c.516-.891 1.598-2.77 2.411-4.18.808-1.41 1.964-3.406 2.566-4.437.602-1.032 1.203-2.071 1.34-2.313 1.465-2.586 1.621-2.812 1.976-2.812.36 0 .442.121 3.231 5 .234.41 1.047 1.816 1.805 3.125 2.25 3.882 3.664 6.339 3.992 6.937.168.309.433.758.586 1 .152.242.863 1.449 1.57 2.688 2.312 4.023 4.383 7.609 4.82 8.328.235.39.426.738.426.777 0 .039.188.371.418.731.227.363.59.968.797 1.347.211.379.773 1.363 1.254 2.188.476.824 2.121 3.664 3.648 6.312 1.528 2.645 3.121 5.403 3.539 6.121.418.723.91 1.567 1.098 1.875 1.789 2.985 5.246 9.133 5.246 9.328 0 .25-.121.25-32.434.25-31.765.008-32.437 0-32.437-.23zm6.098-1.195c-.278-.02-.528-.012-.563.019-.031.031.07.285.231.563l.293.507.539-1.054-.5-.035zm10.961-.461c.355-.618 2.031-3.524 3.726-6.457 1.695-2.934 3.082-5.368 3.082-5.407 0-.039-3.457-.066-7.687-.062-4.227.008-7.688.035-7.688.066 0 .055 4.024 7.078 4.934 8.614.285.48 1.023 1.753 1.636 2.832.879 1.539 1.141 1.91 1.231 1.75l.762-1.332.004-.004zm9.378-2.168c.141-.25.547-.95.907-1.551l.644-1.094h-3.633c-3.175 0-3.625.024-3.562.188.039.105.391.738.781 1.406.391.668 1.047 1.812 1.457 2.531l1.008 1.766.262.453.941-1.621c.52-.895 1.059-1.828 1.199-2.082l-.004.004zm17.68-2.551c0-.051-1.601-.094-3.558-.094-1.957 0-3.563.047-3.563.102 0 .054.215.461.477.906.738 1.246 1.8 3.07 2.468 4.25l.61 1.074 1.781-3.074c.977-1.688 1.781-3.113 1.781-3.164h.004zm5.477 4.656l2.019-3.5c.735-1.269 1.778-3.07 2.317-3.996 1.879-3.23 2.41-4.187 2.363-4.266-.024-.043-3.512-.086-7.742-.101l-7.696-.02.301.477c.363.574 2.485 4.238 3.711 6.414.254.445.875 1.52 1.387 2.383.512.867 1.265 2.168 1.676 2.894.593 1.043.777 1.278.867 1.114.062-.114.422-.739.801-1.395l-.004-.004zm10.769-4.656c0-.051-1.601-.094-3.558-.094-1.957 0-3.559.039-3.559.094 0 .051.481.91 1.063 1.906.582.996 1.378 2.383 1.769 3.078l.711 1.27 1.785-3.082c.985-1.696 1.789-3.125 1.789-3.176v.004zm-58.074 5.715c.113-.242.207-.469.207-.5 0-.031-.254-.059-.562-.059h-.567l.254.5c.141.274.301.5.356.5.054 0 .195-.199.308-.441h.004zm2.254-.403c.246-.464.594-1.082.769-1.375l.325-.531h-3.289l.308.531.789 1.375c.266.465.52.844.563.844.047 0 .285-.379.535-.844zm3.836.375c.797-1.343 3.148-5.457 3.207-5.609.051-.144-.527-.172-3.574-.172h-3.633l.539.906c.301.496 1.117 1.907 1.824 3.125.703 1.219 1.297 2.215 1.32 2.215.02 0 .161-.211.317-.468v.003zm2.105-.093l.258-.438h-1.25l.258.504c.289.563.363.559.73-.066h.004zm2.473-.786l.766-1.339-.797-.035c-.438-.02-1.157-.02-1.594 0l-.797.035.758 1.343c.418.739.789 1.344.828 1.34.039-.004.418-.609.84-1.344h-.004zm1.281.372c-.281-.02-.543-.008-.578.027-.035.035.067.269.219.523l.285.461.586-.968-.512-.039v-.004zm4.254.554c.145-.23.258-.457.258-.5 0-.043-.254-.078-.563-.078h-.562l.254.5c.14.274.277.5.305.5.027 0 .168-.187.308-.422zm2.602-.922l.777-1.343-.809-.035c-.445-.02-1.164-.02-1.605 0l-.797.035.766 1.343c.422.739.793 1.344.828 1.344.035 0 .41-.605.84-1.344zm1.535.848l.254-.5h-.567c-.308 0-.562.035-.562.078 0 .106.508.922.57.922.024 0 .164-.223.305-.5zm3.992.078c.145-.23.258-.457.258-.5 0-.043-.254-.078-.563-.078h-.566l.258.5c.14.274.277.5.304.5.024 0 .165-.187.309-.422zm2.227-.297c.218-.394.57-1.015.781-1.375l.379-.656h-3.254l.41.719.777 1.371c.204.359.403.656.438.656.035 0 .246-.32.465-.715h.004zm1.976.063l.184-.34h-.567c-.308 0-.566.039-.562.094 0 .05.117.285.262.519.277.461.293.453.683-.273zm1.934.187c.152-.254.926-1.593 1.715-2.968 1.496-2.594 2.726-4.735 3.968-6.875.399-.688 1.129-1.954 1.621-2.813.497-.859 2.153-3.727 3.688-6.375 3.473-5.996 4.496-7.781 4.496-7.832 0-.023-7.113-.039-15.805-.039-14.597 0-15.8.016-15.73.203.066.172 2.152 3.809 2.539 4.418l.473.813c.195.343.89 1.55 1.546 2.687.657 1.133 1.336 2.313 1.512 2.625l.938 1.625c.34.582 1.367 2.356 2.281 3.938 1.754 3.031 1.988 3.433 4.621 7.996l1.715 2.972c.086.149.125.118.418-.375h.004zm2.101-.093l.258-.438h-.629c-.343 0-.621.027-.621.063 0 .152.563.91.641.863.047-.028.199-.25.344-.488h.007zm2.469-.786l.766-1.343-.797-.035c-.438-.02-1.156-.02-1.594 0l-.797.035.766 1.343c.422.739.793 1.344.828 1.344.035 0 .406-.605.828-1.344zm1.547.848l.254-.5h-.563c-.308 0-.562.039-.562.094 0 .125.48.906.558.906.032 0 .176-.223.317-.5h-.004zm3.988.078c.145-.23.258-.457.258-.5 0-.043-.254-.078-.566-.078h-.567l.254.5c.141.274.277.5.305.5.031 0 .168-.187.312-.422h.004zm2.59-.922l.766-1.343-.797-.036c-.438-.019-1.156-.019-1.594 0l-.797.036.766 1.343c.422.739.793 1.344.828 1.344.031 0 .406-.605.828-1.344zm1.547.848l.254-.5h-.641c-.492 0-.617.035-.527.156.062.086.215.309.332.5.117.192.238.344.269.344.032 0 .172-.223.313-.5zm4.105-.063l.258-.437h-1.25l.258.504c.289.562.363.558.731-.067h.003zm2.469-.785l.766-1.343-.797-.036c-.438-.019-1.16-.019-1.602 0l-.804.036.586 1c.324.55.664 1.152.761 1.343.098.192.211.344.25.344.039 0 .418-.605.836-1.344h.004zm1.485.368c-.172-.02-.446-.02-.61 0l-.297.039.309.492.312.492.594-.984-.312-.039h.004zm4.062.57c.137-.223.25-.449.25-.5 0-.051-.254-.094-.562-.094h-.567l.254.5c.141.274.285.5.316.5.036 0 .172-.184.309-.406zm2.582-.938l.777-1.343-.804-.036c-.446-.019-1.168-.019-1.617 0l-.809.036.777 1.343c.426.739.805 1.344.84 1.344.031 0 .41-.605.836-1.344zm1.609.688l.184-.34h-.566c-.313 0-.563.039-.563.094 0 .05.117.285.262.519.277.461.289.453.683-.273zm-58.968-3.348l.285-.5h-1.234l.269.5c.148.274.301.496.336.496.035 0 .191-.222.348-.496h-.004zm8.109 0l.27-.5h-1.211l.269.5c.149.274.301.496.336.496.035 0 .184-.222.332-.496h.004zm8.125 0l.27-.5h-1.207l.269.5c.149.274.301.496.332.496.035 0 .184-.222.336-.496zm8.125 0l.27-.5h-1.239l.285.5c.157.274.313.496.348.496.035 0 .184-.222.332-.496h.004zm8.125 0l.27-.5h-.555c-.305 0-.551.028-.551.059 0 .125.426.941.492.941.039 0 .196-.226.344-.5zm8.137 0l.289-.5h-1.266l.285.5c.157.274.313.496.348.496.031 0 .188-.222.344-.496zm8.109 0l.27-.5h-1.235l.286.5c.156.274.312.496.347.496.035 0 .184-.222.332-.496zm8.125 0l.27-.5h-1.239l.286.5c.156.274.312.496.347.496.032 0 .184-.222.332-.496h.004zm-55.097-3.976c-.278-.024-.532-.012-.567.023-.035.035.063.27.215.516l.281.453.578-.953-.504-.039h-.003zm2.734-.305c.398-.703.746-1.324.766-1.375.023-.051-.668-.094-1.532-.094-.863 0-1.574.031-1.574.067 0 .089 1.516 2.683 1.57 2.683.024 0 .371-.574.77-1.281zm1.527.836c.145-.246.262-.469.262-.5 0-.031-.258-.055-.57-.055h-.575l.282.5c.156.274.293.5.308.5.016 0 .145-.199.289-.445h.004zm11.989-.535c-.278-.02-.532-.012-.571.023-.035.035.063.27.215.516l.277.453.579-.953-.504-.039h.004zm2.812-.438c.391-.672.707-1.25.707-1.281 0-.031-.703-.055-1.562-.055-.86 0-1.563.02-1.563.051 0 .191 1.551 2.695 1.621 2.613.051-.058.406-.656.797-1.332v.004zm1.449.992c.145-.23.258-.457.258-.5 0-.046-.254-.078-.566-.078h-.567l.285.5c.157.274.293.5.305.5.012 0 .137-.191.281-.418l.004-.004zm11.985-.55c-.278-.02-.536-.012-.571.023-.035.035.059.27.215.516l.281.453.289-.477.286-.476-.504-.039h.004zm2.761-.368l.75-1.343-1.511-.035c-.832-.02-1.532-.016-1.559.011-.047.043 1.453 2.711 1.527 2.711.02 0 .375-.605.789-1.344h.004zm1.496.899c.145-.246.262-.469.262-.5 0-.031-.254-.055-.566-.055h-.567l.285.5c.157.274.293.5.305.5l.278-.441.003-.004zm12.332-.211l.184-.344h-.566c-.309 0-.563.043-.563.094 0 .051.117.289.262.523.277.457.289.453.683-.273zm2.473-.758c.391-.672.707-1.25.707-1.281 0-.031-.703-.055-1.562-.055-1.489 0-1.703.047-1.453.32.058.067.25.372.425.684.84 1.512 1.004 1.758 1.086 1.664.047-.055.406-.656.797-1.328v-.004zm1.445.992c.145-.23.258-.457.258-.5 0-.047-.254-.078-.566-.078h-.567l.286.5c.156.274.293.5.304.5.012 0 .137-.191.282-.418l.003-.004zm-50.664-3.734l.188-.344h-1.149l.282.5c.297.524.312.524.679-.156zm16.43-.274c0-.039-.254-.07-.562-.07h-.567l.262.516.262.512.304-.446c.164-.246.301-.476.301-.512zm15.996.43l.254-.5h-1.144l.281.5c.152.274.301.5.32.5.02 0 .149-.226.289-.5zm15.985-.476c-.286-.02-.54-.016-.567.015-.031.028.07.262.223.52l.273.465.293-.481.289-.48-.508-.039h-.003zm-46.368-3.18l.282-.469h-.633c-.352 0-.637.031-.637.07 0 .176.57 1.036.637.957.039-.046.199-.3.355-.558h-.004zm4.215-.43c-.031-.027-.308-.035-.617-.015l-.566.039.64 1.078.297-.524c.164-.289.274-.547.246-.574v-.004zm3.078-1.66c.856-1.48 1.68-2.898 1.836-3.156l.282-.469h-7.418l.25.406c.136.223.554.942.929 1.594 1.723 3.008 2.516 4.367 2.543 4.34.016-.016.727-1.238 1.582-2.715h-.004zm.832 2.094l.282-.469h-.637c-.348 0-.633.023-.633.051 0 .031.121.281.274.562.296.555.3.555.714-.144zm3.086-1.875l.18-.344h-1.621c-1.891 0-1.813-.18-.715 1.668l.73 1.231.626-1.106c.343-.609.703-1.262.804-1.449h-.004zm1.168 1.5c.004-.051-.277-.094-.625-.094h-.629l.207.406c.379.75.438.766.754.254.16-.258.293-.515.293-.566zm20.117.375l.282-.469h-.649c-.355 0-.625.039-.597.094.339.707.539 1.019.605.937.043-.05.207-.304.359-.562zm4.258-.418c0-.028-.277-.051-.617-.051h-.617l.641 1.141.296-.524c.161-.285.297-.539.297-.57v.004zm2.567-.863c.601-1.032 1.32-2.27 1.593-2.75.274-.481.606-1.059.739-1.282l.246-.406h-7.414l.242.406c.133.223.969 1.653 1.851 3.18.883 1.523 1.618 2.762 1.629 2.75.012-.012.512-.867 1.118-1.898h-.004zm1.312 1.304l.25-.492h-.637c-.351 0-.617.039-.593.094.34.707.535 1.008.625.957.058-.035.218-.285.359-.559h-.004zm4.199-.453c-.027-.027-.308-.035-.625-.016l-.574.04.649 1.086.3-.532c.168-.289.282-.551.25-.582v.004zm-42.336-.375c.422-.734.747-1.355.723-1.379-.027-.023-.758-.027-1.625-.012l-1.578.036.773 1.343c.426.739.809 1.344.86 1.344.047 0 .429-.597.851-1.332h-.004zm32.344.238c.356-.597.703-1.218.785-1.375l.145-.281h-1.629c-.898 0-1.629.024-1.629.051 0 .117 1.539 2.699 1.609 2.699.04 0 .368-.492.719-1.094zm8 .25c.262-.464.547-.957.629-1.093.453-.739.445-.746-.418-.786-.437-.019-1.16-.019-1.605 0l-.813.036.778 1.343c.425.739.816 1.344.863 1.344.051 0 .301-.379.566-.844zm-40.844-3.156l.282-.5h-.633c-.348 0-.633.027-.633.063 0 .109.559.933.633.933.039 0 .195-.226.351-.5v.004zm8.141 0l.254-.5h-1.25l.262.5c.144.274.308.5.371.5.058 0 .222-.226.363-.5zm24.356 0l.281-.5h-1.281l.281.5c.156.274.316.5.359.5.043 0 .203-.226.36-.5zm8.125 0l.281-.5h-1.281l.281.5c.156.274.316.5.359.5.043 0 .203-.226.36-.5zm-36-4.453c.355-.625.648-1.176.648-1.219 0-.043-.703-.078-1.563-.078-.859 0-1.562.035-1.562.078s.352.684.777 1.422c.653 1.121.805 1.313.918 1.141.075-.114.43-.719.785-1.348l-.003.004zm1.394 1.082c.141-.273.254-.523.254-.562 0-.04-.258-.067-.574-.067-.313 0-.555.043-.528.094.227.473.528 1.031.559 1.031.02 0 .148-.222.289-.496zm31.094-1.062c.836-1.426.914-1.313-.899-1.313-.867 0-1.574.043-1.574.094 0 .051.266.543.594 1.094.328.55.676 1.156.773 1.347l.18.348.207-.348.723-1.222h-.004zm1.445 1l.313-.563h-1.227l.274.563c.148.308.285.562.296.562.016 0 .168-.254.344-.562zm-36.551-.012c.145-.242.262-.469.262-.5 0-.031-.273-.055-.613-.055h-.617l.269.5c.149.274.309.5.356.5.043 0 .199-.199.343-.445zm32.496 0c.145-.242.262-.469.262-.5 0-.031-.281-.055-.629-.055h-.629l.285.5c.157.274.325.5.368.5.043 0 .199-.199.343-.445zm-30.234-4.004c0-.027-.25-.051-.562-.051-.309 0-.563.031-.563.07 0 .04.125.286.277.551l.278.485.285-.504c.156-.278.285-.524.285-.551zm32.492.043c.004-.051-.254-.094-.566-.094-.313 0-.555.043-.527.094l.281.559.234.464.289-.464c.156-.258.285-.508.289-.559zm-24.117-3.902l1.098-1.938c.176-.309.64-1.109 1.039-1.781l.722-1.219h-7.378l.238.344c.133.187.472.765.762 1.281.289.516.687 1.219.894 1.563.203.343.695 1.195 1.094 1.894.394.699.73 1.262.738 1.25l.797-1.394h-.004zm17.66-2.45c.664-1.14 1.238-2.168 1.285-2.281.071-.187-.234-.203-3.5-.203-1.964 0-3.574.043-3.57.094.004.051.363.711.805 1.468.441.758 1.242 2.141 1.773 3.079l.969 1.703.516-.891c.281-.488 1.054-1.824 1.722-2.965v-.004zm-24.297 3.344c.145-.23.258-.457.258-.5 0-.043-.258-.078-.57-.078h-.57l.281.5c.152.273.293.5.308.5.016 0 .145-.191.289-.422h.004zm2.59-.922l.766-1.344-.797-.035c-.438-.019-1.156-.019-1.598 0l-.804.035.582 1c.324.551.664 1.157.761 1.344.098.188.211.344.25.34.039 0 .418-.605.84-1.344v.004zm1.281.367c-.281-.019-.539-.011-.574.024-.035.035.067.269.219.523l.285.461.586-.969-.512-.039h-.004zm4.254.555c.145-.23.258-.457.258-.5 0-.043-.25-.078-.562-.078-.309 0-.563.023-.563.055 0 .078.516.945.563.945.023 0 .156-.191.3-.422h.004zm2.301-.422c.258-.465.609-1.082.777-1.375l.309-.531h-3.25l.406.719c.938 1.66 1.157 2.031 1.223 2.031.039 0 .281-.379.539-.844h-.004zm1.832.344l.254-.5h-.562c-.309 0-.567.043-.563.094 0 .129.481.906.559.906.035 0 .175-.227.316-.5h-.004zm4.84-4.875c4.238-7.336 4.531-7.852 4.531-7.93 0-.039-3.457-.07-7.687-.07-4.227 0-7.688.035-7.688.082 0 .043.246.508.551 1.031.305.524 1.445 2.496 2.539 4.387 1.094 1.891 2.57 4.437 3.281 5.664.711 1.227 1.332 2.18 1.383 2.125.051-.059 1.442-2.437 3.09-5.289zm-.734 4.812l.257-.437h-.617c-.343 0-.621.027-.621.062 0 .149.563.911.641.864.047-.028.199-.25.344-.489h-.004zm2.464-.785l.766-1.34-.793-.035c-.437-.019-1.152-.019-1.586 0l-.793.035.762 1.344c.418.739.789 1.34.824 1.34.035 0 .403-.605.824-1.344h-.004zm1.29.371c-.286-.019-.543-.011-.579.024-.035.035.067.269.219.523l.285.461.586-.969-.511-.039zm4.253.555c.145-.23.258-.457.258-.5 0-.043-.258-.078-.57-.078h-.57l.281.5c.156.273.293.5.308.5.016 0 .145-.191.29-.422h.003zm2.602-.926l.777-1.34-.808-.035c-.446-.019-1.168-.019-1.602 0l-.793.035.762 1.344c.418.739.789 1.34.824 1.34.031 0 .41-.605.84-1.344zm1.27.371c-.282-.019-.54-.011-.575.024-.035.035.063.269.219.523l.285.461.586-.969-.512-.039h-.003zm-26.122-3.089l.258-.438h-1.25l.282.488c.156.27.32.469.367.438.047-.027.203-.25.343-.488zm8.102.058l.27-.5h-1.239l.285.5c.157.274.313.5.348.5.035 0 .184-.223.332-.5h.004zm8.148-.031l.258-.469h-.636c-.489 0-.61.035-.524.156l.336.508c.121.196.238.336.262.313.023-.024.156-.254.301-.512l.003.004zm8.11.031l.289-.5h-1.238l.269.5c.149.274.301.5.336.5.031 0 .188-.223.348-.5h-.004zm-22.617-3.973c-.278-.019-.532-.011-.571.024-.035.035.063.266.215.516l.277.453.579-.953-.504-.04h.004zm2.726-.304c.403-.703.75-1.324.774-1.375.023-.051-.672-.094-1.543-.094-.871 0-1.567.043-1.543.094.101.23 1.507 2.656 1.543 2.656.019 0 .367-.574.769-1.277v-.004zm1.531.836c.145-.246.262-.469.262-.5 0-.032-.254-.055-.566-.055h-.567l.285.5c.157.273.293.5.305.5l.281-.445zm11.989-.532c-.278-.019-.535-.011-.571.024-.035.035.059.266.215.516l.281.453.29-.477.285-.476-.504-.04h.004zm2.808-.417c.391-.665.707-1.243.707-1.282 0-.039-.703-.07-1.562-.07-.86 0-1.563.023-1.563.051 0 .187 1.559 2.691 1.621 2.609.043-.055.403-.644.793-1.308h.004zm1.45.976c.144-.23.257-.457.257-.5 0-.043-.257-.078-.57-.078h-.57l.281.5c.156.273.293.5.309.5.015 0 .144-.191.289-.422h.004zm-18.168-3.734l.187-.344h-1.129l.266.519c.281.551.293.547.683-.175h-.007zm16.25 0l.187-.344h-1.133l.266.519c.281.551.293.547.683-.175h-.003zm-14.122-3.625l.18-.344h-.629c-.344 0-.625.031-.625.07 0 .039.125.289.281.563.309.539.372.515.793-.285v-.004zm4.129-.305c-.027-.027-.304-.035-.617-.016l-.562.039.64 1.079.297-.528c.164-.289.274-.551.246-.578l-.004.004zm2.176-.102l1.559-2.687c.496-.859 1.031-1.773 1.183-2.031l.278-.469h-7.414l.32.531c.176.293 1.004 1.727 1.844 3.184.836 1.461 1.535 2.64 1.55 2.625.016-.016.325-.535.684-1.153h-.004zm1.735.532l.281-.469h-.645c-.355 0-.625.043-.601.094.34.707.539 1.015.605.937.043-.051.207-.304.36-.562zm4.222-.422c-.031-.035-.316-.043-.625-.024l-.562.039.64 1.079.309-.516c.168-.285.277-.543.246-.578h-.008zm-9.859-.352c.43-.715.781-1.332.781-1.375 0-.039-.738-.074-1.637-.074-.898 0-1.617.043-1.593.094.179.406 1.523 2.656 1.586 2.656.043 0 .433-.586.859-1.301h.004zm7.918.332c.289-.531.629-1.117.758-1.3.125-.184.23-.364.23-.407 0-.043-.734-.074-1.637-.074-.898 0-1.617.051-1.593.109.128.336 1.543 2.641 1.617 2.641.051 0 .328-.434.621-.969h.004zm-8.403-3.031l.282-.5h-1.282l.282.5c.156.274.316.5.359.5.043 0 .203-.223.359-.5zm8.125 0l.282-.5h-1.282l.282.5c.152.274.316.5.359.5.043 0 .203-.223.359-.5zm-2.863-5.652c0-.051-.726-.094-1.613-.094h-1.617l1.672 2.852.777-1.332c.43-.735.781-1.376.781-1.426zm-3.254 2.203c.149-.25.242-.477.215-.508-.031-.031-.305-.035-.613-.016l-.559.039.297.469c.164.258.32.469.348.469.023 0 .168-.203.316-.453h-.004zm4.114-.11l.257-.437h-1.246l.258.504c.289.562.363.558.731-.067zm-1.86-3.847c0-.051-.25-.094-.558-.094-.309 0-.563.031-.563.07 0 .039.125.286.277.551l.278.481.281-.457c.156-.25.281-.5.285-.551z" sketch:type="MSShapeGroup" fill=""/></svg>
