<svg width="988" height="987" xmlns="http://www.w3.org/2000/svg" xmlns:sketch="http://www.bohemiancoding.com/sketch/ns"><title>wav</title><desc>Created with Sketch.</desc><g sketch:type="MSLayerGroup" fill=""><path d="M822.712 94.236c-46.493 0-70.74-17.361-92.041-32.722-19.685-14.153-36.644-26.361-72.342-26.361-35.685 0-52.658 12.208-72.342 26.361-21.356 15.361-45.534 32.722-92.041 32.722-46.493 0-70.685-17.361-92.041-32.722-19.685-14.153-36.644-26.361-72.342-26.361-35.63 0-52.658 12.208-72.288 26.361-21.356 15.361-45.493 32.722-92.041 32.722-46.507 0-70.685-17.361-92.041-32.722-19.685-14.153-36.658-26.361-72.342-26.361v-34.569c46.507 0 70.685 17.361 92.041 32.722 19.685 14.153 36.658 26.361 72.342 26.361 35.644 0 52.658-12.208 72.288-26.361 21.356-15.361 45.493-32.722 92.041-32.722 46.507 0 70.685 17.361 92.041 32.722 19.685 14.153 36.658 26.361 72.342 26.361 35.699 0 52.658-12.208 72.342-26.361 21.356-15.361 45.548-32.722 92.041-32.722 46.562 0 70.74 17.361 92.096 32.722 19.685 14.153 36.658 26.361 72.342 26.361 35.685 0 52.658-12.208 72.342-26.361 21.356-15.361 45.534-32.722 92.096-32.722v34.569c-35.699 0-52.712 12.208-72.342 26.361-21.411 15.306-45.589 32.722-92.151 32.722z" sketch:type="MSShapeGroup"/><path d="M822.712 175.278c-46.493 0-70.74-17.361-92.041-32.708-19.685-14.167-36.644-26.361-72.342-26.361-35.685 0-52.658 12.194-72.342 26.361-21.356 15.347-45.534 32.708-92.041 32.708-46.493 0-70.685-17.361-92.041-32.708-19.685-14.167-36.644-26.361-72.342-26.361-35.63 0-52.658 12.194-72.288 26.361-21.356 15.347-45.493 32.708-92.041 32.708-46.507 0-70.685-17.361-92.041-32.708-19.685-14.111-36.658-26.319-72.342-26.319v-34.556c46.507 0 70.685 17.361 92.041 32.722 19.685 14.153 36.658 26.361 72.342 26.361 35.644 0 52.658-12.208 72.288-26.361 21.356-15.361 45.493-32.722 92.041-32.722 46.507 0 70.685 17.361 92.041 32.722 19.685 14.153 36.658 26.361 72.342 26.361 35.699 0 52.658-12.208 72.342-26.361 21.356-15.361 45.548-32.722 92.041-32.722 46.562 0 70.74 17.361 92.096 32.722 19.685 14.153 36.658 26.361 72.342 26.361 35.685 0 52.658-12.208 72.342-26.361 21.356-15.361 45.534-32.722 92.096-32.722v34.556c-35.699 0-52.712 12.208-72.342 26.375-21.411 15.292-45.589 32.653-92.151 32.653z" sketch:type="MSShapeGroup"/><path d="M822.712 256.389c-46.493 0-70.74-17.361-92.041-32.708-19.685-14.167-36.644-26.375-72.342-26.375-35.685 0-52.658 12.208-72.342 26.375-21.356 15.347-45.534 32.708-92.041 32.708-46.493 0-70.685-17.361-92.041-32.708-19.685-14.167-36.644-26.375-72.342-26.375-35.63 0-52.658 12.208-72.288 26.375-21.356 15.347-45.493 32.708-92.041 32.708-46.507 0-70.685-17.361-92.041-32.708-19.685-14.111-36.658-26.319-72.342-26.319v-34.556c46.507 0 70.685 17.361 92.041 32.722 19.685 14.153 36.658 26.361 72.342 26.361 35.644 0 52.658-12.208 72.288-26.361 21.356-15.361 45.493-32.722 92.041-32.722 46.507 0 70.685 17.361 92.041 32.722 19.685 14.153 36.658 26.361 72.342 26.361 35.699 0 52.658-12.208 72.342-26.361 21.356-15.361 45.548-32.722 92.041-32.722 46.562 0 70.74 17.361 92.096 32.722 19.685 14.153 36.658 26.361 72.342 26.361 35.685 0 52.658-12.208 72.342-26.361 21.356-15.361 45.534-32.722 92.096-32.722v34.556c-35.699 0-52.712 12.208-72.342 26.375-21.411 15.292-45.589 32.653-92.151 32.653z" sketch:type="MSShapeGroup"/><path d="M822.712 337.5c-46.493 0-70.74-17.361-92.041-32.708-19.685-14.167-36.644-26.375-72.342-26.375-35.685 0-52.658 12.208-72.342 26.375-21.356 15.347-45.534 32.708-92.041 32.708-46.493 0-70.685-17.361-92.041-32.708-19.685-14.167-36.644-26.375-72.342-26.375-35.63 0-52.658 12.208-72.288 26.375-21.356 15.347-45.493 32.708-92.041 32.708-46.507 0-70.685-17.361-92.041-32.708-19.685-14.167-36.658-26.375-72.342-26.375v-34.556c46.507 0 70.685 17.361 92.041 32.708 19.685 14.167 36.658 26.375 72.342 26.375 35.644 0 52.658-12.208 72.288-26.375 21.356-15.347 45.493-32.708 92.041-32.708 46.507 0 70.685 17.361 92.041 32.708 19.685 14.167 36.658 26.375 72.342 26.375 35.699 0 52.658-12.208 72.342-26.375 21.356-15.347 45.548-32.708 92.041-32.708 46.562 0 70.74 17.361 92.096 32.708 19.685 14.167 36.658 26.375 72.342 26.375 35.685 0 52.658-12.208 72.342-26.375 21.356-15.347 45.534-32.708 92.096-32.708v34.556c-35.699 0-52.712 12.208-72.342 26.375-21.411 15.292-45.589 32.708-92.151 32.708z" sketch:type="MSShapeGroup"/><path d="M822.712 418.556c-46.493 0-70.74-17.361-92.041-32.708-19.685-14.167-36.644-26.375-72.342-26.375-35.685 0-52.658 12.208-72.342 26.375-21.356 15.347-45.534 32.708-92.041 32.708-46.493 0-70.685-17.361-92.041-32.708-19.685-14.167-36.644-26.375-72.342-26.375-35.63 0-52.658 12.208-72.288 26.375-21.356 15.347-45.493 32.708-92.041 32.708-46.507 0-70.685-17.361-92.041-32.708-19.685-14.111-36.658-26.319-72.342-26.319v-34.556c46.507 0 70.685 17.361 92.041 32.708 19.685 14.167 36.658 26.375 72.342 26.375 35.644 0 52.658-12.208 72.288-26.375 21.356-15.347 45.493-32.708 92.041-32.708 46.507 0 70.685 17.361 92.041 32.708 19.685 14.167 36.658 26.375 72.342 26.375 35.699 0 52.658-12.208 72.342-26.375 21.356-15.347 45.548-32.708 92.041-32.708 46.562 0 70.74 17.361 92.096 32.708 19.685 14.167 36.658 26.375 72.342 26.375 35.685 0 52.658-12.208 72.342-26.375 21.356-15.347 45.534-32.708 92.096-32.708v34.556c-35.699 0-52.712 12.208-72.342 26.375-21.411 15.292-45.589 32.653-92.151 32.653z" sketch:type="MSShapeGroup"/><path d="M730.671 466.944c-19.685-14.153-36.644-26.361-72.342-26.361-35.685 0-52.658 12.208-72.342 26.361-21.356 15.361-45.534 32.722-92.041 32.722-46.493 0-70.685-17.361-92.041-32.722-19.685-14.153-36.644-26.361-72.342-26.361-35.63 0-52.658 12.208-72.288 26.361-21.356 15.361-45.493 32.722-92.041 32.722-46.507 0-70.685-17.361-92.041-32.722-19.685-14.097-36.658-26.306-72.342-26.306v-34.556c46.507 0 70.685 17.361 92.041 32.708 19.685 14.167 36.658 26.375 72.342 26.375 35.644 0 52.658-12.208 72.288-26.375 21.356-15.347 45.493-32.708 92.041-32.708 46.507 0 70.685 17.361 92.041 32.708 19.685 14.167 36.658 26.375 72.342 26.375 35.699 0 52.658-12.208 72.342-26.375 21.356-15.347 45.548-32.708 92.041-32.708 46.562 0 70.74 17.361 92.096 32.708 19.685 14.167 36.658 26.375 72.342 26.375 35.685 0 52.658-12.208 72.342-26.375 21.356-15.347 45.534-32.708 92.096-32.708v34.556c-35.699 0-52.712 12.208-72.342 26.361-21.411 15.306-45.589 32.667-92.151 32.667-46.493 0-70.74-17.361-92.041-32.722z" sketch:type="MSShapeGroup"/><path d="M822.712 580.778c-46.493 0-70.74-17.361-92.041-32.722-19.685-14.153-36.644-26.361-72.342-26.361-35.685 0-52.658 12.208-72.342 26.361-21.356 15.361-45.534 32.722-92.041 32.722-46.493 0-70.685-17.361-92.041-32.722-19.685-14.153-36.644-26.361-72.342-26.361-35.63 0-52.658 12.208-72.288 26.306-21.356 15.361-45.493 32.722-92.041 32.722-46.507 0-70.685-17.361-92.041-32.722-19.685-14.097-36.658-26.306-72.342-26.306v-34.556c46.507 0 70.685 17.361 92.041 32.708 19.685 14.167 36.658 26.375 72.342 26.375 35.644 0 52.658-12.208 72.288-26.375 21.356-15.347 45.493-32.708 92.041-32.708 46.507 0 70.685 17.361 92.041 32.708 19.685 14.167 36.658 26.375 72.342 26.375 35.699 0 52.658-12.208 72.342-26.375 21.356-15.347 45.548-32.708 92.041-32.708 46.562 0 70.74 17.361 92.096 32.708 19.685 14.167 36.658 26.375 72.342 26.375 35.685 0 52.658-12.208 72.342-26.375 21.356-15.347 45.534-32.708 92.096-32.708v34.556c-35.699 0-52.712 12.208-72.342 26.361-21.411 15.361-45.589 32.722-92.151 32.722z" sketch:type="MSShapeGroup"/><path d="M822.712 661.889c-46.493 0-70.74-17.361-92.041-32.722-19.685-14.153-36.644-26.361-72.342-26.361-35.685 0-52.658 12.208-72.342 26.361-21.356 15.361-45.534 32.722-92.041 32.722-46.493 0-70.685-17.361-92.041-32.722-19.685-14.153-36.644-26.361-72.342-26.361-35.63 0-52.658 12.208-72.288 26.361-21.356 15.361-45.493 32.722-92.041 32.722-46.507 0-70.685-17.361-92.041-32.722-19.685-14.153-36.658-26.361-72.342-26.361v-34.569c46.507 0 70.685 17.361 92.041 32.722 19.685 14.153 36.658 26.361 72.342 26.361 35.644 0 52.658-12.208 72.288-26.361 21.356-15.361 45.493-32.722 92.041-32.722 46.507 0 70.685 17.361 92.041 32.722 19.685 14.153 36.658 26.361 72.342 26.361 35.699 0 52.658-12.208 72.342-26.361 21.356-15.361 45.548-32.722 92.041-32.722 46.562 0 70.74 17.361 92.096 32.722 19.685 14.153 36.658 26.361 72.342 26.361 35.685 0 52.658-12.208 72.342-26.361 21.356-15.361 45.534-32.722 92.096-32.722v34.569c-35.699 0-52.712 12.208-72.342 26.361-21.411 15.361-45.589 32.722-92.151 32.722z" sketch:type="MSShapeGroup"/><path d="M822.712 742.944c-46.493 0-70.74-17.361-92.041-32.722-19.685-14.153-36.644-26.361-72.342-26.361-35.685 0-52.658 12.208-72.342 26.361-21.356 15.361-45.534 32.722-92.041 32.722-46.493 0-70.685-17.361-92.041-32.722-19.685-14.153-36.644-26.361-72.342-26.361-35.63 0-52.658 12.208-72.288 26.361-21.356 15.361-45.493 32.722-92.041 32.722-46.507 0-70.685-17.361-92.041-32.722-19.685-14.111-36.658-26.306-72.342-26.306v-34.569c46.507 0 70.685 17.361 92.041 32.722 19.685 14.153 36.658 26.361 72.342 26.361 35.644 0 52.658-12.208 72.288-26.361 21.356-15.361 45.493-32.722 92.041-32.722 46.507 0 70.685 17.361 92.041 32.722 19.685 14.153 36.658 26.361 72.342 26.361 35.699 0 52.658-12.208 72.342-26.361 21.356-15.361 45.548-32.722 92.041-32.722 46.562 0 70.74 17.361 92.096 32.722 19.685 14.153 36.658 26.361 72.342 26.361 35.685 0 52.658-12.208 72.342-26.361 21.356-15.361 45.534-32.722 92.096-32.722v34.569c-35.699 0-52.712 12.194-72.342 26.361-21.411 15.306-45.589 32.667-92.151 32.667z" sketch:type="MSShapeGroup"/><path d="M822.712 824.042c-46.493 0-70.74-17.361-92.041-32.708-19.685-14.167-36.644-26.361-72.342-26.361-35.685 0-52.658 12.194-72.342 26.361-21.356 15.347-45.534 32.708-92.041 32.708-46.493 0-70.685-17.361-92.041-32.708-19.685-14.167-36.644-26.361-72.342-26.361-35.63 0-52.658 12.194-72.288 26.361-21.356 15.347-45.493 32.708-92.041 32.708-46.507 0-70.685-17.361-92.041-32.708-19.685-14.111-36.658-26.319-72.342-26.319v-34.556c46.507 0 70.685 17.361 92.041 32.722 19.685 14.153 36.658 26.361 72.342 26.361 35.644 0 52.658-12.208 72.288-26.361 21.356-15.361 45.493-32.722 92.041-32.722 46.507 0 70.685 17.361 92.041 32.722 19.685 14.153 36.658 26.361 72.342 26.361 35.699 0 52.658-12.208 72.342-26.361 21.356-15.361 45.548-32.722 92.041-32.722 46.562 0 70.74 17.361 92.096 32.722 19.685 14.153 36.658 26.361 72.342 26.361 35.685 0 52.658-12.208 72.342-26.361 21.356-15.361 45.534-32.722 92.096-32.722v34.556c-35.699 0-52.712 12.208-72.342 26.375-21.411 15.292-45.589 32.653-92.151 32.653z" sketch:type="MSShapeGroup"/><path d="M822.712 905.153c-46.493 0-70.74-17.361-92.041-32.708-19.685-14.167-36.644-26.375-72.342-26.375-35.685 0-52.658 12.208-72.342 26.375-21.356 15.347-45.534 32.708-92.041 32.708-46.493 0-70.685-17.361-92.041-32.708-19.685-14.167-36.644-26.375-72.342-26.375-35.63 0-52.658 12.208-72.288 26.375-21.356 15.347-45.493 32.708-92.041 32.708-46.507 0-70.685-17.361-92.041-32.708-19.685-14.111-36.658-26.375-72.342-26.375v-34.556c46.507 0 70.685 17.361 92.041 32.722 19.685 14.153 36.658 26.361 72.342 26.361 35.644 0 52.658-12.208 72.288-26.361 21.356-15.361 45.493-32.722 92.041-32.722 46.507 0 70.685 17.361 92.041 32.722 19.685 14.153 36.658 26.361 72.342 26.361 35.699 0 52.658-12.208 72.342-26.361 21.356-15.361 45.548-32.722 92.041-32.722 46.562 0 70.74 17.361 92.096 32.722 19.685 14.153 36.658 26.361 72.342 26.361 35.685 0 52.658-12.208 72.342-26.361 21.356-15.361 45.534-32.722 92.096-32.722v34.556c-35.699 0-52.712 12.208-72.342 26.375-21.411 15.347-45.589 32.708-92.151 32.708z" sketch:type="MSShapeGroup"/><path d="M822.712 986.264c-46.493 0-70.74-17.361-92.041-32.708-19.685-14.167-36.644-26.375-72.342-26.375-35.685 0-52.658 12.208-72.342 26.375-21.356 15.347-45.534 32.708-92.041 32.708-46.493 0-70.685-17.361-92.041-32.708-19.685-14.167-36.644-26.375-72.342-26.375-35.63 0-52.658 12.208-72.288 26.375-21.356 15.347-45.493 32.708-92.041 32.708-46.507 0-70.685-17.361-92.041-32.708-19.685-14.167-36.658-26.375-72.342-26.375v-34.556c46.507 0 70.685 17.361 92.041 32.708 19.685 14.167 36.658 26.375 72.342 26.375 35.644 0 52.658-12.208 72.288-26.375 21.356-15.347 45.493-32.708 92.041-32.708 46.507 0 70.685 17.361 92.041 32.708 19.685 14.167 36.658 26.375 72.342 26.375 35.699 0 52.658-12.208 72.342-26.375 21.356-15.347 45.548-32.708 92.041-32.708 46.562 0 70.74 17.361 92.096 32.708 19.685 14.167 36.658 26.375 72.342 26.375 35.685 0 52.658-12.208 72.342-26.375 21.356-15.347 45.534-32.708 92.096-32.708v34.556c-35.699 0-52.712 12.208-72.342 26.375-21.411 15.292-45.589 32.708-92.151 32.708z" sketch:type="MSShapeGroup"/></g></svg>
