<svg width="55" height="54" xmlns="http://www.w3.org/2000/svg" xmlns:sketch="http://www.bohemiancoding.com/sketch/ns"><title>zigzag</title><desc>Created with Sketch.</desc><g sketch:type="MSLayerGroup" fill=""><path d="M40.875 0l-13.5 6.75-13.5-6.75-13.5 6.75v6.75l13.5-6.75 13.5 6.75 13.5-6.75 13.5 6.75v-6.75l-13.5-6.75z" sketch:type="MSShapeGroup"/><path d="M27.375 20.25l-13.5-6.75-13.5 6.75v6.75l13.5-6.75 13.5 6.75 13.5-6.75 13.5 6.75v-6.75l-13.5-6.75-13.5 6.75z" sketch:type="MSShapeGroup"/><path d="M27.375 33.75l-13.5-6.75-13.5 6.75v6.75l13.5-6.75 13.5 6.75 13.5-6.75 13.5 6.75v-6.75l-13.5-6.75-13.5 6.75z" sketch:type="MSShapeGroup"/><path d="M27.375 47.25l-13.5-6.75-13.5 6.75v6.75l13.5-6.75 13.5 6.75 13.5-6.75 13.5 6.75v-6.75l-13.5-6.75-13.5 6.75z" sketch:type="MSShapeGroup"/></g></svg>
